<?xml version="1.0" encoding="UTF-8"?>
<svg xmlns="http://www.w3.org/2000/svg" version="1.1" viewBox="0 0 500 500">
  <!-- Generator: Adobe Illustrator 29.5.0, SVG Export Plug-In . SVG Version: 2.1.0 Build 137)  -->
  <defs>
    <style>
      .st0 {
        fill: #c8c8c8;
        mix-blend-mode: multiply;
      }

      .st1 {
        fill: #68c8c6;
      }

      .st2 {
        fill: #faa433;
      }

      .st3 {
        fill: #89422d;
      }

      .st4, .st5 {
        fill: #fff;
      }

      .st6 {
        isolation: isolate;
      }

      .st7 {
        fill: #ef383b;
      }

      .st8 {
        fill: #e0d5b6;
      }

      .st9 {
        fill: #626f7e;
      }

      .st10 {
        fill: #f9a137;
      }

      .st11 {
        fill: #83cfcd;
      }

      .st12 {
        fill: #edb9b9;
      }

      .st5 {
        mix-blend-mode: overlay;
        opacity: .5;
      }
    </style>
  </defs>
  <g class="st6">
    <g id="Layer_1">
      <circle class="st12" cx="250.1" cy="249.9" r="247"/>
      <polygon class="st9" points="439.9 455.8 439.9 455.8 435.1 487.6 439.9 455.8"/>
      <g>
        <path class="st8" d="M360.6,198.5h-.3v-41.5c0-2.7-.5-5.3-1.5-7.6,5-12.5,1.2-30.7-11.3-54.1-3-5.6-8.8-9.1-15.2-9.1s-12.2,3.5-15.2,9.1c-12.5,23.5-16.3,41.6-11.3,54.1-1,2.3-1.5,4.9-1.5,7.6v41.5h-22.6v-41.5c0-2.7-.5-5.3-1.5-7.6,5-12.5,1.2-30.7-11.3-54.1-3-5.6-8.8-9.1-15.2-9.1s-12.2,3.5-15.2,9.1c-12.5,23.5-16.3,41.6-11.3,54.1-1,2.3-1.5,4.9-1.5,7.6v41.5h-22.6v-41.5c0-2.7-.5-5.3-1.5-7.6,5-12.5,1.2-30.7-11.3-54.1-3-5.6-8.8-9.1-15.2-9.1s-12.2,3.5-15.2,9.1c-12.5,23.5-16.3,41.6-11.3,54.1-1,2.3-1.5,4.9-1.5,7.6v41.5h-.3c-28.6,0-51.8,23.3-51.8,51.8v35.7c0,6.8,2.2,13.2,6.1,18.4v75.3c0,8.6,3,16.9,8.4,23.5,1.5,1.8,3.2,3.5,5,5,1.8,1.5,3.8,2.8,5.9,4,5.4,2.9,11.5,4.5,17.6,4.5h231.4c20.4,0,36.9-16.6,36.9-36.9v-75c3.9-5.1,6.1-11.4,6.1-18.1v-36.4c0-28.6-23.3-51.8-51.8-51.8Z"/>
        <path class="st4" d="M353.6,195.4h-.3v-41.5c0-2.7-.5-5.3-1.5-7.6,5-12.5,1.2-30.7-11.3-54.1-3-5.6-8.8-9.1-15.2-9.1s-12.2,3.5-15.2,9.1c-12.5,23.5-16.3,41.6-11.3,54.1-1,2.3-1.5,4.9-1.5,7.6v41.5h-22.6v-41.5c0-2.7-.5-5.3-1.5-7.6,5-12.5,1.2-30.7-11.3-54.1-3-5.6-8.8-9.1-15.2-9.1s-12.2,3.5-15.2,9.1c-12.5,23.5-16.3,41.6-11.3,54.1-1,2.3-1.5,4.9-1.5,7.6v41.5h-22.6v-41.5c0-2.7-.5-5.3-1.5-7.6,5-12.5,1.2-30.7-11.3-54.1-3-5.6-8.8-9.1-15.2-9.1s-12.2,3.5-15.2,9.1c-12.5,23.5-16.3,41.6-11.3,54.1-1,2.3-1.5,4.9-1.5,7.6v41.5h-.3c-28.6,0-51.8,23.3-51.8,51.8v35.7c0,6.8,2.2,13.2,6.1,18.4v75.3c0,8.6,3,16.9,8.4,23.5,1.5,1.8,3.2,3.5,5,5,1.8,1.5,3.8,2.8,5.9,4,5.4,2.9,11.5,4.5,17.6,4.5h231.4c20.4,0,36.9-16.6,36.9-36.9v-75c3.9-5.1,6.1-11.4,6.1-18.1v-36.4c0-28.6-23.3-51.8-51.8-51.8Z"/>
        <g>
          <path class="st2" d="M342.2,212.2h-191.1c-23.8,0-43,19.3-43,43v121.5c0,12.6,10.2,22.8,22.8,22.8h231.4c12.6,0,22.8-10.2,22.8-22.8v-121.5c0-23.8-19.3-43-43-43Z"/>
          <g>
            <g>
              <path class="st1" d="M176.5,148.4h-16.9c-3,0-5.5,2.4-5.5,5.5v77.6h27.9v-77.6c0-3-2.4-5.5-5.5-5.5Z"/>
              <polygon class="st11" points="181.9 167.1 154.1 178.5 154.1 165.5 181.9 154.1 181.9 167.1"/>
              <polygon class="st11" points="181.9 196.1 154.1 207.4 154.1 194.4 181.9 183.1 181.9 196.1"/>
              <polygon class="st11" points="181.9 225.4 154.1 236.8 154.1 223.7 181.9 212.4 181.9 225.4"/>
            </g>
            <path class="st10" d="M170.7,98.8c-1.2-2.2-4.3-2.2-5.5,0-7.1,13.4-24,49.6,2.7,49.6s9.9-36.3,2.7-49.6Z"/>
          </g>
          <g>
            <g>
              <path class="st1" d="M255.1,148.4h-16.9c-3,0-5.5,2.4-5.5,5.5v77.6h27.9v-77.6c0-3-2.4-5.5-5.5-5.5Z"/>
              <polygon class="st11" points="260.6 167.1 232.7 178.5 232.7 165.5 260.6 154.1 260.6 167.1"/>
              <polygon class="st11" points="260.6 196.1 232.7 207.4 232.7 194.4 260.6 183.1 260.6 196.1"/>
              <polygon class="st11" points="260.6 225.4 232.7 236.8 232.7 223.7 260.6 212.4 260.6 225.4"/>
            </g>
            <path class="st10" d="M249.4,98.8c-1.2-2.2-4.3-2.2-5.5,0-7.1,13.4-24,49.6,2.7,49.6s9.9-36.3,2.7-49.6Z"/>
          </g>
          <g>
            <g>
              <path class="st1" d="M333.7,148.4h-16.9c-3,0-5.5,2.4-5.5,5.5v77.6h27.9v-77.6c0-3-2.4-5.5-5.5-5.5Z"/>
              <polygon class="st11" points="339.2 167.1 311.3 178.5 311.3 165.5 339.2 154.1 339.2 167.1"/>
              <polygon class="st11" points="339.2 196.1 311.3 207.4 311.3 194.4 339.2 183.1 339.2 196.1"/>
              <polygon class="st11" points="339.2 225.4 311.3 236.8 311.3 223.7 339.2 212.4 339.2 225.4"/>
            </g>
            <path class="st10" d="M328,98.8c-1.2-2.2-4.3-2.2-5.5,0-7.1,13.4-24,49.6,2.7,49.6s9.9-36.3,2.7-49.6Z"/>
          </g>
          <path class="st7" d="M353.6,209.4h-213.9c-20.8,0-37.7,16.9-37.7,37.7v35.7c0,8.6,6.6,16,15.2,16.3,8.9.3,16.1-6.8,16.1-15.6v-23.2c0-8.6,6.6-16,15.2-16.3,8.9-.3,16.1,6.8,16.1,15.6v19c0,14,10.6,26.2,24.5,27.1,15.3,1,28-11.1,28-26.2v-28.4c0-6.9,5-13,11.9-13.7,7.9-.8,14.5,5.4,14.5,13.1v73c0,5.8,4.3,11.1,10.1,11.6,6.7.6,12.3-4.6,12.3-11.1v-64.7c0-5.8,4.3-11.1,10.1-11.6,6.7-.6,12.3,4.6,12.3,11.1v3.4h0v16.4c0,14,10.6,26.2,24.5,27.1,15.3,1,28-11.1,28-26.2v-27.5c0-5.3,4.3-9.6,9.6-9.6s9.6,4.3,9.6,9.6v30.8c0,8.6,6.6,16,15.2,16.3,8.9.3,16.1-6.8,16.1-15.6v-36.4c0-20.8-16.9-37.7-37.7-37.7Z"/>
          <path class="st3" d="M108.1,376.6c0,12.6,10.2,22.8,22.8,22.8h231.4c12.6,0,22.8-10.2,22.8-22.8v-15.8H108.1v15.8Z"/>
          <g>
            <path class="st5" d="M139.5,234.3c0,7.5-6.1,13.6-13.6,13.6s-13.6-6.1-13.6-13.6,6.1-13.6,13.6-13.6,13.6,6.1,13.6,13.6Z"/>
            <path class="st5" d="M156.9,220.8c0,3-2.5,5.5-5.5,5.5s-5.5-2.5-5.5-5.5,2.5-5.5,5.5-5.5,5.5,2.5,5.5,5.5Z"/>
          </g>
          <rect class="st0" x="108.1" y="351.7" width="277.1" height="9.2"/>
        </g>
      </g>
    </g>
  </g>
</svg>