<?xml version="1.0" encoding="UTF-8"?>
<svg id="Layer_2" data-name="Layer 2" xmlns="http://www.w3.org/2000/svg" viewBox="0 0 750 675">
  <defs>
    <style>
      .cls-1 {
        fill: #f9d70d;
      }

      .cls-2 {
        fill: #f40000;
      }

      .cls-3 {
        fill: #fff;
      }

      .cls-4 {
        fill: #394240;
      }
    </style>
  </defs>
  <g id="Layer_1-2" data-name="Layer 1">
    <g>
      <path class="cls-3" d="M750,112.5v562.5H0V112.5h750Z"/>
      <g>
        <path class="cls-4" d="M112.5,575h75c6.91,0,12.5-5.59,12.5-12.5v-62.5c0-6.91-5.59-12.5-12.5-12.5h-75c-6.91,0-12.5,5.59-12.5,12.5v62.5c0,6.91,5.59,12.5,12.5,12.5ZM125,512.5h50v37.5h-50v-37.5Z"/>
        <path class="cls-4" d="M262.5,575h75c6.91,0,12.5-5.59,12.5-12.5v-62.5c0-6.91-5.59-12.5-12.5-12.5h-75c-6.91,0-12.5,5.59-12.5,12.5v62.5c0,6.91,5.59,12.5,12.5,12.5ZM275,512.5h50v37.5h-50v-37.5Z"/>
        <path class="cls-4" d="M412.5,575h75c6.91,0,12.5-5.59,12.5-12.5v-62.5c0-6.91-5.59-12.5-12.5-12.5h-75c-6.91,0-12.5,5.59-12.5,12.5v62.5c0,6.91,5.59,12.5,12.5,12.5ZM425,512.5h50v37.5h-50v-37.5Z"/>
        <path class="cls-2" d="M562.5,575h75c6.91,0,12.5-5.59,12.5-12.5v-62.5c0-6.91-5.59-12.5-12.5-12.5h-75c-6.91,0-12.5,5.59-12.5,12.5v62.5c0,6.91,5.59,12.5,12.5,12.5ZM575,512.5h50v37.5h-50v-37.5Z"/>
        <path class="cls-4" d="M112.5,437.5h75c6.91,0,12.5-5.59,12.5-12.5v-62.5c0-6.91-5.59-12.5-12.5-12.5h-75c-6.91,0-12.5,5.59-12.5,12.5v62.5c0,6.91,5.59,12.5,12.5,12.5ZM125,375h50v37.5h-50v-37.5Z"/>
        <path class="cls-4" d="M262.5,437.5h75c6.91,0,12.5-5.59,12.5-12.5v-62.5c0-6.91-5.59-12.5-12.5-12.5h-75c-6.91,0-12.5,5.59-12.5,12.5v62.5c0,6.91,5.59,12.5,12.5,12.5ZM275,375h50v37.5h-50v-37.5Z"/>
        <path class="cls-4" d="M412.5,437.5h75c6.91,0,12.5-5.59,12.5-12.5v-62.5c0-6.91-5.59-12.5-12.5-12.5h-75c-6.91,0-12.5,5.59-12.5,12.5v62.5c0,6.91,5.59,12.5,12.5,12.5ZM425,375h50v37.5h-50v-37.5Z"/>
        <path class="cls-2" d="M562.5,437.5h75c6.91,0,12.5-5.59,12.5-12.5v-62.5c0-6.91-5.59-12.5-12.5-12.5h-75c-6.91,0-12.5,5.59-12.5,12.5v62.5c0,6.91,5.59,12.5,12.5,12.5ZM575,375h50v37.5h-50v-37.5Z"/>
        <path class="cls-4" d="M112.5,300h75c6.91,0,12.5-5.59,12.5-12.5v-62.5c0-6.91-5.59-12.5-12.5-12.5h-75c-6.91,0-12.5,5.59-12.5,12.5v62.5c0,6.91,5.59,12.5,12.5,12.5ZM125,237.5h50v37.5h-50v-37.5Z"/>
        <path class="cls-4" d="M262.5,300h75c6.91,0,12.5-5.59,12.5-12.5v-62.5c0-6.91-5.59-12.5-12.5-12.5h-75c-6.91,0-12.5,5.59-12.5,12.5v62.5c0,6.91,5.59,12.5,12.5,12.5ZM275,237.5h50v37.5h-50v-37.5Z"/>
        <path class="cls-4" d="M412.5,300h75c6.91,0,12.5-5.59,12.5-12.5v-62.5c0-6.91-5.59-12.5-12.5-12.5h-75c-6.91,0-12.5,5.59-12.5,12.5v62.5c0,6.91,5.59,12.5,12.5,12.5ZM425,237.5h50v37.5h-50v-37.5Z"/>
        <path class="cls-2" d="M562.5,300h75c6.91,0,12.5-5.59,12.5-12.5v-62.5c0-6.91-5.59-12.5-12.5-12.5h-75c-6.91,0-12.5,5.59-12.5,12.5v62.5c0,6.91,5.59,12.5,12.5,12.5ZM575,237.5h50v37.5h-50v-37.5Z"/>
      </g>
      <g>
        <path class="cls-1" d="M750,112.5H0V0h112.5v62.77c0,3.02,1.74,7.27,3.9,9.38,32.38,31.7,71.1,9.3,71.1-22.16V0h375v62.77c0,3.02,1.74,7.27,3.9,9.38,32.38,31.7,71.1,9.3,71.1-22.16V0h112.5v112.5Z"/>
        <rect class="cls-1" x="93" width="600" height="98.89"/>
      </g>
    </g>
  </g>
</svg>