<?xml version="1.0" encoding="UTF-8"?>
<svg id="Layer_1" xmlns="http://www.w3.org/2000/svg" version="1.1" viewBox="0 0 500 500">
  <!-- Generator: Adobe Illustrator 29.5.0, SVG Export Plug-In . SVG Version: 2.1.0 Build 137)  -->
  <defs>
    <style>
      .st0 {
        fill: #fff9fa;
      }

      .st1 {
        fill: #f8d711;
      }

      .st2 {
        fill: #fff;
      }

      .st3 {
        fill: #ed1c24;
      }

      .st4 {
        fill: #3d4644;
      }

      .st5 {
        fill: #eeb9b9;
      }

      .st6 {
        fill: #fbfcfc;
      }

      .st7 {
        fill: #3b4542;
      }
    </style>
  </defs>
  <path class="st5" d="M500.1,233.9c0,10.8,0,21.7,0,32.8-.2,1.1-.3,1.9-.3,2.7-.2,2.7-.2,5.4-.5,8.1-.4,3.8-1,7.6-1.6,11.4-.8,5.8-2,11.6-3.3,17.4-2.5,10.8-5.7,21.3-9.5,31.6-2.7,7.2-5.7,14.2-9,21.2-3.2,6.7-6.8,13.3-10.7,19.7-3.9,6.5-8,12.8-12.5,18.8-3.6,4.9-7.2,9.7-11.2,14.2-2.9,3.3-5.7,6.7-8.8,9.9-5.6,5.8-11.3,11.4-17.4,16.7-3.8,3.3-7.6,6.4-11.5,9.5-7,5.4-14.2,10.4-21.7,15.1-5.3,3.3-10.8,6.4-16.3,9.3-8.6,4.4-17.4,8.4-26.5,11.8-8,3-16.1,5.6-24.4,7.8-6.7,1.8-13.4,3.3-20.2,4.4-3.4.6-6.9,1.1-10.3,1.6-2.7.4-5.4.6-8,.9-3.2.4-6.3.7-9.5.8-.6,0-1.3,0-1.8.4-9.3,0-18.5,0-28.1-.1-.5-.2-.8-.2-1-.2-3.8,0-7.5-.5-11.3-.9-4.5-.4-8.9-1-13.3-1.7-6.5-1-12.9-2.3-19.2-3.8-8.4-2-16.7-4.5-24.9-7.4-8.8-3.1-17.4-6.8-25.8-10.8-6.6-3.2-13-6.8-19.3-10.5-7-4.2-13.8-8.8-20.4-13.6-4.6-3.4-9-6.9-13.3-10.7-3.5-3.1-7-6.1-10.3-9.2-3.6-3.4-7-6.9-10.3-10.5-3.3-3.6-6.6-7.3-9.7-11-4.6-5.5-8.9-11.1-12.9-17-2.7-3.9-5.3-7.9-7.8-12-2.7-4.5-5.3-9.1-7.8-13.7-3.1-5.8-5.9-11.7-8.5-17.7-2.6-6-5-12.1-7.1-18.3-1.3-3.8-2.5-7.7-3.6-11.6-1.4-5-2.7-10-3.8-15.1-1.1-4.8-2-9.7-2.8-14.6-.6-3.6-1-7.2-1.4-10.8-.2-1.8-.4-3.7-.5-5.5-.2-2.8-.6-5.5-.7-8.3,0-2.7-.3-5.4-.6-8.1,0-.3-.2-.5-.3-.8,0-3.9,0-7.7.1-11.9.4-2.4.7-4.5.7-6.7,0-3.2.2-6.4.5-9.6.3-3.2.7-6.3,1.1-9.5.6-4.1,1.1-8.2,1.8-12.2.9-5.7,2.2-11.3,3.6-16.9,2.1-8.2,4.5-16.3,7.4-24.3,3.8-10.3,8.1-20.4,13.2-30,2.3-4.4,4.7-8.8,7.2-13.1,4.2-7.1,8.8-14,13.7-20.6,3.3-4.5,6.7-8.8,10.3-13,3.2-3.7,6.4-7.4,9.8-10.9,6.2-6.5,12.8-12.8,19.7-18.5,3.4-2.8,6.8-5.6,10.3-8.3,5.9-4.6,12.1-8.8,18.4-12.7,4.9-3,9.7-5.9,14.8-8.5,9-4.8,18.3-9.1,27.9-12.8,8.8-3.3,17.7-6.2,26.8-8.6,6.9-1.8,13.8-3.3,20.8-4.4,3.7-.6,7.4-1.3,11.2-1.6,1.4-.1,2.8-.3,4.2-.5,2.2-.2,4.4-.5,6.6-.7,3.2-.2,6.4-.3,9.6-.5.5,0,.9-.2,1.4-.4,6,0,12,0,18.3.1.5.2.8.3,1,.3,2.4,0,4.8.2,7.2.4,3.3.3,6.7.5,10,.9,3.9.5,7.8.8,11.6,1.5,6,1,12,2.2,18,3.5,9.1,2.1,18,4.7,26.8,7.8,10.7,3.8,21,8.3,31.1,13.5,4.5,2.3,8.9,4.7,13.2,7.3,6.5,3.9,12.9,8.1,19,12.6,4.8,3.5,9.6,7.1,14.1,11.1,3,2.6,6.1,5.1,9,7.9,6.7,6.4,13.3,12.9,19.2,20,3.1,3.7,6.2,7.4,9.2,11.2,4.6,5.9,8.8,12,12.8,18.3,4,6.3,7.7,12.6,11,19.2,1.8,3.6,3.6,7.3,5.3,10.9,1.7,3.6,3.3,7.3,4.7,11,2.8,7.1,5.4,14.4,7.5,21.8,1,3.3,1.9,6.7,2.7,10.1,1,4.4,2,8.7,2.9,13.1.8,3.9,1.4,7.8,2,11.8.4,2.5.6,4.9.9,7.4.4,3,.8,5.9.8,8.9,0,.8,0,1.6,0,2.3,0,.4.2.8.4,1.2M90.6,154.4c0,.8,0,1.6,0,2.3,0,78,0,156,0,234,0,.6,0,1.3,0,1.9,0,.4.2.8.3,1.2,1,.4,1.9.3,2.8.3,104.7,0,209.3,0,314,0,.6,0,1.1,0,1.7,0,.4,0,.8-.2,1.3-.3,0-1,0-1.9,0-2.8,0-78.1,0-156.1,0-234.2,0-.9,0-1.8,0-3.2,0-15.1,0-30.2,0-45.2,0-.4,0-.7,0-1.1,0-.4-.2-.8-.3-1.2-1.1-.3-2.1-.2-3.1-.2-104.5,0-209,0-313.5,0-.6,0-1.3,0-1.9,0-.4,0-.8.2-1.2.2-.3.9-.2,1.8-.2,2.6,0,14.2,0,28.5,0,42.7,0,.9,0,1.7,0,3Z"/>
  <path class="st2" d="M410.8,154c0,.9,0,1.8,0,2.8,0,78.1,0,156.1,0,234.2,0,.9,0,1.8,0,2.8-.5.1-.9.3-1.3.3-.6,0-1.1,0-1.7,0-104.7,0-209.3,0-314,0-.9,0-1.8.2-2.8-.3,0-.4-.2-.7-.3-1.2,0-.6,0-1.3,0-1.9,0-78,0-156,0-234,0-.8,0-1.6.2-2.5,105.9-.2,211.7-.2,317.4-.2.9,0,1.7,0,2.6,0M368.1,204.7c0-.9,0-1.9,0-2.8-.2-3.1-2.3-5.1-5.4-5.2-.4,0-.7,0-1.1,0-10,0-19.9,0-29.9,0-.5,0-1,0-1.5,0-2.6.2-4.6,2.2-4.8,4.8,0,.5,0,1,0,1.5,0,8.2,0,16.5,0,24.7,0,.4,0,.9,0,1.3.2,2.8,2.2,4.8,4.9,5,.5,0,1,0,1.5,0,10,0,19.9,0,29.9,0,.5,0,1,0,1.5,0,2.3-.2,4.2-1.7,4.7-4,.2-.8.2-1.7.2-2.5,0-7.5,0-14.9,0-22.8M358.6,351.4c1.5,0,3,0,4.5,0,2.4-.1,4.3-1.7,4.8-4.1.1-.6.2-1.3.2-1.9,0-8.5,0-16.9,0-25.4,0-.4,0-.7,0-1.1-.3-2.8-2.4-4.8-5.3-4.9-.4,0-.7,0-1.1,0-10,0-20.1,0-30.1,0-.4,0-.9,0-1.3,0-2.7.2-4.8,2.2-4.9,4.9,0,.5,0,1,0,1.5,0,8.1,0,16.2,0,24.3,0,.6,0,1.1,0,1.7.2,2.6,2.2,4.6,4.8,4.8.6,0,1.3,0,1.9,0,8.7,0,17.4,0,26.4,0M303.9,346.9c0-.3,0-.6,0-.8,0-8.7,0-17.4,0-26,0-.4,0-.7,0-1.1-.3-2.8-2.4-4.7-5.3-4.8-.4,0-.7,0-1.1,0-10,0-19.9,0-29.9,0-.5,0-1,0-1.5,0-2.6.2-4.7,2.2-4.9,4.8,0,.5,0,1,0,1.5,0,8.3,0,16.5,0,24.8,0,.5,0,1,0,1.5,0,1.5.8,2.7,1.9,3.7,1.1.9,2.4,1.1,3.8,1.1,10.4,0,20.8,0,31.2,0,3.1,0,4.7-1.2,5.7-4.5M204.1,351.4c9.7,0,19.3,0,29,0,.6,0,1.3,0,1.9,0,2.3-.2,4.1-1.7,4.7-4,.2-.8.2-1.5.2-2.3,0-8.2,0-16.4,0-24.5,0-.6,0-1.3,0-1.9-.4-2.7-2.5-4.4-5.1-4.5-.4,0-.9,0-1.3,0-9.9,0-19.8,0-29.7,0-.5,0-1,0-1.5,0-2.7.1-4.8,2.2-5,4.9,0,.5,0,1,0,1.5,0,8.2,0,16.4,0,24.5,0,.5,0,1,0,1.5.2,2.7,2.1,4.7,4.8,4.9.6,0,1.1,0,2.1,0M175.9,339.6c0-6.3,0-12.7,0-19,0-.7,0-1.4-.1-2.1-.5-2.6-2.5-4.2-5.1-4.3-.4,0-.9,0-1.3,0-10,0-19.9,0-29.9,0-.5,0-1,0-1.5,0-2.6.2-4.6,2.2-4.8,4.8,0,.5,0,1,0,1.5,0,8.2,0,16.4,0,24.5,0,.6,0,1.1,0,1.7.2,2.5,2.2,4.5,4.7,4.7.6,0,1.1,0,1.7,0,10,0,19.9,0,29.9,0,.6,0,1.1,0,1.7,0,2.1-.2,3.9-1.7,4.4-3.8.2-.7.2-1.4.3-2.1,0-1.8,0-3.7,0-6M304,201.9c0-.4-.1-.7-.2-1.1-.5-2.5-3-4.3-5.2-4.2-.4,0-.7,0-1.1,0-10,0-19.9,0-29.9,0-.5,0-1,0-1.5,0-2.6.2-4.6,2.2-4.9,4.8,0,.4,0,.9,0,1.3,0,8.4,0,16.8,0,25.2,0,.4,0,.9,0,1.3.2,2.5,2.2,4.5,4.7,4.7.6,0,1.1,0,1.7,0,10,0,19.9,0,29.9,0,.5,0,1,0,1.5,0,2.3-.2,4.2-1.7,4.7-4,.2-.8.2-1.7.2-2.5,0-8.4,0-16.8,0-25.6M240,214.9c0-3.9,0-7.8,0-11.7,0-.6,0-1.3,0-1.9-.4-2.7-2.4-4.4-5.1-4.5-.4,0-.7,0-1.1,0-10.1,0-20.2,0-30.3,0-.4,0-.9,0-1.3,0-2.6.2-4.6,2.2-4.8,4.8,0,.5,0,1,0,1.5,0,8.2,0,16.4,0,24.5,0,.6,0,1.1,0,1.7.2,2.5,2.2,4.5,4.7,4.7.4,0,.9,0,1.3,0,10.2,0,20.3,0,30.5,0,.4,0,.9,0,1.3,0,2.3-.2,4.2-1.7,4.7-4,.2-.8.2-1.5.2-2.3,0-4.1,0-8.2,0-12.8M139.2,196.7c-.3,0-.6,0-.9,0-3,.2-5,2.2-5.1,5.2,0,.4,0,.9,0,1.3,0,8.1,0,16.2,0,24.3,0,.6,0,1.1,0,1.7.2,2.6,2.2,4.6,4.8,4.8.6,0,1.1,0,1.7,0,9.8,0,19.6,0,29.4,0,.6,0,1.1,0,1.7,0,2.4-.2,4.3-1.7,4.8-4.1.2-.8.2-1.6.2-2.3,0-8.1,0-16.2,0-24.3,0-.5,0-1,0-1.5-.3-3-2.4-4.9-5.3-5-.6,0-1.1,0-1.7,0-9.7,0-19.5,0-29.6,0M366.8,257.3c-1.3-1.5-3-2-5-2-10.1,0-20.2,0-30.3,0-.4,0-.9,0-1.3,0-2.9.3-4.8,2.3-4.9,5.2,0,.4,0,.9,0,1.3,0,8.1,0,16.2,0,24.3,0,.6,0,1.1,0,1.7,0,1.2.5,2.2,1.3,3.1,1.1,1.2,2.4,1.8,4,1.8,10.7,0,21.5,0,32.2,0,.4,0,.8,0,1.3-.2,2.5-.7,4-2.7,4-5.6,0-8.6,0-17.2,0-25.8,0-1.3-.3-2.5-1.3-3.9M261.3,271.7c0,2.6,0,5.1,0,7.7,0,2.7,0,5.4,0,8.1,0,2.8,2.4,5.3,5.3,5.3.4,0,.7,0,1.1,0,10,0,20.1,0,30.1,0,.4,0,.9,0,1.3,0,2.4-.2,4.3-1.8,4.8-4.1.1-.6.2-1.3.2-1.9,0-8.4,0-16.8,0-25.2,0-.6,0-1.1-.1-1.7-.4-2.3-2-4-4.4-4.4-.6-.1-1.3-.1-1.9-.1-10,0-20.1,0-30.1,0-.6,0-1.3,0-1.9.1-2,.4-3.3,1.5-4,3.4-.3.7-.3,1.5-.3,2.3,0,3.3,0,6.7,0,10.5M239.1,290.3c.7-1.1.8-2.4.8-3.7,0-8.3,0-16.6,0-24.9,0-.8,0-1.6-.2-2.3-.5-1.9-1.8-3.2-3.7-3.7-.7-.2-1.4-.2-2.1-.2-10.2,0-20.5,0-30.7,0-.6,0-1.3,0-1.9.2-2.3.5-3.8,2.4-4,4.7,0,.5,0,1,0,1.5,0,8.2,0,16.3,0,24.5,0,.6,0,1.1,0,1.7.2,2.1,1.3,3.5,3.2,4.4.9.4,1.8.4,2.7.4,10.2,0,20.5,0,30.7,0,2.1,0,3.8-.6,5.2-2.5M175.9,263.6c0-1,0-2,0-3-.2-3-2.2-5-5.2-5.2-.3,0-.6,0-.9,0-10.2,0-20.5,0-30.7,0-.6,0-1.3,0-1.9.2-2.3.5-3.8,2.4-4,4.7,0,.5,0,1,0,1.5,0,8.2,0,16.4,0,24.5,0,.5,0,1,0,1.5,0,2.2,1.9,4.7,4.9,5,.4,0,.7,0,1.1,0,10.2,0,20.5,0,30.7,0,.3,0,.6,0,.9,0,2.6-.2,4.6-1.9,5-4.4.1-.7.1-1.4.1-2.1,0-7.4,0-14.8,0-22.6Z"/>
  <path class="st1" d="M410.8,153.8c-.8.2-1.7.2-2.6.2-105.7,0-211.5,0-317.4,0-.2-.9-.3-1.7-.3-2.6,0-14.2,0-28.5,0-42.7,0-.8-.1-1.7.2-2.6.4,0,.8-.2,1.2-.2.6,0,1.3,0,1.9,0,104.5,0,209,0,313.5,0,1,0,2-.1,3.1.2,0,.4.2.7.3,1.2,0,.3,0,.7,0,1.1,0,15.1,0,30.2,0,45.4Z"/>
  <path class="st3" d="M368.1,204.9c0,7.7,0,15.1,0,22.6,0,.8,0,1.7-.2,2.5-.5,2.3-2.4,3.8-4.7,4-.5,0-1,0-1.5,0-10,0-19.9,0-29.9,0-.5,0-1,0-1.5,0-2.7-.2-4.7-2.2-4.9-5,0-.4,0-.9,0-1.3,0-8.2,0-16.5,0-24.7,0-.5,0-1,0-1.5.2-2.6,2.2-4.6,4.8-4.8.5,0,1,0,1.5,0,10,0,19.9,0,29.9,0,.4,0,.7,0,1.1,0,3.1,0,5.2,2.1,5.4,5.2,0,.9,0,1.8,0,3M353,223.3c1.4,0,2.8.1,4.2-.1.3-2.2.3-14,0-15.8-1.7,0-3.5,0-5.2,0-1.7,0-3.4,0-5.1,0s-3.6,0-5.3,0c-1.8,0-3.5-.2-5.2.1-.2,2.3-.2,13.9,0,15.6,0,0,.1.1.2.1,5.4,0,10.8,0,16.6,0Z"/>
  <path class="st3" d="M358.4,351.4c-8.9,0-17.6,0-26.2,0-.6,0-1.3,0-1.9,0-2.6-.2-4.6-2.2-4.8-4.8,0-.6,0-1.1,0-1.7,0-8.1,0-16.2,0-24.3,0-.5,0-1,0-1.5.2-2.7,2.2-4.8,4.9-4.9.4,0,.9,0,1.3,0,10,0,20.1,0,30.1,0,.4,0,.7,0,1.1,0,2.9.1,5,2,5.3,4.9,0,.4,0,.7,0,1.1,0,8.5,0,16.9,0,25.4,0,.6,0,1.3-.2,1.9-.5,2.4-2.4,4-4.8,4.1-1.5,0-3,0-4.7,0M355.9,324.8c-6,0-12.1,0-18.1,0-.5,0-1.1,0-1.7.1,0,.5,0,.8,0,1.2,0,4.7,0,9.4,0,14.1,0,0,0,.1,0,.2,0,0,0,.1.2.2.1,0,.3.1.5.1,6.5,0,13.1,0,19.6,0,.3,0,.5-.1.7-.2.2-1.6.3-13,.1-15.2,0-.1-.1-.2-.2-.4-.2,0-.5,0-1.2-.1Z"/>
  <path class="st7" d="M303.9,347.1c-1,3.1-2.6,4.4-5.7,4.4-10.4,0-20.8,0-31.2,0-1.4,0-2.7-.2-3.8-1.1-1.1-1-1.9-2.1-1.9-3.7,0-.5,0-1,0-1.5,0-8.3,0-16.5,0-24.8,0-.5,0-1,0-1.5.2-2.6,2.3-4.6,4.9-4.8.5,0,1,0,1.5,0,10,0,19.9,0,29.9,0,.4,0,.7,0,1.1,0,2.9,0,5,2,5.3,4.8,0,.4,0,.7,0,1.1,0,8.7,0,17.4,0,26,0,.3,0,.6-.1,1M272,332.3c0,2.7,0,5.4,0,8.1,0,0,0,.1.3.3.1,0,.4,0,.7,0,6.4,0,12.8,0,19.2,0,.3,0,.7-.1,1.1-.2,0-.4,0-.8,0-1.1,0-4.7,0-9.4,0-14.1,0-.1-.1-.2-.2-.4-.2,0-.4-.1-.6-.1-6.7,0-13.4,0-20,0,0,0-.1,0-.2,0,0,0-.1,0-.3.2,0,2.2,0,4.4,0,7.1Z"/>
  <path class="st7" d="M203.9,351.4c-.8,0-1.3,0-1.9,0-2.6-.2-4.6-2.2-4.8-4.9,0-.5,0-1,0-1.5,0-8.2,0-16.4,0-24.5,0-.5,0-1,0-1.5.2-2.7,2.3-4.7,5-4.9.5,0,1,0,1.5,0,9.9,0,19.8,0,29.7,0,.4,0,.9,0,1.3,0,2.7.1,4.7,1.9,5.1,4.5.1.6,0,1.3,0,1.9,0,8.2,0,16.4,0,24.5,0,.8,0,1.6-.2,2.3-.5,2.3-2.4,3.8-4.7,4-.6,0-1.3,0-1.9,0-9.7,0-19.3,0-29.2,0M217.2,324.8c-2.9,0-5.8,0-8.7,0-.1,0-.2.1-.5.3-.1,1.7,0,3.4,0,5.2,0,1.7,0,3.4,0,5.1,0,1.7-.2,3.5.2,5.2,3,.3,19.4.2,21-.1,0-.2.1-.5.1-.8,0-4.7,0-9.4,0-14.1,0-.3-.1-.5-.3-.9-3.8,0-7.6,0-11.8,0Z"/>
  <path class="st7" d="M175.9,339.8c0,2.1,0,3.9,0,5.8,0,.7,0,1.4-.3,2.1-.5,2.1-2.3,3.5-4.4,3.8-.6,0-1.1,0-1.7,0-10,0-19.9,0-29.9,0-.6,0-1.1,0-1.7,0-2.5-.2-4.5-2.2-4.7-4.7,0-.6,0-1.1,0-1.7,0-8.2,0-16.4,0-24.5,0-.5,0-1,0-1.5.2-2.6,2.2-4.6,4.8-4.8.5,0,1,0,1.5,0,10,0,19.9,0,29.9,0,.4,0,.9,0,1.3,0,2.6.1,4.6,1.8,5.1,4.3.1.7.1,1.4.1,2.1,0,6.3,0,12.7,0,19.2M165.2,337.4c0-3.7,0-7.4,0-11.1,0-.5-.1-.9-.2-1.5-6.9,0-13.6,0-20.4,0-.2,0-.4.1-.7.2,0,.4,0,.8,0,1.2,0,4.4,0,8.8,0,13.2,0,.4.1.8.2,1.2,3.3.3,19.4.2,21-.1.3-.9,0-1.8.2-3.1Z"/>
  <path class="st7" d="M304,202.1c0,8.6,0,17,0,25.4,0,.8,0,1.7-.2,2.5-.5,2.3-2.4,3.8-4.7,4-.5,0-1,0-1.5,0-10,0-19.9,0-29.9,0-.6,0-1.1,0-1.7,0-2.5-.2-4.5-2.2-4.7-4.7,0-.4,0-.9,0-1.3,0-8.4,0-16.8,0-25.2,0-.4,0-.9,0-1.3.2-2.6,2.2-4.6,4.9-4.8.5,0,1,0,1.5,0,10,0,19.9,0,29.9,0,.4,0,.7,0,1.1,0,2.2-.2,4.8,1.6,5.2,4.2,0,.3.1.7.2,1.2M282.1,207.4c-3.2,0-6.4,0-9.6,0-.1,0-.2.1-.5.3-.1,1.7,0,3.4,0,5.2,0,1.7,0,3.4,0,5.1,0,1.7-.2,3.5.2,5.2,3,.3,19.4.2,21-.1,0-.2.1-.5.1-.8,0-4.7,0-9.4,0-14.1,0-.3-.1-.5-.3-.9h-10.9Z"/>
  <path class="st7" d="M240,215.1c0,4.3,0,8.5,0,12.6,0,.8,0,1.6-.2,2.3-.5,2.3-2.4,3.8-4.7,4-.4,0-.9,0-1.3,0-10.2,0-20.3,0-30.5,0-.4,0-.9,0-1.3,0-2.5-.2-4.5-2.2-4.7-4.7,0-.6,0-1.1,0-1.7,0-8.2,0-16.4,0-24.5,0-.5,0-1,0-1.5.2-2.6,2.2-4.6,4.8-4.8.4,0,.9,0,1.3,0,10.1,0,20.2,0,30.3,0,.4,0,.7,0,1.1,0,2.7.1,4.7,1.9,5.1,4.5.1.6,0,1.3,0,1.9,0,3.9,0,7.8,0,11.9M207.9,222.1c0,.4.2.8.3,1.2,6.9,0,13.6,0,20.4,0,.2,0,.4-.1.6-.3,0-.3,0-.7,0-1,0-4.7,0-9.4,0-14.1,0-.1-.1-.2-.3-.5-1.7-.2-3.5,0-5.2,0-1.7,0-3.4,0-5.1,0s-3.6,0-5.3,0c-1.7,0-3.5-.2-5.4.2,0,4.8,0,9.4,0,14.5Z"/>
  <path class="st7" d="M139.4,196.7c9.9,0,19.7,0,29.4,0,.6,0,1.1,0,1.7,0,3,0,5.1,2.1,5.3,5,0,.5,0,1,0,1.5,0,8.1,0,16.2,0,24.3,0,.8,0,1.6-.2,2.3-.5,2.4-2.4,4-4.8,4.1-.6,0-1.1,0-1.7,0-9.8,0-19.6,0-29.4,0-.6,0-1.1,0-1.7,0-2.6-.2-4.6-2.2-4.8-4.8,0-.6,0-1.1,0-1.7,0-8.1,0-16.2,0-24.3,0-.4,0-.9,0-1.3.1-3,2.1-5,5.1-5.2.3,0,.6,0,1.1,0M154.1,223.3c1.8,0,3.7,0,5.5,0,1.8,0,3.7.2,5.5-.2,0-.4.1-.6.1-.9,0-4.8,0-9.5,0-14.3,0-.1-.1-.2-.3-.5-1.7-.1-3.4,0-5.2,0-1.7,0-3.4,0-5.1,0s-3.6,0-5.3,0c-1.8,0-3.5-.2-5.2.1-.3,2.3-.2,13.9,0,15.6,0,0,0,.1.2.1,3.1,0,6.3,0,9.8,0Z"/>
  <path class="st3" d="M366.9,257.4c.9,1.2,1.2,2.4,1.2,3.7,0,8.6,0,17.2,0,25.8,0,2.9-1.5,4.9-4,5.6-.4.1-.8.2-1.3.2-10.7,0-21.5,0-32.2,0-1.6,0-2.9-.6-4-1.8-.8-.9-1.3-1.9-1.3-3.1,0-.6,0-1.1,0-1.7,0-8.1,0-16.2,0-24.3,0-.4,0-.9,0-1.3.1-2.9,2-4.9,4.9-5.2.4,0,.9,0,1.3,0,10.1,0,20.2,0,30.3,0,1.9,0,3.7.4,5.1,2.1M336,268.3c0,4.4,0,8.8,0,13.2,0,.1.1.2.2.4.1,0,.2.2.4.2,6.1,0,12.2,0,18.3,0,.6,0,1.3,0,1.9,0,0,0,.1,0,.2,0,0,0,0-.1.2-.2,0-.1.1-.3.1-.5,0-4.8,0-9.5,0-14.3,0-.3-.1-.5-.3-.9-6.7,0-13.4,0-20.1,0-.3,0-.5,0-.9.2,0,.6,0,1.2-.1,2.1Z"/>
  <path class="st4" d="M261.3,271.5c0-3.6,0-6.9,0-10.2,0-.8,0-1.6.3-2.3.7-1.9,2-3.1,4-3.4.6-.1,1.3-.1,1.9-.1,10,0,20.1,0,30.1,0,.6,0,1.3,0,1.9.1,2.3.4,4,2,4.4,4.4,0,.6.1,1.1.1,1.7,0,8.4,0,16.8,0,25.2,0,.6,0,1.3-.2,1.9-.5,2.3-2.4,4-4.8,4.1-.4,0-.9,0-1.3,0-10,0-20.1,0-30.1,0-.4,0-.7,0-1.1,0-2.9,0-5.3-2.5-5.3-5.3,0-2.7,0-5.4,0-8.1,0-2.6,0-5.1,0-7.9M287.3,282.1c1,0,2,0,3,0,1,0,2,.2,2.9-.1,0-.3.2-.5.2-.7,0-4.8,0-9.5,0-14.3,0-.3-.1-.5-.2-.8-.3,0-.6-.1-.9-.1-6.5,0-13.1,0-19.6,0-.1,0-.3.1-.4.2,0,.2-.2.4-.2.6,0,4.8,0,9.5,0,14.3,0,.3,0,.5.1.7.2.1.3.2.5.2,4.8,0,9.5,0,14.7,0Z"/>
  <path class="st4" d="M239,290.4c-1.3,1.8-3.1,2.4-5.1,2.4-10.2,0-20.5,0-30.7,0-.9,0-1.9,0-2.7-.4-1.9-.9-3-2.3-3.2-4.4,0-.6,0-1.1,0-1.7,0-8.2,0-16.3,0-24.5,0-.5,0-1,0-1.5.2-2.3,1.7-4.1,4-4.7.6-.1,1.3-.2,1.9-.2,10.2,0,20.5,0,30.7,0,.7,0,1.4,0,2.1.2,1.9.5,3.2,1.8,3.7,3.7.2.7.2,1.5.2,2.3,0,8.3,0,16.6,0,24.9,0,1.3-.1,2.5-.9,3.8M207.9,271.3c0,3.1,0,6.2,0,9.4,0,.5.1.9.2,1.5.6,0,1,0,1.4,0,6.4,0,12.8,0,19.2,0,0,0,.1,0,.2,0,0,0,0,0,.2-.2,0,0,.1-.2.1-.3,0-4.3,0-8.7,0-13,0-.6,0-1.3,0-1.9,0,0,0-.1,0-.2,0,0,0-.1-.2-.2-.2,0-.4-.1-.7-.1-6.4,0-12.8,0-19.2,0-.3,0-.6.1-1.1.2,0,1.6,0,3.1,0,5Z"/>
  <path class="st4" d="M175.9,263.8c0,7.6,0,15,0,22.4,0,.7,0,1.4-.1,2.1-.5,2.5-2.4,4.3-5,4.4-.3,0-.6,0-.9,0-10.2,0-20.5,0-30.7,0-.4,0-.7,0-1.1,0-3-.2-4.9-2.7-4.9-5,0-.5,0-1,0-1.5,0-8.2,0-16.4,0-24.5,0-.5,0-1,0-1.5.2-2.3,1.7-4.1,4-4.7.6-.1,1.3-.2,1.9-.2,10.2,0,20.5,0,30.7,0,.3,0,.6,0,.9,0,3,.2,5,2.3,5.2,5.2,0,1,0,2,0,3.2M165.2,279.7c0-4,0-8,0-11.9,0-.5.2-1.1-.5-1.7-6.5,0-13.2,0-19.9,0-.3,0-.5.1-1,.2,0,2.6,0,5.3,0,7.9,0,2.6-.2,5.2.1,7.8.3,0,.5.2.7.2,6.5,0,13.1,0,19.6,0,.3,0,.5-.1.9-.2,0-.6,0-1.2,0-2.1Z"/>
  <path class="st2" d="M352.8,223.3c-5.6,0-11,0-16.4,0,0,0-.1,0-.2-.1-.2-1.7-.3-13.3,0-15.6,1.7-.3,3.5-.1,5.2-.1,1.8,0,3.6,0,5.3,0s3.4,0,5.1,0c1.8,0,3.5,0,5.2,0,.3,1.8.4,13.7,0,15.8-1.4.2-2.8,0-4.4.1Z"/>
  <path class="st2" d="M356.1,324.8c.5,0,.8,0,1,.1.1.2.2.3.2.4.1,2.3,0,13.6-.1,15.2-.2,0-.5.2-.7.2-6.5,0-13.1,0-19.6,0-.2,0-.4,0-.5-.1-.1-.1-.2-.2-.2-.2,0,0,0-.1,0-.2,0-4.7,0-9.4,0-14.1,0-.4,0-.7,0-1.2.6,0,1.1-.1,1.7-.1,6,0,12.1,0,18.3,0Z"/>
  <path class="st2" d="M272,332.1c0-2.5,0-4.7,0-6.9.2-.2.2-.2.3-.2,0,0,.1,0,.2,0,6.7,0,13.4,0,20,0,.2,0,.4,0,.6.1,0,.2.2.3.2.4,0,4.7,0,9.4,0,14.1,0,.3,0,.7,0,1.1-.4,0-.7.2-1.1.2-6.4,0-12.8,0-19.2,0-.3,0-.5,0-.7,0-.2-.2-.3-.2-.3-.3,0-2.7,0-5.4,0-8.3Z"/>
  <path class="st2" d="M217.5,324.8h11.6c.1.4.3.6.3.9,0,4.7,0,9.4,0,14.1,0,.3,0,.5-.1.8-1.6.3-18,.4-21,.1-.4-1.7-.1-3.5-.2-5.2,0-1.7,0-3.4,0-5.1,0-1.8,0-3.5,0-5.2.3-.1.4-.3.5-.3,2.9,0,5.8,0,9,0Z"/>
  <path class="st2" d="M165.2,337.6c0,1.1.1,2-.2,2.9-1.6.3-17.7.4-21,.1,0-.4-.2-.8-.2-1.2,0-4.4,0-8.8,0-13.2,0-.4,0-.8,0-1.2.3,0,.5-.2.7-.2,6.7,0,13.5,0,20.4,0,0,.6.2,1,.2,1.5,0,3.7,0,7.4,0,11.3Z"/>
  <path class="st2" d="M282.4,207.4h10.7c.1.4.3.6.3.9,0,4.7,0,9.4,0,14.1,0,.3,0,.5-.1.8-1.6.3-18,.4-21,.1-.4-1.7-.1-3.5-.2-5.2,0-1.7,0-3.4,0-5.1,0-1.8,0-3.5,0-5.2.3-.1.4-.2.5-.3,3.2,0,6.4,0,9.8,0Z"/>
  <path class="st2" d="M207.9,221.9c0-4.9,0-9.6,0-14.3,1.9-.4,3.6-.1,5.4-.2,1.8,0,3.6,0,5.3,0s3.4,0,5.1,0c1.8,0,3.5,0,5.2,0,.1.2.3.4.3.5,0,4.7,0,9.4,0,14.1,0,.3,0,.7,0,1-.3.1-.5.3-.6.3-6.8,0-13.5,0-20.4,0,0-.4-.2-.8-.3-1.4Z"/>
  <path class="st2" d="M153.8,223.3c-3.3,0-6.5,0-9.6,0,0,0-.1,0-.2-.1-.3-1.7-.3-13.3,0-15.6,1.7-.3,3.5-.1,5.2-.1,1.8,0,3.6,0,5.3,0s3.4,0,5.1,0c1.8,0,3.5,0,5.2,0,.1.3.3.4.3.5,0,4.8,0,9.5,0,14.3,0,.3,0,.5-.1.9-1.9.4-3.7.1-5.5.2-1.8,0-3.7,0-5.8,0Z"/>
  <path class="st0" d="M336,268.1c0-.8,0-1.3.1-1.9.4,0,.6-.2.9-.2,6.7,0,13.3,0,20.1,0,.1.4.3.6.3.9,0,4.8,0,9.5,0,14.3,0,.2,0,.4-.1.5,0,.1-.1.2-.2.2,0,0-.1,0-.2,0-.6,0-1.3,0-1.9,0-6.1,0-12.2,0-18.3,0-.1,0-.2-.1-.4-.2,0-.1-.2-.2-.2-.4,0-4.4,0-8.8,0-13.4Z"/>
  <path class="st6" d="M287.1,282.1c-5,0-9.7,0-14.5,0-.1,0-.2-.1-.5-.2,0-.2-.1-.5-.1-.7,0-4.8,0-9.5,0-14.3,0-.2.1-.4.2-.6.2,0,.3-.2.4-.2,6.5,0,13.1,0,19.6,0,.3,0,.5,0,.9.1,0,.3.2.5.2.8,0,4.8,0,9.5,0,14.3,0,.2,0,.4-.2.7-.9.3-1.9.1-2.9.1-1,0-2,0-3.2,0Z"/>
  <path class="st6" d="M207.9,271c0-1.7,0-3.2,0-4.7.4-.1.8-.2,1.1-.2,6.4,0,12.8,0,19.2,0,.3,0,.5,0,.7.1.1.1.2.2.2.2,0,0,0,.1,0,.2,0,.6,0,1.3,0,1.9,0,4.3,0,8.7,0,13,0,.1-.1.2-.1.3,0,0-.1.2-.2.2,0,0-.1,0-.2,0-6.4,0-12.8,0-19.2,0-.4,0-.8,0-1.4,0,0-.6-.2-1-.2-1.5,0-3.1,0-6.2,0-9.6Z"/>
  <path class="st6" d="M165.2,279.9c0,.8,0,1.3,0,1.9-.4.1-.6.2-.9.2-6.5,0-13.1,0-19.6,0-.2,0-.4,0-.7-.2-.3-2.6,0-5.2-.1-7.8,0-2.6,0-5.2,0-7.9.4,0,.7-.2,1-.2,6.7,0,13.3,0,19.9,0,.7.6.5,1.2.5,1.7,0,4,0,8,0,12.1Z"/>
</svg>