<?xml version="1.0" encoding="UTF-8"?>
<svg id="Layer_1" xmlns="http://www.w3.org/2000/svg" version="1.1" viewBox="0 0 500 500">
  <!-- Generator: Adobe Illustrator 29.5.0, SVG Export Plug-In . SVG Version: 2.1.0 Build 137)  -->
  <defs>
    <style>
      .st0 {
        fill: #f8d711;
      }

      .st1 {
        fill: #ea2732;
      }

      .st2 {
        fill: #fff;
      }

      .st3 {
        fill: #fcfdfd;
      }

      .st4 {
        fill: #3e4745;
      }

      .st5 {
        fill: #fef9fb;
      }

      .st6 {
        fill: #ec2227;
      }

      .st7 {
        fill: #edb9b9;
      }

      .st8 {
        fill: #3b4542;
      }
    </style>
  </defs>
  <path class="st7" d="M499.9,233.9v32.8c-.2,1.1-.3,1.9-.3,2.7-.2,2.7-.2,5.4-.5,8.1-.4,3.8-1,7.6-1.6,11.4-.8,5.8-2,11.6-3.3,17.4-2.5,10.8-5.7,21.3-9.5,31.6-2.7,7.2-5.7,14.2-9,21.2-3.2,6.7-6.8,13.3-10.7,19.7-3.9,6.5-8,12.8-12.5,18.8-3.6,4.9-7.2,9.7-11.2,14.2-2.9,3.3-5.7,6.7-8.8,9.9-5.6,5.8-11.3,11.4-17.4,16.7-3.8,3.3-7.6,6.4-11.5,9.5-7,5.4-14.2,10.4-21.7,15.1-5.3,3.3-10.8,6.4-16.3,9.3-8.6,4.4-17.4,8.4-26.5,11.8-8,3-16.1,5.6-24.4,7.8-6.7,1.8-13.4,3.3-20.2,4.4-3.4.6-6.9,1.1-10.3,1.6-2.7.4-5.4.6-8,.9-3.2.4-6.3.7-9.5.8-.6,0-1.3,0-1.8.4-9.3,0-18.5,0-28.1-.1-.5-.2-.8-.2-1-.2-3.8,0-7.5-.5-11.3-.9-4.5-.4-8.9-1-13.3-1.7-6.5-1-12.9-2.3-19.2-3.8-8.4-2-16.7-4.5-24.9-7.4-8.8-3.1-17.4-6.8-25.8-10.8-6.6-3.2-13-6.8-19.3-10.5-7-4.2-13.8-8.8-20.4-13.6-4.6-3.4-9-6.9-13.3-10.7-3.5-3.1-7-6.1-10.3-9.2-3.6-3.4-7-6.9-10.3-10.5s-6.6-7.3-9.7-11c-4.6-5.5-8.9-11.1-12.9-17-2.7-3.9-5.3-7.9-7.8-12-2.7-4.5-5.3-9.1-7.8-13.7-3.1-5.8-5.9-11.7-8.5-17.7s-5-12.1-7.1-18.3c-1.3-3.8-2.5-7.7-3.6-11.6-1.4-5-2.7-10-3.8-15.1-1.1-4.8-2-9.7-2.8-14.6-.6-3.6-1-7.2-1.4-10.8-.2-1.8-.4-3.7-.5-5.5-.2-2.8-.6-5.5-.7-8.3,0-2.7-.3-5.4-.6-8.1,0-.3-.2-.5-.3-.8,0-3.9,0-7.7.1-11.9.4-2.4.7-4.5.7-6.7,0-3.2.2-6.4.5-9.6.3-3.2.7-6.3,1.1-9.5.6-4.1,1.1-8.2,1.8-12.2.9-5.7,2.2-11.3,3.6-16.9,2.1-8.2,4.5-16.3,7.4-24.3,3.8-10.3,8.1-20.4,13.2-30,2.3-4.4,4.7-8.8,7.2-13.1,4.2-7.1,8.8-14,13.7-20.6,3.3-4.5,6.7-8.8,10.3-13,3.2-3.7,6.4-7.4,9.8-10.9,6.2-6.5,12.8-12.8,19.7-18.5,3.4-2.8,6.8-5.6,10.3-8.3,5.9-4.6,12.1-8.8,18.4-12.7,4.9-3,9.7-5.9,14.8-8.5,9-4.8,18.3-9.1,27.9-12.8,8.8-3.3,17.7-6.2,26.8-8.6,6.9-1.8,13.8-3.3,20.8-4.4,3.7-.6,7.4-1.3,11.2-1.6,1.4-.1,2.8-.3,4.2-.5,2.2-.2,4.4-.5,6.6-.7,3.2-.2,6.4-.3,9.6-.5.5,0,.9-.2,1.4-.4,6,0,12,0,18.3.1.5.2.8.3,1,.3,2.4,0,4.8.2,7.2.4,3.3.3,6.7.5,10,.9,3.9.5,7.8.8,11.6,1.5,6,1,12,2.2,18,3.5,9.1,2.1,18,4.7,26.8,7.8,10.7,3.8,21,8.3,31.1,13.5,4.5,2.3,8.9,4.7,13.2,7.3,6.5,3.9,12.9,8.1,19,12.6,4.8,3.5,9.6,7.1,14.1,11.1,3,2.6,6.1,5.1,9,7.9,6.7,6.4,13.3,12.9,19.2,20,3.1,3.7,6.2,7.4,9.2,11.2,4.6,5.9,8.8,12,12.8,18.3s7.7,12.6,11,19.2c1.8,3.6,3.6,7.3,5.3,10.9,1.7,3.6,3.3,7.3,4.7,11,2.8,7.1,5.4,14.4,7.5,21.8,1,3.3,1.9,6.7,2.7,10.1,1,4.4,2,8.7,2.9,13.1.8,3.9,1.4,7.8,2,11.8.4,2.5.6,4.9.9,7.4.4,3,.8,5.9.8,8.9v2.3c0,.4.2.8.4,1.2M90.4,154.4v238.2c0,.4.2.8.3,1.2,1,.4,1.9.3,2.8.3h315.7c.4,0,.8-.2,1.3-.3V107.3c0-.4-.2-.8-.3-1.2-1.1-.3-2.1-.2-3.1-.2H91.7c-.4,0-.8.2-1.2.2-.3.9-.2,1.8-.2,2.6v45.7h0Z"/>
  <path class="st2" d="M410.6,154v239.8c-.5.1-.9.3-1.3.3H93.6c-.9,0-1.8.2-2.8-.3,0-.4-.2-.7-.3-1.2v-235.9c0-.8,0-1.6.2-2.5,105.9-.2,211.7-.2,317.4-.2h2.6M367.9,204.7v-2.8c-.2-3.1-2.3-5.1-5.4-5.2h-32.5c-2.6.2-4.6,2.2-4.8,4.8v27.5c.2,2.8,2.2,4.8,4.9,5h32.9c2.3-.2,4.2-1.7,4.7-4,.2-.8.2-1.7.2-2.5v-22.8M358.4,351.4h4.5c2.4-.1,4.3-1.7,4.8-4.1.1-.6.2-1.3.2-1.9v-26.5c-.3-2.8-2.4-4.8-5.3-4.9h-32.5c-2.7.2-4.8,2.2-4.9,4.9v27.5c.2,2.6,2.2,4.6,4.8,4.8h28.3M303.7,346.9v-27.9c-.3-2.8-2.4-4.7-5.3-4.8h-32.5c-2.6.2-4.7,2.2-4.9,4.8v27.8c0,1.5.8,2.7,1.9,3.7,1.1.9,2.4,1.1,3.8,1.1h31.2c3.1,0,4.7-1.2,5.7-4.5M203.9,351.4h30.9c2.3-.2,4.1-1.7,4.7-4,.2-.8.2-1.5.2-2.3v-26.4c-.4-2.7-2.5-4.4-5.1-4.5h-32.5c-2.7.1-4.8,2.2-5,4.9v27.5c.2,2.7,2.1,4.7,4.8,4.9h2.1M175.7,339.6v-19c0-.7,0-1.4-.1-2.1-.5-2.6-2.5-4.2-5.1-4.3h-32.7c-2.6.2-4.6,2.2-4.8,4.8v27.7c.2,2.5,2.2,4.5,4.7,4.7h33.3c2.1-.2,3.9-1.7,4.4-3.8.2-.7.2-1.4.3-2.1v-6M303.8,201.9c0-.4-.1-.7-.2-1.1-.5-2.5-3-4.3-5.2-4.2h-32.5c-2.6.2-4.6,2.2-4.9,4.8v27.8c.2,2.5,2.2,4.5,4.7,4.7h33.1c2.3-.2,4.2-1.7,4.7-4,.2-.8.2-1.7.2-2.5v-25.6M239.8,214.9v-13.6c-.4-2.7-2.4-4.4-5.1-4.5h-32.7c-2.6.2-4.6,2.2-4.8,4.8v27.7c.2,2.5,2.2,4.5,4.7,4.7h33.1c2.3-.2,4.2-1.7,4.7-4,.2-.8.2-1.5.2-2.3v-12.8M139,196.7h-.9c-3,.2-5,2.2-5.1,5.2v27.3c.2,2.6,2.2,4.6,4.8,4.8h32.8c2.4-.2,4.3-1.7,4.8-4.1.2-.8.2-1.6.2-2.3v-25.8c-.3-3-2.4-4.9-5.3-5h-31.3M366.6,257.3c-1.3-1.5-3-2-5-2h-31.6c-2.9.3-4.8,2.3-4.9,5.2v27.3c0,1.2.5,2.2,1.3,3.1,1.1,1.2,2.4,1.8,4,1.8h32.2c.4,0,.8,0,1.3-.2,2.5-.7,4-2.7,4-5.6v-25.8c0-1.3-.3-2.5-1.3-3.9M261.1,271.7v15.8c0,2.8,2.4,5.3,5.3,5.3h32.5c2.4-.2,4.3-1.8,4.8-4.1.1-.6.2-1.3.2-1.9v-25.2c0-.6,0-1.1-.1-1.7-.4-2.3-2-4-4.4-4.4-.6-.1-1.3-.1-1.9-.1h-30.1c-.6,0-1.3,0-1.9.1-2,.4-3.3,1.5-4,3.4-.3.7-.3,1.5-.3,2.3v10.5M238.9,290.3c.7-1.1.8-2.4.8-3.7v-24.9c0-.8,0-1.6-.2-2.3-.5-1.9-1.8-3.2-3.7-3.7-.7-.2-1.4-.2-2.1-.2h-30.7c-.6,0-1.3,0-1.9.2-2.3.5-3.8,2.4-4,4.7v27.7c.2,2.1,1.3,3.5,3.2,4.4.9.4,1.8.4,2.7.4h30.7c2.1,0,3.8-.6,5.2-2.5M175.7,263.6v-3c-.2-3-2.2-5-5.2-5.2h-31.6c-.6,0-1.3,0-1.9.2-2.3.5-3.8,2.4-4,4.7v27.5c0,2.2,1.9,4.7,4.9,5h32.7c2.6-.2,4.6-1.9,5-4.4.1-.7.1-1.4.1-2.1v-22.6h0Z"/>
  <path class="st0" d="M410.6,153.8c-.8.2-1.7.2-2.6.2H90.6c-.2-.9-.3-1.7-.3-2.6v-42.7c0-.8,0-1.7.2-2.6.4,0,.8-.2,1.2-.2h315.4c1,0,2,0,3.1.2,0,.4.2.7.3,1.2v46.5h.1Z"/>
  <path class="st6" d="M367.9,204.9v22.6c0,.8,0,1.7-.2,2.5-.5,2.3-2.4,3.8-4.7,4h-32.9c-2.7-.2-4.7-2.2-4.9-5v-27.5c.2-2.6,2.2-4.6,4.8-4.8h32.5c3.1,0,5.2,2.1,5.4,5.2v3M352.8,223.3c1.4,0,2.8.1,4.2-.1.3-2.2.3-14,0-15.8h-15.6c-1.8,0-3.5-.2-5.2.1-.2,2.3-.2,13.9,0,15.6,0,0,.1.1.2.1h16.6-.2Z"/>
  <path class="st6" d="M358.2,351.4h-28.1c-2.6-.2-4.6-2.2-4.8-4.8v-27.5c.2-2.7,2.2-4.8,4.9-4.9h32.5c2.9.1,5,2,5.3,4.9v26.5c0,.6,0,1.3-.2,1.9-.5,2.4-2.4,4-4.8,4.1h-4.7M355.7,324.8h-18.1c-.5,0-1.1,0-1.7.1v15.5s0,.1.2.2c.1,0,.3.1.5.1h19.6c.3,0,.5-.1.7-.2.2-1.6.3-13,.1-15.2,0-.1-.1-.2-.2-.4-.2,0-.5,0-1.2-.1h.1Z"/>
  <path class="st8" d="M303.7,347.1c-1,3.1-2.6,4.4-5.7,4.4h-31.2c-1.4,0-2.7-.2-3.8-1.1-1.1-1-1.9-2.1-1.9-3.7v-27.8c.2-2.6,2.3-4.6,4.9-4.8h32.5c2.9,0,5,2,5.3,4.8v27.1c0,.3,0,.6-.1,1M271.8,332.3v8.1s0,.1.3.3h19.9c.3,0,.7-.1,1.1-.2v-15.2c0-.1-.1-.2-.2-.4-.2,0-.4-.1-.6-.1h-20.2s-.1,0-.3.2v7.3Z"/>
  <path class="st8" d="M203.7,351.4h-1.9c-2.6-.2-4.6-2.2-4.8-4.9v-27.5c.2-2.7,2.3-4.7,5-4.9h32.5c2.7.1,4.7,1.9,5.1,4.5.1.6,0,1.3,0,1.9v24.5c0,.8,0,1.6-.2,2.3-.5,2.3-2.4,3.8-4.7,4h-31.1M217,324.8h-8.7c-.1,0-.2.1-.5.3-.1,1.7,0,3.4,0,5.2v5.1c0,1.7-.2,3.5.2,5.2,3,.3,19.4.2,21-.1,0-.2.1-.5.1-.8v-14.1c0-.3-.1-.5-.3-.9h-11.8Z"/>
  <path class="st8" d="M175.7,339.8v5.8c0,.7,0,1.4-.3,2.1-.5,2.1-2.3,3.5-4.4,3.8h-33.3c-2.5-.2-4.5-2.2-4.7-4.7v-27.7c.2-2.6,2.2-4.6,4.8-4.8h32.7c2.6.1,4.6,1.8,5.1,4.3.1.7.1,1.4.1,2.1v19.2M165,337.4v-11.1c0-.5-.1-.9-.2-1.5h-20.4c-.2,0-.4.1-.7.2v14.4c0,.4.1.8.2,1.2,3.3.3,19.4.2,21-.1.3-.9,0-1.8.2-3.1h-.1Z"/>
  <path class="st8" d="M303.8,202.1v25.4c0,.8,0,1.7-.2,2.5-.5,2.3-2.4,3.8-4.7,4h-33.1c-2.5-.2-4.5-2.2-4.7-4.7v-27.8c.2-2.6,2.2-4.6,4.9-4.8h32.5c2.2-.2,4.8,1.6,5.2,4.2,0,.3.1.7.2,1.2M281.9,207.4h-9.6c-.1,0-.2.1-.5.3-.1,1.7,0,3.4,0,5.2v5.1c0,1.7-.2,3.5.2,5.2,3,.3,19.4.2,21-.1,0-.2.1-.5.1-.8v-14.1c0-.3-.1-.5-.3-.9h-10.9Z"/>
  <path class="st8" d="M239.8,215.1v12.6c0,.8,0,1.6-.2,2.3-.5,2.3-2.4,3.8-4.7,4h-33.1c-2.5-.2-4.5-2.2-4.7-4.7v-27.7c.2-2.6,2.2-4.6,4.8-4.8h32.7c2.7.1,4.7,1.9,5.1,4.5.1.6,0,1.3,0,1.9v11.9M207.7,222.1c0,.4.2.8.3,1.2h20.4c.2,0,.4-.1.6-.3v-15.1c0-.1-.1-.2-.3-.5-1.7-.2-3.5,0-5.2,0h-10.4c-1.7,0-3.5-.2-5.4.2v14.5h0Z"/>
  <path class="st8" d="M139.2,196.7h31.1c3,0,5.1,2.1,5.3,5v25.8c0,.8,0,1.6-.2,2.3-.5,2.4-2.4,4-4.8,4.1h-32.8c-2.6-.2-4.6-2.2-4.8-4.8v-27.3c.1-3,2.1-5,5.1-5.2h1.1M153.9,223.3h5.5c1.8,0,3.7.2,5.5-.2,0-.4.1-.6.1-.9v-14.3c0-.1-.1-.2-.3-.5-1.7-.1-3.4,0-5.2,0h-10.4c-1.8,0-3.5-.2-5.2.1-.3,2.3-.2,13.9,0,15.6,0,0,0,.1.2.1h9.8Z"/>
  <path class="st6" d="M366.7,257.4c.9,1.2,1.2,2.4,1.2,3.7v25.8c0,2.9-1.5,4.9-4,5.6-.4.1-.8.2-1.3.2h-32.2c-1.6,0-2.9-.6-4-1.8-.8-.9-1.3-1.9-1.3-3.1v-27.3c.1-2.9,2-4.9,4.9-5.2h31.6c1.9,0,3.7.4,5.1,2.1M335.8,268.3v13.2c0,.1.1.2.2.4.1,0,.2.2.4.2h20.4s0-.1.2-.2c0-.1.1-.3.1-.5v-14.3c0-.3-.1-.5-.3-.9h-20.1c-.3,0-.5,0-.9.2,0,.6,0,1.2-.1,2.1v-.2Z"/>
  <path class="st4" d="M261.1,271.5v-10.2c0-.8,0-1.6.3-2.3.7-1.9,2-3.1,4-3.4.6-.1,1.3-.1,1.9-.1h30.1c.6,0,1.3,0,1.9.1,2.3.4,4,2,4.4,4.4,0,.6.1,1.1.1,1.7v25.2c0,.6,0,1.3-.2,1.9-.5,2.3-2.4,4-4.8,4.1h-32.5c-2.9,0-5.3-2.5-5.3-5.3v-16M287.1,282.1h3c1,0,2,.2,2.9-.1,0-.3.2-.5.2-.7v-14.3c0-.3-.1-.5-.2-.8-.3,0-.6-.1-.9-.1h-19.6c-.1,0-.3.1-.4.2,0,.2-.2.4-.2.6v14.3c0,.3,0,.5.1.7.2.1.3.2.5.2h14.7-.1Z"/>
  <path class="st4" d="M238.8,290.4c-1.3,1.8-3.1,2.4-5.1,2.4h-30.7c-.9,0-1.9,0-2.7-.4-1.9-.9-3-2.3-3.2-4.4v-27.7c.2-2.3,1.7-4.1,4-4.7.6-.1,1.3-.2,1.9-.2h30.7c.7,0,1.4,0,2.1.2,1.9.5,3.2,1.8,3.7,3.7.2.7.2,1.5.2,2.3v24.9c0,1.3-.1,2.5-.9,3.8M207.7,271.3v9.4c0,.5.1.9.2,1.5h20.8l.2-.2s.1-.2.1-.3v-15.1s0-.1-.2-.2c-.2,0-.4-.1-.7-.1h-19.2c-.3,0-.6.1-1.1.2v5-.2Z"/>
  <path class="st4" d="M175.7,263.8v22.4c0,.7,0,1.4-.1,2.1-.5,2.5-2.4,4.3-5,4.4h-32.7c-3-.2-4.9-2.7-4.9-5v-27.5c.2-2.3,1.7-4.1,4-4.7.6-.1,1.3-.2,1.9-.2h31.6c3,.2,5,2.3,5.2,5.2v3.2M165,279.7v-11.9c0-.5.2-1.1-.5-1.7h-19.9c-.3,0-.5.1-1,.2v7.9c0,2.6-.2,5.2.1,7.8.3,0,.5.2.7.2h19.6c.3,0,.5-.1.9-.2v-2.3Z"/>
  <path class="st2" d="M352.6,223.3h-16.4s-.1,0-.2-.1c-.2-1.7-.3-13.3,0-15.6,1.7-.3,3.5-.1,5.2-.1h15.6c.3,1.8.4,13.7,0,15.8-1.4.2-2.8,0-4.4.1h.2Z"/>
  <path class="st2" d="M355.9,324.8c.5,0,.8,0,1,.1.1.2.2.3.2.4.1,2.3,0,13.6-.1,15.2-.2,0-.5.2-.7.2h-19.6c-.2,0-.4,0-.5-.1l-.2-.2v-15.5c.6,0,1.1-.1,1.7-.1h18.3,0Z"/>
  <path class="st2" d="M271.8,332.1v-6.9q.2-.2.3-.2h20.2c.2,0,.4,0,.6.1,0,.2.2.3.2.4v15.2c-.4,0-.7.2-1.1.2h-19.9c-.2-.2-.3-.2-.3-.3v-8.5Z"/>
  <path class="st2" d="M217.3,324.8h11.6c.1.4.3.6.3.9v14.1c0,.3,0,.5-.1.8-1.6.3-18,.4-21,.1-.4-1.7-.1-3.5-.2-5.2v-10.3c.3-.1.4-.3.5-.3h9-.1Z"/>
  <path class="st2" d="M165,337.6c0,1.1.1,2-.2,2.9-1.6.3-17.7.4-21,.1,0-.4-.2-.8-.2-1.2v-14.4c.3,0,.5-.2.7-.2h20.4c0,.6.2,1,.2,1.5v11.3h.1Z"/>
  <path class="st2" d="M282.2,207.4h10.7c.1.4.3.6.3.9v14.1c0,.3,0,.5-.1.8-1.6.3-18,.4-21,.1-.4-1.7-.1-3.5-.2-5.2v-10.3c.3-.1.4-.2.5-.3h9.8Z"/>
  <path class="st2" d="M207.7,221.9v-14.3c1.9-.4,3.6-.1,5.4-.2h15.6c.1.2.3.4.3.5v15.1c-.3.1-.5.3-.6.3h-20.4c0-.4-.2-.8-.3-1.4h0Z"/>
  <path class="st2" d="M153.6,223.3h-9.6s-.1,0-.2-.1c-.3-1.7-.3-13.3,0-15.6,1.7-.3,3.5-.1,5.2-.1h15.6c.1.3.3.4.3.5v14.3c0,.3,0,.5-.1.9-1.9.4-3.7.1-5.5.2h-5.8.1Z"/>
  <path class="st5" d="M335.8,268.1c0-.8,0-1.3.1-1.9.4,0,.6-.2.9-.2h20.1c.1.4.3.6.3.9v14.3c0,.2,0,.4-.1.5,0,.1-.1.2-.2.2h-20.4c-.1,0-.2-.1-.4-.2,0-.1-.2-.2-.2-.4v-13.4.2Z"/>
  <path class="st3" d="M286.9,282.1h-14.5c-.1,0-.2-.1-.5-.2,0-.2-.1-.5-.1-.7v-14.3c0-.2.1-.4.2-.6.2,0,.3-.2.4-.2h19.6c.3,0,.5,0,.9.1,0,.3.2.5.2.8v14.3c0,.2,0,.4-.2.7-.9.3-1.9.1-2.9.1h-3.2.1Z"/>
  <path class="st3" d="M207.7,271v-4.7c.4-.1.8-.2,1.1-.2h19.2c.3,0,.5,0,.7.1.1.1.2.2.2.2v15.1c0,.1-.1.2-.1.3,0,0-.1.2-.2.2h-20.8c0-.6-.2-1-.2-1.5v-9.6h0Z"/>
  <path class="st3" d="M165,279.9v1.9c-.4.1-.6.2-.9.2h-19.6c-.2,0-.4,0-.7-.2-.3-2.6,0-5.2-.1-7.8v-7.9c.4,0,.7-.2,1-.2h19.9c.7.6.5,1.2.5,1.7v12.3Z"/>
  <g>
    <circle class="st1" cx="427.4" cy="72.6" r="72.6"/>
    <path class="st2" d="M418.4,49.9h17.9v77.6h-17.9V49.9ZM418.5,21h17.9v17.7h-17.9v-17.7Z"/>
  </g>
</svg>