<?xml version="1.0" encoding="UTF-8"?>
<svg id="Layer_2" data-name="Layer 2" xmlns="http://www.w3.org/2000/svg" xmlns:xlink="http://www.w3.org/1999/xlink" viewBox="0 0 130 94.88">
  <defs>
    <style>
      .cls-1 {
        fill: #d4b08c;
      }

      .cls-2 {
        fill: #aa098b;
      }

      .cls-3 {
        fill: #f9ff00;
      }

      .cls-4 {
        fill: none;
      }

      .cls-5 {
        fill: red;
      }

      .cls-6 {
        fill: #91065c;
      }

      .cls-7 {
        fill: #e6c19c;
      }

      .cls-8 {
        clip-path: url(#clippath);
      }

      .cls-9 {
        fill: #f2cea5;
      }
    </style>
    <clipPath id="clippath">
      <path class="cls-4" d="M63,58.81l7.12,1.83c7.6,1.95,22.8,5.86,22.8,5.86,3.17,1.11,5.74,3.51,7.07,6.57v11.81H0v-11.81c1.34-3.06,3.91-5.46,7.07-6.57,0,0,15.21-3.91,22.81-5.86,2.37-.61,7.11-1.83,7.11-1.83v-14.93h26v14.93Z"/>
    </clipPath>
  </defs>
  <g id="bboy">
    <g>
      <path class="cls-7" d="M63,58.81l7.12,1.83c7.6,1.95,22.8,5.86,22.8,5.86,3.17,1.11,5.74,3.51,7.07,6.57v11.81H0v-11.81c1.34-3.06,3.91-5.46,7.07-6.57,0,0,15.21-3.91,22.81-5.86,2.37-.61,7.11-1.83,7.11-1.83v-14.93h26v14.93Z"/>
      <g class="cls-8">
        <path class="cls-1" d="M50.2-4.12h.17s.02,0,.02,0c3.3.01,8.2.2,11.42,2.03,3.34,1.9,7.34,5.62,8.5,12.13,2.43,13.71-2.1,35.36-6.31,42.4-4.04,6.74-9.82,9.22-13.51,9.42h-.09s-.2.01-.2.01h-.2s-.09-.01-.09-.01c-3.69-.2-9.47-2.68-13.51-9.42-4.22-7.04-8.74-28.69-6.31-42.4,1.15-6.52,5.16-10.24,8.5-12.13,3.22-1.83,8.12-2.02,11.42-2.03h.02s.17,0,.17,0Z"/>
        <path class="cls-2" d="M0,42.88h100v42H0v-42ZM50,74.88c13.53-.19,21-15,21-15,0,0-9.95-17-21-17s-21,17-21,17c0,0,7.47,15.19,21,15Z"/>
        <path class="cls-6" d="M50,37.88c-13.12,0-24.94,20.19-24.94,20.19,0,0,8.88,18.03,24.94,17.81s24.94-17.81,24.94-17.81c0,0-11.82-20.19-24.94-20.19ZM50,71.88c-12.06-.03-20.81-14.06-20.81-14.06,0,0,9.86-15.94,20.81-15.94s20.81,15.94,20.81,15.94c0,0-8.75,14.09-20.81,14.06Z"/>
      </g>
      <path class="cls-9" d="M49.79,4.88c19.06.05,20.71,12.8,20.82,14.06,1.06,11.94-3.01,25.05-6.82,30.65-4.04,5.92-9.82,8.1-13.51,8.28-.16.01-.22.01-.29,0h-.2c-3.78-.19-9.56-2.36-13.6-8.29-3.83-5.62-7.91-18.81-6.81-30.77.11-1.21,1.35-13.99,20.41-13.94Z"/>
      <path d="M70.07,31.64s.74-3.43,2.58-4.4c1.3-5.47,1.36-7.36,1.36-8.26-.02-2.87-.28-5.73-1.92-8.07-1.81-2.59-5.65-4.06-7.65-4.06-2.33,1.37-7.7,4.57-9.42,6.48-.89.99.39,1.76.39,1.76,0,0,4.56-6.01,4.89-2.7s9.77,11.57,9.77,11.57v7.67Z"/>
      <path d="M26.45,21.52c0,1.02.73,4.65,1.21,6.15,1.67.56,2.36,4.28,2.36,4.28v-7.99c5.98-1.68,12.84-5.14,16.74-10.33,1.21,3.59-.09,6.09-.09,6.09,0,0,6.72.17,11.74-3.65,3.04-2.31,6.58-9.19,6.58-9.19,0,0-1.8-7.85-15-6.78-5.59.45-8.28,3.92-17.4,3.03,0,0,.86,2.23,1.89,3.52-4.05,1.86-8.01,6.97-8.03,14.87Z"/>
      <g>
        <rect class="cls-5" x="60" y="54.88" width="70" height="40"/>
        <polygon class="cls-3" points="98.78 71.29 111.01 71.29 101.11 78.48 104.89 90.11 95 82.92 85.11 90.11 88.89 78.48 78.99 71.29 91.22 71.29 95 59.66 98.78 71.29"/>
      </g>
    </g>
  </g>
</svg>