<?xml version="1.0" encoding="UTF-8"?>
<svg id="Layer_1" xmlns="http://www.w3.org/2000/svg" version="1.1" viewBox="0 0 500 380">
  <!-- Generator: Adobe Illustrator 29.5.0, SVG Export Plug-In . SVG Version: 2.1.0 Build 137)  -->
  <defs>
    <style>
      .st0 {
        fill: #d4b08c;
      }

      .st1 {
        fill: #010101;
      }

      .st2 {
        fill: #f9fa00;
      }

      .st3 {
        fill: #aa098b;
      }

      .st4 {
        fill: red;
      }

      .st5 {
        fill: #e6c09c;
      }

      .st6 {
        fill: #92085d;
      }

      .st7 {
        fill: #f2cea5;
      }
    </style>
  </defs>
  <path class="st4" d="M243.3,219.7c1.9,0,3.8.1,5.8.1,83.7,0,167.3,0,251.5,0,.5,51.2.5,102.5.5,153.8-89.4,0-178.9,0-268.8-.5-.5-13-.5-25.5-.5-38.4,0-14.6,0-28.7,0-43.3,0-6.3,0-12.2,0-18.6,0-14.4,0-28.4,0-42.9,0-3.6,0-6.7,0-10.3h11.6M329.5,354.5c10.9-7.9,21.9-15.5,32.6-23.6,3.3-2.5,5.5-2.2,8.6.1,9.2,7,18.5,13.6,27.9,20.4,1.6,1.2,3.5,2,5.3,3.3h.2c-.1-.1-.2-.1-.2-.9-3.7-11.6-7.4-23.1-11.2-34.7q-2.7-8.3,4.5-13.6c9.9-7.2,19.9-14.5,29.8-21.7,0-.4-.2-.7-.3-1.1h-4.5c-12.2,0-24.3-.1-36.5,0-3.7,0-5.3-1.1-6.3-4.7-2.5-8.7-5.5-17.4-8.3-26-1.4-4.3-2.9-8.6-4.7-13.9-.9,2.5-1.4,3.8-1.9,5.1-3.9,11.8-7.8,23.7-11.5,35.6-.9,3-2.2,4-5.4,3.9-12.5-.2-25,0-37.5,0-1.4,0-2.8.2-5.6.3,10.3,7.5,19.4,14,28.4,20.6,9.8,7.1,9.7,7,6,18.4-3.5,10.8-6.7,21.6-10.3,32.5,0,0,0,.1-.1.2.1-.1.2-.2,1-.2Z"/>
  <path class="st3" d="M1,287.6c6.2-9.6,13.1-18.1,23.7-22.1,6.9-2.6,14.2-4.2,21.4-6.1,19.4-5.1,38.7-10.1,58.5-14.8,9.2,14.4,20.3,26.4,33.3,36.6,23,17.8,48.6,24.1,77,16.5,5.7-1.5,11.2-3.8,16.7-5.7,0,14.1,0,28.3-.4,42.9-77.1.4-153.7.4-230.2.4v-47.6Z"/>
  <path class="st1" d="M116.3,128.6c-1.1-1.9-2.2-3.9-3.3-5.8-2.6-4.2-6.2-8.1-7.6-12.6-6.4-21.6-3.5-42.2,9.3-60.7,4.3-6.3,11.2-10.8,17.1-16.3-1.6-3.2-3.8-7.3-6.3-12.3,3.1,0,5.5-.1,8,0,14.5.8,28-3,41.4-7.9,5.2-1.9,10.8-2.6,16.4-4.2,6.9-.4,13.6-.4,20.8-.4,7,1.9,13.8,3.3,20,5.9,9.3,3.9,16,10.8,19.3,20.7,19,2.4,33.6,16.3,34.4,38.4.5,12.7-1.5,24.7-4.1,36.9-.3,1.2-.4,2.7-1.2,3.4-4.9,4.2-7.3,9.9-9.8,15.7-.3-4.6-.9-9.3-.3-13.8,1.3-10.1-1.2-18.1-10.1-23.6-.8-.5-1.4-1.3-2.1-2-8.2-9-16.5-18.1-24.6-27.1-13,14.3-39.1,24.9-52.9,21.2,2.4-7.1,2.8-14.3,0-21.9-17.1,20.4-39.4,31.5-64.3,39.2v27.4Z"/>
  <path class="st7" d="M116.2,128.9c.2-9.4.2-18.5.2-27.7,24.9-7.7,47.3-18.8,64.3-39.2,2.9,7.6,2.4,14.8,0,21.9,13.8,3.7,39.9-6.9,52.9-21.2,8.2,9,16.4,18,24.6,27.1.6.7,1.3,1.5,2.1,2,8.9,5.5,11.5,13.6,10.1,23.6-.6,4.5,0,9.3.3,14.2-3.8,24.5-10.3,47.8-23.2,69-1.1,1.9-2.5,3.6-4.3,5.8-4.6,4.3-8.4,8.8-12.9,12.3-22.3,17.3-44.1,20.2-68,4.4-7.3-4.8-13.4-11.6-20-17.5-9.3-11.8-14.7-25.7-18.9-39.9-3.3-10.9-5.5-22.1-8.1-33.2,0-.4.4-.8.7-1.6Z"/>
  <path class="st0" d="M142.4,204c6.7,5.5,12.7,12.2,20,17.1,23.8,15.7,45.7,12.9,68-4.4,4.5-3.5,8.2-7.9,12.6-12.1.3,4.6.3,9.4.3,14.7-3.6.4-7.3.4-11.6.4,0,3.6,0,6.7-.3,10.5-3.8,3.1-7.2,5.8-10.9,8-9.7,6.1-20.3,10.2-31.8,8.2-17.6-3.1-31.1-13.3-42-27.2-1.2-1.6-2.8-2.8-4.2-4.2,0-3.5,0-7,0-11Z"/>
  <path class="st2" d="M328.9,354.4c3.4-10.8,6.6-21.7,10.1-32.4,3.7-11.4,3.8-11.3-6-18.4-9-6.6-18.1-13.1-28.4-20.6,2.8-.2,4.2-.3,5.6-.3,12.5,0,25-.1,37.5,0,3.1,0,4.4-1,5.4-3.9,3.7-11.9,7.6-23.7,11.5-35.6.4-1.3.9-2.6,1.9-5.1,1.8,5.4,3.3,9.6,4.7,13.9,2.8,8.7,5.8,17.3,8.3,26,1,3.5,2.6,4.8,6.3,4.7,12.2-.2,24.3,0,36.5,0h4.5c0,.4.2.7.3,1.1-9.9,7.2-19.8,14.5-29.8,21.7q-7.2,5.2-4.5,13.6c3.7,11.5,7.5,23.1,11.1,35,0,.4,0,.3,0,.3-1.8-1-3.6-1.8-5.3-3-9.3-6.7-18.7-13.4-27.9-20.4-3.1-2.4-5.3-2.7-8.6-.1-10.7,8.1-21.7,15.8-32.9,23.6-.3,0-.3,0-.3,0Z"/>
  <path class="st5" d="M142.4,215.4c1.5,1,3.1,2.2,4.3,3.8,10.9,13.9,24.4,24.1,42,27.2,11.4,2,22.1-2.2,31.8-8.2,3.6-2.3,7-5,10.8-7.6.3,13.9.3,27.9,0,42.4-26.9,16.7-52.9,15.6-78.6-1.5-12.7-8.5-23.4-19.2-32.8-31.2,6.5-1.7,13.1-3.2,19.6-5.2,1.2-.4,2.6-2.6,2.7-4,.3-5,.2-10.1.2-15.7Z"/>
  <path class="st6" d="M119.6,240.4c9.7,11.9,20.4,22.5,33.1,31,25.6,17.2,51.7,18.2,78.5,2,.4,5.8.4,11.7.4,18-5.6,2.4-11.1,4.6-16.8,6.1-28.4,7.6-54.1,1.3-77-16.5-13.1-10.1-24.2-22.2-33-36.6,4.8-1.5,9.6-2.7,14.8-4.1Z"/>
  <path class="st2" d="M328.8,354.4c-.1,0-.2.2-.3.3,0,0,0-.1.3-.2.1,0,0,0,0,0Z"/>
  <path class="st2" d="M403.8,354.4c0,0,.2,0,.3.1,0,0-.1,0-.2,0,0-.1,0,0,0,0Z"/>
</svg>