<?xml version="1.0" encoding="UTF-8"?>
<svg id="Layer_1" xmlns="http://www.w3.org/2000/svg" version="1.1" viewBox="0 0 500 500">
  <!-- Generator: Adobe Illustrator 29.5.0, SVG Export Plug-In . SVG Version: 2.1.0 Build 137)  -->
  <defs>
    <style>
      .st0 {
        fill: none;
        stroke: #010101;
        stroke-miterlimit: 10;
        stroke-width: 25px;
      }

      .st1 {
        fill: #010101;
      }
    </style>
  </defs>
  <path class="st1" d="M329.2,190.1c1.9-1.9,3.9-3.9,5.8-5.8,15.9-15.9,31.7-31.8,47.6-47.8,2.8-2.8,2.8-4.1,0-6.9-4.5-4.6-9.1-9.2-13.7-13.8-1.3-1.3-2.4-1.4-3.7,0-.5.5-1,.9-1.5,1.4-37.1,37.1-74.2,74.2-111.3,111.3-2.2,2.2-2.2,2.2-4.4,0-13.6-13.6-27.1-27.1-40.7-40.7-23.8-23.8-47.7-47.6-71.5-71.3-2.2-2.2-2.5-2.2-4.8,0-4.7,4.6-9.4,9.3-14.1,14-2.3,2.3-2.3,2.8,0,5.2.3.3.5.5.8.8,37.1,37.1,74.1,74.1,111.2,111.2q2.2,2.2,0,4.4c-21.9,21.9-43.9,43.8-65.7,65.8-14.7,14.8-29.4,29.6-44.1,44.4-3.3,3.3-3.3,5.6,0,8.9,3.6,3.6,7.2,7.2,10.9,10.8,2.6,2.5,4.2,2.5,6.9.2.6-.5,1.2-1.1,1.8-1.7,16-15.9,32-31.8,47.9-47.7,20-19.9,39.9-39.8,59.8-59.7,3.8-3.8,3.9-3.8,7.7,0,36.3,36.2,72.5,72.5,108.8,108.7,1,1,2,1.9,3,2.8.7.7,1.5.7,2.2,0,5.5-5.1,10.9-10.4,16-15.9,1.2-1.2,1-2.6-.2-3.9-1.3-1.3-2.5-2.7-3.8-4-20.2-20.2-40.4-40.4-60.6-60.6-16.1-16.1-32.2-32.2-48.3-48.3-1.4-1.4-1.7-2.3,0-3.8,2.9-2.6,5.4-5.5,8.2-8.3,16.5-16.5,33-32.9,49.7-49.6Z"/>
  <circle class="st0" cx="250.1" cy="249.9" r="234"/>
</svg>