<?xml version="1.0" encoding="UTF-8"?>
<svg id="Layer_2" data-name="Layer 2" xmlns="http://www.w3.org/2000/svg" viewBox="0 0 800 800">
  <defs>
    <style>
      .cls-1, .cls-2 {
        fill: #c69949;
      }

      .cls-3 {
        fill: #f8d176;
      }

      .cls-4 {
        fill: #040000;
        isolation: isolate;
        opacity: .06;
      }

      .cls-2 {
        font-family: MyriadPro-Regular, 'Myriad Pro';
        font-size: 500px;
      }

      .cls-5 {
        opacity: .5;
      }
    </style>
  </defs>
  <g id="_4" data-name="4">
    <g>
      <path class="cls-4" d="M400.19,799.62c102.43,0,204.86-38.99,282.84-116.97,155.96-155.96,155.96-409.73,0-565.68C605.05,38.99,502.62,0,400.19,0v799.62Z"/>
      <g>
        <path class="cls-3" d="M400,800C179.44,800,0,620.56,0,400S179.44,0,400,0s400,179.44,400,400-179.44,400-400,400Z"/>
        <g class="cls-5">
          <path class="cls-1" d="M400,738.49c-186.64,0-338.49-151.85-338.49-338.49S213.36,61.51,400,61.51s338.49,151.84,338.49,338.49-151.85,338.49-338.49,338.49ZM400,147.82c-139.05,0-252.18,113.13-252.18,252.18s113.13,252.18,252.18,252.18,252.18-113.13,252.18-252.18-113.13-252.18-252.18-252.18Z"/>
        </g>
        <g>
          <circle class="cls-3" cx="103.07" cy="400" r="14.94"/>
          <circle class="cls-3" cx="693.94" cy="400" r="14.94"/>
        </g>
        <text class="cls-2" transform="translate(273.42 573.89)"><tspan x="0" y="0">¥</tspan></text>
      </g>
      <path class="cls-4" d="M400.19,799.62c102.43,0,204.86-38.99,282.84-116.97,155.96-155.96,155.96-409.73,0-565.68C605.05,38.99,502.62,0,400.19,0v799.62Z"/>
    </g>
  </g>
</svg>