<?xml version="1.0" encoding="UTF-8"?>
<svg id="Layer_2" data-name="Layer 2" xmlns="http://www.w3.org/2000/svg" viewBox="0 0 800 800">
  <defs>
    <style>
      .cls-1 {
        fill: #fff;
      }

      .cls-2 {
        fill: #f9ebb2;
      }

      .cls-3 {
        fill: #394240;
      }

      .cls-4 {
        fill: #8cd7dd;
      }

      .cls-5 {
        fill: #559970;
      }

      .cls-6 {
        fill: #f76d57;
      }
    </style>
  </defs>
  <g id="Layer_1-2" data-name="Layer 1">
    <g>
      <g>
        <path class="cls-6" d="M537.5,25v275c0,27.61,22.39,50,50,50s50-22.39,50-50V25h-100Z"/>
        <path class="cls-6" d="M287.5,300c0,27.61,22.39,50,50,50s50-22.39,50-50V25h-100v275Z"/>
        <path class="cls-6" d="M37.5,50v250c0,27.61,22.39,50,50,50s50-22.39,50-50V25H62.5c-13.8,0-25,11.19-25,25Z"/>
      </g>
      <path class="cls-1" d="M725,750c0,13.8-11.2,25-25,25h-375v-312.5c0-6.45-5.59-12.5-12.5-12.5h-175c-6.91,0-12.5,5.59-12.5,12.5v312.5h-25c-13.8,0-25-11.2-25-25v-376.13c4.08.69,8.22,1.13,12.5,1.13,26.1,0,49.08-13.35,62.5-33.6,13.43,20.25,36.4,33.6,62.5,33.6s49.08-13.35,62.5-33.6c13.42,20.25,36.4,33.6,62.5,33.6s49.08-13.35,62.5-33.6c13.43,20.25,36.4,33.6,62.5,33.6s49.07-13.35,62.5-33.6c13.43,20.25,36.4,33.6,62.5,33.6s49.07-13.35,62.5-33.6c13.43,20.25,36.4,33.6,62.5,33.6,4.27,0,8.42-.44,12.5-1.13v376.13Z"/>
      <g>
        <path class="cls-2" d="M412.5,300c0,27.61,22.39,50,50,50s50-22.39,50-50V25h-100v275Z"/>
        <path class="cls-2" d="M162.5,300c0,27.61,22.39,50,50,50s50-22.39,50-50V25h-100v275Z"/>
        <path class="cls-2" d="M737.5,25h-75v275c0,27.61,22.39,50,50,50s50-22.39,50-50V50c0-13.81-11.2-25-25-25Z"/>
      </g>
      <path class="cls-3" d="M737.5,0H62.5C34.86,0,12.5,22.36,12.5,50v250c0,27.74,15.1,51.9,37.5,64.86v385.14c0,27.64,22.36,50,50,50h600c27.64,0,50-22.36,50-50v-385.14c22.4-12.96,37.5-37.14,37.5-64.86V50c0-27.64-22.36-50-50-50ZM637.5,25v275c0,27.61-22.39,50-50,50s-50-22.39-50-50V25h100ZM512.5,25v275c0,27.61-22.39,50-50,50s-50-22.39-50-50V25h100ZM387.5,25v275c0,27.61-22.39,50-50,50s-50-22.39-50-50V25h100ZM262.5,25v275c0,27.61-22.39,50-50,50s-50-22.39-50-50V25h100ZM37.5,50c0-13.81,11.2-25,25-25h75v275c0,27.61-22.39,50-50,50s-50-22.39-50-50V50ZM150,775v-300h150v125h-12.5c-6.91,0-12.5,5.59-12.5,12.5s5.59,12.5,12.5,12.5h12.5v150h-150ZM725,750c0,13.8-11.2,25-25,25h-375v-312.5c0-6.45-5.59-12.5-12.5-12.5h-175c-6.91,0-12.5,5.59-12.5,12.5v312.5h-25c-13.8,0-25-11.2-25-25v-376.13c4.08.69,8.22,1.13,12.5,1.13,26.1,0,49.08-13.35,62.5-33.6,13.43,20.25,36.4,33.6,62.5,33.6s49.08-13.35,62.5-33.6c13.42,20.25,36.4,33.6,62.5,33.6s49.08-13.35,62.5-33.6c13.43,20.25,36.4,33.6,62.5,33.6s49.07-13.35,62.5-33.6c13.43,20.25,36.4,33.6,62.5,33.6s49.07-13.35,62.5-33.6c13.43,20.25,36.4,33.6,62.5,33.6,4.27,0,8.42-.44,12.5-1.13v376.13ZM712.5,350c-27.61,0-50-22.39-50-50V25h75c13.8,0,25,11.19,25,25v250c0,27.61-22.39,50-50,50Z"/>
      <path class="cls-5" d="M150,775h150v-150h-12.5c-6.91,0-12.5-5.59-12.5-12.5s5.59-12.5,12.5-12.5h12.5v-125h-150v300Z"/>
      <rect class="cls-4" x="409.09" y="432.76" width="256.83" height="171.03"/>
      <rect class="cls-3" y="758.91" width="800" height="41.09"/>
    </g>
  </g>
</svg>