<?xml version="1.0" encoding="UTF-8"?>
<svg id="Layer_1" xmlns="http://www.w3.org/2000/svg" version="1.1" viewBox="0 0 500 500">
  <!-- Generator: Adobe Illustrator 29.5.0, SVG Export Plug-In . SVG Version: 2.1.0 Build 137)  -->
  <defs>
    <style>
      .st0 {
        fill: #ec2330;
      }

      .st1 {
        fill: #fff;
      }

      .st2 {
        fill: #f6e8b1;
      }

      .st3 {
        fill: #3d4442;
      }

      .st4 {
        fill: #8fd4da;
      }

      .st5 {
        fill: #559972;
      }

      .st6 {
        fill: #f36e58;
      }

      .st7 {
        fill: #edb9b9;
      }
    </style>
  </defs>
  <g>
    <path class="st7" d="M0,256.3c0-3.9,0-7.7.1-11.9.4-2.4.7-4.5.7-6.7,0-3.2.2-6.4.5-9.6.3-3.2.7-6.3,1.1-9.5.6-4.1,1.1-8.2,1.8-12.2.9-5.7,2.2-11.3,3.6-16.9,2.1-8.2,4.5-16.3,7.4-24.3,3.8-10.3,8.1-20.4,13.2-30,2.3-4.4,4.7-8.8,7.2-13.1,4.2-7.1,8.8-14,13.7-20.6,3.3-4.5,6.7-8.8,10.3-13,3.2-3.7,6.4-7.4,9.8-10.9,6.2-6.5,12.8-12.8,19.7-18.5,3.4-2.8,6.8-5.6,10.3-8.3,5.8-4.5,11.9-8.6,18.1-12.5,4.9-3.1,10-6.1,15.1-8.8,9.1-4.8,18.3-9.1,27.9-12.8,8.8-3.3,17.7-6.2,26.8-8.6,7.2-1.9,14.5-3.4,21.9-4.6,3.4-.5,6.7-1,10.1-1.4,1.4-.2,2.8-.3,4.2-.5,2.2-.2,4.4-.5,6.6-.7,3.2-.2,6.4-.3,9.6-.5.5,0,.9-.2,1.4-.4,6,0,12,0,18.3,0,.5.2.8.3,1,.3,2.4,0,4.8.2,7.2.4,3.3.3,6.7.5,10,.9,3.9.5,7.8.8,11.6,1.4,6.1,1,12.2,2.1,18.2,3.6,9,2.1,17.9,4.7,26.6,7.8,10.7,3.8,21,8.3,31.1,13.5,4.5,2.3,8.9,4.8,13.2,7.3,6.5,3.9,12.8,8,18.9,12.5,4.9,3.6,9.8,7.3,14.4,11.3,2.9,2.6,6,5,8.8,7.7,6.7,6.4,13.3,12.9,19.2,20,3.1,3.7,6.2,7.4,9.2,11.2,4.6,5.9,8.9,12.1,13,18.5,3.8,6.1,7.4,12.3,10.7,18.7,2.7,5.1,5.1,10.3,7.4,15.6,2.6,6.1,5,12.2,7.2,18.5,1.5,4.3,2.8,8.7,4,13,1.3,4.8,2.6,9.6,3.6,14.5,1.5,7,2.8,14.1,3.6,21.2.5,4.4,1.2,8.7,1.2,13.1s0,1.2.4,1.6c0,11.4,0,22.8-.1,34.5-.2,1-.3,1.6-.3,2.2-.2,2.7-.2,5.4-.5,8.1-.4,3.8-1,7.6-1.6,11.4-.8,5.8-2,11.6-3.3,17.4-2.5,10.8-5.7,21.3-9.5,31.6-2.7,7.3-5.8,14.4-9.1,21.4-3.2,6.7-6.8,13.1-10.6,19.5-3.9,6.5-8,12.8-12.5,18.8-3.6,4.9-7.2,9.7-11.2,14.2-2.9,3.3-5.7,6.7-8.8,9.9-5.5,5.8-11.3,11.4-17.4,16.7-3.8,3.3-7.6,6.4-11.5,9.5-7,5.4-14.2,10.4-21.7,15.1-5.3,3.3-10.8,6.4-16.3,9.3-8.6,4.4-17.4,8.4-26.5,11.8-8,3-16.1,5.6-24.4,7.8-6.7,1.8-13.4,3.3-20.2,4.4-3.4.6-6.9,1.1-10.3,1.6-2.7.4-5.4.6-8,.9-3.2.4-6.3.7-9.5.8-.6,0-1.3,0-1.8.4-9.3,0-18.5,0-28.1-.1-.5-.2-.8-.2-1-.2-3.8,0-7.5-.5-11.3-.9-4.5-.4-8.9-1-13.3-1.7-6.5-1-12.9-2.3-19.2-3.8-8.4-2-16.7-4.5-24.9-7.4-8.8-3.1-17.4-6.8-25.8-10.8-6.6-3.2-13-6.8-19.3-10.5-7-4.2-13.8-8.8-20.4-13.6-4.6-3.4-9-6.9-13.3-10.7-3.5-3.1-7-6.1-10.3-9.2-3.6-3.4-7-6.8-10.3-10.5-2.6-2.9-5.2-5.6-7.7-8.6-2.3-2.8-4.7-5.6-6.9-8.4-5.4-6.9-10.3-14.1-15-21.5-3.2-5.2-6.3-10.5-9.1-15.9-3.7-7.1-7.1-14.4-10.2-21.9-3.3-8.2-6.3-16.5-8.6-25-1.4-5-2.7-10-3.8-15.1-1.1-4.8-2-9.7-2.8-14.6-.6-3.6-1-7.2-1.4-10.8-.2-1.8-.4-3.7-.5-5.5-.2-2.8-.6-5.5-.7-8.3,0-2.7-.3-5.4-.6-8.1,0-.3-.2-.5-.3-.8M90.5,86.5c-3.7,4.2-5.5,9.2-5.5,14.9v106.1c0,2.1.2,4.3.6,6.4,1.8,8.7,6.5,15.5,13.9,20.5.5.4,1,.7,1.6,1.1v167.8c-.7.4-1.4.3-2.1.3h-17.1c-.7,0-1.4-.2-2.2.4v16.1c0,.3,0,.5.2.8.3,0,.5.2.7.2h339.9c.2,0,.4-.1.6-.2,0-.2.2-.4.2-.6v-16c0-.2-.1-.4-.3-.7h-19.4c-.6,0-1.3.2-1.8-.3,0-2,.1-4,.1-6v-160.5c0-.5,0-1,.1-1.5.6-.4,1.1-.7,1.6-1.1,9.2-6.5,14-15.3,14.2-26.6v-106.8c0-8.9-5.9-18-15.8-20.7-2.1-.6-4.2-.7-6.3-.7H105.2c-.8,0-1.6,0-2.3.2-4.8.8-8.8,3-12.4,6.8h0Z"/>
    <path class="st3" d="M90.6,86.4c3.4-3.7,7.5-5.9,12.3-6.7.8,0,1.6-.2,2.3-.2h288.6c2.1,0,4.3,0,6.3.7,9.9,2.7,15.8,11.7,15.8,20.7v106.8c-.1,11.3-5,20.1-14.2,26.6-.5.4-1.1.7-1.6,1.1,0,.5-.1,1-.1,1.5v160.5c0,2,0,4-.1,6,.5.5,1.2.3,1.8.3h19.4c.1.3.3.5.3.7v16c0,.2-.1.4-.2.6-.2,0-.4.2-.6.2H80.7c-.2,0-.4-.1-.7-.2,0-.3-.2-.5-.2-.8v-16.1c.7-.6,1.5-.4,2.2-.4h17.1c.7,0,1.4.2,2.1-.3v-167.8c-.6-.4-1.1-.8-1.6-1.1-7.4-5-12-11.8-13.9-20.5-.4-2.1-.6-4.2-.6-6.4v-106.1c0-5.7,1.7-10.6,5.6-15M111.8,373.5v27.5c0,.8.2,1.7.7,2.3,2.7.3,18.7.2,20.4,0,.3-.8.2-1.6.2-2.5v-124.2c0-2.9,2.7-5,5-4.9h74.9c3.1,0,5.3,2.2,5.5,5.4v125.5c0,.3,0,.5.2.9.3,0,.6.1.9.1h168.9c.2-.6.5-1.1.5-1.7.1-1.4.3-2.8.3-4.2v-155.8c0-51.9,0-.9,0-1.3s-.1-.8-.2-1.2c-13.4,1.6-23.9-3.1-31.9-13.8-.5.7-1,1.2-1.4,1.8-7.6,9.8-20.3,14.5-33,11.4-7.2-1.8-13.1-5.7-17.7-11.6-.4-.5-.7-1.2-1.4-1.5-6.6,9-15.4,14-26.5,14s-20.1-5-26.7-14.1c-6.7,9.1-15.4,14.1-26.7,14.1s-20-5.1-26.7-14.1c-.5.6-.9,1.1-1.3,1.6-7.6,9.9-20.4,14.7-33.1,11.6-7.2-1.8-13.1-5.7-17.7-11.6-.4-.5-.7-1.2-1.3-1.5-.1,0-.2.1-.2.2-.3.3-.5.7-.8,1-7.6,9.5-17.4,13.8-29.6,12.5-.4,0-.8-.2-1.3.3v133.9M143.9,375.2v25.8c0,.8-.1,1.6.3,2.3.9.3,1.7.2,2.6.2h58.1c3.2,0,3.1,0,3.1-3.2v-52.5c0-.4-.1-.8-.2-1.3-.6,0-1.2-.2-1.7-.2h-3.6c-2.2-.1-4.5-1.8-4.9-3.8-.9-4,1.6-6.8,5-6.8h4.3c.8,0,1.1-.4,1.2-1.2v-50.8c0-.4-.2-.8-.3-1.3h-62.2c-.4,0-.8.1-1.1.2-.1.3-.3.4-.3.5,0,30.6,0,61.2-.1,92.2M206.1,90.2h-2.3c-.4,0-.8.2-1.3.3v117.2c.2,1.6.3,3.3.6,4.8,2.7,11.4,13.8,17.8,24,16.1,8.8-1.4,15.9-8.2,17.6-16.9.4-2,.4-4.1.4-6.2v-113.9c0-.4-.1-.8-.1-1.1-.3,0-.4-.2-.5-.2h-38.4M309.2,98.5v109.2c.1,1.6.2,3.1.6,4.6,2.7,11.6,13.9,17.8,23.9,16.2,9-1.5,16.1-8.2,17.8-17.2.4-2,.4-4,.4-5.9v-113.9c0-.4-.1-.8-.2-1.3h-42.3c-.3,2.7,0,5.2-.1,8.2M149.1,136.1v71.9c.1,1.5.3,3,.6,4.4,2.7,11.6,14,17.9,24.2,16.2,8.7-1.5,15.8-8.2,17.5-16.8.4-2,.4-4.1.4-6.2v-114.2c0-.4-.2-.8-.2-1.3h-40c-.8,0-1.5,0-2.2.2,0,.3-.2.4-.2.5v45.3M255.8,117.3v90.7c.1,1.5.2,3,.6,4.4,2.7,11.6,14,17.9,24.2,16.2,8.7-1.5,15.8-8.2,17.5-16.8.4-2,.4-4.1.4-6.2v-114.2c0-.4-.1-.8-.2-1.3h-40c-.8,0-1.5,0-2.2.2,0,.3-.2.4-.2.5v26.5M362.6,166.4v39.5c0,1.6,0,3.3.3,4.9,1.7,11.9,13.1,19.8,24.3,17.8,8.8-1.5,14.5-6.7,17.3-15.2.8-2.5.8-5,.8-7.6v-105.4c0-.6,0-1.1-.2-1.7-1.2-5.7-6.2-8.5-10.4-8.5h-31c-.3,0-.7,0-1.1.2v76.1M138.4,180.1v-88.5c0-.4-.1-.8-.2-1.3h-32.2c-4.6.2-8.6,3.5-9.8,7.9-.4,1.5-.4,3.1-.4,4.7v105c.2,1.6.2,3.1.6,4.6,2.7,11.7,14,17.9,23.9,16.2,7.8-1.3,13.3-5.7,16.5-12.9,1.1-2.6,1.6-5.3,1.6-8.1v-27.5h0Z"/>
    <path class="st1" d="M111.8,373.3v-133.6c.5-.6.9-.4,1.3-.3,12.2,1.3,22-3,29.6-12.5.3-.3.5-.7.8-1,0,0,.1,0,.2-.2.7.3.9,1,1.3,1.5,4.6,5.9,10.5,9.8,17.7,11.6,12.7,3.1,25.5-1.7,33.1-11.6.4-.5.8-1,1.3-1.6,6.6,9.1,15.4,14.1,26.7,14.1s20-5,26.7-14.1c6.7,9.1,15.5,14.1,26.7,14.1s19.9-5,26.5-14c.7.3,1,1,1.4,1.5,4.6,5.9,10.5,9.8,17.7,11.6,12.7,3.1,25.3-1.6,33-11.4.4-.6.9-1.1,1.4-1.8,8,10.7,18.5,15.4,31.9,13.8,0,.4.2.8.2,1.2v157.1c0,1.4-.1,2.8-.3,4.2,0,.5-.3,1.1-.5,1.7h-168.9c-.3,0-.5,0-.9-.1,0-.3-.2-.6-.2-.9v-125.5c-.2-3.2-2.4-5.3-5.5-5.4h-74.9c-2.2,0-4.9,2-5,4.9v124.2c0,.8.1,1.7-.2,2.5-1.7.3-17.8.3-20.4,0-.4-.7-.6-1.5-.7-2.3v-27.8M254.4,280.4v55.5c0,.4.1.8.2,1.2.9.3,1.8.2,2.6.2h103.8c3.2,0,3.1.2,3.1-3.2v-68.5c0-.3-.1-.7-.2-1-.9-.4-1.9-.3-2.8-.3h-105.2c-.4,0-.8.1-1.4.2v15.8h-.1Z"/>
    <path class="st5" d="M143.9,375c0-30.8,0-61.4.1-92,0-.1.1-.2.3-.5.3,0,.7-.1,1.1-.2h62.2c.1.5.3.9.3,1.3v50.8c0,.8-.4,1.1-1.2,1.2h-4.3c-3.4,0-5.9,2.9-5,6.8.4,2,2.7,3.7,4.9,3.8h3.6c.6,0,1.1.1,1.7.2,0,.5.2.9.2,1.3v52.5c0,3.3,0,3.2-3.1,3.2h-58.1c-.8,0-1.7.1-2.6-.2-.4-.7-.3-1.5-.3-2.3v-26h.2Z"/>
    <path class="st6" d="M206.3,90.2h38.2c.1,0,.3,0,.5.2,0,.3.1.7.1,1.1v113.9c0,2.1,0,4.1-.4,6.2-1.7,8.7-8.9,15.5-17.6,16.9-10.2,1.7-21.3-4.7-24-16.1-.4-1.6-.5-3.2-.6-4.8v-114.4c0-37.2,0-1.8,0-2.8.5,0,.9-.3,1.3-.3h2.6-.1Z"/>
    <path class="st6" d="M309.2,98.3c0-2.8-.1-5.3.1-8h42.3c0,.5.2.9.2,1.3v113.9c0,2,0,4-.4,5.9-1.7,9-8.8,15.8-17.8,17.2-10,1.6-21.2-4.6-23.9-16.2-.4-1.5-.5-3.1-.6-4.6v-109.4h0Z"/>
    <path class="st2" d="M149.1,135.9v-45s0-.3.2-.5c.7-.3,1.5-.2,2.2-.2h40c0,.5.2.9.2,1.3v114.2c0,2.1,0,4.1-.4,6.2-1.7,8.6-8.8,15.4-17.5,16.8-10.2,1.7-21.4-4.6-24.2-16.2-.3-1.4-.5-2.9-.6-4.4v-72.2h.1Z"/>
    <path class="st2" d="M255.8,117.1v-26.3s0-.3.2-.5c.7-.3,1.5-.2,2.2-.2h40c0,.5.2.9.2,1.3v114.2c0,2.1,0,4.1-.4,6.2-1.7,8.6-8.8,15.4-17.5,16.8-10.2,1.7-21.4-4.6-24.2-16.2-.3-1.4-.5-2.9-.6-4.4v-90.9h0Z"/>
    <path class="st2" d="M362.6,166.2v-75.8c.5,0,.8-.2,1.1-.2h31c4.2,0,9.1,2.8,10.4,8.5.1.6.2,1.1.2,1.7v105.4c0,2.6,0,5.1-.8,7.6-2.7,8.5-8.5,13.7-17.3,15.2-11.2,1.9-22.5-5.9-24.3-17.8-.2-1.6-.3-3.3-.3-4.9v-39.7h0Z"/>
    <path class="st6" d="M138.4,180.3v27.3c0,2.8-.5,5.5-1.6,8.1-3.2,7.3-8.7,11.6-16.5,12.9-9.9,1.7-21.2-4.6-23.9-16.2-.4-1.5-.4-3.1-.6-4.6v-105c0-1.6,0-3.1.4-4.7,1.2-4.5,5.2-7.7,9.8-7.9h32.2c0,.5.2.9.2,1.3v88.7h0Z"/>
    <path class="st4" d="M254.4,280.2v-15.6c.6-.1,1-.2,1.4-.2h105.2c.9,0,1.8-.2,2.8.3,0,.4.2.7.2,1v68.5c0,3.4.1,3.2-3.1,3.2h-103.8c-.8,0-1.7.1-2.6-.2,0-.4-.2-.8-.2-1.2v-55.7h.1Z"/>
  </g>
  <g>
    <circle class="st0" cx="427.4" cy="72.6" r="72.6"/>
    <path class="st1" d="M418.4,49.9h17.9v77.6h-17.9V49.9ZM418.5,21h17.9v17.7h-17.9v-17.7Z"/>
  </g>
</svg>