<?xml version="1.0" encoding="UTF-8"?>
<svg id="Layer_1" xmlns="http://www.w3.org/2000/svg" version="1.1" viewBox="0 0 500 500">
  <!-- Generator: Adobe Illustrator 29.5.0, SVG Export Plug-In . SVG Version: 2.1.0 Build 137)  -->
  <defs>
    <style>
      .st0 {
        fill: #242021;
      }

      .st1 {
        fill: #7581bf;
      }

      .st2 {
        fill: #ed2224;
      }

      .st3 {
        fill: #4a5ca9;
      }

      .st4 {
        fill: #7480bf;
      }
    </style>
  </defs>
  <path class="st3" d="M.5,240.5c0-1.1.1-2.1.2-3.2.5-9.1,1.4-18.1,2.8-27.1,0-.4.2-.9.3-1.4,2.8.4,5.5.9,8.2,1.3,5.9,1,11.7,1.9,17.6,2.9,2.2.4,4.3.7,6.5,1.1,1,.2,1,.3.9,1.4-.6,5.3-1.4,10.7-1.9,16-.4,4.3-.5,8.6-.7,12.9-.1,2.5-.3,4.9-.2,7.4.2,5.5.5,11.1.9,16.6.7,10.3,2.4,20.5,4.8,30.5,3.1,13.7,7.6,26.9,13.4,39.7,4.3,9.5,9.3,18.6,14.8,27.4,6.1,9.5,12.9,18.5,20.4,27,6.2,7,12.8,13.6,19.9,19.7,10.8,9.4,22.5,17.7,35,24.9,12.7,7.3,26,13.2,40,17.7,9.6,3.1,19.3,5.7,29.2,7.2,6.3,1,12.6,1.8,19,2.6,2.9.3,5.9.4,8.9.5,3.4.1,6.8.3,10.3.3,4.7,0,9.3-.1,14-.4,17.5-1.2,34.6-4.4,51.3-9.7,13-4.1,25.5-9.5,37.5-16,13.5-7.3,26.2-16,37.8-26.1,4.4-3.8,8.6-7.7,12.7-11.8,8.8-8.8,16.7-18.4,23.8-28.6,6.8-9.8,12.8-20.1,17.9-30.9,6.8-14.2,11.9-29,15.4-44.3,1.4-6.3,2.7-12.7,3.4-19.2.5-4.5.9-9,1.4-13.5.8-7.6.7-15.2.5-22.7-.2-6.3-.7-12.6-1.5-18.9-1.2-9.6-3-19.2-5.4-28.6-2.8-10.9-6.6-21.6-11.1-32-5.3-12.1-11.7-23.7-19.2-34.6-5.1-7.5-10.6-14.7-16.6-21.4-3.5-3.8-6.9-7.7-10.6-11.3-11.9-11.7-24.9-21.9-39.1-30.5-12.5-7.6-25.6-13.9-39.3-18.9-11.1-4-22.5-7.2-34.1-9.1-5.7-1-11.5-1.7-17.3-2.4-5.7-.7-11.4-1-17.1-1-1.8,0-3.6-.3-5.4-.2-5.3.2-10.6.3-15.8.7-10.2.8-20.3,2.3-30.2,4.5-12,2.7-23.6,6.3-35,11-12.2,5-23.7,11-34.8,18.1-9.3,6-18.1,12.6-26.3,19.9-4.4,3.9-8.7,8-12.8,12.2-6,6.2-11.6,12.8-16.8,19.7-.3.4-.5.7-.9,1.3,11.2,6,22.3,11.9,33.5,17.8-1.3.9-84.6,28.7-88.6,29.6-.3-2.2-.5-4.3-.8-6.4-.8-6.7-1.6-13.5-2.3-20.2-.5-4.5-1-8.9-1.5-13.4-.7-6.3-1.5-12.6-2.2-18.9-.5-4.3-1-8.6-1.4-12.9-.3-2.6-.6-5.1-.9-7.7,0-.7,0-1.3-.1-2.3,11.4,6.1,22.7,12.1,34,18.1.6-.8,1.2-1.6,1.8-2.4,4.8-6.6,10-13,15.5-19.1,3.2-3.5,6.4-7.1,9.8-10.4,7.1-7,14.5-13.6,22.3-19.8,11.1-8.7,22.9-16.5,35.3-23.2,11.9-6.5,24.3-11.9,37.1-16.4,11.3-3.9,22.8-7,34.6-9.3,6.2-1.2,12.5-2,18.8-2.8,4-.5,8-.7,12.1-1.1,1.1,0,2.2-.2,3.7-.3,1,0,1.7,0,2.4,0,.6,0,1.1-.2,1.6-.3,5.7,0,11.5,0,17.5.1,1.5.1,2.8.2,4.3.2,1.3.1,2.5.2,3.7.3,3.9.3,7.7.6,11.6,1,7.8.8,15.5,2.1,23.2,3.7,12.1,2.5,24,5.9,35.6,10.2,16.9,6.3,33,14.3,48.2,24.1,13,8.4,25.2,17.9,36.4,28.6,5.9,5.6,11.5,11.4,16.8,17.5,8.9,10.1,16.8,20.9,24,32.3,7.7,12.3,14.2,25.1,19.6,38.6,4.7,11.7,8.5,23.7,11.4,35.9,2.3,9.7,4,19.4,5.1,29.3.6,5.3.8,10.6,1.1,16.1,0,.9,0,1.6,0,2.3,0,.6.2,1.3.3,1.9,0,5.2,0,10.4-.1,15.8-.1,1.5-.1,2.9-.2,4.3-.2,3.6-.4,7.1-.7,10.6-.5,6.9-1.5,13.7-2.7,20.5-1.9,11.4-4.7,22.6-8.3,33.6-4.7,14.5-10.6,28.4-17.9,41.8-5.4,10-11.5,19.6-18.2,28.8-6.5,8.9-13.6,17.3-21.2,25.3-6.8,7.1-14,13.8-21.6,20.1-8.4,6.9-17.3,13.3-26.5,19.1-10.3,6.5-21.1,12.2-32.3,17.1-11.8,5.2-23.9,9.4-36.4,12.7-9.6,2.5-19.3,4.5-29.2,5.8-7.3,1-14.6,1.8-22.1,2-1.4,0-2.8-.4-4,.3-5.7,0-11.5,0-17.5-.1-1.6-.1-2.9-.2-4.3-.2-2.1-.1-4.1-.2-6-.3-4.4-.4-8.8-.8-13.2-1.3-9.2-1-18.2-2.8-27.1-5-8-1.9-15.9-4.3-23.7-7.1-11.8-4.2-23.2-9.2-34.2-15.1-9.6-5.1-18.8-10.8-27.7-17.1-12-8.6-23.3-18.1-33.6-28.8-3.1-3.2-6.2-6.5-9.2-9.9-7.2-8-13.7-16.5-19.7-25.4-7.6-11.2-14.2-23-19.9-35.4-5.5-12.1-10.1-24.6-13.6-37.5-2.3-8.6-4.4-17.3-5.7-26.1-.6-4.2-1.2-8.3-1.7-12.5-.5-4.5-.8-9-1.2-13.6-.1-1.7-.2-3.4-.3-5.3,0-2.1,0-4,0-5.9,0-.4-.2-.9-.4-1.3,0-1.1,0-2.3.1-3.6.2-.8.3-1.3.3-1.9,0-2,0-3.9,0-5.9Z"/>
  <path class="st1" d="M237.6,499.8c-.2,0-.2-.1-.2-.2,1.3,0,2.6,0,4,.1-1.2.1-2.4.1-3.8.1Z"/>
  <path class="st4" d="M263.1,499.5c.2,0,.1.2,0,.2-1.3,0-2.5,0-3.9,0,1.1-.7,2.4-.2,3.8-.3Z"/>
  <path class="st2" d="M255.8,242.2c5.8-4.7,11.5-9.5,17.3-14.2,12-9.8,23.9-19.6,35.9-29.5,11.9-9.8,23.9-19.6,35.8-29.4,11.9-9.8,23.9-19.6,35.8-29.4,3.7-3.1,7.5-6.1,11.2-9.2.3-.2.6-.4,1-.7,2.9,3.5,5.7,6.9,8.5,10.4-.3.3-.6.7-.9.9-14.4,11.8-28.7,23.6-43.1,35.3-15.4,12.6-30.8,25.3-46.2,37.9-15.4,12.6-30.7,25.2-46.1,37.8-.1.1-.3.2-.6.3-1.1-3.7-3-6.7-6.1-8.8-.8-.6-1.7-1-2.6-1.6Z"/>
  <path class="st2" d="M236.2,252.9c-7.3-5.8-14.5-11.7-21.8-17.5-15.3-12.3-30.5-24.5-45.8-36.8-10.5-8.4-21-16.9-31.5-25.3-.4-.3-.8-.7-1.3-1.1,2.9-3.6,5.7-7,8.6-10.6,2.9,2.3,5.7,4.6,8.5,6.8,11.4,9.1,22.8,18.3,34.1,27.4,15.7,12.6,31.3,25.2,46.9,37.8,3.5,2.8,7.1,5.7,10.6,8.7-4.2,2.3-7,5.5-8.1,10.1,0,.2-.2.4-.3.6Z"/>
  <path class="st0" d="M236.1,253c.1-.3.3-.5.3-.7,1.2-4.6,3.9-7.8,8.2-10,3.7-1.4,7.3-1.6,11-.2,1,.5,1.9,1,2.7,1.6,3.1,2.1,5,5.1,6,8.8.2,2.6.4,5.1-.5,7.6-2,5.2-5.7,8.4-11.3,9.4-7.2,1.3-14.5-3.5-16.2-10.9-.4-1.8-.6-3.6-.2-5.6Z"/>
  <path class="st3" d="M60.5,243.5h22.7c.3,1.3.4,11.1.2,13.6h-31.5c-.3-1.2-.4-11-.1-13.6,2.8,0,5.7,0,8.7,0Z"/>
  <path class="st3" d="M444.1,257.3h-27c-.2-4.6,0-9,0-13.6h31.6c.3,1.2.4,11,.1,13.6-1.5,0-3,0-4.6,0Z"/>
  <path class="st3" d="M243.5,52.4c.2-.3.5-.7.7-.7,4.2,0,8.4,0,12.6,0,.3,1.3.5,29,.2,31.9h-13.2c0,0-.1,0-.1-.1,0,0,0-.1,0-.2,0-10.2,0-20.5,0-30.9Z"/>
  <path class="st3" d="M243.5,428.2c0-3.8,0-7.3,0-11h13.5v31.8h-13.5v-20.8Z"/>
</svg>