<?xml version="1.0" encoding="UTF-8"?>
<svg id="Layer_1" xmlns="http://www.w3.org/2000/svg" version="1.1" viewBox="0 0 500 500">
  <!-- Generator: Adobe Illustrator 29.5.0, SVG Export Plug-In . SVG Version: 2.1.0 Build 137)  -->
  <defs>
    <style>
      .st0 {
        fill: #9f9c8b;
      }

      .st1 {
        fill: #c49e6f;
      }

      .st2 {
        fill: #fff;
      }
    </style>
  </defs>
  <path class="st1" d="M263.1,499.9c-8.4,0-16.7,0-25.5-.1-9.8-.6-19.2-1.7-28.5-3.2-13.2-2.2-26.2-5.4-38.9-9.7-13.4-4.5-26.3-10.2-38.8-17-19.1-10.3-36.5-22.9-52.3-37.8-7.1-6.7-13.9-13.8-20.2-21.3-11.3-13.5-21.2-28-29.4-43.6-7.4-13.9-13.5-28.4-18.1-43.5-2.7-8.8-4.9-17.8-6.6-26.8-2.1-11.2-3.5-22.5-4-34.1,0-1.6,0-3.1,0-4.5,0-.7-.5-1.4-.7-2.1,0-4,0-8,.2-12.4.2-2.3.3-4.3.5-6.5.7-6.9,1-13.6,1.9-20.2,2.2-16.9,6.1-33.4,11.8-49.5,6.9-19.6,16-38.1,27.5-55.4,11.9-18,25.9-34,41.9-48.4,15.1-13.6,31.6-25.1,49.6-34.6,18.9-10,38.7-17.5,59.5-22.4,14.7-3.5,29.6-5.5,44.9-6.3,1.2,0,2.1,0,3.1,0,1.2,0,2.3-.3,3.5-.5,4,0,8,0,12.4.1,2.4.2,4.4.2,6.6.3,7.9.8,15.5,1.4,23.1,2.4,14.8,1.9,29.1,5.5,43.2,10.1,13.7,4.6,26.9,10.4,39.7,17.2,25.1,13.5,47.1,31,66.3,52,14,15.4,25.9,32.3,35.6,50.6,9.4,17.7,16.6,36.3,21.5,55.7,3.6,14.6,6.2,29.5,6.9,44.8.1,1.5.3,2.8.4,4.2,0,8.4,0,16.7-.1,25.4-.2,1.6-.2,2.8-.3,4.2,0,7.4-1.1,14.4-2.2,21.5-2.3,15-6,29.7-11,44-8.3,23.6-19.8,45.4-34.6,65.5-11.5,15.7-24.7,29.7-39.4,42.3-13.9,11.9-28.9,22.1-45.1,30.6-13.4,7.1-27.2,12.9-41.7,17.4-19.9,6.2-40.2,10.1-61.1,11.1-.5,0-1.1.3-1.6.4M265,94.3v-23.9h-28.8c0,8.2,0,16.3-.4,24.4-2.9,0-5.8,0-8.7,0-1.6,0-1.8.3-1.9,1.8,0,.6,0,1.3,0,1.9,0,8.8,0,17.6,0,26.5,0,12.6,0,25.2,0,37.8,0,2.6.2,2.8,2.7,2.8,2.8,0,5.6,0,8.4.5,0,1,0,1.9,0,2.9,0,88.1,0,176.3,0,264.4,0,.7,0,1.4,0,2.2,0,.5.2,1,.3,1.5,4.5.5,26.8.3,28.6-.3v-3.3c0-88.1,0-176.3,0-264.4,0-1.1,0-2.2.4-3.4,2.6,0,5.1,0,7.7,0,2.9,0,3-.1,3.1-2.9,0-.3,0-.6,0-1,0-10.8,0-21.6,0-32.5,0-10.6,0-21.2,0-31.7,0-2.5-.2-2.7-2.7-2.7-2.8,0-5.6,0-8.4-.5M151.8,378.5c2.8,0,5.6,0,8.4,0,1.9,0,2.2-.3,2.2-2.3,0-.6,0-1.1,0-1.7,0-8.4,0-16.8,0-25.3,0-13.1,0-26.1,0-39.2,0-2.6-.2-2.7-2.7-2.8-2.8,0-5.6,0-8.4-.5V70.4h-28.9c0,1.3,0,2.5,0,3.7,0,76.8,0,153.7,0,230.5,0,.9,0,1.8-.4,2.7-2.4,0-4.8,0-7.2,0q-3.4,0-3.4,3.5c0,20.4,0,40.8,0,61.3,0,1.4,0,2.7,0,4.1,0,2.1.3,2.3,2.4,2.4,2.9,0,5.8,0,8.7.5,0,4.8,0,9.6,0,14.4,0,4.9,0,9.8,0,14.7s0,9.6,0,14.4c0,4.9,0,9.7,0,14.5,3.2.5,26.8.4,28.9-.2,0-19.4,0-38.8.5-58.3M374.7,209.4c0-45.5,0-91,0-136.5,0-.3,0-.6,0-1,0-.5-.2-1-.3-1.5h-28.5v3.2c0,44.5,0,89.1,0,133.6,0,.9,0,1.8-.4,2.7-2.5,0-5,0-7.4,0q-3.6,0-3.6,3.6c0,21.2,0,42.4,0,63.7,0,.4,0,.8,0,1.2,0,2.1.3,2.3,2.4,2.4,3,0,6.1,0,9.1.5,0,1,0,1.9,0,2.9,0,49.8,0,99.6,0,149.5,0,.6,0,1.3,0,1.9,0,.5.2,1,.3,1.6h28.6v-3.4c0-49.9,0-99.8,0-149.7,0-1,0-2.1.4-3.2,2.9,0,5.8,0,8.7,0,1.8,0,2-.3,2.1-2.1,0-.6,0-1.3,0-1.9,0-13.6,0-27.3,0-40.9,0-7.4,0-14.8,0-22.1q0-3.7-3.8-3.7c-2.5,0-5,0-7.5-.5Z"/>
  <path class="st2" d="M264.9,165.7c0,1.1,0,2.2,0,3.4,0,88.1,0,176.3,0,264.4v3.3c-1.8.6-24.1.9-28.6.3,0-.5-.3-1-.3-1.5,0-.7,0-1.4,0-2.2,0-88.1,0-176.3,0-264.4,0-1,0-1.9.3-3.1,9.7-.2,19.1-.2,28.5-.2Z"/>
  <path class="st2" d="M122.5,307.2c0-.9,0-1.8,0-2.6,0-76.8,0-153.7,0-230.5,0-1.2,0-2.4,0-3.7h28.9c0,78.9,0,157.6-.2,236.6-9.7.2-19.2.2-28.6.2Z"/>
  <path class="st2" d="M374.7,280.9c0,1,0,2.1,0,3.1,0,49.9,0,99.8,0,149.7v3.4h-28.6c-.1-.6-.3-1.1-.3-1.6,0-.6,0-1.3,0-1.9,0-49.8,0-99.6,0-149.5,0-1,0-1.9.3-3.1,9.7-.2,19.1-.2,28.5-.2Z"/>
  <path class="st2" d="M345.9,209.9c0-.9,0-1.8,0-2.6,0-44.5,0-89.1,0-133.6v-3.2h28.5c.1.5.2,1,.3,1.5,0,.3,0,.6,0,1,0,45.5,0,91-.2,136.8-9.7.2-19.1.3-28.6.3Z"/>
  <path class="st0" d="M345.7,209.9c9.7,0,19.1,0,28.8,0,2.7,0,5.2,0,7.7,0q3.8,0,3.8,3.7c0,7.4,0,14.8,0,22.1,0,13.6,0,27.3,0,40.9,0,.6,0,1.3,0,1.9,0,1.8-.3,2.1-2.1,2.1-2.9,0-5.8,0-8.9.1-9.6,0-19.1,0-28.7,0-3.3,0-6.3,0-9.4,0-2.1,0-2.3-.3-2.4-2.4,0-.4,0-.8,0-1.2,0-21.2,0-42.4,0-63.7q0-3.6,3.6-3.6c2.5,0,5,0,7.7,0Z"/>
  <path class="st0" d="M122.2,307.2c9.7,0,19.2,0,28.9,0,3,0,5.8,0,8.6,0,2.5,0,2.7.2,2.7,2.8,0,13.1,0,26.1,0,39.2,0,8.4,0,16.8,0,25.3,0,.6,0,1.1,0,1.7,0,2-.3,2.2-2.2,2.3-2.8,0-5.6,0-8.9,0-9.5,0-18.5,0-27.5-.1-.5,0-.9,0-1.4.1-2.9,0-5.8,0-8.6,0-2.1,0-2.3-.3-2.4-2.4,0-1.4,0-2.7,0-4.1,0-20.4,0-40.8,0-61.3q0-3.5,3.4-3.5c2.4,0,4.8,0,7.4,0Z"/>
  <path class="st0" d="M265.1,165.7c-9.7,0-19.1,0-28.7,0-3,0-5.8,0-8.6,0-2.5,0-2.7-.2-2.7-2.8,0-12.6,0-25.2,0-37.8,0-8.8,0-17.6,0-26.5,0-.6,0-1.3,0-1.9.1-1.5.4-1.8,1.9-1.8,2.9,0,5.8,0,9.1,0,9.9,0,19.4,0,28.8,0,2.8,0,5.6,0,8.4,0,2.6,0,2.7.2,2.7,2.7,0,10.6,0,21.2,0,31.7,0,10.8,0,21.6,0,32.5,0,.3,0,.6,0,1,0,2.8-.1,2.9-3.1,2.9-2.6,0-5.1,0-7.9,0Z"/>
  <path class="st2" d="M122.4,378.7c.5-.3.9-.4,1.4-.4,9,0,18,0,27.3.1.2,19.5.2,39,.2,58.4-2,.6-25.7.7-28.9.2,0-4.8,0-9.6,0-14.5,0-4.8,0-9.6,0-14.4s0-9.8,0-14.7c0-4.8,0-9.6,0-14.7Z"/>
  <path class="st2" d="M265,94.5c-9.5.2-18.9.3-28.6.3-.2-8.1-.2-16.2-.2-24.4h28.8c0,8.1,0,16,0,24.1Z"/>
</svg>