<?xml version="1.0" encoding="UTF-8"?>
<svg id="Layer_1" xmlns="http://www.w3.org/2000/svg" version="1.1" viewBox="0 0 500 500">
  <!-- Generator: Adobe Illustrator 29.5.0, SVG Export Plug-In . SVG Version: 2.1.0 Build 137)  -->
  <defs>
    <style>
      .st0 {
        fill: #629dd4;
      }

      .st1 {
        fill: #edb9b9;
      }

      .st2 {
        fill: #8fcea2;
      }
    </style>
  </defs>
  <circle class="st1" cx="250" cy="250" r="250"/>
  <g>
    <path class="st0" d="M423.5,313c-34.8,95.8-140.7,145.4-236.5,110.6-95.8-34.8-145.4-140.7-110.6-236.5,34.8-95.8,140.7-145.4,236.5-110.6,95.8,34.8,145.4,140.7,110.6,236.5Z"/>
    <path class="st2" d="M179.6,293.8c-2.5,8-11.9,11.5-19.2,7.3-5.1-2.9-10.4-5.1-16.2-5.3-9.7-.4-20.4,7.3-19.2,17,.7,5.5,4.8,9.9,6.5,15.1,1.7,5,1.2,10.4.6,15.7-1.9,18-15.6,8.8-.4,48.4-51.9-43.3-77-112.9-62.2-180.8,25.9-2.4,14.5,12.3,39.9,12.3,10,0,10.9,8.3,18.5,8.7,4.3.2,8.9-3.3,12.5-.9,3.3,2.2,3,7.1,4.1,10.9,2.9,10,15.5,12.7,24,18.7,7.4,5.2,12.1,14,12.5,23,.1,3.4-.3,6.8-1.4,10.1Z"/>
    <path class="st2" d="M432.5,222c-1,.1-2.2.2-2.9.2-7.9,0-16.5-1.6-23.2,2.5-6.1,3.8-8.6,11.1-11.5,17.7-10.1,22.6-26,41-44.7,57.4,2,.7,4,1.4,6,2.2,2.3.9,2.4,4.1.3,5.3-42.1,22.9-53.8,65.6-88.8,88.2-6.5,4.2-15.5,7.5-21.3,2.5-6-5.1-3.8-14.8-1.1-22.2,5.2-14.3,10.3-28.6,15.5-42.8,2.5-7,5-14.9,1.9-21.6-2.3-4.9-7.1-8.1-12-10.3-7.9-3.6-16.5-5.4-24.5-8.8-8-3.4-15.7-9-18.5-17.2-3.5-10.1,1.2-21.1,6.8-30.2,6.2-10.1,14-19.8,25-24.2,10-4,21.5-2.9,31.6.8,6.7,2.4,30.8,11.4,36.3,13.6,9.1,3.6,17.3,10.9,19.5,20.4,2.3,10.1-2.4,21.1,1.5,30.7,2.1,5.1,5.8,7.7,10.5,9.7,7.8-9.3,15.4-19.6,15.4-31.6,0-4.3-1-8.7.3-12.9,2.5-8.4,13-12.7,14.7-21.3,1.7-8.5-6.1-15.8-13.6-20.1-6.8-3.9-14.2-6.9-22-7.6-3-.3-6.2-.2-9.2.4-6.4,1.2-12.8-2.1-15.4-8.1-4-9.1-12.1-16.6-21.9-18.9-5-1.2-10.3-1.2-15.3-2.5-5-1.4-10-4.7-11.1-9.7-.8-3.4.4-7,1.5-10.3,2.3-6.9,5-14.4,11.1-18.4,9-5.9,20.8-2,31.3.5,12,2.9,25.1,3.5,36.3-1.7,9.4-4.4,18.1-18.8,15.1-34.8,41.5,29.1,68.8,74,76.3,123.1Z"/>
    <path class="st2" d="M220.9,117.5c-8.3,4.6-19.8,4-25.8,11.4-5.2,6.4-3.7,15.7-3,24,.7,8.3-1,18.5-8.7,21.3-7.5,2.8-15.3-3.4-20.2-9.7-1.8-2.4-4.1-5.1-7.1-4.8-2.6.2-4.5,2.9-5,5.5-.5,2.6-.2,5.3-.4,7.9-1.1,10.2-11.8,17.1-22,17.5-10.2.4-21.8-1.5-29.1-8.7-3.1-3-8.9-9.2-14.8-14.7,25-50.1,70.7-84.7,122.6-97,.5.4,1,.7,1.5,1.1,6.2,4.2,13.5,7.2,18.2,13.1,8.1,9.9,4.8,26.9-6.4,33.1Z"/>
  </g>
</svg>