<?xml version="1.0" encoding="UTF-8"?>
<svg id="Layer_1" xmlns="http://www.w3.org/2000/svg" version="1.1" viewBox="0 0 800 800">
  <!-- Generator: Adobe Illustrator 29.5.0, SVG Export Plug-In . SVG Version: 2.1.0 Build 137)  -->
  <defs>
    <style>
      .st0 {
        fill: #666766;
      }

      .st1 {
        fill: #cf94b1;
      }

      .st2 {
        fill: #f0dde3;
      }

      .st3 {
        fill: #d1d3d4;
      }
    </style>
  </defs>
  <circle class="st3" cx="429.7" cy="388.4" r="527.7"/>
  <path class="st0" d="M91.8,462.1l337.9,337.9,337.9-337.9c39.8-39.8,62.1-93.7,62.1-150v-9.5c0-111.9-90.7-202.6-202.6-202.6s-119.8,28-158.2,76l-39.2,49-39.2-49c-38.5-48.1-96.7-76-158.2-76-111.9,0-202.6,90.7-202.6,202.6v9.5c0,56.3,22.3,110.2,62.1,150Z"/>
  <circle class="st2" cx="-795.9" cy="388.4" r="527.7"/>
  <path class="st1" d="M-1133.7,462.1l337.9,337.9,337.9-337.9c39.8-39.8,62.1-93.7,62.1-150v-9.5c0-111.9-90.7-202.6-202.6-202.6s-119.8,28-158.2,76l-39.2,49-39.2-49c-38.5-48.1-96.7-76-158.2-76-111.9,0-202.6,90.7-202.6,202.6v9.5c0,56.3,22.3,110.2,62.1,150Z"/>
</svg>