<?xml version="1.0" encoding="UTF-8"?>
<svg id="Layer_1" xmlns="http://www.w3.org/2000/svg" version="1.1" viewBox="0 0 500 500">
  <!-- Generator: Adobe Illustrator 29.5.0, SVG Export Plug-In . SVG Version: 2.1.0 Build 137)  -->
  <defs>
    <style>
      .st0 {
        fill: #e6e7e7;
      }

      .st1 {
        fill: #fff;
      }

      .st2 {
        fill: #d2d3d4;
      }

      .st3 {
        fill: #9e9e9e;
      }

      .st4 {
        fill: #676867;
      }
    </style>
  </defs>
  <path class="st2" d="M259.6-.2c.7,0,1.3,0,2.2,0,.4,0,.5,0,.6,0,1.3,0,2.6,0,4.1.2.6.4.9.7,1.3.7,2.3,0,4.6.2,6.8.5,2.2.3,4.4.3,6.6.6,3.8.5,7.6,1.2,11.4,1.7,4.7.7,9.3,1.6,13.9,2.7,9.6,2.2,19.1,4.9,28.4,8.3,6.7,2.5,13.4,5.1,19.9,8.1,7.4,3.5,14.8,7.2,21.8,11.4,7.7,4.6,15.3,9.5,22.5,14.8,4.5,3.3,8.9,6.7,13.1,10.5,1.3,1.2,2.7,2.4,4.1,3.6,2.7,2.4,5.5,4.8,8.1,7.3,3,2.8,5.9,5.7,8.5,8.8,1.8,2.1,3.7,4.1,5.6,6.1,2.9,3,5.3,6.2,7.9,9.4,3.6,4.5,7,9.1,10.3,13.9,4.4,6.4,8.6,13,12.3,19.9,2,3.6,4,7.2,5.8,10.8,1.6,3.2,3,6.4,4.4,9.7,2.7,5.9,5,11.9,7.2,18,2.8,7.9,5.2,15.9,7.1,24,1.4,6,2.7,12,3.7,18,.6,3.8,1.1,7.6,1.5,11.5.2,1.6.3,3.1.5,4.7,0,.6.2,1.1.9,1.2,0,1,0,1.9-.1,3.2-.3.6-.2.9.1,1.1,0,.2,0,.4,0,.8,0,.3,0,.5,0,.6,0,11.8,0,23.7,0,35.8,0,.3-.2.4-.2.4,0,0,.1.2.2.2,0,.2,0,.4-.1.9-.4.7-.4,1.2.1,1.5,0,.8,0,1.6-.2,2.7-.8.6-.7,1.2-.7,1.7-.3,3.4-.5,6.8-1.1,10.1-1.1,6.4-2.1,12.9-3.5,19.3-1.5,6.4-3.1,12.7-5,19-1.6,5-3.3,9.9-5.1,14.8-2.4,6.8-5.4,13.4-8.5,20-2.3,5-5,9.8-7.7,14.6-2.9,5.1-5.9,10.1-9.1,14.9-1.8,2.6-3.5,5.3-5.4,7.8-2.9,3.9-5.8,7.7-8.8,11.5-1.8,2.3-3.7,4.5-5.6,6.7-1.9,2.2-3.7,4.5-5.8,6.6-6.4,6.5-12.7,13.2-19.8,19-3.2,2.6-6.3,5.4-9.6,8-6.9,5.3-13.9,10.3-21.3,14.9-5.6,3.5-11.4,6.7-17.2,9.8-6.3,3.4-12.9,6.4-19.5,9.1-5.3,2.2-10.7,4.2-16.2,6.1-3.8,1.3-7.6,2.5-11.5,3.5-4.9,1.3-9.9,2.6-14.9,3.7-4.7,1-9.4,1.9-14.1,2.7-4.2.7-8.4,1.2-12.6,1.6-2,.2-3.9.3-5.9.5-.5,0-.9.3-.9.9-12.6,0-25.3,0-38.2-.2-.6-.8-1.2-.7-1.7-.7-1.2,0-2.4,0-3.5-.2-2-.2-4.1-.5-6.1-.8-2.9-.4-5.8-.6-8.7-1.1-3.9-.6-7.7-1.4-11.6-2.2-7.7-1.5-15.2-3.4-22.7-5.7-5.1-1.6-10.2-3.4-15.2-5.2-7.4-2.6-14.6-5.9-21.7-9.3-3.1-1.5-6.2-3.2-9.2-4.8-3-1.7-6.1-3.3-9.1-5.1-5.4-3.3-10.9-6.7-16-10.5-2.7-2-5.4-3.8-8-5.9-3.9-3.1-7.7-6.3-11.5-9.5-2.3-2-4.7-3.9-6.9-6.1-6.3-6.1-12.6-12.2-18.1-19-2.5-3-5.1-6-7.6-9.1-4.2-5.2-8-10.5-11.7-16-1.9-2.9-3.7-5.8-5.6-8.8-3.4-5.5-6.5-11.2-9.5-16.9-2-4-3.8-8.1-5.7-12.2-2.5-5.4-4.7-11-6.7-16.7-3.3-9.2-6.1-18.6-8.2-28.1-1.6-7.1-2.9-14.2-4-21.3-.2-1.5-.4-3-.5-4.5-.2-2.1-.3-4.2-.6-6.3-.4-3.7-.8-7.3-.9-11.1,0-1.4,0-2.8,0-4.5,0-1.1,0-2.1,0-3,0-1.1,0-2.2,0-3.2,0-.6-.3-1-.9-1.1,0-.4,0-.7.2-1.3.3-.4.6-.6.6-.7,0-2.1,0-4.2,0-6.3,0-.2-.5-.5-.8-.7,0-.8,0-1.6.2-2.7.8-.6.7-1.2.7-1.7.2-3.1.3-6.3.5-9.4,0-.2,0-.5,0-.7.3-2.3.6-4.5.8-6.8.4-3,.6-6,1.1-8.9.6-4,1.5-7.9,2.2-11.8,1.7-9.1,4.2-18,7-26.7,1.3-4.1,2.9-8.2,4.4-12.3,2.4-6.6,5.2-13,8.3-19.3,2.6-5.1,5.1-10.3,8-15.3,4.1-7.3,8.6-14.3,13.5-21.1,1.9-2.7,3.8-5.4,5.9-8,3.4-4.3,6.9-8.6,10.6-12.7,2.5-2.7,4.8-5.5,7.3-8.1,2.7-2.8,5.4-5.5,8.3-8.1,3.4-3.1,6.7-6.2,10.2-9.1,3.2-2.6,6.3-5.2,9.5-7.7,6.4-4.9,12.9-9.6,19.8-13.7,4.9-2.9,9.7-5.8,14.7-8.5,7.9-4.2,16.1-8,24.5-11.4,6.9-2.7,13.9-5.2,21-7.3,6.4-1.9,12.9-3.6,19.5-5,4-.8,8-1.7,12.1-2.3,4.1-.6,8.2-1.3,12.4-1.6,3.4-.3,6.7-.8,10.1-.9.4,0,.8,0,1.1-.2.2-.1.3-.5.5-.7,1.3,0,2.6,0,4.1,0,.4,0,.5,0,.6,0,.7,0,1.3,0,2.2,0,.4,0,.5,0,.6,0,5.5,0,11.1,0,16.9,0,.4,0,.5,0,.7,0M328.3,114.7c-1.1.2-2.2.4-3.2.6-22.7,4.7-41.2,16.1-55.8,34-5.8,7.2-11.5,14.4-17.3,21.6-.4.5-.6,1.1-1.5,1.1-.3-.3-.6-.6-.9-1-5.2-6.5-10.4-12.9-15.5-19.4-4.7-6-9.9-11.7-15.9-16.5-15.7-12.8-33.7-20-53.8-21.6-8.8-.7-17.5-.1-26.1,1.6-17.5,3.6-32.8,11.4-46,23.5-9.8,9-17.4,19.6-22.7,31.7-5.3,12-8,24.6-8.2,37.7,0,1.7,0,3.5,0,5.2,0,6.6.6,13.1,1.8,19.5,2.4,12.4,6.9,23.9,13.7,34.6,4.2,6.6,9.1,12.7,14.7,18.2,52.4,52.3,104.7,104.7,157,157,.4.4.8.8,1.2,1.2.3.3.7.5,1.2.9.7-.6,1.2-1.1,1.8-1.7,52.7-52.7,105.5-105.5,158.2-158.2,5.6-5.6,10.4-11.7,14.5-18.4,9.6-15.7,14.5-32.8,14.8-51.2,0-2.1,0-4.1,0-6.2,0-5.8-.5-11.5-1.6-17.2-3.4-17.9-11.1-33.6-23.4-47.1-10-11-22-19.3-35.9-24.8-11-4.3-22.4-6.5-34.2-6.6-5.3,0-10.6.3-16,1.1-.1,0-.3,0-.8.2Z"/>
  <path class="st0" d="M0,242.1c.3,0,.8.2.8.5,0,2.1,0,4.2,0,6.3,0,.2-.3.3-.6.6-.2-2.3-.2-4.7-.2-7.3Z"/>
  <path class="st0" d="M1,258.2c-.2,0-.5,0-.8-.2-.1-2.3-.1-4.5-.1-6.9.6,0,.9.3.9.9,0,1.1,0,2.2,0,3.2,0,.9,0,1.9,0,3Z"/>
  <path class="st1" d="M500.2,270.6c-.5-.2-.5-.6-.1-1.2.1.3.1.6.1,1.2Z"/>
  <path class="st1" d="M500.2,230.3c-.3,0-.4-.3-.1-.7.1.1.1.4.1.7Z"/>
  <path class="st1" d="M500.2,231.8s0-.1,0-.3c0,0,0,.2,0,.3Z"/>
  <path class="st1" d="M500.2,268.3c0,0-.1,0-.2-.1,0,0,0,0,.2-.2,0,0,0,.2,0,.3Z"/>
  <path class="st4" d="M329.3,114.5c5.2-.8,10.5-1.1,15.8-1.1,11.8,0,23.2,2.3,34.2,6.6,13.9,5.5,25.9,13.8,35.9,24.8,12.2,13.5,20,29.2,23.4,47.1,1.1,5.7,1.6,11.4,1.6,17.2,0,2.1,0,4.1,0,6.2-.3,18.4-5.3,35.5-14.8,51.2-4.1,6.7-8.9,12.8-14.5,18.4-52.7,52.7-105.5,105.5-158.2,158.2-.6.6-1.1,1.1-1.8,1.7-.4-.3-.8-.6-1.2-.9-.4-.4-.8-.8-1.2-1.2-52.3-52.3-104.7-104.7-157-157-5.6-5.5-10.5-11.6-14.7-18.2-6.7-10.7-11.3-22.2-13.7-34.6-1.2-6.4-1.9-12.9-1.8-19.5,0-1.7,0-3.5,0-5.2.2-13.1,2.9-25.7,8.2-37.7,5.4-12.1,13-22.7,22.7-31.7,13.2-12.1,28.5-19.9,46-23.5,8.6-1.8,17.4-2.3,26.1-1.6,20.2,1.6,38.1,8.8,53.8,21.6,6,4.9,11.1,10.5,15.9,16.5,5.1,6.5,10.3,13,15.5,19.4.3.4.6.7.9,1,.9,0,1.1-.7,1.5-1.1,5.8-7.2,11.5-14.5,17.3-21.6,14.6-17.9,33.2-29.3,55.8-34,1.1-.2,2.2-.4,3.5-.6.5,0,.6,0,.7-.2Z"/>
  <path class="st3" d="M329.1,114.5c0,.1-.1.2-.4.2,0-.1.1-.2.4-.2Z"/>
</svg>