<?xml version="1.0" encoding="UTF-8"?>
<svg id="Layer_1" xmlns="http://www.w3.org/2000/svg" version="1.1" viewBox="0 0 500 500">
  <!-- Generator: Adobe Illustrator 29.5.0, SVG Export Plug-In . SVG Version: 2.1.0 Build 137)  -->
  <defs>
    <style>
      .st0 {
        fill: #e65825;
      }

      .st1 {
        fill: #fff;
      }

      .st2 {
        fill: #617e8c;
      }

      .st3 {
        fill: #398f43;
      }

      .st4 {
        fill: #1e421e;
      }

      .st5 {
        fill: #56bd7e;
      }

      .st6 {
        fill: #f7e1e0;
      }

      .st7 {
        fill: #c4c9e6;
      }

      .st8 {
        fill: #384850;
      }

      .st9 {
        fill: #fdea3b;
      }

      .st10 {
        fill: #4daf4f;
      }

      .st11 {
        fill: #eeb9b9;
      }
    </style>
  </defs>
  <path class="st11" d="M0,252.7c0-1.6,0-3.2.1-5.1.2-.8.3-1.3.3-1.8,0-1.3,0-2.7.3-4v-.8c0-2.9.1-5.8.4-8.7.3-3.3.5-6.7.9-10,.5-3.7.8-7.5,1.4-11.2,1-6.2,2.2-12.3,3.6-18.4,2.2-9.3,4.9-18.4,8.1-27.4,2.5-7,5.3-13.9,8.5-20.7,3.5-7.4,7.2-14.7,11.5-21.7,2.5-4.1,5-8.1,7.6-12.1,3.7-5.6,7.8-11.1,12-16.3,2.4-3,4.9-5.9,7.4-8.8,1.5-1.8,3.2-3.5,4.7-5.2,3.8-4.4,8-8.4,12.3-12.5,3.1-3,6.4-5.8,9.7-8.6,2.8-2.4,5.7-4.7,8.6-7,6.9-5.4,14.2-10.4,21.7-15.1,4.7-2.9,9.5-5.7,14.4-8.3,7.4-3.9,15-7.5,22.8-10.6,10.7-4.3,21.6-7.9,32.8-10.7,5.2-1.3,10.5-2.5,15.8-3.4,4.9-.9,9.8-1.7,14.7-2.2,1.4,0,2.8-.3,4.2-.5,2-.2,4.1-.5,6.1-.7,3.2-.2,6.4-.3,9.6-.5.5,0,.9-.2,1.4-.4C246.9,0,252.9,0,259.2.1c.5.2.8.3,1,.3,2.4,0,4.8.2,7.2.4,3.3.3,6.6.5,10,.9,3.9.5,7.8.8,11.6,1.5,6,1,12,2.1,18,3.5,11.2,2.6,22.1,5.9,32.8,10,9.1,3.5,18,7.4,26.6,12,4.7,2.5,9.4,5.1,13.9,7.9,6.1,3.7,12.1,7.7,17.9,12,4.4,3.2,8.6,6.5,12.7,10,2.9,2.5,5.8,4.8,8.5,7.4,3.2,3,6.2,6,9.3,9.1,5.5,5.5,10.7,11.4,15.7,17.4,4.4,5.4,8.6,11,12.5,16.7,4.5,6.6,8.8,13.4,12.6,20.5,2.8,5.3,5.6,10.6,8.1,16,2.9,6.2,5.5,12.6,7.8,19.1,2.6,7.2,4.8,14.4,6.8,21.8,1.6,6.1,3,12.3,4.1,18.5.6,3.5,1.2,7,1.7,10.5.4,3,.7,6.1,1,9.1.4,3.5.8,6.9.8,10.4s0,1.1,0,1.9v8.7c0,.6,0,1.3.4,1.8,0,1.4,0,2.9-.1,4.6-.2.6-.3.9-.3,1.2v9.8c0,2.1,0,4-.1,6-.2,2.2-.5,4.4-.7,6.6-.3,3.1-.6,6.2-1,9.3-.7,4.6-1.6,9.2-2.4,13.8-1.7,9.4-4.2,18.7-7.2,27.8-1.4,4.2-2.9,8.3-4.4,12.5-2.5,6.7-5.4,13.3-8.5,19.8-2.8,5.8-5.7,11.4-9.1,16.9-2.7,4.4-5.3,8.9-8.2,13.2-4.6,6.9-9.5,13.6-14.9,20-3.3,3.9-6.6,7.9-10.1,11.6-4.7,5-9.4,9.9-14.6,14.3-3.4,2.9-6.7,5.9-10.1,8.8-6.1,5.1-12.5,9.8-19.2,14.2-6.2,4.1-12.5,8.1-19.2,11.6-4.8,2.5-9.6,5.1-14.4,7.3-6.6,3.1-13.3,5.8-20.1,8.3-7,2.5-14.1,4.8-21.4,6.7-6.6,1.7-13.2,3.3-20,4.4-3.2.5-6.3,1.1-9.5,1.5-2.8.4-5.6.6-8.5,1-3.3.4-6.6.7-10,.8-.6,0-1.3,0-1.8.4-9.3,0-18.5,0-28.1-.1-.6-.2-.9-.3-1.2-.3-3.7,0-7.4-.5-11-.9-4.4-.5-8.9-1-13.3-1.7-7-1.1-13.8-2.5-20.7-4.2-3.7-.9-7.4-2-11.1-3.1-6.6-1.8-13-4.1-19.4-6.6-4.2-1.7-8.4-3.4-12.6-5.3-3.7-1.7-7.4-3.4-11-5.3-6.1-3.2-12.2-6.5-18-10.2-4.7-3-9.3-6-13.8-9.3-5.9-4.2-11.6-8.6-17.1-13.5-3.5-3.2-7.2-6.3-10.6-9.6-2.9-2.8-5.6-5.8-8.5-8.7-2.9-2.9-5.7-6-8.3-9.2-2.9-3.5-5.8-7-8.6-10.6-4.7-6.1-9.1-12.5-13.2-19.1-3.4-5.4-6.6-11-9.6-16.6-4.9-9.3-9.2-18.9-12.8-28.8-2.9-7.9-5.5-16-7.6-24.2-1.7-6.3-3.1-12.7-4.1-19.2-.7-4.1-1.2-8.1-1.8-12.2-.2-1.5-.4-3-.5-4.4-.3-2.6-.5-5.2-.8-7.8-.4-3.4-.4-6.8-.5-10.2v-.6c-.4-1.2-.3-2.4-.3-3.6s.1-1.4-.4-2M81.7,189.3c0,1-.2,2-.2,2.9v141.4c0,.4,0,.8.2,1.2,1.8.4,8.6.5,16.4.3h196c1.1,0,2.3,0,3.5.4v5.7c0,.8,0,1.7.3,2.5.9,3.5,2.2,6.7,4.3,9.7,3.3,4.6,7.6,7.6,13.3,8.3,8.2,1,15-1.6,19.8-8.5,2.1-2.9,3.4-6.2,4.3-9.7.4-1.4.5-2.8.5-4.2s0-2.8.4-4.2c6.6,0,13.1,0,19.7.4-.7,2.9-1.7,5.7-3.5,8.2-.6.8-1.1,1.9-1.4,2.8-.6,1.7-.1,2.9,1.4,3.9,1,.6,2,1,3.1,1.4,1.3.5,2.7.9,4,1.4,5.6,2.2,11.3,4.4,16.9,6.6,1.1.4,2,1,3.1,1.5,1,.5,1.9.9,2.9,1.3,1.5.6,2.8.2,3.9-1,.8-.8,1.4-1.8,2-2.8.8-1.4,1.5-2.9,2.3-4.4,2.6-5.1,5.5-9.9,8.9-14.5,2-2.7,3.9-5.4,5.8-8.2,2.5-3.7,4.7-7.4,6.7-11.4,5.6-11.3,6.3-23,2.8-35.1-1.3-4.4-3.2-8.5-6-12.2-2.6-3.3-5.6-6.1-9.6-7.6-9.7-3.8-18.9-2.9-27.5,3.1-.7.5-1.3,1-2,1.2v-78.2c0-.7,0-1.4-.2-2.4-.3-.7-.5-1.5-.9-2.2-5.9-12.5-11.9-24.9-17.8-37.4-7.1-15-14.3-29.9-21.4-44.9-.3-.7-.7-1.4-1.1-2.1h-9.7c-39.8,0-79.7-.2-119.5-.3h-78.5c-.8,0-1.6-.2-2.1,0-.4,1.1-.7,2-1.2,2.9-4.5,8.9-9,17.8-13.5,26.6-3,5.9-6,11.8-9,17.7-6.3,12.3-12.5,24.6-18.8,36.9-.2.4-.4.9-.6,1.4.8.5,1.5.9,2,1.6M381.4,385.9c2-3.5,3.7-7.2,4.8-11.2-.5-.2-.8-.5-1.2-.6-1.4-.6-2.9-1.2-4.4-1.7-10.1-4-20.2-8-30.3-12-.7-.3-1.4-.8-2.3-.6-.2.4-.5.8-.7,1.3-1.6,3.1-2.7,6.2-3.6,9.5-.9,3.4-1.3,6.8-1,10.3.4,5.2,2.7,9.4,6.9,12.5,3,2.2,6.4,3.6,10.1,4.3,1.7.3,3.5.5,5.3.3,4.4-.5,8.1-2.5,11.3-5.5,2-1.9,3.6-4,5.2-6.6h0Z"/>
  <path class="st6" d="M499.9,237.1c0-.2.2-.2.3-.2v10.5c-.5-.3-.4-1-.4-1.6v-8.7h.1Z"/>
  <path class="st6" d="M500.3,262.7c0,.2-.2.2-.3.2-.1-3.2-.1-6.4-.1-9.6s.1-.5.3-1c.1,3.3.1,6.7.1,10.3h0Z"/>
  <path class="st1" d="M360.3,335.1c-6.6,0-13.1,0-19.9-.2-.3-2.5-.2-4.7-.5-7.1h-1.8c-3.8.1-7.6.3-11.5.4-9.2.3-18.4.6-27.6,1-.4,0-.8,0-1.3.2v5.8h-147.3c-1,0-2,0-3.2-.2-.2-26.8-.2-53.4-.2-80v-1.3c0-.4-.1-.8-.2-1.3h-46.8c-.6,0-1.2,0-1.9.1,0,.8,0,1.4,0,2v80.7c-7.5.3-14.2.2-16.1-.3,0-.4-.2-.8-.2-1.2v-141.4c0-1,0-2,.5-3,.7,0,1,.2,1.5.3.5-.9.9-1.7,1.3-2.5,6.6-12.9,13.2-25.8,19.7-38.8,5.8-11.4,11.6-22.8,17.4-34.2.3-.7.5-1.4,1.3-2,1.2,2.5,2.4,4.8,3.6,7.1,1.2,2.3,2.4,4.7,3.6,7,1.2,2.3,2.4,4.7,3.5,7,1.2,2.3,2.4,4.7,3.6,7,1.2,2.3,2.4,4.7,3.6,7,1.2,2.3,2.4,4.7,3.6,7,1.2,2.3,2.4,4.7,3.5,7,1.2,2.3,2.4,4.7,3.6,7,1.2,2.3,2.4,4.7,3.6,7,1.2,2.3,2.3,4.7,3.6,7,1.2,2.3,2.3,4.7,3.7,7.1,1-.5,1.9-.8,3-.7h11.9c17.7,0,35.4,0,53.1.1,34,0,68,.1,102,.2h41.4v78.8c0,.5,0,1-.1,1.8-1.7,1.8-3.1,3.3-4.3,5.1-5.2,7.8-8.3,16.3-8.5,25.7-.1,4.2.2,8.4.7,12.5.4,3.6.8,7.2.7,10.8-.1,3.7-.9,7.3-2.1,10.8M353.4,262.6c0-.3.1-.7.2-1,1.9-7.9,1.8-15.8-.2-23.7-5-19.6-27.8-26.9-42.6-16.6-3.5,2.4-6.6,5.2-9.2,8.5-9.6,12.1-13.4,25.8-11.1,41.1.8,5.6,2.1,11.2,3.5,16.7,1,3.9,1.9,7.7,2.8,11.6.9,4.3,1.3,8.7,1.7,13.1.1,1.5.4,3,.9,4.4.6,1.4,1.7,2.3,3.3,2.4.8,0,1.7,0,2.5-.1,1.4-.2,2.8-.5,4.2-.5,6.8-.3,13.6-.5,20.5-.8,1.1,0,2.1,0,3.2.1,1.4.1,2.7,0,4-.2,2-.5,2.9-1.5,3.1-3.5v-1.7c-.1-.9-.4-1.8-.5-2.7-.3-1.5-.6-2.9-.4-4.4.2-2,.5-4.1.6-6.2.5-5.3,1.9-10.3,4.4-15.1,1.4-2.9,2.9-5.7,4.4-8.5,2.1-4,3.7-8.2,4.9-12.8h-.2Z"/>
  <path class="st0" d="M373.9,189.2c-9.7.1-19.4.1-29.2,0h-12.2c-34,0-68-.1-102-.2-17.7,0-35.4,0-53.1-.1h-11.9c-1,0-1.9.2-3,.7-1.4-2.4-2.5-4.7-3.7-7.1-1.2-2.3-2.4-4.7-3.6-7-1.2-2.3-2.4-4.7-3.6-7-1.2-2.3-2.4-4.7-3.6-7-1.2-2.3-2.4-4.7-3.5-7-1.2-2.3-2.4-4.7-3.6-7-1.2-2.3-2.4-4.7-3.6-7-1.2-2.3-2.4-4.7-3.6-7-1.2-2.3-2.4-4.7-3.5-7-1.2-2.3-2.4-4.7-3.6-7s-2.4-4.7-3.6-7.1c-.8.6-1,1.3-1.3,2-5.8,11.4-11.6,22.8-17.4,34.2-6.6,12.9-13.1,25.8-19.7,38.8-.4.8-.9,1.6-1.3,2.5-.4-.1-.8-.3-1.3-.5-.9-.5-1.6-.9-2.4-1.4.2-.5.4-1,.6-1.4,6.3-12.3,12.5-24.6,18.8-36.9,3-5.9,6-11.8,9-17.7,4.5-8.9,9-17.7,13.5-26.6.4-.9.7-1.8,1.2-2.9.6-.3,1.4,0,2.1,0h78.5c39.8,0,79.7.2,119.5.3h9.7c.4.7.7,1.4,1.1,2.1,7.1,15,14.3,29.9,21.4,44.9,5.9,12.5,11.9,24.9,17.8,37.4.3.7.6,1.4.9,2.3l.2-.2Z"/>
  <path class="st5" d="M98,335.1c-.2-26.9-.2-53.8-.2-80.7s0-1.3,0-2c.7,0,1.3-.1,1.9-.1h46.8c0,.5.2.9.2,1.3v81.3c-.6.2-1.1.3-1.7.3h-47.2.1Z"/>
  <path class="st11" d="M397,405.4c2.1,3.9,4.3,7.7,6.4,11.6,2.3,4.2,5.9,10.8,6.6,11.6h10c.1,0,.2,0,.4,0,0-.5-.3-.8-.5-1.2-1.2-2.1-2.4-4.3-3.6-6.4-2-3.5-3.9-7.1-5.9-10.6-.8-1.4-1.5-2.8-2.3-4.2-.1-.3-.4-.6,0-1h13.4c3.7-.1,6.4-2.1,7.8-5.5.5-1.4.8-2.9.8-4.5v-123.8c0-2.1-.2-4.2-.8-6.1-.8-2.9-2.1-5.5-4.3-7.5-1.7-1.7-3.7-3-5.9-4-3.1-1.4-6.3-2.1-9.7-2.6-3.4-.4-6.7-.6-10.1-.6h-14.8c-.4,0-.8,0-1.2-.2,0-4-1.2-7.6-3.6-10.8-4.8-6.3-11.1-8.6-18.9-7.4-5.5,1.2-9.7,4.2-12.5,9.1-1.7,2.9-2.5,5.9-2.7,9.3h-13.8c-2.3,0-4.5,0-6.8.1-3,0-5.9.5-8.9,1.1-2.8.6-5.6,1.5-8.1,2.9-4.3,2.5-7.1,6-8.4,10.9-.5,2.2-.7,4.4-.7,6.6v122c0,.8,0,1.7,0,2.5.1,1.6.6,3.1,1.5,4.5,1,1.7,2.5,2.9,4.5,3.5,1,.3,2.1.4,3.1.4h6.8c2.1,0,4.2,0,6.3.1,0,.2-.1.4-.2.5-.8,1.5-1.7,3.1-2.6,4.6-1.9,3.5-3.9,7-5.8,10.5-1.3,2.3-2.6,4.6-3.9,6.9,0,.1-.1.4-.2.6.9.1,1.8,0,2.7,0h5.3c.9,0,1.7,0,2.7,0,.5-.9,1.1-1.9,1.6-2.9,3.2-5.7,6.4-11.5,9.6-17.2.6-1,1.1-2.1,1.9-3.2h63.8c.4,0,.8,0,1.2.2h0Z"/>
  <path class="st10" d="M298.8,363c0-.4,0-.8,0-1.1v-89.7c0-2.2.1-4.4.7-6.6,1.2-4.9,4-8.5,8.4-10.9,2.5-1.4,5.3-2.3,8.1-2.9,2.9-.6,5.9-1,8.9-1.1,2.2,0,4.5-.1,6.8-.1h12.7c.4,0,.8,0,1.3,0,.1.9.1,1.7.3,2.5.3,2.4,1.1,4.7,2.3,6.8.5.8.9,1.7,1.6,2.4,1.5,1.7,3.2,3.3,5.2,4.5s4.2,1.9,6.5,2.3c.6,0,1.2.2,1.8.2,1.4,0,2.8,0,4.2-.2,1.9-.3,3.8-.9,5.6-1.9,2.1-1.2,4.1-2.6,5.6-4.5,1.3-1.6,2.4-3.3,3.2-5.2.7-2,1.3-4,1.2-6.1v-.8c.4,0,.8,0,1.2,0h14.8c3.4,0,6.8.1,10.1.6,3.3.4,6.6,1.2,9.7,2.6,2.2,1,4.2,2.3,5.9,4,2.1,2.1,3.5,4.7,4.3,7.5.5,2,.7,4.1.8,6.1v90.4c0,.3,0,.7,0,1.1-.3,0-.5,0-.6-.2-.1-.3-.2-.7-.4-1.1-.8-2.4-2.1-4.6-3.8-6.4-1.8-2-4-3.6-6.5-4.7-2-.8-4-1.4-6.1-1.4-.3,0-.5,0-.8,0-.3,0-.5,0-.8,0-1,0-2,.2-3,.3-4.3.8-7.8,2.8-10.7,6.1-1.7,1.9-2.9,4.1-3.8,6.5-.3,1-.1,1.1-1.4,1.1h-56.1c-.4-.4-.4-.8-.5-1.2-.5-1.7-1.4-3.3-2.4-4.7-1.4-2.1-3.3-3.8-5.5-5.3-3.1-2-6.5-2.8-10.1-2.9-.2,0-.5,0-.7,0-.2,0-.5,0-.7,0-1.7,0-3.3.4-4.9,1-2.1.8-4.1,1.9-5.8,3.4-1.5,1.2-2.7,2.7-3.7,4.3-.9,1.4-1.6,3-2.1,4.6,0,.4-.3.6-.7.6M316.3,316.1h42.5c.2,0,.5,0,.7,0,.3-.5.2-1.1.2-1.6v-39.7c0-.2,0-.4-.1-.6-.5-.2-.9,0-1.4,0h-43.1c-3,0-5.5,1.8-6.6,4.6-.3.9-.4,1.8-.4,2.7v28.3c.1,3.6,3.4,6.5,6.7,6.5h1.5M378.5,316.1h35.3c2.3,0,4.1-1,5.4-2.8,1-1.3,1.4-2.9,1.4-4.6v-27.3c0-.5,0-1.1-.1-1.7-.4-2.3-1.6-3.9-3.7-5-1.1-.6-2.4-.8-3.7-.8h-43.5c-.2,0-.4,0-.6.1v41.2c0,.2,0,.4,0,.7h9.3,0Z"/>
  <path class="st8" d="M298.8,363.1c.4,0,.6-.3.7-.7.4-1.6,1.1-3.2,2.1-4.6,1-1.6,2.2-3.1,3.7-4.3,1.7-1.5,3.7-2.6,5.8-3.4,1.5-.5,3.2-1,4.9-1,.2,0,.5,0,.7,0,.2,0,.5,0,.7,0,3.6.1,7,.9,10.1,2.9,2.2,1.4,4,3.1,5.5,5.3,1,1.4,1.8,3,2.4,4.7.1.4.2.8.5,1.2h56.1c1.3,0,1.1,0,1.4-1.1.8-2.4,2-4.6,3.8-6.5,2.9-3.3,6.4-5.3,10.7-6.1,1-.2,2-.2,3-.3h.8c.3,0,.5,0,.8,0,2.1,0,4.2.6,6.1,1.4,2.5,1,4.7,2.6,6.5,4.7,1.7,1.9,2.9,4.1,3.8,6.4.1.3.2.7.4,1.1,0,.2.2.3.5.3,0,1.5.1,3,.1,4.5v27.7c0,1.5-.2,3-.8,4.5-1.3,3.4-4.1,5.4-7.8,5.5-1.6,0-3.3,0-5,0h-18.2c-.4,0-.9,0-1.3,0-.4,0-.8,0-1.1,0h-64c-.5,0-.7,0-1,0h-22.8c-1.1,0-2.1-.1-3.1-.4-1.9-.6-3.4-1.8-4.5-3.5-.8-1.4-1.3-2.9-1.5-4.5,0-.8,0-1.7,0-2.5v-31.1M403.5,373.1c.2.3.4.5.6.8,2.4,2.6,5.4,3.7,8.9,3,5.2-1,8.4-6,7.3-11.2-1.1-5.1-6.2-8.6-11.7-7-5.1,1.4-7.6,6.3-6.6,11,.2,1.2.7,2.3,1.5,3.4M326.8,368c0-.6,0-1.2,0-1.8-.9-5.1-5.4-8.6-10.8-7.7-4.7.7-7.6,4.6-7.8,8.7-.3,5.8,4.8,10.9,11.2,9.8,5.2-1,7.5-5.4,7.5-8.9h0Z"/>
  <path class="st3" d="M383.1,250.3v.9c0,2.1-.5,4.2-1.2,6.1-.7,1.9-1.9,3.6-3.2,5.2-1.5,1.9-3.5,3.3-5.6,4.5-1.7,1-3.6,1.5-5.6,1.9-1.4.2-2.8.3-4.2.2-.6,0-1.2,0-1.8-.2-2.3-.4-4.5-1.2-6.5-2.3-2-1.1-3.6-2.8-5.2-4.5-.6-.7-1.1-1.5-1.6-2.4-1.2-2.1-2-4.4-2.3-6.8,0-.8-.1-1.6-.2-2.5,0-3.4.8-6.5,2.5-9.4,2.8-4.9,7-7.8,12.5-9.1,7.7-1.2,14.1,1.1,18.9,7.4,2.4,3.2,3.5,6.8,3.6,10.8M365.3,241.2c-.9,0-1.8,0-2.7,0-5,1-8.3,5.8-7.5,10.7.7,4.5,5,8.8,11,7.7,6.2-1.1,9.3-7.6,6.8-13.1-1.4-3.2-4-5-7.6-5.5h0Z"/>
  <path class="st2" d="M397,405.3c.4,0,.9-.1,1.3-.1h9.5c0,.4.2.7.4,1,.7,1.4,1.5,2.8,2.3,4.2,2,3.5,3.9,7.1,5.9,10.6,1.2,2.1,2.4,4.3,3.6,6.4.2.3.5.7.5,1.2-.1,0-.3,0-.4,0h-10c-.6-.8-4.4-7.4-6.6-11.6-2.1-3.9-4.3-7.8-6.4-11.7h0Z"/>
  <path class="st2" d="M321,405.3c.3,0,.6,0,.8,0h8.9c.3,0,.5,0,.9,0-.4,1.1-1,2.1-1.6,3.2-3.2,5.7-6.4,11.5-9.6,17.2-.5.9-1,1.9-1.6,2.9-.9.2-1.8,0-2.7,0h-5.3c-.9,0-1.7,0-2.7,0,0-.2,0-.4.2-.6,1.3-2.3,2.6-4.6,3.9-6.9,1.9-3.5,3.9-7,5.8-10.5.8-1.5,1.7-3.1,2.6-4.6,0-.2.2-.4.3-.6h0Z"/>
  <path class="st4" d="M316.2,316.1h-1.4c-3.4,0-6.5-2.9-6.7-6.5v-28.3c0-.9,0-1.8.4-2.7,1-2.8,3.6-4.6,6.6-4.6h43.1c.4,0,.9,0,1.4,0,0,.2.1.4.1.6v39.7c0,.5,0,1-.2,1.6-.2,0-.4,0-.7,0h-42.6Z"/>
  <path class="st4" d="M378.4,316.1h-9.2c0-.3,0-.5,0-.7v-41.2c.2,0,.4-.1.6-.1h43.5c1.3,0,2.5.2,3.7.8,2,1.1,3.3,2.7,3.7,5,0,.5.1,1.1.1,1.7v27.3c0,1.7-.4,3.2-1.4,4.6-1.3,1.8-3.2,2.8-5.4,2.8h-35.4,0Z"/>
  <path class="st7" d="M403.5,373.1c-.7-1.1-1.2-2.2-1.4-3.4-1-4.7,1.6-9.6,6.6-11,5.5-1.5,10.6,1.9,11.7,7,1.1,5.2-2.2,10.2-7.3,11.2-3.5.7-6.5-.3-8.9-3-.2-.2-.4-.5-.7-.9h0Z"/>
  <path class="st7" d="M326.8,368.1c0,3.4-2.4,7.8-7.5,8.8-6.4,1.2-11.5-4-11.2-9.8.2-4.1,3.2-8,7.8-8.7,5.5-.8,9.9,2.7,10.8,7.7,0,.6,0,1.2,0,1.9h0Z"/>
  <path class="st9" d="M365.4,241.2c3.5.5,6,2.3,7.5,5.5,2.5,5.5-.6,11.9-6.8,13.1-6,1.1-10.3-3.2-11-7.7-.8-5,2.5-9.7,7.5-10.7.9-.2,1.8-.2,2.8,0h0Z"/>
</svg>