<?xml version="1.0" encoding="UTF-8"?>
<svg id="Layer_1" xmlns="http://www.w3.org/2000/svg" version="1.1" viewBox="0 0 500 500">
  <!-- Generator: Adobe Illustrator 29.5.0, SVG Export Plug-In . SVG Version: 2.1.0 Build 137)  -->
  <defs>
    <style>
      .st0 {
        fill: #39b54a;
      }

      .st1 {
        fill: #edb9b9;
      }
    </style>
  </defs>
  <circle class="st1" cx="250.1" cy="249.9" r="250"/>
  <path class="st0" d="M396.1,229l-132.8-120.8c-7.5-6.8-19-6.8-26.5,0l-132.8,120.8c-8,7.3-8.5,19.7-1.3,27.7h0c3.9,4.2,9.3,6.4,14.6,6.4s9.6-1.7,13.3-5.1l119.4-108.7,119.5,108.7c8,7.3,20.5,6.8,27.8-1.3,7.4-8,6.8-20.4-1.2-27.7h0ZM144.8,262.9v122.9c0,4.6,3.1,7.6,5.6,9,2.6,1.5,5.4,2.1,8.4,2.1h182.4c3,0,5.8-.7,8.4-2.1,2.5-1.4,5.4-4.3,5.6-9v-122.9l-105.2-95.7-105.1,95.7ZM206.7,253.2h86.4v60.2h-86.4v-60.2ZM124.9,118.9l80.9,2.5-75.8,73.1-5.1-75.6Z"/>
</svg>