<?xml version="1.0" encoding="UTF-8"?>
<svg id="Layer_1" xmlns="http://www.w3.org/2000/svg" version="1.1" viewBox="0 0 500 500">
  <!-- Generator: Adobe Illustrator 29.5.0, SVG Export Plug-In . SVG Version: 2.1.0 Build 137)  -->
  <defs>
    <style>
      .st0 {
        fill: #fff;
      }

      .st1 {
        fill: #abd4c7;
      }

      .st2 {
        fill: #626f7e;
      }

      .st3 {
        fill: #edb9b9;
      }
    </style>
  </defs>
  <circle class="st3" cx="250.1" cy="249.9" r="247"/>
  <polygon class="st2" points="439.9 455.8 439.9 455.8 435.1 487.6 439.9 455.8"/>
  <g>
    <path class="st2" d="M152.6,177.4c0,53.8,43.6,97.4,97.4,97.4s97.4-43.6,97.4-97.4-43.6-97.4-97.4-97.4c-53.8,0-97.4,43.6-97.4,97.4Z"/>
    <path class="st2" d="M306.4,284h-112.8c-50.6,0-91.6,41-91.6,91.6v44.4h296v-44.4c0-50.6-41-91.6-91.6-91.6ZM282.5,408.1h-72.6l-21-110.3c2.1-.2,4.1-.3,6.2-.3h102.2c2.1,0,4.2.2,6.2.3l-21,110.3Z"/>
    <path class="st0" d="M257.7,333.9l11.3,74.2h13.5l21-110.3c-2.1-.2-4.1-.3-6.2-.3h-102.2c-2.1,0-4.1.2-6.2.3l21,110.3h13.5l11.3-74.2h.4l-11.1-20.4h44.3l-11.1,20.4h.4Z"/>
    <polygon class="st1" points="223.5 408.1 269 408.1 257.7 333.9 257.3 333.9 268.4 313.5 268.4 313.5 224.1 313.5 235.1 333.9 234.7 333.9 223.5 408.1"/>
  </g>
</svg>