<?xml version="1.0" encoding="UTF-8"?>
<svg id="Layer_1" xmlns="http://www.w3.org/2000/svg" version="1.1" viewBox="0 0 500 500">
  <!-- Generator: Adobe Illustrator 29.5.0, SVG Export Plug-In . SVG Version: 2.1.0 Build 137)  -->
  <defs>
    <style>
      .st0 {
        fill: #82bfab;
      }

      .st1 {
        fill: #fff;
      }

      .st2 {
        fill: #abd4c7;
      }

      .st3 {
        fill: #626f7e;
      }

      .st4 {
        fill: #edb9b9;
      }
    </style>
  </defs>
  <circle class="st4" cx="250.1" cy="249.9" r="247"/>
  <g id="Object">
    <g>
      <path class="st3" d="M74.6,154.4c-9.6,0-17.3,7.8-17.3,17.3v196.6c0,9.6,7.7,17.3,17.3,17.3h351c9.6,0,17.3-7.8,17.3-17.3v-196.6c0-9.6-7.8-17.3-17.3-17.3h-140v17.6h-71v-17.6H74.6ZM419.6,182.3v175.7H80.6v-175.7h339Z"/>
      <path class="st1" d="M80.6,358h339v-175.7H80.6v175.7ZM248.5,219.5h147.5v25.1h-147.5v-25.1ZM248.5,259.7h147.5v10h-147.5v-10ZM248.5,285.3h147.5v10h-147.5v-10ZM248.5,310.9h147.5v10h-147.5v-10ZM167.6,197.3c23,0,41.7,18.7,41.7,41.7s-18.7,41.7-41.7,41.7-41.7-18.7-41.7-41.7,18.7-41.7,41.7-41.7ZM104.3,323.8c0-21.6,17.5-39.2,39.2-39.2h48.3c21.6,0,39.2,17.5,39.2,39.2v19h-126.6v-19Z"/>
      <path class="st3" d="M126,239c0,23,18.7,41.7,41.7,41.7s41.7-18.7,41.7-41.7-18.7-41.7-41.7-41.7c-23,0-41.7,18.7-41.7,41.7Z"/>
      <path class="st3" d="M191.8,284.6h-48.3c-21.6,0-39.2,17.5-39.2,39.2v19h126.6v-19c0-21.6-17.5-39.2-39.2-39.2ZM181.6,337.7h-31.1l-9-47.2c.9,0,1.8-.1,2.7-.1h43.7c.9,0,1.8,0,2.7.1l-9,47.2Z"/>
      <polygon class="st3" points="161.1 306 161.1 306 156.3 337.7 161.1 306"/>
      <path class="st1" d="M170.9,306l4.8,31.7h5.8l9-47.2c-.9,0-1.8-.1-2.7-.1h-43.7c-.9,0-1.8,0-2.7.1l9,47.2h5.8l4.8-31.7h.2l-4.7-8.7h19l-4.7,8.7h.2Z"/>
      <polygon class="st2" points="156.3 337.7 175.8 337.7 170.9 306 170.8 306 175.5 297.3 175.5 297.3 156.5 297.3 161.3 306 161.1 306 156.3 337.7"/>
      <rect class="st3" x="248.5" y="219.5" width="147.5" height="25.1"/>
      <rect class="st0" x="248.5" y="259.7" width="147.5" height="10"/>
      <rect class="st0" x="248.5" y="285.3" width="147.5" height="10"/>
      <rect class="st0" x="248.5" y="310.9" width="147.5" height="10"/>
      <polygon class="st2" points="214.6 154.4 214.6 172 285.6 172 285.6 154.4 285.6 114.1 214.6 114.1 214.6 154.4"/>
    </g>
  </g>
</svg>