<?xml version="1.0" encoding="UTF-8"?>
<svg id="Layer_1" xmlns="http://www.w3.org/2000/svg" version="1.1" viewBox="0 0 500 500">
  <!-- Generator: Adobe Illustrator 29.5.0, SVG Export Plug-In . SVG Version: 2.1.0 Build 137)  -->
  <defs>
    <style>
      .st0 {
        fill: #464da1;
      }

      .st1 {
        fill: #ea2732;
      }

      .st2 {
        fill: #fff;
      }

      .st3 {
        fill: none;
        stroke: #fff;
        stroke-miterlimit: 10;
        stroke-width: 10px;
      }

      .st4 {
        fill: #ed2224;
      }
    </style>
  </defs>
  <g id="Layer_1-2">
    <g>
      <g>
        <path class="st0" d="M240.4,396.3c110.7,3.1,203.7-65.7,207.9-153.8-4.3-88.2-97.3-157-207.9-153.8-110.7-3.1-203.7,65.7-207.9,153.8.5,46.6,28.3,90.4,75.1,118.3l-.8,71,59-46.4c14.7,2.4,59.7,10.9,74.7,10.9h0Z"/>
        <line class="st3" x1="107.1" y1="166.2" x2="374.1" y2="166.2"/>
        <line class="st3" x1="107.1" y1="188.9" x2="374.1" y2="188.9"/>
        <line class="st3" x1="106.9" y1="211.6" x2="373.9" y2="211.6"/>
        <line class="st3" x1="106.9" y1="241" x2="373.9" y2="241"/>
        <line class="st3" x1="107.1" y1="270.4" x2="276.7" y2="270.4"/>
        <line class="st3" x1="107.1" y1="302.4" x2="276.7" y2="302.4"/>
      </g>
      <g>
        <rect class="st2" x="301.6" y="273.8" width="173.9" height="85.5"/>
        <circle class="st4" cx="388.6" cy="316.6" r="33.1"/>
      </g>
    </g>
  </g>
  <g>
    <circle class="st1" cx="406.8" cy="109.5" r="72.6"/>
    <path class="st2" d="M397.8,86.8h17.9v77.6h-17.9v-77.6ZM397.9,57.9h17.9v17.7h-17.9v-17.7Z"/>
  </g>
</svg>