<?xml version="1.0" encoding="UTF-8"?>
<svg id="Layer_1" xmlns="http://www.w3.org/2000/svg" version="1.1" viewBox="0 0 500 500">
  <!-- Generator: Adobe Illustrator 29.5.0, SVG Export Plug-In . SVG Version: 2.1.0 Build 137)  -->
  <defs>
    <style>
      .st0 {
        fill: #dfc944;
      }

      .st1 {
        fill: #010101;
      }

      .st2 {
        fill: #edb9b9;
      }
    </style>
  </defs>
  <circle class="st2" cx="250.1" cy="249.9" r="250"/>
  <g>
    <path class="st0" d="M436.5,163.6v172.8c0,18.1-14.7,32.8-32.8,32.8H96.3c-18.1,0-32.8-14.7-32.8-32.8v-172.8c0-18.1,14.7-32.8,32.8-32.8h307.3c18.1,0,32.8,14.7,32.8,32.8Z"/>
    <path class="st1" d="M403.7,130.8H96.3c-18.1,0-32.8,14.7-32.8,32.8v172.8c0,18.1,14.7,32.8,32.8,32.8h307.3c18.1,0,32.8-14.7,32.8-32.8v-172.8c0-18.1-14.7-32.8-32.8-32.8ZM96.3,138.9h307.3c6.4,0,12.3,2.5,16.7,6.5l-153.7,111c-10,7.2-23.3,7.2-33.3,0l-153.7-111c4.4-4,10.3-6.5,16.7-6.5ZM71.6,336.4v-172.8c0-4.3,1.1-8.4,3-11.9l141.8,102.4-137.8,99.5c-4.4-4.4-7-10.5-7-17.2ZM403.7,361.1H96.3c-3.9,0-7.5-.9-10.8-2.5l137.8-99.6,5.3,3.8c6.4,4.6,13.9,6.9,21.4,6.9s15-2.3,21.4-6.9l5.3-3.8,137.8,99.6c-3.3,1.6-6.9,2.5-10.8,2.5ZM428.4,336.4c0,6.7-2.7,12.8-7,17.2l-137.8-99.5,141.8-102.4c1.9,3.5,3.1,7.6,3.1,11.9v172.8Z"/>
  </g>
</svg>