<?xml version="1.0" encoding="UTF-8"?>
<svg id="Layer_1" xmlns="http://www.w3.org/2000/svg" version="1.1" viewBox="0 0 500 500">
  <!-- Generator: Adobe Illustrator 29.5.0, SVG Export Plug-In . SVG Version: 2.1.0 Build 137)  -->
  <defs>
    <style>
      .st0 {
        fill: #6e53a3;
      }

      .st1 {
        fill: #d1de4c;
      }

      .st2 {
        fill: #3c68ad;
      }

      .st3 {
        fill: #fff;
      }

      .st4 {
        fill: #cc292a;
      }

      .st5 {
        fill: #bbcc5d;
      }

      .st6 {
        fill: #010101;
        isolation: isolate;
        opacity: .2;
      }

      .st7 {
        fill: #29a1cc;
      }

      .st8 {
        fill: #edb9b9;
      }

      .st9 {
        fill: #5a9643;
      }

      .st10 {
        fill: #b5b6b6;
      }
    </style>
  </defs>
  <circle class="st8" cx="250.1" cy="249.9" r="250"/>
  <g id="Layer_2">
    <g>
      <g>
        <polygon class="st5" points="389.4 374.8 455 363.8 357.2 194.5 322.3 196.5 389.4 374.8"/>
        <polygon class="st1" points="110.6 374.8 45.1 367.4 142.8 194.5 177.8 196.5 110.6 374.8"/>
        <polygon class="st5" points="110.6 374.8 181.7 363.8 214.3 194.5 177.8 196.5 110.6 374.8"/>
        <polygon class="st1" points="250 374.8 181.7 363.8 214.3 194.5 250 196.5 250 374.8"/>
        <polygon class="st5" points="250 374.8 318.3 363.8 285.8 194.5 250 196.5 250 374.8"/>
        <polygon class="st1" points="389.4 374.8 318.3 363.8 285.8 194.5 322.3 196.5 389.4 374.8"/>
        <path class="st9" d="M165.6,195.8c1.7,2.1.5,3.2-1.1,6.4-1.7,3.3-2.8,3.6-.3,7.3,2.6,3.9,1,3.6,6.4,6,5.6,2.5,8.9,1.6,11.8,4.1,3,2.6,3.6,5.4,11.3,2.3,7.5-3,6.9-1.2,11.1-3.2,4.1-1.9,3.3-3.1,5.3-2.3,2,.7,8.1-.9,8.8,1.6.7,2.5,13.6,1.9,17.4,5.2,4,3.5,7.3,3.5,9,4.9,1.7,1.5,3.6,1.3,4.6,2.5,1,1.2,3.6,2.3,11.4,1.8,7.7-.5,8.2,1.5,12.7-1.8,4.4-3.3,2.1-3.6,6.3-4.2,4.1-.6,8.8-2.5,10.5-2,1.8.5,3.5-.3,7.6,3,4.2,3.4,7.4-1.6,13.2,5.2,6.1,7.3,6.8,7.7,11.8,10.2,5,2.6,8.9,3.2,13.6,4.5,4.8,1.3,0,1.9,4.8,1.3,4.7-.6,5.8-.8,9-3.4,3.1-2.6,4.9-3.9,7.2-7.4,2.2-3.5-.7-7.6,6.7-8.1,7.4-.5,11.2-2.6,11.2-2.6l-18.8-36.2-35,5.6-36.5-5.6-35.7,5.6-35.7-5.6-36.5,5.6-12.2-.7Z"/>
        <path class="st2" d="M121.8,231.6c3.3,2.2,3.4,2,6.1,3.9,2.8,1.9,3.8,1.7,7.8,3.1,4.1,1.4,2.2.9,5.4,5.1,3.2,4.3,2.8,3.9,7.1,5.5,4.3,1.6,5,4.1,8.6,3.1,3.6-1,9.3-2.4,11.4-4.9,2-2.5,3.2-4.1,11.8-5.8,8.5-1.7,5.5-.3,11.7-2.6,6.1-2.3,5.7-3.2,8.7-2.1,3,1,3.3-.5,5,1.4,1.7,2,6.9-.5,7.9,4.3,1.1,5,4.1,5,7.7,8.1,3.7,3.2,4,3.6,7.5,6.6,3.6,3.1.8,2.3,5.3,6.8,4.7,4.7,6,4.7,9,7.4,3,2.8,4.2,5.4,7.2,6.1,3,.7,3.4,3.2,7.3,5.4,4,2.3.1,5.4,9.5,0,9-5.2,3-2.2,10.2-6.8,7-4.5,5.6-2.1,10.3-4.9,4.6-2.7,5.4-4.3,7.2-5.4,1.8-1.1,3.3-2.4,4.1-1.1.8,1.3-2.2-1.5,6.5,2.9,9,4.5,10.2,7.8,14.1,11.2,4,3.4,9.8,7,11.6,11.1,1.8,4.3,9.3,9.5,12.5,12.6,3.3,3.2,7.6,5.9,12.5,9.2,5.1,3.4,12.8,7.2,12.8,7.2,0,0,1.2,1,6.8-3.8,5.5-4.6,4.6-3.1,7.7-9.1,3.1-5.8-1.7-3.2,5.4-7.7,6.8-4.4,5.7-5.2,8.8-8.4,3-3.1,9-5.2,9-5.2l1.4-1.5-23.2-42s-5.1,7.3-6.9,11c-1.8,3.8-3,9-5.7,10.8-2.7,1.7-5.8,8.2-9.4,10.1-3.6,1.9-10.7,1.2-10.3,2.4.5,1.2-3.3,1.2-8.3-3.3-4.8-4.3-6-6.8-12.9-10-6.8-3.2-5.2-3-9.6-5.7-4.3-2.6-12.1-3.8-14.5-6-2.3-2.1-6.1-5.5-7.7-5.7-1.5-.2-2.2-1.1-3.9-1.1s-8-1.7-10.1,0c-2.2,1.7-.9,0-7.1,3.6-6.4,3.7-3.8,1.5-10.1,4.3-6.4,2.8-8.3,3.6-9.8,4.1-1.6.5-7.8,0-7.8,0,0,0,3.7-.3-5.7-5.8-8.9-5.3-10.9-7-12.9-8.3-2-1.3-6.1-2-9.3-7.2-3.1-5-5-7.4-6.1-7.7-1.1-.3-7.5-1.6-7.5-1.6,0,0-4.5.3-8.1,1.4-3.6,1.1-10.4,3.2-12.9,4-2.5.8-13,1.3-14.1,1.3s-3.9.5-5.6,1.3c-1.8.8-4.4,1.4-4.4,1.4,0,0-6.7-.5-9.6-2.5-2.9-2-5.6-1-8.3-5.5-2.6-4.4-3.6-7.8-5-8.3-1.4-.4-6.3-4.2-6.3-4.2l-1.8-1.3-10.7,18.9Z"/>
        <path class="st9" d="M117.2,239.8s2.1.5,3.8,2.4c1.8,2,1.4,3.5,4.3,6.5,3,3.1,3.1,3.6,7.6,4.7,4.5,1.1,8.6,1.3,9.8,3.5,1.2,2.2.6,5.6,3.9,6.2,3.3.6,5.5,1.4,5.5,1.4,0,0,.8.3,5.6-2.3,4.8-2.5,8.2-5,12.1-6.7,3.9-1.6,5.8-3.7,8.3-4,2.6-.3,8.1-2.3,9.9-2.9,1.8-.5,2.6-.5,3.3,1.5.7,2.1-.5,5.6,3.4,5.3,3.9-.3,8.6-3,8.6-3l4.5,3s-1.7,2.7-.8,4.7c1,2,0,5.5,2.5,6.4,2.5.9,5.7,3.9,6,4.8.3.9,3,4.7,4.3,5.6,1.3,1,3.8,3.6,4.2,4.6.4,1-.8,3.3,2.8,5.7,3.6,2.4,9.8,3.1,11.1,6.3,1.3,3.3,3.7,5.5,5.7,7,2,1.5,6.5,3.1,6.5,3.1,0,0,3,2.7,5.1,2.7s8.6-1.2,9-2.3c.4-1.2,4.9-2.3,6.3-3.1,1.4-.8-4.4,1.9,1.4-.8,5.7-2.6,9.7-1.9,12.9-4.5l3.1-2.5s9.3-2.5,12.5-3.5l3.2-1,10.5,4.2,11.6,13.5,8.5,6.8s7,6.3,8.7,6.7c1.7.4,3.7,0,12.7,7.9,9.4,8.3,13.1,9.3,17.3,11.7l4.3,2.4s4,7.5,6.2,0c2.1-7.2,1.8-5.3,5.8-9.1,3.9-3.7,9.2-6.4,11.8-7.7,2.6-1.3,9.5-7.8,9.5-7.8l7.3-5,9.9,4,27.3,47.3-65.5,11-71.1-11-68.3,11-68.3-11-71.1,11-65.5-7.4,72.1-127.6Z"/>
        <g>
          <polygon class="st3" points="203.8 336.5 186.4 342.3 127.1 330.9 83.3 336.5 109.4 284.6 146.1 280.6 196.5 288.7 211.1 284.6 203.8 336.5"/>
          <polygon class="st10" points="205.2 297.7 194.2 301.1 141.7 292.3 110.1 295.6 112.7 290.3 143.7 287 195.2 295.5 206 292.3 205.2 297.7"/>
          <polygon class="st10" points="203.1 311.5 191.5 315.2 136.7 305.6 103.5 309.3 106.4 303.4 138.9 299.8 192.7 309.1 204 305.6 203.1 311.5"/>
          <polygon class="st10" points="168.7 327.4 131.1 320.5 96.2 324.5 99.3 318 133.5 314.1 170.3 320.8 168.7 327.4"/>
        </g>
        <polygon class="st6" points="250 374.8 318.3 363.8 285.8 190.9 250 196.5 250 374.8"/>
        <polygon class="st6" points="389.4 374.8 455 363.8 376 227 357.2 190.9 322.3 196.5 389.4 374.8"/>
        <polygon class="st6" points="110.6 374.8 181.7 363.8 214.3 190.9 177.8 196.5 110.6 374.8"/>
      </g>
      <g>
        <path class="st3" d="M332.1,330.4s-.6-1.7-1.7-4.5l2.3-.9c1.2,3,1.8,4.7,1.8,4.7l-2.3.8Z"/>
        <path class="st3" d="M326.2,316.5c-1.4-3.1-3-6.2-4.6-9.2l2.2-1.2c1.6,3.1,3.2,6.2,4.6,9.3l-2.2,1ZM316.6,298.3c-1.7-3-3.5-5.9-5.4-8.7l2.1-1.4c1.9,2.9,3.7,5.9,5.5,8.8l-2.1,1.3ZM305.4,281.1c-2-2.8-4.1-5.5-6.2-8.2l1.9-1.6c2.1,2.6,4.3,5.4,6.3,8.3l-2,1.5ZM292.5,265.1c-2.3-2.6-4.7-5-7.1-7.4l1.7-1.8c2.4,2.4,4.9,4.9,7.2,7.5l-1.8,1.7ZM277.9,250.8c-2.6-2.2-5.3-4.4-8-6.4l1.5-2c2.7,2,5.5,4.2,8.1,6.5l-1.6,1.9ZM261.5,238.6c-2.9-1.8-5.9-3.6-8.8-5.1l1.2-2.2c3,1.6,6.1,3.4,9,5.2l-1.3,2.1ZM243.4,229c-3.1-1.3-6.3-2.6-9.5-3.6l.8-2.4c3.3,1.1,6.5,2.3,9.7,3.7l-1,2.3ZM224.1,222.6c-3.3-.8-6.7-1.5-10-2l.4-2.4c3.4.5,6.9,1.2,10.2,2l-.6,2.4ZM173.3,220.9l-.4-2.4c3.5-.5,6.9-.9,10.3-1.2l.2,2.5c-3.3.3-6.8.7-10.2,1.2ZM203.9,219.5c-3-.2-6-.3-9-.3h-1.2s0-2.5,0-2.5h1.2c3.1,0,6.1,0,9.2.3l-.2,2.5Z"/>
        <path class="st3" d="M150.2,226l7.3-4.3c1.4-.9,2.9-1.7,4.3-2.5l.7,1.2c0,0,.1,0,.2,0l.3,1s0,0-.1,0l.3,1.4c-1.6.3-3.2.7-4.8,1.1l-8.2,2Z"/>
        <path class="st3" d="M171.4,216.9l-1.1-2.2c2.9-1.4,5.9-2.8,8.8-4l1,2.3c-2.9,1.2-5.9,2.6-8.7,3.9ZM189.1,209.5l-.8-2.3c3.1-1.1,6.2-2.1,9.3-2.9l.7,2.4c-3,.9-6.1,1.8-9.1,2.9ZM292.5,208.5c-3-1-6-1.9-9.2-2.7l.6-2.4c3.2.8,6.3,1.7,9.3,2.7l-.8,2.4ZM207.5,204.3l-.5-2.4c3.1-.7,6.4-1.3,9.5-1.8l.4,2.4c-3.1.5-6.3,1.1-9.4,1.8ZM274,203.7c-3.1-.6-6.3-1.2-9.4-1.6l.3-2.5c3.2.4,6.4,1,9.6,1.6l-.5,2.4ZM226.4,201.3l-.2-2.5c3.2-.3,6.5-.5,9.7-.6v2.5c-3.1.1-6.3.3-9.4.6ZM255,201.1c-3.2-.3-6.4-.4-9.6-.5v-2.5c3.3,0,6.5.2,9.8.5l-.2,2.5Z"/>
        <path class="st3" d="M305.9,213.8s-1.6-.8-4.4-2l.9-2.3c3,1.2,4.6,2,4.6,2l-1.1,2.2Z"/>
      </g>
      <path class="st0" d="M307.7,125.2c-16.5,0-29.9,13.4-29.9,29.9s29.9,57.6,29.9,57.6c0,0,29.9-41.1,29.9-57.6s-13.4-29.9-29.9-29.9ZM307.7,169.3c-7.4,0-13.4-6-13.4-13.4s6-13.4,13.4-13.4,13.4,6,13.4,13.4-6,13.4-13.4,13.4Z"/>
      <path class="st4" d="M333.2,257.8c-13.8,0-24.9,11.2-24.9,24.9s24.9,48,24.9,48c0,0,24.9-34.3,24.9-48,0-13.8-11.2-24.9-24.9-24.9ZM333.2,294.6c-6.2,0-11.2-5-11.2-11.2s5-11.2,11.2-11.2,11.2,5,11.2,11.2-5,11.2-11.2,11.2Z"/>
      <path class="st7" d="M153.8,151.3c-13.8,0-24.9,11.2-24.9,24.9s24.9,48,24.9,48c0,0,24.9-34.3,24.9-48s-11.2-24.9-24.9-24.9ZM153.8,188.1c-6.2,0-11.2-5-11.2-11.2s5-11.2,11.2-11.2,11.2,5,11.2,11.2c0,6.2-5,11.2-11.2,11.2Z"/>
    </g>
  </g>
</svg>