<?xml version="1.0" encoding="UTF-8"?>
<svg id="Layer_2" data-name="Layer 2" xmlns="http://www.w3.org/2000/svg" viewBox="0 0 84.8 84.9">
  <defs>
    <style>
      .cls-1 {
        fill: #4c7bd8;
      }
    </style>
  </defs>
  <g id="OBJECTS">
    <path class="cls-1" d="M57.19,17.18l-9.92,9.92c-11.98-7.25-27.83-5.71-38.16,4.62-12.15,12.15-12.15,31.92,0,44.07,12.15,12.15,31.92,12.15,44.07,0,10.37-10.37,11.88-26.29,4.55-38.28l9.9-9.9,2.72,13.51,14.46-2.91-6.4-31.81L46.59,0l-2.91,14.46,13.51,2.72ZM42.75,65.36c-6.4,6.4-16.81,6.4-23.21,0s-6.4-16.81,0-23.21,16.81-6.4,23.21,0,6.4,16.81,0,23.21Z"/>
  </g>
</svg>