<?xml version="1.0" encoding="UTF-8"?>
<svg id="Layer_1" xmlns="http://www.w3.org/2000/svg" version="1.1" viewBox="0 0 500 500">
  <!-- Generator: Adobe Illustrator 29.5.0, SVG Export Plug-In . SVG Version: 2.1.0 Build 137)  -->
  <defs>
    <style>
      .st0 {
        fill: #fff;
      }

      .st1 {
        fill: #655e60;
      }

      .st2 {
        fill: #221f20;
      }

      .st3 {
        fill: #edb9b9;
      }
    </style>
  </defs>
  <circle class="st3" cx="250.1" cy="249.9" r="250"/>
  <g>
    <rect class="st1" x="164.5" y="106.8" width="173.9" height="271.9"/>
    <rect class="st0" x="214.3" y="378.7" width="73.5" height="35.2"/>
    <path class="st2" d="M324.4,83h-148.9c-12.4,0-22.5,10.2-22.5,22.7v288.8c0,12.4,10.2,22.5,22.5,22.5h148.9c12.5,0,22.5-10,22.5-22.5V105.7c0-12.5-10-22.7-22.5-22.7h0ZM331.3,375.2h-162.6V118.9h162.6v256.4ZM228.7,384h42.6c1.1,0,1.9.8,1.9,1.9v22.8c0,1.1-.8,1.9-1.9,1.9h-42.6c-1.1,0-1.9-.8-1.9-1.9v-22.8c0-1.1.8-1.9,1.9-1.9h0Z"/>
  </g>
</svg>