<?xml version="1.0" encoding="UTF-8"?>
<svg id="Layer_1" xmlns="http://www.w3.org/2000/svg" version="1.1" viewBox="0 0 500 500">
  <!-- Generator: Adobe Illustrator 29.5.0, SVG Export Plug-In . SVG Version: 2.1.0 Build 137)  -->
  <defs>
    <style>
      .st0 {
        fill: #7f564a;
      }

      .st1 {
        fill: #49607f;
      }

      .st2 {
        fill: #485066;
      }

      .st3 {
        fill: #2a3a4a;
      }

      .st4 {
        fill: #7f564b;
      }

      .st5 {
        fill: #fdd268;
      }

      .st6 {
        fill: #ffe1b2;
      }

      .st7 {
        fill: #ffd7a3;
      }

      .st8 {
        fill: #506e8d;
      }

      .st9 {
        fill: #fdc98e;
      }
    </style>
  </defs>
  <path class="st8" d="M264.1-56.7c15.7,1,31.3,3.4,46.5,7.4,13.2,3.5,26.1,8,38.6,13.7,12.7,5.8,24.8,12.5,36.3,20.5,7,4.9,13.7,10.2,20,16,10.6,9.7,19.9,20.5,27.1,33.1,3.8,6.7,6.8,13.7,8.6,21.2,2,8.4,2.2,16.8-.1,25.2-1.8,6.3-5.1,11.8-9.4,16.7-5.7,6.3-12.7,11-20.2,14.9-5.2,2.7-10.5,4.9-16.2,6.7-.2-6.6-.2-13.1-.2-19.5,0-2,0-4-.4-5.9-1.1-7-5-11.9-11.4-14.7-4-1.7-8.1-3-12.3-4.2-6.5-1.9-13.1-3.8-19.7-5.4-6-1.5-12.2-2.6-18.3-3.8-3.4-.7-6.8-1.1-10.2-1.6-2.1-.3-4.3-.7-6.4-1-2.3-.3-4.5-.6-6.8-.8-2.8-.3-5.7-.6-8.5-.8-2.1-.2-4.3-.5-6.4-.7-2.2-.2-4.4-.3-6.7-.4-2.7-.2-5.4-.5-8.2-.7-2.5-.2-5-.3-7.4-.4-4.6-.2-9.2-.4-13.8-.4-8.8,0-17.6.2-26.4.4-3.6,0-7.1.3-10.7.4-.1,0-.3,0-.4,0-3.2.2-6.3.5-9.5.7-2,.1-3.9.2-5.9.4-3.1.3-6.2.7-9.3,1.1-3.7.4-7.3.7-11,1.2-4.5.6-9,1.4-13.5,2.2-6.9,1.3-13.9,2.5-20.8,4-9.6,2.1-19,4.9-28.2,8.3-2.9,1-5.9,1.8-8.3,3.8-2.7,2.2-5,4.7-6.4,8-1.2,2.9-1.7,5.9-1.7,8.9,0,7.2,0,14.3,0,21.5-9.3-3.2-18.2-7.1-26.3-12.7-6.7-4.6-12.5-10.1-16.6-17.2-2.9-5-4.5-10.4-5.1-16.1-1.2-11.1,1.5-21.4,5.9-31.4,5-11.1,12.1-20.8,20.2-29.9,9.7-10.8,20.9-20.1,32.9-28.3,9.7-6.7,19.9-12.5,30.6-17.5,16.9-7.9,34.4-13.9,52.6-17.8,8.3-1.8,16.7-3,25.1-4,3.6-.4,7.2-.6,11.2-.9,1.5-.2,2.8.4,3.9-.4,6.3,0,12.6,0,19.1.1,1.6.2,3,.2,4.3.2M220.6,8.9c0,.3,0,.6.1.9,1.2,8.7,4.6,16.4,11.2,22.3,7.9,7,17,9.1,27,5.1,6.8-2.7,11.7-7.7,15.1-14.1,4.6-8.6,5.7-17.8,3.7-27.3-1.5-7.3-4.8-13.7-10.4-18.8-7.8-7.1-16.8-9.2-26.8-5.6-6.3,2.3-10.9,6.7-14.4,12.4-4.7,7.6-6.3,16-5.5,25.1Z"/>
  <path class="st8" d="M.5,478.3c.2-1.5.5-3,.6-4.5,1-9.3,3.6-18.1,7.3-26.7,5.2-12.3,12.3-23.3,21.2-33.3,9.4-10.5,20.2-19,32.9-25.2,4.9-2.4,10-4.1,15.2-5.8,5.8-1.8,11.5-3.7,17.3-5.5,10-3.2,19.9-6.4,29.9-9.6.4-.1.7-.3,1.3-.3,3,3.8,5.7,7.5,8.5,11.3,3.3,4.5,6.5,9,9.7,13.4,3.8,5.2,7.7,10.5,11.5,15.7,3.3,4.6,6.6,9.2,10,13.8,4.7,6.4,9.4,12.8,14.1,19.2,5.2,7.1,10.4,14.3,15.6,21.5,1.2,1.6,2.7,3,4.6,3.6,3.6.9,7,.7,9.9-2.2,6.3-6.4,12.7-12.8,19.1-19.1.5-.5,1.2-.9,1.8-1.1,0,3.1,0,5.9,0,8.8,0,1.4.4,2.8.9,4,.9,2.2,2.7,3.7,4.7,4.9,0,.8,0,1.6,0,2.5-.2,2.9-.5,5.7-.7,8.6-.2,3.4-.3,6.7-.4,10.1,0,.2,0,.4,0,.6-.2,3.1-.5,6.2-.7,9.3-.2,3.2-.3,6.4-.4,9.5-.1,2.2-.2,4.4-.4,6.7-.3,4.9-.8,9.9-1.1,14.8-.2,3.5-.3,7-.4,10.5,0,.2,0,.4,0,.6-.2,3.1-.5,6.2-.7,9.3-.3,4.4-.5,8.8-.8,13.1-13.8,0-27.6,0-41.6-.2-.4-8.1.2-16-.5-23.9-.2-2.2-.8-4.3-1.9-6.1-2.7-4.5-6.7-7-12-7-22.4,0-44.9,0-67.3,0-5,0-8.8,2.3-11.7,6.2-2.1,2.7-2.6,5.9-2.6,9.2-.1,7.3,0,14.6,0,21.9-22.8,0-45.6,0-68.6-.1-7-1.3-12.6-4.4-17.1-9.5-3.7-4.2-6-9-6.8-14.5,0-.5,0-.9-.7-.9,0-16.6,0-33.3.1-50.2.2-1.4.2-2.4.3-3.5Z"/>
  <path class="st8" d="M374.6,367.4c14.1,4.5,28.3,9.1,42.4,13.6,5.4,1.7,10.8,3.4,16.1,5.4,10,3.9,18.8,9.6,26.9,16.6,11.2,9.6,20.3,20.8,27.3,33.7,6,11.1,10.3,22.9,12.1,35.5.2,1.1.2,2.3.3,3.7.1,1,.3,1.7.4,2.3,0,17.8,0,35.6,0,53.7-.2,1.3-.3,2.3-.5,3.3-3,10.9-10,17.9-20.9,21-.8.2-1.5.5-2.3.7-23,0-46.1,0-69.3-.2-.2-7.7-.2-15.3-.1-22.8,0-2.5-.5-4.8-1.7-6.9-2.7-4.7-6.7-7.3-12.2-7.3-22.5,0-45,0-67.5,0-.7,0-1.4,0-2.1.1-7.3,1.6-12,7.2-12.1,15,0,7.3,0,14.7,0,22-13.8,0-27.6,0-41.6-.2-.4-4.4-.7-8.7-.9-12.9-.3-4.6-.5-9.1-.8-13.7-.2-3.3-.3-6.6-.4-9.9,0-.2,0-.4,0-.6-.4-4.9-.7-9.8-1.1-14.6-.3-4.2-.5-8.4-.8-12.6-.3-5.5-.5-10.9-.8-16.4,0-.4,0-.8,0-1.1-.2-3.9-.5-7.9-.8-11.8,0-1.2.3-2,1.3-2.7,2.8-1.8,4.1-4.5,4.1-7.8,0-3.1,0-6.1.2-9.2.7.4,1.2.8,1.7,1.3,6.2,6.1,12.3,12.3,18.4,18.4,2.2,2.2,4.7,3.4,7.9,3.3,3-.1,5.4-1.3,7.2-3.7,1.2-1.6,2.4-3.3,3.6-4.9,3.8-5.2,7.6-10.5,11.4-15.7,3.3-4.5,6.6-9.1,9.8-13.6,3.9-5.3,7.7-10.6,11.6-15.9,3.4-4.6,6.7-9.3,10.1-13.9,3.6-5,7.3-10,10.9-15,3.4-4.7,6.8-9.5,10.3-14.2.6-.8,1.2-1.4,1.9-2.1Z"/>
  <path class="st3" d="M269.6,443.3c0,3.1,0,6.1,0,9.2,0,3.3-1.3,6-4.1,7.8-1.1.7-1.4,1.4-1.3,2.7.3,3.9.5,7.9.8,11.8,0,.4,0,.8,0,1.1.3,5.5.5,10.9.8,16.4.2,4.2.5,8.4.8,12.6.3,4.9.7,9.8,1.1,14.6,0,.2,0,.4,0,.6.1,3.3.3,6.6.4,9.9.2,4.6.5,9.2.8,13.7.2,4.3.5,8.5.7,12.9-12.7.2-25.4.2-38.2.2,0-4.4.3-8.8.6-13.1.2-3.1.5-6.2.7-9.3,0-.2,0-.4,0-.6.1-3.5.2-7,.4-10.5.3-4.9.7-9.9,1.1-14.8.2-2.2.3-4.4.4-6.7.2-3.2.3-6.4.4-9.5.2-3.1.5-6.2.7-9.3,0-.2,0-.4,0-.6.1-3.4.2-6.7.4-10.1.2-2.9.5-5.7.7-8.6,0-.8,0-1.6,0-2.5-2.1-1.3-3.9-2.7-4.7-4.9-.5-1.3-.9-2.7-.9-4-.1-2.9,0-5.7,0-8.9.4-.9.8-1.4,1.3-1.9,5.4-5.4,10.8-10.8,16.2-16.3.5-.5.8-1.2,1.4-1.8.3,0,.4,0,.6.2.5.7.9,1.2,1.4,1.7,5.4,5.4,10.8,10.8,16.2,16.3.5.5.9,1.2,1.3,1.8Z"/>
  <path class="st1" d="M93.6,556.9c-.2-7.3-.2-14.6-.1-21.9,0-3.3.6-6.5,2.6-9.2,2.9-3.9,6.7-6.2,11.7-6.2,22.4,0,44.9,0,67.3,0,5.3,0,9.2,2.5,12,7,1.1,1.9,1.7,3.9,1.9,6.1.7,7.9.1,15.8.3,23.9-31.9.2-63.7.2-95.8.2Z"/>
  <path class="st1" d="M311.5,556.9c-.2-7.3-.2-14.7-.2-22,0-7.9,4.8-13.5,12.1-15,.7-.1,1.4-.1,2.1-.1,22.5,0,45,0,67.5,0,5.4,0,9.4,2.6,12.2,7.3,1.3,2.1,1.8,4.4,1.7,6.9,0,7.5,0,15.1,0,22.8-31.7.2-63.5.2-95.4.2Z"/>
  <path class="st6" d="M385.9,199.2c4-.2,7.7,1,11,3.3,4.3,3,6.1,7.5,7,12.5.8,4.9,0,9.8-1,14.6-1.5,7.3-4.1,14.2-7.5,20.8-2.5,4.8-5.5,9.2-9.5,12.8-3.2,2.8-6.7,4.8-11.2,4.4-1.4-.1-2.7-.6-4.1-.9-.5-.1-.9-.4-1.6-.7-.7,1.6-1.4,3.2-2.2,4.7-2.2,4.6-4.5,9.3-6.8,13.9-2.8,5.7-6.3,11.1-9.9,16.3-3,4.4-6.2,8.7-9.8,12.7-1.1,1.3-2.2,2.6-3.4,4.1-.6.5-1.1.8-1.5,1.2-1,1.1-2,2.4-3.1,3.4-3,2.7-6,5.5-9.2,8.1-2.8,2.3-5.7,4.5-8.7,6.6-5.3,3.6-10.8,6.7-16.7,9.3-3.7,1.6-7.4,3.2-11.2,4.4-6.4,2.1-12.9,3.7-19.7,4.5-3.3.4-6.5,1-9.8,1-5.3,0-10.6.3-15.9-.2-3.3-.3-6.7-.7-10-1.2-5.5-.8-10.8-2.1-16.1-3.8-6.9-2.2-13.6-5-20-8.6-4.7-2.7-9.3-5.6-13.6-8.9-.7-.5-1.5-.9-2.3-1.5-.6-.6-1.1-1.2-1.7-1.7-2.3-2-4.7-3.9-6.9-5.9-2.3-2.1-4.5-4.3-6.7-6.5-2.2-2.7-4.5-5.3-6.7-8.1-6.2-7.7-11.5-16-16.2-24.7-3.4-6.2-6.4-12.6-9-19.2-.2-.5-.5-1-.8-1.7-.5.4-1,.7-1.5,1-4.1,3.1-9.1,3.3-13.4.4-3.7-2.4-6.5-5.8-8.7-9.5-5.2-8.6-8.4-18-10.3-27.8-.8-3.8-1.2-7.7-.8-11.6.5-5,1.8-9.6,5.5-13.3,2.8-2.7,6.3-4.1,10.2-4.2.8,0,1.5,0,2.5.1.5,3.8.8,7.5,1.1,11.4,6.2,3.5,12.6,7.2,19.2,10.9.2-1.3.4-2.3.5-3.3,1.1-9.5,2.1-19,3.2-28.5.4-3.3,1-6.5,1.5-9.8.6-4,1.3-8.1,1.9-12.1.4-2.3.8-4.5,1.3-6.8.5,0,.9,0,1.3.1,5.9,1.4,11.9,2.9,17.8,4.3,3.1.7,6.3,1.5,9.5,2,2.9.5,5.9.8,8.8,1.2,2.3.3,4.6.9,7,1.1,4.4.5,8.8.8,13.2,1.3,11.1,1.2,22.3,1.8,33.5,2.1,8.1.2,16.1.2,24.2.1,8.2-.1,16.5-.4,24.7-.9,7.2-.4,14.5-1.2,21.7-1.8,3.1-.3,6.3-.7,9.4-1.1,5.8-.9,11.6-1.6,17.3-2.7,7.2-1.4,14.3-3.1,21.5-4.7,1.4-.3,2.8-.7,4.3-.9.6,3.5,1.4,6.9,1.9,10.3,1.1,7.5,2.2,15,3.2,22.6,1,7.4,1.8,14.8,2.7,22.2.2,1.7.4,3.4.6,5.1.4-.1.6-.2.8-.2,5.8-3.3,11.7-6.6,17.5-9.9.8-.4,1-1.1,1-1.9.2-3.4.6-6.9.9-10.3Z"/>
  <path class="st2" d="M106.5,119.2c0-7.3,0-14.5,0-21.7,0-3.1.5-6.1,1.7-8.9,1.4-3.3,3.7-5.8,6.4-8,2.4-2,5.4-2.8,8.3-3.8,9.2-3.3,18.6-6.1,28.2-8.3,6.9-1.5,13.8-2.8,20.8-4,4.5-.8,9-1.6,13.5-2.2,3.6-.5,7.3-.8,11-1.2,3.1-.3,6.2-.8,9.3-1.1,2-.2,3.9-.3,5.9-.4,3.2-.2,6.3-.5,9.5-.7.1,0,.3,0,.4,0,3.6-.1,7.1-.3,10.7-.4,8.8-.2,17.6-.3,26.4-.4,4.6,0,9.2.2,13.8.4,2.5,0,5,.2,7.4.4,2.7.2,5.4.5,8.2.7,2.2.2,4.4.2,6.7.4,2.1.2,4.3.5,6.4.7,2.8.3,5.7.5,8.5.8,2.3.2,4.5.5,6.8.8,2.1.3,4.3.7,6.4,1,3.4.5,6.8.9,10.2,1.6,6.1,1.2,12.2,2.4,18.3,3.8,6.6,1.6,13.2,3.5,19.7,5.4,4.1,1.2,8.3,2.6,12.3,4.2,6.5,2.7,10.4,7.7,11.4,14.7.3,1.9.4,3.9.4,5.9,0,6.5,0,12.9,0,19.6,0,5.7,0,11.1,0,16.6,0,.7.2,1.5-.7,2.1-.3-.2-.5-.5-.7-.5-2.4-.4-4.7-.9-7.1-1.2-4.8-.7-9.7-1.3-14.5-1.9-4.8-.6-9.6-1.1-14.4-1.5-4.5-.4-9-.8-13.5-1.2-3.5-.3-7-.5-10.5-.8-4.4-.3-8.9-.5-13.3-.8-2.4-.1-4.7-.3-7.1-.4-3.2-.1-6.5-.3-9.7-.4-3.4-.1-6.9-.3-10.3-.4-5.4-.2-10.7-.3-16.1-.4-8.6,0-17.3-.1-25.9,0-10.4.1-20.8-.3-31.2.3-6.1.4-12.2.3-18.4.4-4.4.1-8.8.3-13.2.4-.1,0-.3,0-.4,0-3.4.2-6.7.5-10.1.7-3.3.2-6.6.3-9.9.4-.2,0-.4,0-.6,0-2.7.2-5.3.5-8,.7-2.3.2-4.7.3-7.1.4-1.6.1-3.3.3-4.9.4-2.1.2-4.3.5-6.4.7-1.7.2-3.4.3-5.1.5-3,.3-6,.7-9.1,1.1-2.5.3-5,.6-7.5,1-2,.3-4,.6-6,.9-2.3.4-4.6.8-6.9,1.2-.1-.8-.5-1.7-.3-2.4.7-3.7.2-7.4.4-11.1,0-1.4,0-2.8,0-4.4Z"/>
  <path class="st3" d="M106.4,137.2c2.3-.5,4.6-.9,7-1.3,2-.3,4-.6,6-.9,2.5-.4,5-.7,7.5-1,3-.4,6-.7,9.1-1.1,1.7-.2,3.4-.3,5.1-.5,2.1-.2,4.3-.5,6.4-.7,1.6-.2,3.3-.3,4.9-.4,2.3-.2,4.7-.2,7.1-.4,2.7-.2,5.3-.5,8-.7.2,0,.4,0,.6,0,3.3-.1,6.6-.2,9.9-.4,3.4-.2,6.7-.5,10.1-.7.1,0,.3,0,.4,0,4.4-.1,8.8-.3,13.2-.4,6.1-.1,12.3,0,18.4-.4,10.4-.7,20.8-.2,31.2-.3,8.6-.1,17.3,0,25.9,0,5.4,0,10.7.2,16.1.4,3.4,0,6.9.2,10.3.4,3.2.1,6.5.2,9.7.4,2.4.1,4.7.2,7.1.4,4.4.3,8.9.5,13.3.8,3.5.2,7,.5,10.5.8,4.5.4,9,.7,13.5,1.2,4.8.5,9.6,1,14.4,1.5,4.9.6,9.7,1.2,14.5,1.9,2.4.3,4.8.8,7.1,1.2.2,0,.3.3.6.6-.2,2.4-1.4,4.2-2.7,5.9-.5.7-1,1.3-1.8,2-2.4,1.8-4.5,3.6-6.8,5-5.8,3.5-12,6.2-18.4,8.3-2.4.8-4.8,1.7-7.2,2.5-1.4.3-2.8.7-4.3,1-7.2,1.6-14.3,3.3-21.5,4.7-5.7,1.1-11.5,1.9-17.3,2.7-3.1.5-6.2.8-9.4,1.1-7.2.7-14.4,1.4-21.7,1.8-8.2.5-16.5.8-24.7.9-8.1.1-16.1,0-24.2-.1-11.2-.3-22.3-.9-33.5-2.1-4.4-.5-8.8-.8-13.2-1.3-2.3-.3-4.6-.8-7-1.1-2.9-.4-5.9-.7-8.8-1.2-3.2-.6-6.3-1.3-9.5-2-6-1.4-11.9-2.9-17.8-4.3-.4,0-.8-.1-1.4-.3-.5-.2-.7-.4-.9-.4-5.3-1.5-10.6-3.4-15.6-5.6-3.9-1.7-7.7-3.7-11.2-6.2-1.6-1.2-3.1-2.4-4.6-3.7-2.2-2.2-3.9-4.7-4.6-7.9Z"/>
  <path class="st1" d="M250,423.3c-.4.6-.7,1.3-1.3,1.8-5.4,5.4-10.8,10.9-16.2,16.3-.5.5-.9,1.1-1.3,1.7-.6.6-1.3.9-1.8,1.4-6.4,6.4-12.8,12.7-19.1,19.1-2.9,2.9-6.3,3.1-9.9,2.2-2-.5-3.5-2-4.6-3.6-5.2-7.1-10.4-14.3-15.6-21.5-4.7-6.4-9.4-12.8-14.1-19.2-3.3-4.6-6.6-9.2-10-13.8-3.8-5.2-7.7-10.5-11.5-15.7-3.3-4.5-6.5-9-9.7-13.4-2.7-3.8-5.5-7.5-8.3-11.3-.4-.5-.7-1-1.1-1.5.4-.5.8-.9,1.2-1.3,6.9-6.9,13.8-13.8,20.7-20.7,1.5-1.5,3.2-2.6,5.2-3,3.4-.8,6.3.2,9,2.5.3.3.4.5.5.6,6.4,5.8,12.8,11.6,19.2,17.3,13.4,12.1,26.8,24.1,40.2,36.2,7.3,6.6,14.7,13.2,22,19.8,2.2,2,4.4,4.1,6.6,6.1Z"/>
  <path class="st7" d="M250.1,423.3c-2.3-2.1-4.5-4.2-6.7-6.2-7.3-6.6-14.6-13.2-22-19.8-13.4-12.1-26.8-24.1-40.2-36.2-6.4-5.8-12.8-11.6-19.2-17.3-.1-.1-.2-.3-.4-.6.5-3.3,1-6.5,1.5-9.7.2-1.6.4-3.3.5-4.9.2-3.5.3-7,.4-10.7,2.2,2,4.4,4.2,6.7,6.3,2.2,2,4.6,3.9,6.9,5.9.6.5,1.1,1,1.7,1.8,1.1,1.6,2.1,3,3.3,4.2,3,3.1,6,6.1,9.1,9.1,3.2,3,6.4,6,9.7,8.9,3.1,2.7,6.4,5.3,9.6,7.8,4.4,3.4,8.8,6.9,13.4,10,5.6,3.9,11.3,7.7,17.1,11.2,6.5,3.9,13.2,7.5,19.8,11.1,3.8,2,7.7,3.8,11.5,5.6.8.4,1.7.6,2.4,1-.5.5-1,1-1.5,1.4-4.8,4.4-9.7,8.7-14.5,13.1-2.9,2.7-5.8,5.3-8.7,8-.2,0-.3,0-.6,0Z"/>
  <path class="st0" d="M111,145.4c1.6,1,3.1,2.3,4.7,3.5,3.4,2.6,7.3,4.5,11.2,6.2,5.1,2.2,10.3,4.1,15.6,5.6.2,0,.5.2.8.5-.3,2.4-.7,4.6-1.1,6.9-.7,4-1.3,8.1-1.9,12.1-.5,3.3-1.1,6.5-1.5,9.8-1.1,9.5-2.1,19-3.2,28.5-.1,1-.3,2-.5,3.3-6.6-3.7-13-7.4-19.2-10.9-.3-3.9-.6-7.6-.9-11.4-.4-4.8-.8-9.4-1.1-14-.2-2.7-.3-5.3-.5-8-.3-4.1-.7-8.2-1-12.4-.2-2.4-.3-4.8-.5-7.2-.3-4.1-.6-8.1-.8-12.4Z"/>
  <path class="st1" d="M250.7,423.5c2.9-2.8,5.8-5.5,8.7-8.1,4.8-4.4,9.7-8.7,14.5-13.1.5-.4.9-.9,1.6-1.5,12.2-10.9,24.1-21.6,36.1-32.4,7.2-6.5,14.4-13,21.6-19.5,2.1-1.9,4.1-3.8,6.1-5.8,1.4-.8,2.7-1.8,4.2-2.2,3.6-1.2,6.9-.2,9.5,2.3,7.5,7.4,14.9,14.9,22.3,22.3,0,0,0,.1.1.3-.2.3-.5.7-.8,1.3-.7.8-1.3,1.5-1.9,2.3-3.4,4.7-6.9,9.5-10.3,14.2-3.6,5-7.3,10-10.9,15-3.4,4.6-6.7,9.3-10.1,13.9-3.9,5.3-7.7,10.6-11.6,15.9-3.3,4.5-6.6,9.1-9.8,13.6-3.8,5.2-7.6,10.5-11.4,15.7-1.2,1.6-2.4,3.3-3.6,4.9-1.8,2.4-4.2,3.6-7.2,3.7-3.2.1-5.7-1.1-7.9-3.3-6.1-6.1-12.3-12.3-18.4-18.4-.5-.5-1.1-.9-1.7-1.3-.6-.6-.9-1.3-1.4-1.8-5.4-5.4-10.8-10.8-16.2-16.3-.5-.5-.9-1.1-1.4-1.7Z"/>
  <path class="st9" d="M339.2,343.1c-1.9,2-3.9,4-6,5.9-7.2,6.5-14.4,13-21.6,19.5-12,10.8-23.9,21.5-36,32.3-1-.2-1.8-.5-2.6-.8-3.9-1.8-7.8-3.6-11.5-5.6-6.7-3.6-13.3-7.2-19.8-11.1-5.8-3.5-11.5-7.3-17.1-11.2-4.6-3.2-9-6.6-13.4-10-3.3-2.5-6.5-5.1-9.6-7.8-3.3-2.9-6.5-5.9-9.7-8.9-3.1-3-6.1-6-9.1-9.1-1.2-1.2-2.2-2.6-3.3-4.1.7.3,1.5.7,2.2,1.2,4.3,3.3,8.8,6.2,13.6,8.9,6.4,3.6,13,6.4,20,8.6,5.3,1.7,10.6,3,16.1,3.8,3.3.5,6.7.9,10,1.2,5.3.5,10.6.3,15.9.2,3.3,0,6.6-.7,9.8-1,6.7-.7,13.3-2.4,19.7-4.5,3.8-1.2,7.5-2.8,11.2-4.4,5.8-2.6,11.4-5.7,16.7-9.3,3-2,5.9-4.3,8.7-6.6,3.1-2.6,6.2-5.3,9.2-8.1,1.1-1,2-2.3,3.1-3.4.4-.4.9-.7,1.4-1.1.1,2.2.1,4.4.2,6.7.2,6.2.8,12.4,2.2,18.6Z"/>
  <path class="st4" d="M357.4,161.3c2.4-1,4.8-1.9,7.2-2.7,6.4-2.1,12.6-4.8,18.4-8.3,2.3-1.4,4.4-3.2,6.7-4.9,0,2.1,0,4.3-.2,6.4-.2,2.8-.5,5.6-.7,8.4-.4,5.1-.8,10.2-1.1,15.2-.4,5.7-.8,11.4-1.2,17.1-.2,2.1-.4,4.2-.6,6.4-.3,3.6-.6,7-.8,10.5,0,.8-.2,1.4-1,1.9-5.8,3.3-11.7,6.6-17.5,9.9-.2,0-.4.1-.8.2-.2-1.7-.4-3.4-.6-5.1-.9-7.4-1.7-14.8-2.7-22.2-1-7.5-2-15-3.2-22.6-.5-3.4-1.2-6.8-1.9-10.3Z"/>
  <path class="st5" d="M220.6,8.7c-.7-9,.8-17.4,5.5-25,3.5-5.6,8.1-10.1,14.4-12.4,10-3.6,19-1.5,26.8,5.6,5.6,5.1,8.9,11.5,10.4,18.8,2,9.5.9,18.7-3.7,27.3-3.4,6.4-8.2,11.4-15.1,14.1-10,3.9-19.1,1.9-27-5.1-6.6-5.9-10-13.6-11.2-22.3,0-.3,0-.6-.2-1.1Z"/>
</svg>