<?xml version="1.0" encoding="UTF-8"?>
<svg id="Layer_1" xmlns="http://www.w3.org/2000/svg" version="1.1" viewBox="0 0 500 500">
  <!-- Generator: Adobe Illustrator 29.5.0, SVG Export Plug-In . SVG Version: 2.1.0 Build 137)  -->
  <defs>
    <style>
      .st0 {
        fill: #8d6a50;
      }

      .st1 {
        fill: #dbb472;
      }

      .st2 {
        fill: #686767;
      }

      .st3 {
        fill: #dbb673;
      }

      .st4 {
        fill: #e4ddc0;
      }

      .st5 {
        fill: #d43e27;
      }

      .st6 {
        fill: #8e6b51;
      }

      .st7 {
        fill: #d6eeee;
      }

      .st8 {
        fill: #fff;
      }

      .st9 {
        fill: #cdd0d1;
      }

      .st10 {
        fill: #617e8c;
      }

      .st11 {
        fill: #398f43;
      }

      .st12 {
        fill: #1e421e;
      }

      .st13 {
        fill: #8d684f;
      }

      .st14 {
        fill: #b5d8ed;
      }

      .st15 {
        fill: #8d6b51;
      }

      .st16 {
        fill: #dbb571;
      }

      .st17 {
        fill: #f9f2d8;
      }

      .st18 {
        fill: #f15a46;
      }

      .st19 {
        fill: #e6dec0;
      }

      .st20 {
        fill: #d9b471;
      }

      .st21 {
        fill: #f6f0d7;
      }

      .st22 {
        fill: #65696b;
      }

      .st23 {
        fill: #c4c9e6;
      }

      .st24 {
        fill: #384850;
      }

      .st25 {
        fill: #41ade2;
      }

      .st26 {
        fill: #f15b47;
      }

      .st27 {
        fill: #fdea3b;
      }

      .st28 {
        fill: #e5dec2;
      }

      .st29 {
        fill: #b3c1c0;
      }

      .st30 {
        fill: #4daf4f;
      }

      .st31 {
        fill: #e5ddc0;
      }

      .st32 {
        fill: #e9e8e8;
      }

      .st33 {
        fill: #eeb9b9;
      }

      .st34 {
        fill: #d5eaea;
      }
    </style>
  </defs>
  <path class="st33" d="M262,500c-7.5,0-15,0-22.9-.1-2.7-.3-5.2-.5-7.6-.7h-1.7c-3.2-.4-6.5-.7-9.7-1.1-3.5-.4-7-.8-10.5-1.4-6.4-1.1-12.8-2.4-19.2-3.9-8.4-2.1-16.7-4.6-24.9-7.5-8-2.9-15.8-6.2-23.4-9.8-6.1-2.9-12-6.1-17.8-9.5-4.5-2.7-9.1-5.5-13.4-8.4-7.8-5.3-15.3-10.8-22.4-17-3.1-2.7-6.2-5.3-9.2-8.1-4.4-4.2-8.8-8.5-12.9-13.1-3.6-4-7.2-8.1-10.6-12.3-4-4.8-7.7-9.9-11.3-15-5.4-7.7-10.2-15.7-14.7-24-3.5-6.6-6.8-13.2-9.6-20.1-3-7.3-5.9-14.7-8.2-22.3-1.7-5.4-3.3-10.8-4.6-16.2-1.4-5.9-2.7-11.9-3.7-17.9-.5-2.8-.9-5.6-1.3-8.4-.4-3.1-.6-6.2-1-9.3-.5-3.9-.7-7.9-.8-11.8,0-1.5-.3-3-.5-4.5,0-.1-.1-.2-.2-.3v-13.7c.4-2.4.8-4.4.7-6.5,0-1.2,0-2.5.1-3.8.2-2.3.5-4.7.7-7,.3-3.1.5-6.2,1-9.3.7-4.8,1.5-9.6,2.4-14.4,1.8-9.7,4.3-19.3,7.3-28.6,1.3-4.1,2.8-8.1,4.3-12.2,2-5.6,4.4-11.1,6.9-16.5,3.6-7.7,7.5-15.2,11.8-22.5,4.1-6.7,8.3-13.3,13-19.6,2.9-3.9,5.9-7.7,8.9-11.5,3.1-4,6.5-7.8,10-11.5,5-5.2,10-10.4,15.5-15.2,3-2.6,6.1-5.3,9.2-7.9,5.9-4.9,12-9.5,18.3-13.7,7.7-5.2,15.6-10,23.8-14.3,8.5-4.4,17.2-8.5,26.2-11.9,9-3.5,18.1-6.4,27.4-8.8,6.8-1.8,13.6-3.2,20.6-4.4,4.8-.8,9.6-1.6,14.4-2,1.7-.1,3.3-.3,5-.5,3.6-.4,7.2-.8,10.8-.8h2.3c.3,0,.6-.2.9-.4,5.7,0,11.4,0,17.5,0,.6.2.9.3,1.1.3,2.9,0,5.8,0,8.7.4,3.6.4,7.3.6,11,1,3.6.4,7.1,1,10.7,1.5,5.6.8,11.2,2,16.7,3.3,10.1,2.3,20,5.3,29.7,8.9,7.4,2.7,14.6,5.8,21.7,9.2,6.9,3.3,13.6,7,20.2,10.9,6.8,4.1,13.4,8.5,19.8,13.2,4.9,3.6,9.6,7.3,14.2,11.3,3.3,3,6.7,5.8,9.9,8.9,6.4,6,12.4,12.4,18,19.1,2.9,3.5,5.8,6.9,8.5,10.5,5.1,6.7,9.9,13.6,14.3,20.8,2.8,4.6,5.5,9.2,7.9,14,1.8,3.5,3.6,7,5.3,10.6,1.9,4.1,3.7,8.2,5.4,12.4,2.5,6,4.7,12.2,6.6,18.4,1.1,3.5,2.1,6.9,3,10.4,1.8,6.5,3.3,13.1,4.4,19.7.7,3.8,1.2,7.7,1.8,11.5.4,2.6.6,5.2.9,7.9.4,3.5.8,7,.8,10.6v3.3c0,.5.2.9.4,1.4,0,7,0,13.9-.1,21.2-.2,2-.2,3.7-.3,5.3-.1,2.8-.3,5.7-.5,8.5-.2,1.9-.5,3.9-.7,5.8-.3,2.7-.6,5.4-1,8-.8,4.8-1.8,9.6-2.7,14.3-1.4,7.2-3.4,14.3-5.5,21.4-3.3,10.7-7.3,21.1-12,31.3-3.2,6.9-6.7,13.7-10.6,20.3-3.7,6.3-7.6,12.5-11.8,18.4-3.3,4.6-6.7,9.2-10.3,13.6-2.5,3-5,6-7.6,8.9-3.1,3.4-6.2,6.8-9.4,10.1-1.6,1.7-3.3,3.1-5,4.7-3.1,3.1-6.3,6-9.7,8.8-3.4,2.8-6.8,5.7-10.3,8.4-5.8,4.5-11.8,8.6-17.9,12.6-5.7,3.6-11.5,7.1-17.5,10.1-5.3,2.7-10.6,5.3-15.9,7.7-4.5,2.1-9.2,3.9-13.9,5.6-7.2,2.6-14.4,5-21.8,7-5.6,1.5-11.3,2.9-17,4-3.7.7-7.5,1.3-11.3,1.9-2.3.4-4.7.7-7,1-1.9.2-3.7.5-5.6.6-2.6.2-5.1.3-7.7.5-1.4.1-2.8.3-4.1.4-.3,0-.5.2-.7.3M312.4,359.5c.3.5.6,1.1.9,1.6,1,1.5,1.8,3.1,3,4.5,2.5,3.2,5.9,5.3,9.9,6.2,2.6.6,5.2.6,7.9.2,4.5-.7,8.3-2.7,11.3-6.2,1.3-1.5,2.4-3.2,3.3-5,.3-.5.4-1.2,1.4-1.4,5.2,0,10.3,0,15.6.3.8,1.6,2.3,2.1,3.8,2.7,2.2.8,4.3,1.5,6.5,2.3,4.3,1.6,8.5,3.4,12.8,5,1.6.6,3.1,1.2,4.5,2.1.5.3,1.1.6,1.7.8,2.2.8,3.6.5,4.9-1.3.7-1,1.4-2.1,1.9-3.2,3.2-6.6,6.9-12.8,11.4-18.7,3.3-4.3,6.2-8.9,8.9-13.6,1.8-3.2,3.3-6.4,4.4-9.9,2.5-8.1,2.6-16.3.6-24.5-1.2-4.8-3.1-9.4-6.1-13.4-2.5-3.4-5.5-6.1-9.4-7.7-7.8-3.2-15.4-3-22.9.9-.6.3-1.2.6-1.8.6v-.8c0-36.4,0-72.8.4-109.3h12.9c1.4,0,2.8-.2,4-.9,1.7-.9,2.7-2.4,2.8-4.4,0-1.6-.4-3-1.1-4.4l-16.5-33c-.7-1.4-1.6-2.6-2.7-3.7-3.8-3.8-8.4-5.8-13.8-5.8h-86.9c-1.2-.9-2.4-1.7-3.5-2.6-10.3-8.4-20.6-16.7-30.9-25.1-2-1.6-3.9-3.3-5.9-5.4,0-3.8,0-7.6.3-11.3.3.2.6.3.9.5,4.2,2.9,8.7,2.9,13.3,1.3,3.5-1.3,6.5-3.5,9.4-5.7,2-1.5,3.9-3.2,5.8-4.8,2.4-2,4.8-4,7.2-6,3.1-2.5,6.3-4.9,9.9-6.5,1.1-.5,2.3-1,3.5-1.3,1.3-.3,2.7-.6,4.1-.5,1.7,0,3.4.5,5,1.3.6.3,1.3.4,2,.8h.1l-.2-.4c-.4-.5-.7-1-1.1-1.5-1-1.1-2.1-2.2-3.2-3.3-4.8-4.5-10.5-6-16.9-5.2-3.6.4-7.1,1.4-10.6,2.2-3.7.9-7.4,1.6-11.3,1.5-4,0-7.6-1.4-10.8-3.7-2.3-1.6-4.2-3.6-5.9-5.8-.4-.5-1-1-1.5-1.8v-5.6c-.1-2.3-2-4.3-4.3-4.7-2.1-.4-4.3.8-5.4,2.7-.6,1.1-.7,2.2-.7,3.4v53.1c0,.6,0,1.2-.1,2.1-3.4,2.8-6.9,5.7-10.3,8.5-9.5,7.7-19,15.4-28.5,23.2-.5.4-1.1.6-2,.9h-89.4c-6.2,1.3-11.1,4.2-14.1,10-1.7,3.3-3.4,6.7-5.2,10-3.8,7.3-7.6,14.7-11.4,22-.5,1.1-1,2.1-1.2,3.3-.5,2.8.9,5.4,3.6,6.2,1,.3,2,.5,3.1.5h7.7c2.2,0,4.4,0,6.7.5v164.5c0,.6,0,1.3-.4,1.9h-15.1c-2.8,0-4.7,1.7-5.2,4.5,0,.5,0,1.1,0,1.7v8.6c0,.8,0,1.5.3,2.3.5,2.2,2.4,3.7,4.6,3.9h233.9M372.8,406.7c4.8,0,8.9-1.7,12.4-5,1.1-1,2.1-2.2,3.1-3.4,3-3.9,5-8.3,6.5-13,0-.3,0-.6.1-1.1-11.9-4.7-23.7-9.3-35.5-14h-.7c-.3.5-.6,1-.9,1.5-1.5,2.9-2.6,6-3.4,9.2-.6,2.6-1.1,5.3-1,8,.3,6.7,3.3,11.8,9.3,14.9,3,1.6,6.3,2.6,10.1,2.8h0Z"/>
  <path class="st19" d="M94.4,338.5v-1.9c0-54.8,0-109.6.2-164.7,1-.2,1.9-.2,2.7-.2h56c.7,0,1.4.2,2.1-.3,1.1.1,1.9.3,2.8.4h7.3c.5,0,1.1,0,1.7.5.3.8.2,1.8.2,2.8v160.2c0,1.1,0,2.2-.2,3.4h-72.8M154.4,194.8v-7.7c0-.9-.1-1.8-.5-2.6-1.5-3.2-3.8-5-7.5-4.9h-30.8c-.8,0-1.6,0-2.3.2-3.8,1.1-5.8,4.6-5.7,7.6v20.6c0,4.3,3.7,8,7.9,8h31.1c4.3,0,8.1-4,7.9-8-.2-4.2,0-8.5,0-13.1M110.7,235.8c-2,1.6-3.1,3.7-3.1,6.3v20.9c0,3.1,1.5,5.3,4.1,6.8,1.3.7,2.6.9,4,.9h31.8c1.1,0,2.1-.3,3-.9,2.6-1.6,4-3.8,4-6.9v-21c0-1.1-.2-2.1-.7-3-1.6-3-4-4.5-7.4-4.5h-30.7c-1.7,0-3.3.4-5,1.6M120,286.4h-4.6c-4.1,0-7.8,3.5-7.8,7.7v21.3c0,.6,0,1.1.2,1.6,1.1,3.8,4.5,5.9,7.5,5.8,2.7-.1,5.4,0,8.1,0,7.8,0,15.6-.1,23.3,0,4.3,0,7.7-4.1,7.7-7.5v-21.5c0-2.4-1.2-4.2-3-5.7-1.5-1.2-3.3-1.7-5.2-1.7h-26.3.1Z"/>
  <path class="st5" d="M134.3,171.6h-54.4c-1,0-2.1-.2-3.1-.5-2.7-.9-4.1-3.4-3.6-6.2.2-1.2.7-2.3,1.2-3.3,3.8-7.3,7.6-14.7,11.4-22,1.7-3.3,3.4-6.7,5.2-10,3-5.8,7.9-8.7,14.1-10,.6,0,1.2,0,1.9,0,29.2,0,58.3,0,87.6.2-1.8,2.2-4.2,3.9-6.4,5.7-2.5,2.1-5.1,4.1-7.6,6.2-2.9,2.3-5.7,4.7-8.5,7-1.7,1.4-3.3,2.7-5,4.1-2,1.7-4.1,3.3-6.1,5-1.7,1.4-3.5,2.8-5.2,4.2-2,1.6-3.9,3.3-5.9,4.9-1.7,1.4-3.4,2.7-5,4-2.2,1.8-4.4,3.6-6.6,5.4-1.2,1-2.3,2-3.5,3-.9.7-1,1.6-.4,2.6v-.3Z"/>
  <path class="st5" d="M286.2,119.6h86.6c5.5,0,10,2,13.8,5.8,1.1,1.1,2,2.3,2.7,3.7l16.5,33c.7,1.4,1.2,2.8,1.1,4.4-.1,2-1,3.4-2.8,4.4-1.3.7-2.6.9-4,.9h-50.8c-.8,0-1.7,0-2.4-.2.7-.8.7-1.5.1-2.1-.1-.2-.3-.3-.4-.4-2.8-2.3-5.7-4.6-8.5-6.9-2.1-1.7-4.2-3.4-6.3-5.1-1.9-1.5-3.8-3-5.7-4.6-1.7-1.3-3.3-2.7-5-4.1-2-1.6-3.9-3.3-5.9-4.9-1.7-1.4-3.5-2.8-5.2-4.2-2-1.6-3.9-3.3-5.9-4.9-2.6-2.1-5.3-4.3-7.9-6.4-2-1.6-4-3.2-6-4.8-1.3-1.1-2.9-1.9-3.8-3.5h-.2Z"/>
  <path class="st31" d="M346.7,171.6h39.8c.2,36.4.2,72.8.2,109.2v1c0,.2,0,.3-.2.3-4.9,3.3-8.2,7.8-10.7,13-.7,1.4-1.3,2.8-2.1,4.1-.2-1.7-.3-3.5-.3-5.2s0-1.6-.2-2.3c-1.2-3.6-4.2-5.7-7.4-5.6-1.7,0-3.3,0-5-.2,1.6-4.1,2.9-8,3.6-12.2.2-1.1.4-2.3.8-3.4h.8c3.9.2,7.4-4,7.4-7.5-.1-7.1,0-14.2,0-21.3s-1.2-4.5-3.2-6c-1.4-1.1-3.1-1.5-4.9-1.5h-22.7c-.7,0-1.1,0-1.6-.2-5.7-.9-11,.2-16,3-3.7,2.1-6.8,4.8-9.6,7.9-.5.6-1.1,1.2-1.7,1.6v-73.5c0-.4.2-.8.3-1.3.7,0,1.3-.1,1.9-.1h5.2c1.5,0,2.9,0,4.5-.3.8.1,1.5.2,2.2.2h18.9M370.9,181.5c-1.7-1.4-3.6-2-5.8-1.9h-30.4c-.8,0-1.6,0-2.3.2-3.8,1.1-5.8,4.5-5.8,7.6v20.6c0,4.3,3.7,8.1,7.9,8h30.7c.8,0,1.7,0,2.5-.3,3.4-.8,5.9-4.5,5.8-7.7-.2-6.7,0-13.5,0-20.2s-.7-4.3-2.6-6.2h0Z"/>
  <path class="st18" d="M346.8,171.5c-1.7.1-3.4.2-5,.2h-13.9c-.7,0-1.4,0-2-.3.7-1.1.8-1.5.2-2.1-.6-.6-1.3-1.1-1.9-1.6-19.7-16.3-39.3-32.7-59-49-6.8-5.6-13.6-11.3-20.3-16.9-1.4-1.2-3-1.6-4.8-1.5-1.3,0-2.3.8-3.3,1.6-18,14.9-36,29.7-54,44.6-9.1,7.5-18.1,14.9-27.2,22.4-.3.2-.5.5-.7.7-.5.6-.4.9.5,1.6-.6.6-1.3.4-2,.4h-18.7c-.8-1-.7-1.9.2-2.6,1.2-1,2.3-2,3.5-3,2.2-1.8,4.4-3.6,6.6-5.4,1.7-1.4,3.4-2.7,5-4,2-1.6,4-3.3,5.9-4.9,1.7-1.4,3.5-2.8,5.2-4.2,2-1.7,4.1-3.3,6.1-5,1.7-1.4,3.3-2.7,5-4.1,2.8-2.3,5.7-4.7,8.5-7,2.5-2.1,5.1-4.1,7.6-6.2,2.2-1.8,4.5-3.4,6.5-5.6.6-.4,1.2-.7,1.6-1.1,9.5-7.7,19-15.4,28.5-23.2,3.4-2.8,6.9-5.6,10.5-8.6.3-.2.4-.3.6-.4,3.1-1.9,6.1-2.1,9.2,0,.2,0,.4.2.5.3,2,1.7,3.9,3.3,5.9,4.9,10.3,8.4,20.6,16.8,30.9,25.1,1.1.9,2.3,1.8,3.6,2.7,1.1,1.6,2.7,2.4,4,3.5,1.9,1.7,4,3.2,6,4.8,2.6,2.1,5.3,4.2,7.9,6.4,2,1.6,3.9,3.3,5.9,4.9,1.7,1.4,3.5,2.8,5.2,4.2,2,1.6,4,3.3,5.9,4.9,1.7,1.4,3.3,2.7,5,4.1,1.9,1.5,3.8,3,5.7,4.6,2.1,1.7,4.2,3.4,6.3,5.1,2.8,2.3,5.7,4.6,8.5,6.9.2.1.3.3.4.4.6.7.6,1.4-.1,2.1v.3Z"/>
  <path class="st2" d="M94.2,338.5h75.9c6.1,0,12.1,0,18.2.2v8.6c0,.5,0,1.1-.3,1.6h-8.5c-.5,0-.9.1-1.5.2v10.2h-99.5c-2.2-.2-4.1-1.7-4.6-3.9-.2-.7-.2-1.5-.3-2.3v-8.6c0-.6,0-1.1,0-1.7.5-2.8,2.4-4.4,5.2-4.5h15.3v.2Z"/>
  <path class="st32" d="M178.2,359.4c-.2-3.4-.2-6.7-.1-10.2.6,0,1-.2,1.5-.2h120.3c1.1,0,2.2-.2,3.3.2v10.2h-125.1.1Z"/>
  <path class="st14" d="M307,54.1c-.7-.2-1.3-.3-1.9-.7-1.6-.8-3.3-1.2-5-1.3-1.4,0-2.8.2-4.1.5-1.2.3-2.4.8-3.5,1.3-3.6,1.7-6.8,4-9.9,6.5-2.4,2-4.8,4-7.2,6-1.9,1.6-3.8,3.3-5.8,4.8-2.9,2.2-5.9,4.4-9.4,5.7-4.6,1.6-9.1,1.6-13.3-1.3-.3-.2-.6-.4-1-.8-.1-12.9-.1-25.6-.1-38.3.5.5,1,.9,1.5,1.5,1.7,2.2,3.7,4.2,5.9,5.8,3.2,2.3,6.8,3.6,10.8,3.7,3.9,0,7.6-.6,11.3-1.5,3.5-.8,7-1.7,10.6-2.2,6.3-.8,12.1.7,16.9,5.2,1.1,1,2.2,2.1,3.2,3.3.4.4.8,1,1.1,1.6v.2h-.1Z"/>
  <path class="st2" d="M349.8,359.3c0-.8,0-1.6.3-2.3.9-2.5,1.3-5.1,1.2-7.8,0-1.8,0-3.6-.3-5.4-.2-.8,0-1.7,0-2.5s0-1.1-.1-1.7h-9.4c-1,0-1.9.2-2.9.3-.6,0-1.2.1-1.9.1h-6c-1.2,0-2.3.2-3.5.3h-7.5c-1.5,0-2.9,0-4.3.3-.7.2-1.5,0-2.3,0s-1.2.1-1.9.2c0,.5-.2.9-.2,1.3v11c0,1.3.4,2.5.8,3.6.2.6.3,1.2.5,1.9-2.8.2-5.7.2-8.7.3-.2-2.7-.2-5.4-.3-8.1v-2.1c-1.2-.3-2.3-.2-3.3-.2h-3.1c-1.1,0-2.2,0-3.6-.2-.2-3.5-.2-6.9,0-10.2h79.1c-.2,1.1-.2,2.2-.5,3.3-.7,2.9-1.6,5.8-2.3,8.8-.4,1.4-1.4,2.5-2,3.8-.4.7-.8,1.4-1.2,2.1-.5.8-.7,1.7-.6,2.7-5.2.2-10.3.1-15.7,0l-.3.5Z"/>
  <path class="st29" d="M245.8,36.3v50.2c-.2,0-.4,0-.5,0-3.1-2.2-6.1-2-9.2,0-.1,0-.2,0-.5.3-.2-.6-.2-1.2-.2-1.8V31.9c0-1.2,0-2.3.7-3.4,1.1-1.9,3.4-3.1,5.4-2.7,2.3.4,4.2,2.4,4.3,4.7.1,1.9,0,3.7,0,5.8Z"/>
  <path class="st14" d="M307.1,54s0,0,.1.2h-.1v-.2Z"/>
  <path class="st17" d="M313.7,338.5h-20.9c-3.7,0-7.1,0-10.4-.2-.1-1.1-.4-1.9-.4-2.8,0-19.8,0-39.7.2-59.5h8.9c.5,0,.9,0,1.4-.2,0-.7.1-1.2.1-1.8v-5.8c0-3.1.4-2.4-2.3-4.1-15.2-9.4-30.5-18.5-45.3-28.5-2.7-1.8-7.2-1.9-9.8,0-1.5,1.1-3.1,2.2-4.6,3.2-10.5,6.7-21,13.3-31.5,19.9-3.2,2-6.5,4-9.8,6-.7.4-1.1.9-1.1,1.8v7.9c0,.4.1.8.2,1.3h2.1c2.8,0,5.6,0,8.3.3v18.5c0,14.6,0,29.2-.2,43.8h-31.3c-.2-1.1-.2-2.3-.2-3.4v-160.2c0-1,.1-1.9-.2-2.8-.5-.6-1.1-.5-1.7-.5h-7.3c-.9,0-1.8-.2-2.8-.4-1-.7-1.1-1.1-.7-1.7.2-.3.5-.5.7-.7,9.1-7.5,18.1-14.9,27.2-22.4,18-14.9,36-29.7,54-44.6,1-.8,2-1.5,3.3-1.6,1.8-.2,3.4.3,4.8,1.5,6.8,5.7,13.6,11.3,20.3,16.9,19.7,16.3,39.3,32.7,59,49,.6.5,1.3,1,1.9,1.6s.5,1-.3,2c-1.6.4-3,.4-4.5.4h-5.2c-.6,0-1.2,0-1.9.1-.1.5-.3.9-.3,1.3v73.7c-2.3,3.4-4.3,6.6-6,10.1-2.3,4.9-3.8,10-4.4,15.3-.5,4.9-.2,9.7.6,14.5.7,4.8,1.8,9.6,3.1,14.2,1.9,6.9,3.5,13.9,4,21,.1,1.8.4,3.6.7,5.4.2,1.5.8,2.8,2.1,3.9v7.1M272.3,179.2c4.4-7.7,5.8-16,4.1-24.7-1.6-8.8-6-16-13-21.7-6.6-5.3-14.1-7.8-22.5-8.2-2.4,0-4.9.2-7.2.7-11.5,2.3-20,8.7-25.5,19-3.7,6.9-4.9,14.3-3.8,22,1.4,9.8,6.1,17.8,13.9,23.9,8.8,6.8,18.8,8.9,29.5,6.8,10.6-2.1,18.8-8.1,24.4-17.7M267.3,226.7c3.3,2.5,7,2.8,10.9,1.8,4-1,6.4-3.7,7.1-7.8.2-1.2.2-2.5,0-3.7-.4-4.1-3.1-7.2-7.1-8.3-2.8-.8-5.6-.7-8.4.3-3.2,1.2-5.3,3.5-6,6.9-.9,4.1,0,7.9,3.5,11M249.8,229c1,0,2.1,0,3.1-.2,4.1-.7,7-3,8.1-7.1.2-.8.3-1.6.4-2.5.2-4.9-2.3-9.3-7.7-10.7-2.4-.6-4.8-.6-7.2.1-3.7,1.1-6,3.6-6.8,7.4-.2,1.2-.3,2.5-.2,3.7.5,4.2,2.7,7.1,6.7,8.5,1,.4,2.2.5,3.6.7M218.6,229h2.5c.4,0,.8-.2,1.3-.3v-6.6c0-.5.1-.9.2-1.3,2.2-.3,6.3-.2,7.9,0,.4,2.6,0,5.2.3,7.9,1.7.3,3.3.3,4.9,0,0-.3.1-.5.1-.7v-18.4c0-.3-.2-.6-.3-1-1.7,0-3.2-.3-4.9.2v3.6c0,1.2.3,2.5-.2,3.7-2.2.3-6.4.3-8-.1-.3-2.4,0-4.8-.2-7.2-1.7-.2-3.4-.3-4.9,0-.3,1.9-.3,18.1,0,19.9.3,0,.6.1,1.3.2M189.9,212.1c.7,0,1.4.7,2.3.4.3-1,.6-2.1.9-3.2-.3-.2-.5-.4-.8-.5-2.8-.9-5.7-1-8.6-.3-1.4.4-2.7,1-3.8,2.1-1.6,1.6-2.3,5.1.4,7.2.6.5,1.3,1,2.1,1.3.9.4,1.9.7,2.9,1.1.7.3,1.4.5,2.1.9.6.4,1,1,.9,1.7,0,.8-.6,1.2-1.3,1.5-.4.2-.9.3-1.4.3-1.4,0-2.8-.2-4.1-.3-.7,0-1.5-.3-2.3-.5-.3,1.4-.6,2.6-.5,3.8l.4.4c.1,0,.2.1.4.2,2.9.8,5.7.9,8.7.4,1.7-.3,3.2-1,4.4-2.2s1.6-2.1,1.7-3.5c.1-2.2-.7-3.9-2.6-5.1-1.2-.8-2.6-1.3-4-1.7-.9-.2-1.7-.6-2.5-1-1.1-.8-1-2.2.2-2.9.4-.2.9-.4,1.4-.4,1,0,1.9.1,3.2.2M196.3,217.6c-.5,5.8,2.2,9.6,7.9,11,2.6.6,5.2.6,7.8,0,.6-.1,1.4-.1,1.9-1-.1-.6-.3-1.3-.5-2.1-.9-.2-1.7,0-2.6.1-1.5.3-3,.2-4.5-.3-2.1-.7-3.6-2.1-4.1-4.3-.3-1.1-.3-2.2-.2-3.3.5-3,2.4-4.9,5.3-5.3,1.4-.2,2.8,0,4.2,0s1.2.1,1.9.2c.4-1.2.9-2.3.9-3.5-.3-.1-.5-.3-.8-.4-3.4-1-6.7-1-10,.2-3.8,1.4-6.4,4.1-7.2,8.6M289.1,219.5v8.7l.3.3c2.2.1,4.4,0,6.7,0s4.5.2,6.9-.2c.1-1.2.3-2.3-.2-3.4h-7.3c-.4,0-.8-.1-1.3-.2v-14c0-.6.2-1.3-.4-1.8-1.5,0-3.1-.3-4.7.2v10.4Z"/>
  <path class="st1" d="M154.4,195c0,4.4-.2,8.7,0,12.9.2,4-3.6,8-7.9,8h-31.1c-4.2,0-8-3.6-7.9-8v-20.6c0-3,2-6.5,5.7-7.6.7-.2,1.5-.2,2.3-.2h30.8c3.7,0,6,1.7,7.5,4.9.4.8.5,1.7.5,2.6v7.9M146.8,184.7h-11.5c-.5,0-1.1-.1-1.7.5v24.4c0,.4.2.8.3,1.1.4,0,.6.1.9.1h11.8c1.7-.3,2.5-1.2,2.6-2.9v-20c0-1.6-.5-2.7-2.5-3.2M112.7,204.4v3.5c0,1.7,1,2.6,2.7,2.8h11.6c.4,0,.8-.2,1.1-.3.2-1.6.4-21,.2-24.7,0-.3-.1-.7-.2-1.1-.7,0-1.3-.1-1.9-.1h-10c-2.9,0-3.7.8-3.7,3.7v16l.2.2Z"/>
  <path class="st1" d="M110.9,235.7c1.5-1.1,3.1-1.5,4.8-1.5h30.7c3.4,0,5.8,1.5,7.4,4.5.5.9.7,1.9.7,3v21c0,3.1-1.4,5.3-4,6.9-.9.6-1.9.9-3,.9h-31.8c-1.4,0-2.7-.2-4-.9-2.6-1.5-4.1-3.7-4.1-6.8v-20.9c0-2.6,1.1-4.7,3.2-6.4M133.6,252.4v12.5c0,.1.1.2.3.5.4,0,.8.1,1.3.1h11.6c1.4-.2,2.2-1,2.4-2.5v-21.1c-.1-1.1-.7-1.8-1.7-2.1-.5-.2-1.1-.3-1.6-.3h-11c-.4,0-.8.2-1.3.3v12.7M123.7,265.5c1.5,0,3,.2,4.6-.2,0-.7.1-1.2.2-1.7v-21.9c0-.7.2-1.5-.3-2.3-.3,0-.7-.1-1-.1h-12c-1.3.3-2.1,1.1-2.3,2.4v21.3c.2,1.4,1,2.3,2.4,2.4h8.6-.2Z"/>
  <path class="st1" d="M120.2,286.4h26.1c2,0,3.7.5,5.2,1.7,1.8,1.5,3,3.3,3,5.7v21.5c0,3.4-3.4,7.6-7.7,7.5-7.8-.1-15.6,0-23.3,0h-8.1c-3,.1-6.4-2-7.5-5.8-.2-.5-.2-1.1-.2-1.6v-21.3c0-4.1,3.6-7.7,7.8-7.7h4.8M133.6,300.4v16.7c0,.1.1.2.3.5.3,0,.7.1,1.1.1h11.8c1.4-.2,2.2-1,2.4-2.5v-21.1c-.1-1.1-.7-1.8-1.7-2.2s-1.1-.3-1.6-.3h-11c-.4,0-.8.2-1.1.2,0,.3-.2.4-.2.5v8.1M119.6,291.5h-4c-1.8.1-2.7,1.1-2.9,2.9v20.8c.2,1.3,1,2.1,2.3,2.3h12c.4,0,.8-.1,1.3-.2v-24.3c0-.5-.2-.9-.3-1.5h-8.6.2Z"/>
  <path class="st4" d="M313.9,338.5c-.2-2.3-.2-4.7,0-7.1,1.6.3,3,.1,4.5,0,1.2-.2,2.5-.4,3.7-.5,7.8-.2,15.5-.8,23.3-.6.8,0,1.7,0,2.5-.2,2.2-.4,3.1-1.5,3.1-3.8s-.2-2.3-.1-3.5h13.8c2,0,3.9-.2,5.6-1.4.3-.2.6-.3,1-.4.4,4.2.9,8.4,1.2,12.6.1,1.5,0,3-.1,4.7-.9.2-1.8.2-2.7.2h-55.8Z"/>
  <path class="st20" d="M371.2,320.8c-.3.3-.7.4-1,.6-1.7,1.1-3.6,1.4-5.6,1.4-4.5,0-9,0-13.8-.1-.8-1.8-.9-3.4-.7-5.1.4-3.3.8-6.6,1.3-9.9.2-1.3.7-2.5,1.2-3.6v11.4c0,.7-.2,1.4.4,2,.2,0,.5.1.8.1h12.1c1.4-.2,2.3-1,2.4-2.4v-21c-.1-1.3-.8-2.2-2.1-2.5-.6-.1-1.2-.2-1.9-.2-2,0-4,0-6-.2.8-1.7,1.6-3.3,2.4-4.9h5c3.2,0,6.2,2.1,7.4,5.6.2.7.2,1.5.2,2.3,0,1.7.1,3.4.3,5.3-.5,2.3-1.2,4.5-1.7,6.8-1,4.7-1.3,9.5-.8,14.5h.1Z"/>
  <path class="st1" d="M371,181.6c1.7,1.8,2.5,3.7,2.5,6.1,0,6.7-.1,13.5,0,20.2,0,3.2-2.4,6.9-5.8,7.7-.8.2-1.6.3-2.5.3h-30.7c-4.2.1-8-3.6-7.9-8v-20.6c0-3,2-6.5,5.8-7.6.7-.2,1.5-.2,2.3-.2h30.4c2.2,0,4.1.6,5.9,2.1M367.5,185.3c-.7-.6-1.5-.7-2.3-.7h-11c-.4,0-.8.1-1.3.2,0,.7-.1,1.3-.1,1.9v21.7c0,.7-.2,1.5.3,2.2.3,0,.5.2.8.2h11.3c.4,0,.8,0,1.2-.2,1.3-.3,2-1.2,2.1-2.5v-20c0-.9,0-1.8-.9-2.8M331.7,193.6v14.8c.2,1.3,1,2.1,2.3,2.4h12c.4,0,.8-.2,1.3-.3v-24.5c0-.4-.2-.8-.3-1.1-.4,0-.8-.1-1.1-.1h-11.8c-1.4.2-2.2,1-2.4,2.5v6.4h0Z"/>
  <path class="st16" d="M354.3,239.4c-.2,0-.4-.1-.6-.3-3.2-2.3-6.8-3.8-10.7-4.8,1.6-.1,3.3-.1,5.1-.1h17.3c1.8,0,3.4.4,4.9,1.5,2,1.5,3.2,3.4,3.2,6v21.3c0,3.6-3.5,7.7-7.4,7.5h-.8c-.2-1.6-.1-3.1,0-4.9,2.3-.6,2.9-1.2,3-3.3v-20.5c-.1-1.3-.7-2-2-2.3-.4-.1-.8-.2-1.2-.2h-10.8Z"/>
  <path class="st9" d="M188.2,338.8c3.4-.2,6.9-.2,10.8-.2h93.7c.2,3.4.2,6.7.2,10.2-21.6.2-43.3.2-64.9.2h-39.6c-.1-.6,0-1.1,0-1.6v-8.6h-.2Z"/>
  <path class="st18" d="M199,276h-10.4c0-.5-.2-.9-.2-1.3v-7.9c0-.9.4-1.4,1.1-1.8,3.3-2,6.5-4,9.8-6,10.5-6.6,21-13.3,31.5-19.9,1.6-1,3.1-2,4.6-3.2,2.6-2,7.1-1.9,9.8,0,14.8,9.9,30.1,19.1,45.3,28.5,2.7,1.6,2.2.9,2.3,4.1v5.8c0,.5,0,1.1-.1,1.8-.5,0-1,.2-1.4.2h-92.2v-.3Z"/>
  <path class="st3" d="M272.2,179.4c-5.6,9.5-13.7,15.5-24.4,17.6-10.7,2.1-20.8,0-29.5-6.8-7.8-6-12.5-14-13.9-23.9-1.1-7.7.1-15.1,3.8-22,5.5-10.3,14.1-16.6,25.5-19,2.4-.5,4.8-.8,7.2-.7,8.4.3,15.9,2.8,22.5,8.2,7,5.7,11.4,12.9,13,21.7,1.6,8.7.3,17-4.2,24.9M228.3,138.2c-2.5,1.3-4.6,3-6.6,5-6.8,6.9-9.2,17.7-5.6,27.3,4.1,10.8,15.5,18.9,29.5,16.3,13.2-2.5,23-15.4,20.6-29.7-1.7-9.7-7.2-16.3-16.3-20.1-3.4-1.4-7-2-10.6-1.8-3.8.2-7.4,1.1-11.1,3h.1Z"/>
  <path class="st28" d="M271.8,276h10c.2,19.9.2,39.7.2,59.5s.2,1.8.4,2.8c-3.4.2-6.8.2-10.3,0-.2-.4-.2-.6-.2-.8v-61.5h-.1Z"/>
  <path class="st28" d="M199,276.2c3.3-.2,6.6-.2,10,0,.2.8.1,1.5.1,2.1v60.2h-10c-.2-14.6-.2-29.2-.2-43.8v-18.5h0Z"/>
  <path class="st0" d="M267.2,226.6c-3.4-3-4.2-6.7-3.4-10.9.7-3.4,2.8-5.7,6-6.9,2.8-1,5.6-1.1,8.4-.3,4,1.1,6.6,4.2,7.1,8.3.1,1.2.1,2.5,0,3.7-.7,4.1-3.1,6.8-7.1,7.8-3.9,1-7.6.7-11-1.9M276.7,225.1c1.5-.6,2.5-1.7,3-3.3.6-1.9.7-3.8.1-5.7-.2-.8-.6-1.6-1.1-2.2-2.1-2.7-6.4-3.1-8.4.7-1.3,2.5-1.3,5.1-.3,7.6.7,1.6,2,2.6,3.7,3,.9.2,1.8.2,3-.2h0Z"/>
  <path class="st15" d="M249.6,229c-1.3-.2-2.4-.3-3.4-.7-4-1.5-6.2-4.4-6.7-8.5-.1-1.2,0-2.5.2-3.7.7-3.8,3.1-6.3,6.8-7.4,2.4-.7,4.8-.8,7.2-.1,5.4,1.4,7.9,5.9,7.7,10.7,0,.8-.2,1.7-.4,2.5-1.1,4.1-4,6.4-8.1,7.1-1,.2-2.1.1-3.3.2M255.4,220.7c0-.3.2-.7.2-1,.2-2.1-.2-4-1.4-5.7-1.9-2.6-6.4-3.3-8.4.6-1.4,2.5-1.3,5.2-.3,7.8.1.4.4.7.7,1.1,1.8,2.4,7,3.1,8.8-1,.2-.4.3-.9.5-1.7h-.1Z"/>
  <path class="st0" d="M218.4,229c-.5,0-.8-.1-1.1-.2-.3-1.8-.3-18,0-19.9,1.6-.3,3.2-.2,4.9,0,.3,2.5,0,4.9.2,7.2,1.5.4,5.8.5,8,.1.5-1.2.2-2.4.2-3.7v-3.6c1.7-.5,3.2-.2,4.9-.2,0,.3.3.7.3,1v18.4c0,.2,0,.4-.1.7-1.6.4-3.2.3-4.9,0-.4-2.7.1-5.3-.3-7.9-1.7-.3-5.7-.4-7.9,0,0,.4-.2.9-.2,1.3v6.6c-.5.1-.9.3-1.3.3h-2.7,0Z"/>
  <path class="st15" d="M189.7,212.1c-1.1,0-2.1-.2-3-.2s-1,.2-1.4.4c-1.2.7-1.4,2.1-.2,2.9.7.5,1.6.8,2.5,1,1.4.4,2.8.9,4,1.7,1.9,1.2,2.7,2.9,2.6,5.1,0,1.4-.7,2.5-1.7,3.5s-2.8,1.9-4.4,2.2c-2.9.6-5.8.4-8.7-.4-.1,0-.3-.1-.4-.2-.1,0-.2-.2-.4-.4,0-1.2.2-2.4.5-3.8.9.2,1.6.4,2.3.5,1.4.2,2.8.3,4.1.3s1-.1,1.4-.3c.7-.2,1.2-.7,1.3-1.5,0-.8-.3-1.4-.9-1.7-.7-.4-1.4-.6-2.1-.9-1-.4-2-.6-2.9-1.1-.7-.3-1.4-.8-2.1-1.3-2.7-2.1-1.9-5.6-.4-7.2,1-1.1,2.3-1.8,3.8-2.1,2.9-.7,5.8-.6,8.6.3.2,0,.5.3.8.5-.3,1.1-.6,2.1-.9,3.2-.9.3-1.6-.4-2.5-.4h0Z"/>
  <path class="st6" d="M196.3,217.4c.8-4.3,3.3-7,7.2-8.4,3.3-1.2,6.7-1.2,10-.2.3,0,.5.2.8.4,0,1.2-.5,2.3-.9,3.5-.7,0-1.3-.2-1.9-.2h-4.2c-3,.4-4.9,2.3-5.3,5.3-.2,1.1-.1,2.2.2,3.3.6,2.2,2,3.6,4.1,4.3,1.5.5,3,.6,4.5.3.8-.2,1.6-.4,2.6-.1.2.7.3,1.5.5,2.1-.5.8-1.3.8-1.9,1-2.6.6-5.2.6-7.8,0-5.7-1.4-8.3-5.1-7.8-11.1v-.2Z"/>
  <path class="st13" d="M289.1,219.2v-10.2c1.7-.5,3.2-.2,4.7-.2.6.5.4,1.2.4,1.8v14c.5,0,.9.2,1.3.2h7.3c.5,1.1.3,2.2.2,3.4-2.3.3-4.6.1-6.9.2h-6.7q-.2-.2-.3-.3v-8.9Z"/>
  <path class="st7" d="M147,184.7c1.8.4,2.4,1.6,2.3,3.1v20c0,1.7-.9,2.7-2.6,2.9h-11.8c-.3,0-.5,0-.9-.1-.1-.4-.3-.8-.3-1.1v-24.4c.6-.6,1.2-.5,1.7-.5h11.6Z"/>
  <path class="st7" d="M112.7,204.2v-15.8c0-2.9.8-3.7,3.7-3.7h10c.6,0,1.2,0,1.9.1,0,.4.2.8.2,1.1.2,3.7,0,23.1-.2,24.7-.3,0-.7.3-1.1.3h-11.6c-1.7-.2-2.6-1.1-2.7-2.8v-3.7l-.2-.2Z"/>
  <path class="st7" d="M133.6,252.2v-12.5c.5-.1.9-.3,1.3-.3h11c.5,0,1.1.1,1.6.3,1,.3,1.6,1.1,1.7,2.1v21.1c-.2,1.4-1,2.3-2.4,2.5h-11.6c-.5,0-.9-.1-1.3-.1-.1-.2-.3-.4-.3-.5v-12.7h0Z"/>
  <path class="st7" d="M123.5,265.5h-8.4c-1.4-.2-2.2-1-2.4-2.4v-21.3c.2-1.3,1-2.1,2.3-2.4h12c.3,0,.7,0,1,.1.5.7.3,1.5.3,2.3v21.9c0,.5,0,1.1-.2,1.7-1.6.3-3.1.1-4.8.2h.2Z"/>
  <path class="st7" d="M133.6,300.2v-7.9c0-.1,0-.3.2-.5.3,0,.7-.2,1.1-.2h11c.5,0,1.1.1,1.6.3,1,.3,1.6,1.1,1.7,2.2v21.1c-.2,1.4-1,2.3-2.4,2.5h-11.8c-.4,0-.8-.1-1.1-.1-.1-.2-.3-.4-.3-.5v-16.9h0Z"/>
  <path class="st7" d="M119.8,291.5h8.4c.1.6.3,1,.3,1.5v24.3c-.5.1-.9.2-1.3.2h-12c-1.3-.2-2.1-1-2.3-2.3v-20.8c0-1.8,1-2.8,2.9-2.9h4.2-.2Z"/>
  <path class="st7" d="M352.6,304.1c.3-1.2.5-2.3,1-3.3,1.5-3.1,3-6.1,4.7-9.3h6.1c.6,0,1.3,0,1.9.2,1.3.3,2,1.2,2.1,2.5v21c-.2,1.4-1,2.2-2.4,2.4h-12.1c-.3,0-.5,0-.8-.1-.6-.6-.4-1.3-.4-2v-11.4h-.1Z"/>
  <path class="st34" d="M354.4,239.5c3.5-.1,7.1-.2,10.7-.2s.8,0,1.2.2c1.3.3,1.9,1,2,2.3v20.5c0,2.1-.7,2.7-3,3.1-.3-2.2-.5-4.4-.7-6.6-.3-3-1-6-2.2-8.8-1.6-3.7-3.9-6.9-6.9-9.5-.4-.3-.7-.6-1.2-1.1h.1Z"/>
  <path class="st7" d="M367.6,185.4c.7.9.8,1.8.8,2.7v20c-.1,1.3-.8,2.2-2.1,2.5-.4.1-.8.2-1.2.2h-11.3c-.3,0-.5,0-.8-.2-.5-.7-.3-1.5-.3-2.2v-21.7c0-.6,0-1.2.1-1.9.5,0,.9-.2,1.3-.2h11c.9,0,1.7.1,2.5.8h0Z"/>
  <path class="st7" d="M331.7,193.4v-6.2c.2-1.4,1-2.3,2.4-2.5h11.8c.3,0,.7,0,1.1.1.1.4.3.8.3,1.1v24.5c-.5.1-.9.3-1.3.3h-12c-1.3-.3-2.1-1-2.3-2.4v-15h0Z"/>
  <path class="st25" d="M271.6,276c.2.6.3,1.3.3,1.9v60.4c-.6.2-1.3.3-1.9.3-8.8,0-17.6,0-26.6-.2-.2-20.5-.2-40.8-.2-61.1v-1.2h28.4M248.3,306.2c0,.6,0,1.2.1,1.8,1.4.4,3.8.6,6.1.4.4,0,.7-.2,1.1-.3.1-1.3,0-2.3-.2-3.1-1.1-.2-5.2-.3-6.2-.2-.7,0-.9.5-.9,1.5h0Z"/>
  <path class="st25" d="M209.4,338.5c-.2-.7-.2-1.4-.2-2.1v-60.2c.4-.2.9-.3,1.3-.3,9,0,17.9,0,27.1.2.2.8.2,1.3.2,1.9v60.5h-28.4M227.3,308.4h2.7c.9,0,1.8.2,2.6-.4.2-1,.3-2,0-3-1.9-.4-5.5-.4-7.1,0-.2,1-.3,2,0,3.1.5,0,.9.2,1.8.3Z"/>
  <path class="st28" d="M238,338.6c-.2-.6-.2-1.2-.2-1.9v-60.5c1.7-.2,3.3-.2,5.2-.2.2.4.1.9.1,1.3v61.1c-1.7.2-3.3.2-5.2.2h0Z"/>
  <path class="st8" d="M228.4,138.1c3.5-1.8,7.1-2.8,10.9-3,3.6-.2,7.2.4,10.6,1.8,9,3.8,14.6,10.4,16.3,20.1,2.5,14.3-7.3,27.2-20.6,29.7-14,2.7-25.5-5.5-29.5-16.3-3.7-9.6-1.2-20.4,5.6-27.3,2-2,4.1-3.7,6.7-5.1M234.9,161.2h-4.6c-2.7,0-5.1,2.1-5.4,4.6-.3,2.3,1.5,4.9,4,5.6.5.1,1,.2,1.4.2h9.8c2.4,0,4.4-1.5,5.3-3.7.4-1,.3-1.9.3-3.3v-18.7c0-2.5-1.4-4.4-3.7-5.3-.9-.4-1.9-.4-2.9,0-1.8.6-3.1,1.9-3.7,3.7-.2.7-.2,1.5-.2,2.3,0,4.9,0,9.7-.4,14.6h0Z"/>
  <path class="st21" d="M276.5,225.1c-1,.3-1.9.3-2.8.1-1.8-.3-3-1.3-3.7-3-1.1-2.6-1.1-5.2.3-7.6,2-3.8,6.3-3.4,8.4-.7.5.6.9,1.4,1.1,2.2.5,1.9.5,3.8-.1,5.7-.5,1.5-1.4,2.7-3.1,3.3h0Z"/>
  <path class="st21" d="M255.4,220.9c-.2.6-.3,1.1-.5,1.5-1.8,4.1-7,3.4-8.8,1-.2-.3-.5-.7-.7-1.1-1-2.6-1.1-5.3.3-7.8,2.1-3.8,6.5-3.2,8.4-.6,1.3,1.7,1.6,3.6,1.4,5.7,0,.3-.1.7-.2,1.2h.1Z"/>
  <path class="st22" d="M248.3,306c0-.8.2-1.3.9-1.3,1-.1,5.1,0,6.2.2.3.8.3,1.8.2,3.1-.3.1-.7.3-1.1.3-2.3.2-4.7,0-6.1-.4,0-.5,0-1.2-.1-1.9h0Z"/>
  <path class="st22" d="M227.1,308.4c-.6,0-1.1-.2-1.6-.3-.3-1.1-.3-2.1,0-3.1,1.6-.5,5.2-.5,7.1,0,.3,1,.2,2,0,3-.8.7-1.8.4-2.6.4h-2.9Z"/>
  <path class="st29" d="M235.3,161.1v-14.6c0-.8,0-1.6.2-2.3.6-1.8,1.8-3.1,3.7-3.7.9-.3,1.9-.3,2.9,0,2.3.9,3.7,2.8,3.7,5.3v12.9c0,1.9,0,3.9-.1,5.9-1.3-2.5-3.3-3.7-6.2-3.6h-4.2Z"/>
  <path class="st26" d="M235.1,161.2c1.6,0,2.9.1,4.3,0,2.9-.2,4.9,1,6.2,3.8.2,1.1.3,2,0,3-.9,2.2-2.9,3.7-5.3,3.7h-9.8c-.5,0-1,0-1.4-.2-2.5-.7-4.4-3.3-4-5.6.3-2.5,2.7-4.6,5.4-4.6h4.8-.2Z"/>
  <path class="st33" d="M389.7,408.4c2.4,4.4,4.9,8.8,7.3,13.3,2.6,4.8,6.8,12.3,7.6,13.2h11.3c.2,0,.3,0,.5-.1,0-.6-.3-.9-.6-1.4-1.4-2.4-2.7-4.9-4.1-7.3-2.3-4-4.5-8.1-6.7-12.1-.9-1.6-1.7-3.2-2.6-4.7-.2-.3-.5-.7-.1-1.1h15.3c4.2-.2,7.3-2.4,8.9-6.3.6-1.6.9-3.3.9-5.1v-141c0-2.4-.3-4.7-.9-7-.9-3.3-2.4-6.2-4.9-8.6-2-1.9-4.2-3.4-6.8-4.5-3.5-1.6-7.2-2.4-11-2.9-3.8-.5-7.7-.7-11.5-.7h-16.9c-.5,0-1,0-1.4-.3,0-4.5-1.4-8.6-4.1-12.2-5.4-7.2-12.7-9.8-21.5-8.4-6.3,1.4-11.1,4.8-14.3,10.3-1.9,3.3-2.8,6.8-3.1,10.6h-15.7c-2.6,0-5.1.1-7.7.2-3.4.1-6.8.6-10.2,1.2-3.2.7-6.4,1.7-9.3,3.3-4.9,2.8-8.1,6.9-9.5,12.4-.6,2.5-.8,5-.8,7.5v139c0,1,0,1.9.1,2.9.2,1.8.7,3.5,1.7,5.1,1.2,2,2.9,3.3,5.1,4,1.2.4,2.4.5,3.6.5h7.7c2.4,0,4.8,0,7.2.2-.1.2-.2.5-.3.6-1,1.7-1.9,3.5-2.9,5.2-2.2,4-4.5,8-6.7,12-1.5,2.7-2.9,5.2-4.4,7.9-.1.2-.2.5-.2.7,1.1.2,2.1,0,3.1,0h6c1,0,2,.1,3-.1.6-1.1,1.2-2.1,1.8-3.3,3.7-6.5,7.3-13.1,10.9-19.6.7-1.2,1.3-2.4,2.1-3.7h72.7c.5,0,.9,0,1.4.2v.2Z"/>
  <path class="st30" d="M277.8,360.2c0-.5,0-.9,0-1.3v-102.1c0-2.5.2-5,.8-7.5,1.4-5.5,4.6-9.6,9.5-12.4,2.9-1.6,6-2.7,9.3-3.3,3.3-.7,6.7-1.1,10.2-1.2,2.5,0,5.1-.2,7.7-.2h14.4c.5,0,.9,0,1.5,0,.2,1,.2,1.9.3,2.8.4,2.8,1.3,5.4,2.7,7.8.6,1,1.1,1.9,1.8,2.7,1.7,1.9,3.6,3.7,5.9,5.1s4.8,2.1,7.4,2.7c.7.1,1.4.2,2,.3,1.6.1,3.2,0,4.8-.3,2.2-.4,4.3-1.1,6.4-2.1,2.4-1.4,4.7-2.9,6.4-5.1,1.5-1.8,2.8-3.7,3.6-5.9.8-2.3,1.5-4.6,1.4-7v-1c.5,0,1,0,1.4,0h16.9c3.8,0,7.7.2,11.5.7,3.8.5,7.5,1.4,11,2.9,2.5,1.1,4.8,2.6,6.8,4.5,2.4,2.4,3.9,5.3,4.9,8.6.6,2.3.8,4.6.9,7v103c0,.4,0,.8-.1,1.3-.3,0-.6,0-.7-.3-.2-.4-.3-.8-.5-1.2-1-2.7-2.4-5.2-4.3-7.3-2.1-2.3-4.5-4.1-7.4-5.3-2.3-1-4.5-1.6-7-1.6-.3,0-.6,0-1-.1-.3,0-.6,0-1,0-1.1.1-2.3.2-3.4.4-4.9.9-8.9,3.2-12.2,6.9-1.9,2.2-3.3,4.7-4.3,7.4-.4,1.1-.2,1.2-1.6,1.2h-63.9c-.5-.5-.5-.9-.6-1.4-.6-1.9-1.6-3.7-2.7-5.4-1.6-2.4-3.7-4.3-6.2-6-3.5-2.3-7.4-3.2-11.5-3.3-.3,0-.6,0-.8.1-.3,0-.6,0-.8.1-1.9,0-3.7.5-5.5,1.2-2.4.9-4.6,2.2-6.6,3.9-1.7,1.4-3,3-4.2,4.9-1,1.6-1.9,3.4-2.4,5.2-.1.5-.3.7-.8.7M297.8,306.7h48.4c.3,0,.6,0,.8-.1.3-.6.2-1.2.2-1.8v-45.3c0-.2-.1-.5-.2-.7-.6-.2-1.1-.1-1.6-.1h-49c-3.4,0-6.3,2.1-7.5,5.2-.4,1-.5,2-.5,3.1v32.3c.2,4.1,3.8,7.4,7.6,7.4h1.7M368.7,306.7h40.2c2.6,0,4.6-1.2,6.2-3.2,1.1-1.5,1.6-3.3,1.6-5.2v-31.1c0-.6,0-1.3-.2-1.9-.5-2.6-1.9-4.5-4.2-5.7-1.3-.7-2.7-1-4.2-1h-49.5c-.2,0-.5.1-.7.2v46.9c0,.2,0,.5.1.8h10.6v.2Z"/>
  <path class="st24" d="M277.8,360.3c.5-.1.7-.3.8-.8.5-1.9,1.3-3.6,2.4-5.2,1.1-1.9,2.5-3.5,4.2-4.9,2-1.7,4.2-3,6.6-3.9,1.7-.6,3.6-1.1,5.5-1.2.3,0,.6,0,.8-.1.3,0,.6-.1.8-.1,4.1.2,8,1.1,11.5,3.3,2.5,1.6,4.6,3.6,6.2,6,1.1,1.6,2,3.4,2.7,5.4.2.5.2,1,.6,1.4h63.9c1.5,0,1.3-.1,1.6-1.2.9-2.8,2.3-5.2,4.3-7.4,3.3-3.7,7.3-6,12.2-6.9,1.1-.2,2.3-.3,3.4-.4h1c.3,0,.6.1,1,.1,2.4,0,4.7.7,7,1.6,2.9,1.2,5.3,3,7.4,5.3,2,2.1,3.3,4.6,4.3,7.3.2.4.3.8.5,1.2.1.2.3.3.6.4.1,1.7.2,3.4.2,5.1v31.5c0,1.7-.3,3.4-.9,5.1-1.5,3.9-4.7,6.2-8.9,6.3-1.9,0-3.8,0-5.6,0h-20.8c-.5,0-1,0-1.5.1-.5,0-.9,0-1.3,0h-72.9c-.6,0-.8,0-1.2,0h-26c-1.2,0-2.4-.2-3.6-.5-2.2-.7-3.9-2-5.1-4-1-1.6-1.5-3.3-1.7-5.1,0-1-.1-1.9-.1-2.9v-35.4M397.2,371.6c.2.3.5.6.7,1,2.8,3,6.2,4.2,10.2,3.4,5.9-1.2,9.6-6.9,8.4-12.8-1.2-5.8-7.1-9.8-13.4-8-5.8,1.6-8.7,7.2-7.5,12.5.3,1.4.8,2.6,1.7,3.9M309.8,365.8c0-.7,0-1.4-.1-2-1-5.8-6.1-9.8-12.3-8.8-5.3.8-8.6,5.2-8.9,9.9-.4,6.6,5.4,12.5,12.8,11.1,5.9-1.1,8.6-6.2,8.6-10.2h0Z"/>
  <path class="st11" d="M373.9,231.8v1.1c0,2.4-.6,4.7-1.4,7-.8,2.2-2.1,4.1-3.6,5.9-1.7,2.2-4,3.8-6.4,5.1-2,1.1-4.1,1.7-6.4,2.1-1.6.3-3.2.4-4.8.3-.7,0-1.4-.1-2-.3-2.6-.5-5.1-1.4-7.4-2.7-2.3-1.3-4.1-3.2-5.9-5.1-.7-.8-1.3-1.7-1.8-2.7-1.4-2.4-2.3-5-2.7-7.8-.1-.9-.2-1.8-.2-2.9,0-3.9,1-7.4,2.8-10.7,3.2-5.5,8-8.9,14.3-10.3,8.8-1.4,16.1,1.2,21.5,8.4,2.7,3.6,4,7.7,4.1,12.3M353.6,221.4c-1-.1-2.1,0-3.1.1-5.7,1.1-9.4,6.6-8.5,12.2.8,5.1,5.7,10,12.5,8.8,7.1-1.3,10.6-8.7,7.8-14.9-1.6-3.6-4.5-5.6-8.6-6.2h0Z"/>
  <path class="st10" d="M389.7,408.3c.5-.1,1-.2,1.5-.2h10.8c0,.5.3.8.5,1.1.8,1.6,1.7,3.2,2.6,4.7,2.3,4,4.5,8.1,6.7,12.1,1.4,2.4,2.8,4.9,4.1,7.3.2.4.6.8.6,1.4-.2,0-.3.1-.5.1h-11.3c-.7-.9-5-8.4-7.6-13.2-2.4-4.5-4.9-8.9-7.3-13.3h0Z"/>
  <path class="st10" d="M303.2,408.3c.3-.1.7-.1,1-.1h10.1c.3,0,.6,0,1.1.1-.5,1.2-1.1,2.4-1.8,3.7-3.6,6.5-7.3,13.1-10.9,19.6-.6,1.1-1.2,2.1-1.8,3.3-1,.2-2,0-3,.1h-6c-1,0-2,0-3.1,0,.1-.3.1-.5.2-.7,1.5-2.7,2.9-5.2,4.4-7.9,2.2-4,4.5-8,6.7-12,1-1.7,1.9-3.5,2.9-5.2.1-.2.2-.5.3-.7h0Z"/>
  <path class="st12" d="M297.7,306.7h-1.6c-3.8,0-7.4-3.3-7.6-7.4v-32.3c0-1.1,0-2.1.5-3.1,1.2-3.2,4.1-5.2,7.5-5.2h49c.5,0,1-.1,1.6.1,0,.2.2.5.2.7v45.3c0,.6.1,1.2-.2,1.8-.2,0-.5.1-.8.1h-48.5Z"/>
  <path class="st12" d="M368.5,306.7h-10.5c0-.3-.1-.6-.1-.8v-46.9c.3,0,.5-.2.7-.2h49.5c1.5,0,2.9.2,4.2,1,2.3,1.2,3.7,3.1,4.2,5.7.1.6.2,1.3.2,1.9v31.1c0,1.9-.5,3.7-1.6,5.2-1.5,2-3.6,3.2-6.2,3.2h-40.3v-.2Z"/>
  <path class="st23" d="M397.1,371.6c-.8-1.2-1.4-2.5-1.6-3.8-1.1-5.3,1.8-10.9,7.5-12.5,6.3-1.7,12.1,2.2,13.4,8,1.3,5.9-2.5,11.6-8.4,12.8-3.9.8-7.4-.4-10.2-3.4-.3-.3-.5-.6-.8-1h0Z"/>
  <path class="st23" d="M309.8,365.9c0,3.9-2.7,8.9-8.6,10-7.3,1.4-13.1-4.5-12.8-11.1.3-4.7,3.6-9.1,8.9-9.9,6.2-1,11.3,3,12.3,8.8.1.7,0,1.4.1,2.1h0Z"/>
  <path class="st27" d="M353.7,221.4c4,.6,6.9,2.7,8.5,6.2,2.8,6.2-.7,13.6-7.8,14.9-6.8,1.2-11.7-3.7-12.5-8.8-.9-5.6,2.8-11.1,8.5-12.2,1-.2,2.1-.2,3.2-.1h0Z"/>
</svg>