<?xml version="1.0" encoding="UTF-8"?>
<svg id="Layer_1" xmlns="http://www.w3.org/2000/svg" version="1.1" viewBox="0 0 500 500">
  <!-- Generator: Adobe Illustrator 29.5.0, SVG Export Plug-In . SVG Version: 2.1.0 Build 137)  -->
  <defs>
    <style>
      .st0 {
        fill: #dbb571;
      }

      .st1 {
        fill: #454545;
      }

      .st2 {
        fill: #41ade2;
      }

      .st3 {
        fill: #d6eeee;
      }

      .st4 {
        fill: #e5dec2;
      }

      .st5 {
        fill: #fff;
      }

      .st6 {
        fill: #454544;
      }

      .st7 {
        fill: #65696b;
      }

      .st8 {
        fill: #e6dec0;
      }

      .st9 {
        fill: #b5d8ed;
      }

      .st10 {
        fill: #8d6b51;
      }

      .st11 {
        fill: #d43e27;
      }

      .st12 {
        fill: #e9e8e8;
      }

      .st13 {
        fill: #d5eaea;
      }

      .st14 {
        fill: #e4ddc0;
      }

      .st15 {
        fill: #dbb472;
      }

      .st16 {
        fill: #cdd0d1;
      }

      .st17 {
        fill: #e5ddc0;
      }

      .st18 {
        fill: #8d6a50;
      }

      .st19 {
        fill: #8e6b51;
      }

      .st20 {
        fill: #f15a46;
      }

      .st21 {
        fill: #eeb9b9;
      }

      .st22 {
        fill: #d9b471;
      }

      .st23 {
        fill: #8d684f;
      }

      .st24 {
        fill: #f15b47;
      }

      .st25 {
        fill: #f9f2d8;
      }

      .st26 {
        fill: #686767;
      }

      .st27 {
        fill: #f6f0d7;
      }

      .st28 {
        fill: #b3c1c0;
      }

      .st29 {
        fill: #dbb673;
      }

      .st30 {
        fill: #454444;
      }
    </style>
  </defs>
  <path class="st21" d="M262,500c-7.5,0-15,0-22.9-.1-2.7-.3-5.2-.5-7.6-.7-.6,0-1.1,0-1.7,0-3.2-.4-6.5-.7-9.7-1.1-3.5-.4-7-.8-10.5-1.4-6.4-1.1-12.8-2.4-19.2-3.9-8.4-2.1-16.7-4.6-24.9-7.5-8-2.9-15.8-6.2-23.4-9.8-6.1-2.9-12-6.1-17.8-9.5-4.5-2.7-9.1-5.5-13.4-8.4-7.8-5.3-15.3-10.8-22.4-17-3.1-2.7-6.2-5.3-9.2-8.1-4.4-4.2-8.8-8.5-12.9-13.1-3.6-4-7.2-8.1-10.6-12.3-4-4.8-7.7-9.9-11.3-15-5.4-7.7-10.2-15.7-14.7-24-3.5-6.6-6.8-13.2-9.6-20.1-3-7.3-5.9-14.7-8.2-22.3-1.7-5.4-3.3-10.8-4.6-16.2-1.4-5.9-2.7-11.9-3.7-17.9-.5-2.8-.9-5.6-1.3-8.4-.4-3.1-.6-6.2-1-9.3-.5-3.9-.7-7.9-.8-11.8,0-1.5-.3-3-.5-4.5,0-.1-.1-.2-.2-.3,0-4.5,0-8.9,0-13.7.4-2.4.8-4.4.7-6.5,0-1.2,0-2.5.1-3.8.2-2.3.5-4.7.7-7,.3-3.1.5-6.2,1-9.3.7-4.8,1.5-9.6,2.4-14.4,1.8-9.7,4.3-19.3,7.3-28.6,1.3-4.1,2.8-8.1,4.3-12.2,2-5.6,4.4-11.1,6.9-16.5,3.6-7.7,7.5-15.2,11.8-22.5,4.1-6.7,8.3-13.3,13-19.6,2.9-3.9,5.9-7.7,8.9-11.5,3.1-4,6.5-7.8,10-11.5,5-5.2,10-10.4,15.5-15.2,3-2.6,6.1-5.3,9.2-7.9,5.9-4.9,12-9.5,18.3-13.7,7.7-5.2,15.6-10,23.8-14.3,8.5-4.4,17.2-8.5,26.2-11.9,9-3.5,18.1-6.4,27.4-8.8,6.8-1.8,13.6-3.2,20.6-4.4,4.8-.8,9.6-1.6,14.4-2,1.7-.1,3.3-.3,5-.5,3.6-.4,7.2-.8,10.8-.8.8,0,1.5,0,2.3,0,.3,0,.6-.2.9-.4,5.7,0,11.4,0,17.5.1.6.2.9.3,1.1.3,2.9,0,5.8,0,8.7.4,3.6.4,7.3.6,11,1,3.6.4,7.1,1,10.7,1.5,5.6.8,11.2,2,16.7,3.3,10.1,2.3,20,5.3,29.7,8.9,7.4,2.7,14.6,5.8,21.7,9.2,6.9,3.3,13.6,7,20.2,10.9,6.8,4.1,13.4,8.5,19.8,13.2,4.9,3.6,9.6,7.3,14.2,11.3,3.3,3,6.7,5.8,9.9,8.9,6.4,6,12.4,12.4,18,19.1,2.9,3.5,5.8,6.9,8.5,10.5,5.1,6.7,9.9,13.6,14.3,20.8,2.8,4.6,5.5,9.2,7.9,14,1.8,3.5,3.6,7,5.3,10.6,1.9,4.1,3.7,8.2,5.4,12.4,2.5,6,4.7,12.2,6.6,18.4,1.1,3.5,2.1,6.9,3,10.4,1.8,6.5,3.3,13.1,4.4,19.7.7,3.8,1.2,7.7,1.8,11.5.4,2.6.6,5.2.9,7.9.4,3.5.8,7,.8,10.6,0,1.1,0,2.2,0,3.3,0,.5.2.9.4,1.4,0,7,0,13.9-.1,21.2-.2,2-.2,3.7-.3,5.3-.1,2.8-.3,5.7-.5,8.5-.2,1.9-.5,3.9-.7,5.8-.3,2.7-.6,5.4-1,8-.8,4.8-1.8,9.6-2.7,14.3-1.4,7.2-3.4,14.3-5.5,21.4-3.3,10.7-7.3,21.1-12,31.3-3.2,6.9-6.7,13.7-10.6,20.3-3.7,6.3-7.6,12.5-11.8,18.4-3.3,4.6-6.7,9.2-10.3,13.6-2.5,3-5,6-7.6,8.9-3.1,3.4-6.2,6.8-9.4,10.1-1.6,1.7-3.3,3.1-5,4.7-3.1,3.1-6.3,6-9.7,8.8-3.4,2.8-6.8,5.7-10.3,8.4-5.8,4.5-11.8,8.6-17.9,12.6-5.7,3.6-11.5,7.1-17.5,10.1-5.3,2.7-10.6,5.3-15.9,7.7-4.5,2.1-9.2,3.9-13.9,5.6-7.2,2.6-14.4,5-21.8,7-5.6,1.5-11.3,2.9-17,4-3.7.7-7.5,1.3-11.3,1.9-2.3.4-4.7.7-7,1-1.9.2-3.7.5-5.6.6-2.6.2-5.1.3-7.7.5-1.4.1-2.8.3-4.1.4-.3,0-.5.2-.7.3M312.4,359.5c.3.5.6,1.1.9,1.6,1,1.5,1.8,3.1,3,4.5,2.5,3.2,5.9,5.3,9.9,6.2,2.6.6,5.2.6,7.9.2,4.5-.7,8.3-2.7,11.3-6.2,1.3-1.5,2.4-3.2,3.3-5,.3-.5.4-1.2,1.4-1.4,5.2,0,10.3,0,15.6.3.8,1.6,2.3,2.1,3.8,2.7,2.2.8,4.3,1.5,6.5,2.3,4.3,1.6,8.5,3.4,12.8,5,1.6.6,3.1,1.2,4.5,2.1.5.3,1.1.6,1.7.8,2.2.8,3.6.5,4.9-1.3.7-1,1.4-2.1,1.9-3.2,3.2-6.6,6.9-12.8,11.4-18.7,3.3-4.3,6.2-8.9,8.9-13.6,1.8-3.2,3.3-6.4,4.4-9.9,2.5-8.1,2.6-16.3.6-24.5-1.2-4.8-3.1-9.4-6.1-13.4-2.5-3.4-5.5-6.1-9.4-7.7-7.8-3.2-15.4-3-22.9.9-.6.3-1.2.6-1.8.6,0-.3,0-.6,0-.8,0-36.4,0-72.8.4-109.3,4.3,0,8.6,0,12.9,0,1.4,0,2.8-.2,4-.9,1.7-.9,2.7-2.4,2.8-4.4,0-1.6-.4-3-1.1-4.4-5.5-11-11-22-16.5-33-.7-1.4-1.6-2.6-2.7-3.7-3.8-3.8-8.4-5.8-13.8-5.8-28.1,0-56.2,0-84.3,0-.8,0-1.5,0-2.6,0-1.2-.9-2.4-1.7-3.5-2.6-10.3-8.4-20.6-16.7-30.9-25.1-2-1.6-3.9-3.3-5.9-5.4,0-3.8,0-7.6.3-11.3.3.2.6.3.9.5,4.2,2.9,8.7,2.9,13.3,1.3,3.5-1.3,6.5-3.5,9.4-5.7,2-1.5,3.9-3.2,5.8-4.8,2.4-2,4.8-4,7.2-6,3.1-2.5,6.3-4.9,9.9-6.5,1.1-.5,2.3-1,3.5-1.3,1.3-.3,2.7-.6,4.1-.5,1.7.1,3.4.5,5,1.3.6.3,1.3.4,2,.8h.1s0,0-.2-.4c-.4-.5-.7-1-1.1-1.5-1-1.1-2.1-2.2-3.2-3.3-4.8-4.5-10.5-6-16.9-5.2-3.6.4-7.1,1.4-10.6,2.2-3.7.9-7.4,1.6-11.3,1.5-4-.1-7.6-1.4-10.8-3.7-2.3-1.6-4.2-3.6-5.9-5.8-.4-.5-1-1-1.5-1.8,0-1.9,0-3.7,0-5.6-.1-2.3-2-4.3-4.3-4.7-2.1-.4-4.3.8-5.4,2.7-.6,1.1-.7,2.2-.7,3.4,0,17.7,0,35.4,0,53.1,0,.6,0,1.2-.1,2.1-3.4,2.8-6.9,5.7-10.3,8.5-9.5,7.7-19,15.4-28.5,23.2-.5.4-1.1.6-2,.9-29.2,0-58.3,0-87.5,0-.6,0-1.3,0-1.9,0-6.2,1.3-11.1,4.2-14.1,10-1.7,3.3-3.4,6.7-5.2,10-3.8,7.3-7.6,14.7-11.4,22-.5,1.1-1,2.1-1.2,3.3-.5,2.8.9,5.4,3.6,6.2,1,.3,2,.5,3.1.5,2.6,0,5.1,0,7.7,0,2.2,0,4.4,0,6.7.5,0,54.8,0,109.6,0,164.5,0,.6,0,1.3-.4,1.9-1.3,0-2.6,0-4,0-3.7,0-7.4,0-11.1,0-2.8,0-4.7,1.7-5.2,4.5,0,.5-.1,1.1-.1,1.7,0,2.9,0,5.7,0,8.6,0,.8,0,1.5.3,2.3.5,2.2,2.4,3.7,4.6,3.9.7,0,1.4,0,2.1,0,31.6,0,63.3,0,94.9,0,.8,0,1.7,0,2.9,0,.7,0,1.4,0,2.1,0,40.2,0,80.5,0,120.7,0,.7,0,1.4,0,2.5,0,2.8,0,5.7,0,8.7,0M372.8,406.7c4.8,0,8.9-1.7,12.4-5,1.1-1,2.1-2.2,3.1-3.4,3-3.9,5-8.3,6.5-13,0-.3,0-.6.1-1.1-11.9-4.7-23.7-9.3-35.5-14-.2,0-.4,0-.7,0-.3.5-.6,1-.9,1.5-1.5,2.9-2.6,6-3.4,9.2-.6,2.6-1.1,5.3-1,8,.3,6.7,3.3,11.8,9.3,14.9,3,1.6,6.3,2.6,10.1,2.8Z"/>
  <path class="st8" d="M94.4,338.5c0-.6,0-1.3,0-1.9,0-54.8,0-109.6.2-164.7,1-.2,1.9-.2,2.7-.2,11.5,0,23.1,0,34.6,0,.8,0,1.7,0,2.7,0,2.2,0,4.2,0,6.2,0,4.2,0,8.3,0,12.5,0,.7,0,1.4.2,2.1-.3,1.1.1,1.9.3,2.8.4,2.4,0,4.9,0,7.3,0,.5,0,1.1,0,1.7.5.3.8.2,1.8.2,2.8,0,53.4,0,106.8,0,160.2,0,1.1,0,2.2-.2,3.4-.5,0-.9,0-1.2,0-23.2,0-46.5,0-69.7,0-.6,0-1.2,0-1.9,0M154.4,194.8c0-2.6,0-5.1,0-7.7,0-.9-.1-1.8-.5-2.6-1.5-3.2-3.8-5-7.5-4.9-5.3,0-10.6,0-15.8,0-5,0-10,0-15,0-.8,0-1.6,0-2.3.2-3.8,1.1-5.8,4.6-5.7,7.6,0,6.9,0,13.8,0,20.6,0,4.3,3.7,8,7.9,8,10.4,0,20.7,0,31.1,0,4.3,0,8.1-4,7.9-8-.2-4.2,0-8.5,0-13.1M110.7,235.8c-2,1.6-3.1,3.7-3.1,6.3,0,7,0,13.9,0,20.9,0,3.1,1.5,5.3,4.1,6.8,1.3.7,2.6.9,4,.9,10.2,0,20.3,0,30.5,0,.4,0,.8,0,1.3,0,1.1,0,2.1-.3,3-.9,2.6-1.6,4-3.8,4-6.9,0-4.3,0-8.6,0-12.9,0-2.7,0-5.4,0-8.1,0-1.1-.2-2.1-.7-3-1.6-3-4-4.5-7.4-4.5-10.2,0-20.4,0-30.7,0-1.7,0-3.3.4-5,1.6M120,286.4c-1.5,0-3.1,0-4.6,0-4.1,0-7.8,3.5-7.8,7.7,0,7.1,0,14.2,0,21.3,0,.6,0,1.1.2,1.6,1.1,3.8,4.5,5.9,7.5,5.8,2.7-.1,5.4,0,8.1,0,7.8,0,15.6-.1,23.3,0,4.3,0,7.7-4.1,7.7-7.5,0-7.2,0-14.3,0-21.5,0-2.4-1.2-4.2-3-5.7-1.5-1.2-3.3-1.7-5.2-1.7-8.6,0-17.2,0-26.3,0Z"/>
  <path class="st30" d="M386.7,282.2c.6-.3,1.2-.6,1.8-.9,7.5-3.9,15.2-4.1,22.9-.9,3.9,1.6,6.9,4.4,9.4,7.7,3,4,4.9,8.5,6.1,13.4,2,8.2,1.9,16.4-.6,24.5-1.1,3.5-2.6,6.7-4.4,9.9-2.6,4.8-5.6,9.3-8.9,13.6-4.4,5.9-8.1,12.1-11.4,18.7-.5,1.1-1.2,2.2-1.9,3.2-1.4,1.8-2.8,2.2-4.9,1.3-.6-.2-1.2-.5-1.7-.8-1.4-.9-3-1.5-4.5-2.1-4.3-1.7-8.5-3.4-12.8-5-2.1-.8-4.3-1.6-6.5-2.3-1.5-.5-3-1.1-3.9-3-.1-1.2,0-2.1.5-2.9.4-.7.9-1.4,1.2-2.1.7-1.3,1.6-2.4,2-3.8.8-2.9,1.6-5.8,2.3-8.8.3-1.1.3-2.2.5-3.4,0-1.7.3-3.2.1-4.7-.3-4.2-.8-8.4-1.2-12.8-.5-5-.2-9.7.8-14.5.5-2.2,1.2-4.4,1.9-6.7.7-1.5,1.3-2.9,2-4.3,2.5-5.2,5.8-9.8,10.7-13,0,0,0,0,.1-.2Z"/>
  <path class="st11" d="M134.3,171.6c-.8,0-1.7,0-2.5,0-11.5,0-23.1,0-34.6,0-.8,0-1.7,0-2.7,0-2.4,0-4.6,0-6.9,0-2.6,0-5.1,0-7.7,0-1,0-2.1-.2-3.1-.5-2.7-.9-4.1-3.4-3.6-6.2.2-1.2.7-2.3,1.2-3.3,3.8-7.3,7.6-14.7,11.4-22,1.7-3.3,3.4-6.7,5.2-10,3-5.8,7.9-8.7,14.1-10,.6-.1,1.2,0,1.9,0,29.2,0,58.3,0,87.6.2-1.8,2.2-4.2,3.9-6.4,5.7-2.5,2.1-5.1,4.1-7.6,6.2-2.9,2.3-5.7,4.7-8.5,7-1.7,1.4-3.3,2.7-5,4.1-2,1.7-4.1,3.3-6.1,5-1.7,1.4-3.5,2.8-5.2,4.2-2,1.6-3.9,3.3-5.9,4.9-1.7,1.4-3.4,2.7-5,4-2.2,1.8-4.4,3.6-6.6,5.4-1.2,1-2.3,2-3.5,3-.9.7-1,1.6-.4,2.6Z"/>
  <path class="st11" d="M286.2,119.6c.8,0,1.5,0,2.3,0,28.1,0,56.2,0,84.3,0,5.5,0,10,2,13.8,5.8,1.1,1.1,2,2.3,2.7,3.7,5.5,11,11,22,16.5,33,.7,1.4,1.2,2.8,1.1,4.4-.1,2-1,3.4-2.8,4.4-1.3.7-2.6.9-4,.9-4.3,0-8.6,0-13.3,0-1.2,0-2.1,0-2.9,0-11.5,0-23.1,0-34.6,0-.8,0-1.7,0-2.4-.2.7-.8.7-1.5.1-2.1-.1-.2-.3-.3-.4-.4-2.8-2.3-5.7-4.6-8.5-6.9-2.1-1.7-4.2-3.4-6.3-5.1-1.9-1.5-3.8-3-5.7-4.6-1.7-1.3-3.3-2.7-5-4.1-2-1.6-3.9-3.3-5.9-4.9-1.7-1.4-3.5-2.8-5.2-4.2-2-1.6-3.9-3.3-5.9-4.9-2.6-2.1-5.3-4.3-7.9-6.4-2-1.6-4-3.2-6-4.8-1.3-1.1-2.9-1.9-3.8-3.5Z"/>
  <path class="st17" d="M346.7,171.6c.8,0,1.7,0,2.5,0,11.5,0,23.1,0,34.6,0,.8,0,1.7,0,2.7,0,.2,36.4.2,72.8.2,109.2,0,.3,0,.6,0,1,0,.2,0,.3-.2.3-4.9,3.3-8.2,7.8-10.7,13-.7,1.4-1.3,2.8-2.1,4.1-.2-1.7-.3-3.5-.3-5.2,0-.8,0-1.6-.2-2.3-1.2-3.6-4.2-5.7-7.4-5.6-1.7,0-3.3,0-5-.2,1.6-4.1,2.9-8,3.6-12.2.2-1.1.4-2.3.8-3.4.4,0,.6,0,.8,0,3.9.2,7.4-4,7.4-7.5-.1-7.1,0-14.2,0-21.3,0-2.6-1.2-4.5-3.2-6-1.4-1.1-3.1-1.5-4.9-1.5-5.8,0-11.5,0-17.3,0-1.7,0-3.5,0-5.4,0-.7,0-1.1,0-1.6-.2-5.7-.9-11,.2-16,3-3.7,2.1-6.8,4.8-9.6,7.9-.5.6-1.1,1.2-1.7,1.6,0-.5,0-.9,0-1.2,0-23.7,0-47.4,0-71.1,0-.4,0-.8,0-1.2,0-.4.2-.8.3-1.3.7,0,1.3-.1,1.9-.1,1.7,0,3.5,0,5.2,0,1.5,0,2.9,0,4.5-.3.8.1,1.5.2,2.2.2,4.6,0,9.3,0,13.9,0,1.7,0,3.3,0,5,0M370.9,181.5c-1.7-1.4-3.6-2-5.8-1.9-4.1,0-8.2,0-12.3,0-6,0-12.1,0-18.1,0-.8,0-1.6,0-2.3.2-3.8,1.1-5.8,4.5-5.8,7.6,0,6.9,0,13.8,0,20.6,0,4.3,3.7,8.1,7.9,8,2.4,0,4.7,0,7.1,0,7.9,0,15.7,0,23.6,0,.8,0,1.7,0,2.5-.3,3.4-.8,5.9-4.5,5.8-7.7-.2-6.7,0-13.5,0-20.2,0-2.4-.7-4.3-2.6-6.2Z"/>
  <path class="st20" d="M346.8,171.5c-1.7.1-3.4.2-5,.2-4.6,0-9.3,0-13.9,0-.7,0-1.4,0-2-.3.7-1.1.8-1.5.2-2.1-.6-.6-1.3-1.1-1.9-1.6-19.7-16.3-39.3-32.7-59-49-6.8-5.6-13.6-11.3-20.3-16.9-1.4-1.2-3-1.6-4.8-1.5-1.3.1-2.3.8-3.3,1.6-18,14.9-36,29.7-54,44.6-9.1,7.5-18.1,14.9-27.2,22.4-.3.2-.5.5-.7.7-.5.6-.4.9.5,1.6-.6.6-1.3.4-2,.4-4.2,0-8.3,0-12.5,0-2,0-4,0-6.2,0-.8-1-.7-1.9.2-2.6,1.2-1,2.3-2,3.5-3,2.2-1.8,4.4-3.6,6.6-5.4,1.7-1.4,3.4-2.7,5-4,2-1.6,4-3.3,5.9-4.9,1.7-1.4,3.5-2.8,5.2-4.2,2-1.7,4.1-3.3,6.1-5,1.7-1.4,3.3-2.7,5-4.1,2.8-2.3,5.7-4.7,8.5-7,2.5-2.1,5.1-4.1,7.6-6.2,2.2-1.8,4.5-3.4,6.5-5.6.6-.4,1.2-.7,1.6-1.1,9.5-7.7,19-15.4,28.5-23.2,3.4-2.8,6.9-5.6,10.5-8.6.3-.2.4-.3.6-.4,3.1-1.9,6.1-2.1,9.2,0,.2.1.4.2.5.3,2,1.7,3.9,3.3,5.9,4.9,10.3,8.4,20.6,16.8,30.9,25.1,1.1.9,2.3,1.8,3.6,2.7,1.1,1.6,2.7,2.4,4,3.5,1.9,1.7,4,3.2,6,4.8,2.6,2.1,5.3,4.2,7.9,6.4,2,1.6,3.9,3.3,5.9,4.9,1.7,1.4,3.5,2.8,5.2,4.2,2,1.6,4,3.3,5.9,4.9,1.7,1.4,3.3,2.7,5,4.1,1.9,1.5,3.8,3,5.7,4.6,2.1,1.7,4.2,3.4,6.3,5.1,2.8,2.3,5.7,4.6,8.5,6.9.2.1.3.3.4.4.6.7.6,1.4-.1,2.1Z"/>
  <path class="st26" d="M94.2,338.5c.8,0,1.4,0,2.1,0,23.2,0,46.5,0,69.7,0,.3,0,.7,0,1.4,0,1.1,0,1.9,0,2.7,0,6.1,0,12.1,0,18.2.2,0,3,0,5.8,0,8.6,0,.5,0,1.1-.3,1.6-2.9,0-5.7,0-8.5,0-.5,0-.9.1-1.5.2,0,3.5,0,6.8,0,10.2-.8,0-1.7,0-2.5,0-31.6,0-63.3,0-94.9,0-.7,0-1.4,0-2.1,0-2.2-.2-4.1-1.7-4.6-3.9-.2-.7-.2-1.5-.3-2.3,0-2.9,0-5.7,0-8.6,0-.6,0-1.1.1-1.7.5-2.8,2.4-4.4,5.2-4.5,3.7,0,7.4,0,11.1,0,1.3,0,2.6,0,4.2,0Z"/>
  <path class="st12" d="M178.2,359.4c-.2-3.4-.2-6.7-.1-10.2.6,0,1-.2,1.5-.2,2.8,0,5.5,0,8.7,0,13.5,0,26.6,0,39.8,0,21.7,0,43.3,0,65.2,0,1.3,0,2.4,0,3.5,0,1,0,2.1,0,3.1,0,1.1,0,2.2-.2,3.3.2,0,.8,0,1.5,0,2.1,0,2.7,0,5.4,0,8.1-.7,0-1.4,0-2.1,0-40.2,0-80.5,0-120.7,0-.7,0-1.4,0-2.3,0Z"/>
  <path class="st9" d="M307,54.1c-.7-.2-1.3-.3-1.9-.7-1.6-.8-3.3-1.2-5-1.3-1.4,0-2.8.2-4.1.5-1.2.3-2.4.8-3.5,1.3-3.6,1.7-6.8,4-9.9,6.5-2.4,2-4.8,4-7.2,6-1.9,1.6-3.8,3.3-5.8,4.8-2.9,2.2-5.9,4.4-9.4,5.7-4.6,1.6-9.1,1.6-13.3-1.3-.3-.2-.6-.4-1-.8-.1-12.9-.1-25.6-.1-38.3.5.5,1,.9,1.5,1.5,1.7,2.2,3.7,4.2,5.9,5.8,3.2,2.3,6.8,3.6,10.8,3.7,3.9,0,7.6-.6,11.3-1.5,3.5-.8,7-1.7,10.6-2.2,6.3-.8,12.1.7,16.9,5.2,1.1,1,2.2,2.1,3.2,3.3.4.4.8,1,1.1,1.6,0,.2,0,.2,0,.2Z"/>
  <path class="st1" d="M349.6,359.3c-.6.3-.8,1-1,1.5-.9,1.8-2,3.5-3.3,5-3,3.4-6.8,5.4-11.3,6.2-2.6.4-5.3.4-7.9-.2-4-.9-7.3-3-9.9-6.2-1.1-1.4-2-3-3-4.5-.3-.5-.6-1.1-1-1.9-.3-.8-.4-1.4-.6-2-.4-1.2-.8-2.4-.8-3.6,0-3.7,0-7.4,0-11,0-.4.1-.8.2-1.3.7,0,1.3-.1,1.9-.2.8,0,1.6,0,2.3,0,1.4-.3,2.9-.3,4.3-.3,1.9,0,3.9,0,5.8,0,.6,0,1.1,0,1.7,0,1.2,0,2.3-.3,3.5-.3,2,0,4,0,6,0,.6,0,1.2,0,1.9-.1,1,0,1.9-.2,2.9-.3,2.3,0,4.6,0,6.9,0,.8,0,1.6,0,2.5,0,0,.6.1,1.1.1,1.7,0,.8-.1,1.7,0,2.5.4,1.8.3,3.6.3,5.4.1,2.7-.3,5.2-1.2,7.8-.2.7-.3,1.5-.5,2.2Z"/>
  <path class="st1" d="M372.6,406.7c-3.6-.1-6.9-1.1-9.9-2.7-6-3.2-9-8.2-9.3-14.9-.1-2.7.3-5.4,1-8,.8-3.2,1.9-6.2,3.4-9.2.3-.5.6-1.1.9-1.5.3,0,.6,0,.7,0,11.8,4.6,23.6,9.3,35.5,14,0,.4,0,.8-.1,1.1-1.4,4.7-3.5,9.1-6.5,13-.9,1.2-2,2.4-3.1,3.4-3.5,3.3-7.6,5.1-12.6,5Z"/>
  <path class="st26" d="M349.8,359.3c0-.8,0-1.6.3-2.3.9-2.5,1.3-5.1,1.2-7.8,0-1.8,0-3.6-.3-5.4-.2-.8,0-1.7,0-2.5,0-.5,0-1.1-.1-1.7-.9,0-1.7,0-2.5,0-2.3,0-4.6,0-6.9,0-1,0-1.9.2-2.9.3-.6,0-1.2.1-1.9.1-2,0-4,0-6,0-1.2,0-2.3.2-3.5.3-.6,0-1.1,0-1.7,0-1.9,0-3.9,0-5.8,0-1.5,0-2.9,0-4.3.3-.7.2-1.5,0-2.3,0-.6,0-1.2.1-1.9.2,0,.5-.2.9-.2,1.3,0,3.7,0,7.4,0,11,0,1.3.4,2.5.8,3.6.2.6.3,1.2.5,1.9-2.8.2-5.7.2-8.7.3-.2-2.7-.2-5.4-.3-8.1,0-.7,0-1.4,0-2.1-1.2-.3-2.3-.2-3.3-.2-1,0-2.1,0-3.1,0-1.1,0-2.2,0-3.6-.2-.2-3.5-.2-6.9,0-10.2,6.3,0,12.3,0,18.4,0,.8,0,1.5,0,2.5,0,1,0,1.7,0,2.5,0,17.7,0,35.4,0,53,0,.9,0,1.8,0,2.7,0-.2,1.1-.2,2.2-.5,3.3-.7,2.9-1.6,5.8-2.3,8.8-.4,1.4-1.4,2.5-2,3.8-.4.7-.8,1.4-1.2,2.1-.5.8-.7,1.7-.6,2.7-5.2.2-10.3.1-15.7,0Z"/>
  <path class="st28" d="M245.8,36.3c0,12.9,0,25.6,0,38.4,0,4,0,7.8,0,11.8-.2.1-.4,0-.5,0-3.1-2.2-6.1-2-9.2,0-.1,0-.2.1-.5.3-.2-.6-.2-1.2-.2-1.8,0-17.7,0-35.4,0-53.1,0-1.2,0-2.3.7-3.4,1.1-1.9,3.4-3.1,5.4-2.7,2.3.4,4.2,2.4,4.3,4.7.1,1.9,0,3.7,0,5.8Z"/>
  <path class="st9" d="M307.1,54c0,0,0,.1.1.2,0,0,0,0-.1,0,0,0,0,0,0,0Z"/>
  <path class="st25" d="M313.7,338.5c-.8,0-1.5,0-2.3,0-6.1,0-12.1,0-18.6,0-3.7,0-7.1,0-10.4-.2-.1-1.1-.4-1.9-.4-2.8,0-19.8,0-39.7.2-59.5,3.1,0,6,0,8.9,0,.5,0,.9,0,1.4-.2,0-.7.1-1.2.1-1.8,0-1.9,0-3.9,0-5.8,0-3.1.4-2.4-2.3-4.1-15.2-9.4-30.5-18.5-45.3-28.5-2.7-1.8-7.2-1.9-9.8,0-1.5,1.1-3.1,2.2-4.6,3.2-10.5,6.7-21,13.3-31.5,19.9-3.2,2-6.5,4-9.8,6-.7.4-1.1.9-1.1,1.8,0,2.6,0,5.3,0,7.9,0,.4.1.8.2,1.3.7,0,1.4,0,2.1,0,2.8,0,5.6,0,8.3.3,0,6.3,0,12.4,0,18.5,0,14.6,0,29.2-.2,43.8-3.7,0-7.1,0-10.6,0-6.1,0-12.1,0-18.2,0-.8,0-1.5,0-2.5,0-.2-1.1-.2-2.3-.2-3.4,0-53.4,0-106.8,0-160.2,0-1,.1-1.9-.2-2.8-.5-.6-1.1-.5-1.7-.5-2.4,0-4.9,0-7.3,0-.9,0-1.8-.2-2.8-.4-1-.7-1.1-1.1-.7-1.7.2-.3.5-.5.7-.7,9.1-7.5,18.1-14.9,27.2-22.4,18-14.9,36-29.7,54-44.6,1-.8,2-1.5,3.3-1.6,1.8-.2,3.4.3,4.8,1.5,6.8,5.7,13.6,11.3,20.3,16.9,19.7,16.3,39.3,32.7,59,49,.6.5,1.3,1,1.9,1.6.6.6.5,1-.3,2-1.6.4-3,.4-4.5.4-1.7,0-3.5,0-5.2,0-.6,0-1.2,0-1.9.1-.1.5-.3.9-.3,1.3,0,.4,0,.8,0,1.2,0,23.7,0,47.4,0,71.1,0,.3,0,.7,0,1.4-2.3,3.4-4.3,6.6-6,10.1-2.3,4.9-3.8,10-4.4,15.3-.5,4.9-.2,9.7.6,14.5.7,4.8,1.8,9.6,3.1,14.2,1.9,6.9,3.5,13.9,4,21,.1,1.8.4,3.6.7,5.4.2,1.5.8,2.8,2.1,3.9,0,2.5,0,4.8,0,7.1M272.3,179.2c4.4-7.7,5.8-16,4.1-24.7-1.6-8.8-6-16-13-21.7-6.6-5.3-14.1-7.8-22.5-8.2-2.4,0-4.9.2-7.2.7-11.5,2.3-20,8.7-25.5,19-3.7,6.9-4.9,14.3-3.8,22,1.4,9.8,6.1,17.8,13.9,23.9,8.8,6.8,18.8,8.9,29.5,6.8,10.6-2.1,18.8-8.1,24.4-17.7M267.3,226.7c3.3,2.5,7,2.8,10.9,1.8,4-1,6.4-3.7,7.1-7.8.2-1.2.2-2.5,0-3.7-.4-4.1-3.1-7.2-7.1-8.3-2.8-.8-5.6-.7-8.4.3-3.2,1.2-5.3,3.5-6,6.9-.9,4.1,0,7.9,3.5,11M249.8,229c1,0,2.1,0,3.1-.2,4.1-.7,7-3,8.1-7.1.2-.8.3-1.6.4-2.5.2-4.9-2.3-9.3-7.7-10.7-2.4-.6-4.8-.6-7.2.1-3.7,1.1-6,3.6-6.8,7.4-.2,1.2-.3,2.5-.2,3.7.5,4.2,2.7,7.1,6.7,8.5,1,.4,2.2.5,3.6.7M218.6,229c.8,0,1.7,0,2.5,0,.4,0,.8-.2,1.3-.3,0-.8,0-1.5,0-2.2,0-1.5,0-2.9,0-4.4,0-.5.1-.9.2-1.3,2.2-.3,6.3-.2,7.9,0,.4,2.6,0,5.2.3,7.9,1.7.3,3.3.3,4.9,0,0-.3.1-.5.1-.7,0-6.1,0-12.2,0-18.4,0-.3-.2-.6-.3-1-1.7,0-3.2-.3-4.9.2,0,1.2,0,2.4,0,3.6,0,1.2.3,2.5-.2,3.7-2.2.3-6.4.3-8-.1-.3-2.4,0-4.8-.2-7.2-1.7-.2-3.4-.3-4.9,0-.3,1.9-.3,18.1,0,19.9.3,0,.6.1,1.3.2M189.9,212.1c.7,0,1.4.7,2.3.4.3-1,.6-2.1.9-3.2-.3-.2-.5-.4-.8-.5-2.8-.9-5.7-1-8.6-.3-1.4.4-2.7,1-3.8,2.1-1.6,1.6-2.3,5.1.4,7.2.6.5,1.3,1,2.1,1.3.9.4,1.9.7,2.9,1.1.7.3,1.4.5,2.1.9.6.4,1,1,.9,1.7,0,.8-.6,1.2-1.3,1.5-.4.2-.9.3-1.4.3-1.4,0-2.8-.2-4.1-.3-.7,0-1.5-.3-2.3-.5-.3,1.4-.6,2.6-.5,3.8.2.2.3.3.4.4.1,0,.2.1.4.2,2.9.8,5.7.9,8.7.4,1.7-.3,3.2-1,4.4-2.2,1-1,1.6-2.1,1.7-3.5.1-2.2-.7-3.9-2.6-5.1-1.2-.8-2.6-1.3-4-1.7-.9-.2-1.7-.6-2.5-1-1.1-.8-1-2.2.2-2.9.4-.2.9-.4,1.4-.4,1,0,1.9.1,3.2.2M196.3,217.6c-.5,5.8,2.2,9.6,7.9,11,2.6.6,5.2.6,7.8,0,.6-.1,1.4-.1,1.9-1-.1-.6-.3-1.3-.5-2.1-.9-.2-1.7,0-2.6.1-1.5.3-3,.2-4.5-.3-2.1-.7-3.6-2.1-4.1-4.3-.3-1.1-.3-2.2-.2-3.3.5-3,2.4-4.9,5.3-5.3,1.4-.2,2.8,0,4.2,0,.6,0,1.2.1,1.9.2.4-1.2.9-2.3.9-3.5-.3-.1-.5-.3-.8-.4-3.4-1-6.7-1-10,.2-3.8,1.4-6.4,4.1-7.2,8.6M289.1,219.5c0,2.8,0,5.7,0,8.5,0,0,0,.1,0,.2,0,0,0,0,.3.3,2.2.1,4.4,0,6.7,0,2.3,0,4.5.2,6.9-.2.1-1.2.3-2.3-.2-3.4-.7,0-1.3,0-1.9,0-1.8,0-3.6,0-5.4,0-.4,0-.8-.1-1.3-.2,0-.8,0-1.5,0-2.1,0-4,0-7.9,0-11.9,0-.6.2-1.3-.4-1.8-1.5,0-3.1-.3-4.7.2,0,3.4,0,6.7,0,10.4Z"/>
  <path class="st15" d="M154.4,195c0,4.4-.2,8.7,0,12.9.2,4-3.6,8-7.9,8-10.4,0-20.7,0-31.1,0-4.2,0-8-3.6-7.9-8,0-6.9,0-13.8,0-20.6,0-3,2-6.5,5.7-7.6.7-.2,1.5-.2,2.3-.2,5,0,10,0,15,0,5.3,0,10.6,0,15.8,0,3.7,0,6,1.7,7.5,4.9.4.8.5,1.7.5,2.6,0,2.6,0,5.1,0,7.9M146.8,184.7c-3.8,0-7.6,0-11.5,0-.5,0-1.1-.1-1.7.5,0,.6,0,1.3,0,2.1,0,6.2,0,12.4,0,18.5,0,1.3,0,2.5,0,3.8,0,.4.2.8.3,1.1.4,0,.6.1.9.1,3.7,0,7.4,0,11,0,.3,0,.6,0,.8,0,1.7-.3,2.5-1.2,2.6-2.9,0-.5,0-1,0-1.5,0-4.3,0-8.6,0-12.9,0-1.9,0-3.8,0-5.6,0-1.6-.5-2.7-2.5-3.2M112.7,204.4c0,1.2,0,2.4,0,3.5.1,1.7,1,2.6,2.7,2.8.2,0,.4,0,.6,0,3.7,0,7.4,0,11,0,.4,0,.8-.2,1.1-.3.2-1.6.4-21,.2-24.7,0-.3-.1-.7-.2-1.1-.7,0-1.3-.1-1.9-.1-3.3,0-6.7,0-10,0-2.9,0-3.7.8-3.7,3.7,0,5.2,0,10.4,0,16Z"/>
  <path class="st15" d="M110.9,235.7c1.5-1.1,3.1-1.5,4.8-1.5,10.2,0,20.4,0,30.7,0,3.4,0,5.8,1.5,7.4,4.5.5.9.7,1.9.7,3,0,2.7,0,5.4,0,8.1,0,4.3,0,8.6,0,12.9,0,3.1-1.4,5.3-4,6.9-.9.6-1.9.9-3,.9-.4,0-.8,0-1.3,0-10.2,0-20.3,0-30.5,0-1.4,0-2.7-.2-4-.9-2.6-1.5-4.1-3.7-4.1-6.8,0-7,0-13.9,0-20.9,0-2.6,1.1-4.7,3.2-6.4M133.6,252.4c0,4.2,0,8.3,0,12.5,0,.1.1.2.3.5.4,0,.8.1,1.3.1,3.5,0,7.1,0,10.6,0,.3,0,.7,0,1,0,1.4-.2,2.2-1,2.4-2.5,0-.4,0-.8,0-1.2,0-6.2,0-12.5,0-18.7,0-.4,0-.8,0-1.2-.1-1.1-.7-1.8-1.7-2.1-.5-.2-1.1-.3-1.6-.3-3.7,0-7.4,0-11,0-.4,0-.8.2-1.3.3,0,4.2,0,8.2,0,12.7M123.7,265.5c1.5,0,3,.2,4.6-.2,0-.7.1-1.2.2-1.7,0-1.6,0-3.2,0-4.8,0-5.7,0-11.4,0-17.1,0-.7.2-1.5-.3-2.3-.3,0-.7-.1-1-.1-3.7,0-7.4,0-11,0-.3,0-.7,0-1,0-1.3.3-2.1,1.1-2.3,2.4,0,.5,0,1.1,0,1.7,0,6,0,12.1,0,18.1,0,.5,0,1,0,1.5.2,1.4,1,2.3,2.4,2.4.5,0,1,0,1.5,0,2.2,0,4.4,0,7.1,0Z"/>
  <path class="st15" d="M120.2,286.4c8.8,0,17.4,0,26.1,0,2,0,3.7.5,5.2,1.7,1.8,1.5,3,3.3,3,5.7,0,7.2,0,14.3,0,21.5,0,3.4-3.4,7.6-7.7,7.5-7.8-.1-15.6,0-23.3,0-2.7,0-5.4,0-8.1,0-3,.1-6.4-2-7.5-5.8-.2-.5-.2-1.1-.2-1.6,0-7.1,0-14.2,0-21.3,0-4.1,3.6-7.7,7.8-7.7,1.5,0,3.1,0,4.8,0M133.6,300.4c0,5.6,0,11.1,0,16.7,0,.1.1.2.3.5.3,0,.7.1,1.1.1,3.7,0,7.4,0,11,0,.3,0,.6,0,.8,0,1.4-.2,2.2-1,2.4-2.5,0-.4,0-.8,0-1.2,0-6.2,0-12.5,0-18.7,0-.4,0-.8,0-1.2-.1-1.1-.7-1.8-1.7-2.2-.5-.2-1.1-.3-1.6-.3-3.7,0-7.4,0-11,0-.4,0-.8.2-1.1.2,0,.3-.2.4-.2.5,0,2.6,0,5.1,0,8.1M119.6,291.5c-1.3,0-2.6,0-4,0-1.8.1-2.7,1.1-2.9,2.9,0,.3,0,.7,0,1,0,6.1,0,12.2,0,18.3,0,.5,0,1,0,1.5.2,1.3,1,2.1,2.3,2.3.3,0,.6,0,.8,0,3.7,0,7.5,0,11.2,0,.4,0,.8-.1,1.3-.2,0-.8,0-1.6,0-2.3,0-5.5,0-11,0-16.4,0-1.9,0-3.7,0-5.6,0-.5-.2-.9-.3-1.5-2.8,0-5.5,0-8.6,0Z"/>
  <path class="st14" d="M313.9,338.5c-.2-2.3-.2-4.7,0-7.1,1.6.3,3,.1,4.5,0,1.2-.2,2.5-.4,3.7-.5,7.8-.2,15.5-.8,23.3-.6.8,0,1.7,0,2.5-.2,2.2-.4,3.1-1.5,3.1-3.8,0-1.2-.2-2.3-.1-3.5,4.7,0,9.2,0,13.8,0,2,0,3.9-.2,5.6-1.4.3-.2.6-.3,1-.4.4,4.2.9,8.4,1.2,12.6.1,1.5,0,3-.1,4.7-.9.2-1.8.2-2.7.2-17.7,0-35.4,0-53,0-.8,0-1.5,0-2.5,0Z"/>
  <path class="st22" d="M371.2,320.8c-.3.3-.7.4-1,.6-1.7,1.1-3.6,1.4-5.6,1.4-4.5,0-9,0-13.8-.1-.8-1.8-.9-3.4-.7-5.1.4-3.3.8-6.6,1.3-9.9.2-1.3.7-2.5,1.2-3.6,0,3.9,0,7.7,0,11.4,0,.7-.2,1.4.4,2,.2,0,.5.1.8.1,3.8,0,7.6,0,11.5,0,.2,0,.4,0,.6,0,1.4-.2,2.3-1,2.4-2.4,0-.5,0-1,0-1.5,0-6.1,0-12.2,0-18.3,0-.4,0-.8,0-1.2-.1-1.3-.8-2.2-2.1-2.5-.6-.1-1.2-.2-1.9-.2-2,0-4,0-6-.2.8-1.7,1.6-3.3,2.4-4.9,1.7,0,3.3,0,5,0,3.2,0,6.2,2.1,7.4,5.6.2.7.2,1.5.2,2.3,0,1.7.1,3.4.3,5.3-.5,2.3-1.2,4.5-1.7,6.8-1,4.7-1.3,9.5-.8,14.5Z"/>
  <path class="st6" d="M360.8,286.2c-.8,1.7-1.6,3.3-2.6,5.1-1.7,3.3-3.2,6.4-4.7,9.4-.5,1-.7,2.1-1,3.1-.4,1.2-.9,2.5-1.1,3.7-.5,3.3-.9,6.6-1.3,9.9-.2,1.7-.1,3.3.5,5.1.2,1.3.4,2.5.4,3.7,0,2.2-.9,3.3-3.1,3.8-.8.2-1.7.2-2.5.2-7.8-.2-15.6.4-23.3.6-1.2,0-2.5.3-3.7.5-1.4.2-2.9.4-4.5-.1-1.4-1-2-2.3-2.2-3.7-.3-1.8-.5-3.6-.7-5.4-.6-7.2-2.1-14.1-4-21-1.3-4.7-2.3-9.4-3.1-14.2-.7-4.8-1.1-9.7-.6-14.5.6-5.4,2.1-10.5,4.4-15.3,1.6-3.5,3.7-6.7,6-9.9.6-.7,1.2-1.3,1.7-1.9,2.8-3.1,5.9-5.8,9.6-7.9,5-2.8,10.3-3.9,16-3,.5,0,1,.1,1.8.2,4.2.9,7.7,2.4,10.9,4.8.2.1.4.2.6.4.4.4.8.7,1.2,1.1,3,2.6,5.3,5.8,6.9,9.5,1.2,2.8,1.9,5.8,2.2,8.8.2,2.2.4,4.4.6,6.8,0,1.8,0,3.3-.1,4.9-.2,1.1-.4,2.3-.6,3.4-.7,4.2-2.1,8.1-3.6,12.2Z"/>
  <path class="st15" d="M371,181.6c1.7,1.8,2.5,3.7,2.5,6.1,0,6.7-.1,13.5,0,20.2,0,3.2-2.4,6.9-5.8,7.7-.8.2-1.6.3-2.5.3-7.9,0-15.7,0-23.6,0-2.4,0-4.7,0-7.1,0-4.2.1-8-3.6-7.9-8,0-6.9,0-13.8,0-20.6,0-3,2-6.5,5.8-7.6.7-.2,1.5-.2,2.3-.2,6,0,12.1,0,18.1,0,4.1,0,8.2,0,12.3,0,2.2,0,4.1.6,5.9,2.1M367.5,185.3c-.7-.6-1.5-.7-2.3-.7-3.7,0-7.4,0-11,0-.4,0-.8.1-1.3.2,0,.7-.1,1.3-.1,1.9,0,2.2,0,4.3,0,6.5,0,5.1,0,10.1,0,15.2,0,.7-.2,1.5.3,2.2.3,0,.5.2.8.2,3.8,0,7.5,0,11.3,0,.4,0,.8,0,1.2-.2,1.3-.3,2-1.2,2.1-2.5,0-.5,0-1,0-1.5,0-2.5,0-5,0-7.5,0-3.7,0-7.4,0-11,0-.9,0-1.8-.9-2.8M331.7,193.6c0,4.4,0,8.7,0,13.1,0,.6,0,1.1,0,1.7.2,1.3,1,2.1,2.3,2.4.3,0,.7,0,1,0,3.7,0,7.4,0,11,0,.4,0,.8-.2,1.3-.3,0-.8,0-1.6,0-2.3,0-6.3,0-12.6,0-18.9,0-1.1,0-2.2,0-3.3,0-.4-.2-.8-.3-1.1-.4,0-.8-.1-1.1-.1-3.7,0-7.4,0-11,0-.3,0-.6,0-.8,0-1.4.2-2.2,1-2.4,2.5,0,.4,0,.8,0,1.2,0,1.6,0,3.2,0,5.2Z"/>
  <path class="st0" d="M354.3,239.4c-.2,0-.4-.1-.6-.3-3.2-2.3-6.8-3.8-10.7-4.8,1.6-.1,3.3-.1,5.1-.1,5.8,0,11.5,0,17.3,0,1.8,0,3.4.4,4.9,1.5,2,1.5,3.2,3.4,3.2,6,0,7.1,0,14.2,0,21.3,0,3.6-3.5,7.7-7.4,7.5-.2,0-.4,0-.8,0-.2-1.6-.1-3.1,0-4.9,2.3-.6,2.9-1.2,3-3.3,0-.2,0-.4,0-.6,0-6.2,0-12.5,0-18.7,0-.4,0-.8,0-1.2-.1-1.3-.7-2-2-2.3-.4-.1-.8-.2-1.2-.2-3.6,0-7.2,0-10.8,0Z"/>
  <path class="st16" d="M188.2,338.8c3.4-.2,6.9-.2,10.8-.2,3.7,0,6.9,0,10.4,0,9.6,0,19,0,28.6,0,1.9,0,3.5,0,5.4,0,9,0,17.8,0,26.6,0,.6,0,1.2,0,2.1,0,3.6,0,7,0,10.4,0,3.3,0,6.7,0,10.2,0,.2,3.4.2,6.7.2,10.2-21.6.2-43.3.2-64.9.2-13.1,0-26.2,0-39.6,0-.1-.6,0-1.1,0-1.6,0-2.8,0-5.6,0-8.6Z"/>
  <path class="st20" d="M199,276c-2.8,0-5.6,0-8.3,0-.7,0-1.4,0-2.1,0,0-.5-.2-.9-.2-1.3,0-2.6,0-5.3,0-7.9,0-.9.4-1.4,1.1-1.8,3.3-2,6.5-4,9.8-6,10.5-6.6,21-13.3,31.5-19.9,1.6-1,3.1-2,4.6-3.2,2.6-2,7.1-1.9,9.8,0,14.8,9.9,30.1,19.1,45.3,28.5,2.7,1.6,2.2.9,2.3,4.1,0,1.9,0,3.9,0,5.8,0,.5,0,1.1-.1,1.8-.5,0-1,.2-1.4.2-2.9,0-5.8,0-9.1,0-3.7,0-7,0-10.4,0-8.6,0-17.1,0-25.5,0-1,0-1.9,0-3.1,0-1.9,0-3.6,0-5.4,0-9.2,0-18.1,0-27.1,0-.4,0-.8,0-1.5,0-3.5,0-6.8,0-10.1,0Z"/>
  <path class="st29" d="M272.2,179.4c-5.6,9.5-13.7,15.5-24.4,17.6-10.7,2.1-20.8,0-29.5-6.8-7.8-6-12.5-14-13.9-23.9-1.1-7.7.1-15.1,3.8-22,5.5-10.3,14.1-16.6,25.5-19,2.4-.5,4.8-.8,7.2-.7,8.4.3,15.9,2.8,22.5,8.2,7,5.7,11.4,12.9,13,21.7,1.6,8.7.3,17-4.2,24.9M228.3,138.2c-2.5,1.3-4.6,3-6.6,5-6.8,6.9-9.2,17.7-5.6,27.3,4.1,10.8,15.5,18.9,29.5,16.3,13.2-2.5,23-15.4,20.6-29.7-1.7-9.7-7.2-16.3-16.3-20.1-3.4-1.4-7-2-10.6-1.8-3.8.2-7.4,1.1-11.1,3Z"/>
  <path class="st4" d="M271.8,276c3.3,0,6.6,0,10,0,.2,19.9.2,39.7.2,59.5,0,.9.2,1.8.4,2.8-3.4.2-6.8.2-10.3,0-.2-.4-.2-.6-.2-.8,0-19.9,0-39.7,0-59.6,0-.6,0-1.2,0-1.9Z"/>
  <path class="st4" d="M199,276.2c3.3-.2,6.6-.2,10,0,.2.8.1,1.5.1,2.1,0,19.4,0,38.7,0,58.1,0,.7,0,1.4,0,2.1-3.3,0-6.6,0-10,0-.2-14.6-.2-29.2-.2-43.8,0-6.1,0-12.2,0-18.5Z"/>
  <path class="st18" d="M267.2,226.6c-3.4-3-4.2-6.7-3.4-10.9.7-3.4,2.8-5.7,6-6.9,2.8-1,5.6-1.1,8.4-.3,4,1.1,6.6,4.2,7.1,8.3.1,1.2.1,2.5,0,3.7-.7,4.1-3.1,6.8-7.1,7.8-3.9,1-7.6.7-11-1.9M276.7,225.1c1.5-.6,2.5-1.7,3-3.3.6-1.9.7-3.8.1-5.7-.2-.8-.6-1.6-1.1-2.2-2.1-2.7-6.4-3.1-8.4.7-1.3,2.5-1.3,5.1-.3,7.6.7,1.6,2,2.6,3.7,3,.9.2,1.8.2,3-.2Z"/>
  <path class="st10" d="M249.6,229c-1.3-.2-2.4-.3-3.4-.7-4-1.5-6.2-4.4-6.7-8.5-.1-1.2,0-2.5.2-3.7.7-3.8,3.1-6.3,6.8-7.4,2.4-.7,4.8-.8,7.2-.1,5.4,1.4,7.9,5.9,7.7,10.7,0,.8-.2,1.7-.4,2.5-1.1,4.1-4,6.4-8.1,7.1-1,.2-2.1.1-3.3.2M255.4,220.7c0-.3.2-.7.2-1,.2-2.1-.2-4-1.4-5.7-1.9-2.6-6.4-3.3-8.4.6-1.4,2.5-1.3,5.2-.3,7.8.1.4.4.7.7,1.1,1.8,2.4,7,3.1,8.8-1,.2-.4.3-.9.5-1.7Z"/>
  <path class="st18" d="M218.4,229c-.5,0-.8-.1-1.1-.2-.3-1.8-.3-18,0-19.9,1.6-.3,3.2-.2,4.9,0,.3,2.5,0,4.9.2,7.2,1.5.4,5.8.5,8,.1.5-1.2.2-2.4.2-3.7,0-1.2,0-2.3,0-3.6,1.7-.5,3.2-.2,4.9-.2,0,.3.3.7.3,1,0,6.1,0,12.2,0,18.4,0,.2,0,.4-.1.7-1.6.4-3.2.3-4.9,0-.4-2.7.1-5.3-.3-7.9-1.7-.3-5.7-.4-7.9,0,0,.4-.2.9-.2,1.3,0,1.5,0,2.9,0,4.4,0,.7,0,1.4,0,2.2-.5.1-.9.3-1.3.3-.8,0-1.7,0-2.7,0Z"/>
  <path class="st10" d="M189.7,212.1c-1.1,0-2.1-.2-3-.2-.5,0-1,.2-1.4.4-1.2.7-1.4,2.1-.2,2.9.7.5,1.6.8,2.5,1,1.4.4,2.8.9,4,1.7,1.9,1.2,2.7,2.9,2.6,5.1,0,1.4-.7,2.5-1.7,3.5-1.2,1.2-2.8,1.9-4.4,2.2-2.9.6-5.8.4-8.7-.4-.1,0-.3-.1-.4-.2-.1,0-.2-.2-.4-.4,0-1.2.2-2.4.5-3.8.9.2,1.6.4,2.3.5,1.4.2,2.8.3,4.1.3.5,0,1-.1,1.4-.3.7-.2,1.2-.7,1.3-1.5,0-.8-.3-1.4-.9-1.7-.7-.4-1.4-.6-2.1-.9-1-.4-2-.6-2.9-1.1-.7-.3-1.4-.8-2.1-1.3-2.7-2.1-1.9-5.6-.4-7.2,1-1.1,2.3-1.8,3.8-2.1,2.9-.7,5.8-.6,8.6.3.2,0,.5.3.8.5-.3,1.1-.6,2.1-.9,3.2-.9.3-1.6-.4-2.5-.4Z"/>
  <path class="st19" d="M196.3,217.4c.8-4.3,3.3-7,7.2-8.4,3.3-1.2,6.7-1.2,10-.2.3,0,.5.2.8.4,0,1.2-.5,2.3-.9,3.5-.7,0-1.3-.2-1.9-.2-1.4,0-2.8,0-4.2,0-3,.4-4.9,2.3-5.3,5.3-.2,1.1-.1,2.2.2,3.3.6,2.2,2,3.6,4.1,4.3,1.5.5,3,.6,4.5.3.8-.2,1.6-.4,2.6-.1.2.7.3,1.5.5,2.1-.5.8-1.3.8-1.9,1-2.6.6-5.2.6-7.8,0-5.7-1.4-8.3-5.1-7.8-11.1Z"/>
  <path class="st23" d="M289.1,219.2c0-3.5,0-6.9,0-10.2,1.7-.5,3.2-.2,4.7-.2.6.5.4,1.2.4,1.8,0,4,0,7.9,0,11.9,0,.7,0,1.4,0,2.1.5,0,.9.2,1.3.2,1.8,0,3.6,0,5.4,0,.6,0,1.2,0,1.9,0,.5,1.1.3,2.2.2,3.4-2.3.3-4.6.1-6.9.2-2.3,0-4.6,0-6.7,0-.2-.2-.2-.2-.3-.3,0,0,0-.1,0-.2,0-2.8,0-5.7,0-8.7Z"/>
  <path class="st3" d="M147,184.7c1.8.4,2.4,1.6,2.3,3.1,0,1.9,0,3.8,0,5.6,0,4.3,0,8.6,0,12.9,0,.5,0,1,0,1.5,0,1.7-.9,2.7-2.6,2.9-.3,0-.6,0-.8,0-3.7,0-7.4,0-11,0-.3,0-.5,0-.9-.1-.1-.4-.3-.8-.3-1.1,0-1.2,0-2.5,0-3.8,0-6.2,0-12.4,0-18.5,0-.8,0-1.5,0-2.1.6-.6,1.2-.5,1.7-.5,3.8,0,7.6,0,11.6,0Z"/>
  <path class="st3" d="M112.7,204.2c0-5.4,0-10.6,0-15.8,0-2.9.8-3.7,3.7-3.7,3.3,0,6.7,0,10,0,.6,0,1.2,0,1.9.1,0,.4.2.8.2,1.1.2,3.7,0,23.1-.2,24.7-.3,0-.7.3-1.1.3-3.7,0-7.4,0-11,0-.2,0-.4,0-.6,0-1.7-.2-2.6-1.1-2.7-2.8,0-1.2,0-2.4,0-3.7Z"/>
  <path class="st3" d="M133.6,252.2c0-4.3,0-8.4,0-12.5.5-.1.9-.3,1.3-.3,3.7,0,7.4,0,11,0,.5,0,1.1.1,1.6.3,1,.3,1.6,1.1,1.7,2.1,0,.4,0,.8,0,1.2,0,6.2,0,12.5,0,18.7,0,.4,0,.8,0,1.2-.2,1.4-1,2.3-2.4,2.5-.3,0-.7,0-1,0-3.5,0-7.1,0-10.6,0-.5,0-.9-.1-1.3-.1-.1-.2-.3-.4-.3-.5,0-4.2,0-8.3,0-12.7Z"/>
  <path class="st3" d="M123.5,265.5c-2.4,0-4.6,0-6.9,0-.5,0-1,0-1.5,0-1.4-.2-2.2-1-2.4-2.4,0-.5,0-1,0-1.5,0-6,0-12.1,0-18.1,0-.6,0-1.1,0-1.7.2-1.3,1-2.1,2.3-2.4.3,0,.7,0,1,0,3.7,0,7.4,0,11,0,.3,0,.7,0,1,.1.5.7.3,1.5.3,2.3,0,5.7,0,11.4,0,17.1,0,1.6,0,3.2,0,4.8,0,.5,0,1.1-.2,1.7-1.6.3-3.1.1-4.8.2Z"/>
  <path class="st3" d="M133.6,300.2c0-2.8,0-5.3,0-7.9,0-.1,0-.3.2-.5.3,0,.7-.2,1.1-.2,3.7,0,7.4,0,11,0,.5,0,1.1.1,1.6.3,1,.3,1.6,1.1,1.7,2.2,0,.4,0,.8,0,1.2,0,6.2,0,12.5,0,18.7,0,.4,0,.8,0,1.2-.2,1.4-1,2.3-2.4,2.5-.3,0-.6,0-.8,0-3.7,0-7.4,0-11,0-.4,0-.8-.1-1.1-.1-.1-.2-.3-.4-.3-.5,0-5.6,0-11.1,0-16.9Z"/>
  <path class="st3" d="M119.8,291.5c2.9,0,5.6,0,8.4,0,.1.6.3,1,.3,1.5,0,1.9,0,3.7,0,5.6,0,5.5,0,11,0,16.4,0,.8,0,1.5,0,2.3-.5.1-.9.2-1.3.2-3.7,0-7.5,0-11.2,0-.3,0-.6,0-.8,0-1.3-.2-2.1-1-2.3-2.3,0-.5,0-1,0-1.5,0-6.1,0-12.2,0-18.3,0-.3,0-.7,0-1,.1-1.8,1-2.8,2.9-2.9,1.3,0,2.6,0,4.2,0Z"/>
  <path class="st3" d="M352.6,304.1c.3-1.2.5-2.3,1-3.3,1.5-3.1,3-6.1,4.7-9.3,2.1,0,4.1,0,6.1,0,.6,0,1.3,0,1.9.2,1.3.3,2,1.2,2.1,2.5,0,.4,0,.8,0,1.2,0,6.1,0,12.2,0,18.3,0,.5,0,1,0,1.5-.2,1.4-1,2.2-2.4,2.4-.2,0-.4,0-.6,0-3.8,0-7.6,0-11.5,0-.3,0-.5,0-.8-.1-.6-.6-.4-1.3-.4-2,0-3.7,0-7.5,0-11.4Z"/>
  <path class="st13" d="M354.4,239.5c3.5-.1,7.1-.2,10.7-.2.4,0,.8,0,1.2.2,1.3.3,1.9,1,2,2.3,0,.4,0,.8,0,1.2,0,6.2,0,12.5,0,18.7,0,.2,0,.4,0,.6,0,2.1-.7,2.7-3,3.1-.3-2.2-.5-4.4-.7-6.6-.3-3-1-6-2.2-8.8-1.6-3.7-3.9-6.9-6.9-9.5-.4-.3-.7-.6-1.2-1.1Z"/>
  <path class="st3" d="M367.6,185.4c.7.9.8,1.8.8,2.7,0,3.7,0,7.4,0,11,0,2.5,0,5,0,7.5,0,.5,0,1,0,1.5-.1,1.3-.8,2.2-2.1,2.5-.4.1-.8.2-1.2.2-3.8,0-7.5,0-11.3,0-.3,0-.5,0-.8-.2-.5-.7-.3-1.5-.3-2.2,0-5.1,0-10.1,0-15.2,0-2.2,0-4.3,0-6.5,0-.6,0-1.2.1-1.9.5,0,.9-.2,1.3-.2,3.7,0,7.4,0,11,0,.9,0,1.7.1,2.5.8Z"/>
  <path class="st3" d="M331.7,193.4c0-1.8,0-3.4,0-5,0-.4,0-.8,0-1.2.2-1.4,1-2.3,2.4-2.5.3,0,.6,0,.8,0,3.7,0,7.4,0,11,0,.3,0,.7,0,1.1.1.1.4.3.8.3,1.1,0,1.1,0,2.2,0,3.3,0,6.3,0,12.6,0,18.9,0,.8,0,1.5,0,2.3-.5.1-.9.3-1.3.3-3.7,0-7.4,0-11,0-.3,0-.7,0-1,0-1.3-.3-2.1-1-2.3-2.4,0-.5,0-1.1,0-1.7,0-4.4,0-8.7,0-13.3Z"/>
  <path class="st2" d="M271.6,276c.2.6.3,1.3.3,1.9,0,19.9,0,39.7,0,59.6,0,.2,0,.4,0,.8-.6.2-1.3.3-1.9.3-8.8,0-17.6,0-26.6-.2-.2-20.5-.2-40.8-.2-61.1,0-.4,0-.8,0-1.2,1,0,1.9,0,2.9,0,8.4,0,16.9,0,25.5,0M248.3,306.2c0,.6,0,1.2.1,1.8,1.4.4,3.8.6,6.1.4.4,0,.7-.2,1.1-.3q.2-1.9-.2-3.1c-1.1-.2-5.2-.3-6.2-.2-.7,0-.9.5-.9,1.5Z"/>
  <path class="st2" d="M209.4,338.5c-.2-.7-.2-1.4-.2-2.1,0-19.4,0-38.7,0-58.1,0-.6,0-1.2,0-2.1.4-.2.9-.3,1.3-.3,9,0,17.9,0,27.1.2.2.8.2,1.3.2,1.9,0,19.5,0,39.1,0,58.6,0,.6,0,1.3,0,1.9-9.4,0-18.8,0-28.4,0M227.3,308.4c.9,0,1.8,0,2.7,0,.9,0,1.8.2,2.6-.4.2-1,.3-2,0-3-1.9-.4-5.5-.4-7.1,0-.2,1-.3,2,0,3.1.5,0,.9.2,1.8.3Z"/>
  <path class="st4" d="M238,338.6c-.2-.6-.2-1.2-.2-1.9,0-19.5,0-39.1,0-58.6,0-.6,0-1.1,0-1.9,1.7-.2,3.3-.2,5.2-.2.2.4.1.9.1,1.3,0,20.3,0,40.6,0,61.1-1.7.2-3.3.2-5.2.2Z"/>
  <path class="st5" d="M228.4,138.1c3.5-1.8,7.1-2.8,10.9-3,3.6-.2,7.2.4,10.6,1.8,9,3.8,14.6,10.4,16.3,20.1,2.5,14.3-7.3,27.2-20.6,29.7-14,2.7-25.5-5.5-29.5-16.3-3.7-9.6-1.2-20.4,5.6-27.3,2-2,4.1-3.7,6.7-5.1M234.9,161.2c-1.5,0-3.1,0-4.6,0-2.7,0-5.1,2.1-5.4,4.6-.3,2.3,1.5,4.9,4,5.6.5.1,1,.2,1.4.2,3.3,0,6.5,0,9.8,0,2.4,0,4.4-1.5,5.3-3.7.4-1,.3-1.9.3-3.3,0-1.9,0-3.9,0-5.8,0-4.3,0-8.6,0-12.9,0-2.5-1.4-4.4-3.7-5.3-.9-.4-1.9-.4-2.9,0-1.8.6-3.1,1.9-3.7,3.7-.2.7-.2,1.5-.2,2.3,0,4.9,0,9.7-.4,14.6Z"/>
  <path class="st27" d="M276.5,225.1c-1,.3-1.9.3-2.8.1-1.8-.3-3-1.3-3.7-3-1.1-2.6-1.1-5.2.3-7.6,2-3.8,6.3-3.4,8.4-.7.5.6.9,1.4,1.1,2.2.5,1.9.5,3.8-.1,5.7-.5,1.5-1.4,2.7-3.1,3.3Z"/>
  <path class="st27" d="M255.4,220.9c-.2.6-.3,1.1-.5,1.5-1.8,4.1-7,3.4-8.8,1-.2-.3-.5-.7-.7-1.1-1-2.6-1.1-5.3.3-7.8,2.1-3.8,6.5-3.2,8.4-.6,1.3,1.7,1.6,3.6,1.4,5.7,0,.3-.1.7-.2,1.2Z"/>
  <path class="st7" d="M248.3,306c0-.8.2-1.3.9-1.3,1-.1,5.1,0,6.2.2q.4,1.2.2,3.1c-.3.1-.7.3-1.1.3-2.3.2-4.7,0-6.1-.4,0-.5,0-1.2-.1-1.9Z"/>
  <path class="st7" d="M227.1,308.4c-.6,0-1.1-.2-1.6-.3-.3-1.1-.3-2.1,0-3.1,1.6-.5,5.2-.5,7.1,0,.3,1,.2,2,0,3-.8.7-1.8.4-2.6.4-.9,0-1.8,0-2.9,0Z"/>
  <path class="st28" d="M235.3,161.1c0-4.9,0-9.7,0-14.6,0-.8,0-1.6.2-2.3.6-1.8,1.8-3.1,3.7-3.7.9-.3,1.9-.3,2.9,0,2.3.9,3.7,2.8,3.7,5.3,0,4.3,0,8.6,0,12.9,0,1.9,0,3.9-.1,5.9-1.3-2.5-3.3-3.7-6.2-3.6-1.4,0-2.7,0-4.1,0Z"/>
  <path class="st24" d="M235.1,161.2c1.6,0,2.9.1,4.3,0,2.9-.2,4.9,1,6.2,3.8.2,1.1.3,2,0,3-.9,2.2-2.9,3.7-5.3,3.7-3.3,0-6.5,0-9.8,0-.5,0-1,0-1.4-.2-2.5-.7-4.4-3.3-4-5.6.3-2.5,2.7-4.6,5.4-4.6,1.5,0,3.1,0,4.8,0Z"/>
</svg>