<?xml version="1.0" encoding="UTF-8"?>
<svg id="Layer_1" xmlns="http://www.w3.org/2000/svg" version="1.1" viewBox="0 0 500 500">
  <!-- Generator: Adobe Illustrator 29.5.0, SVG Export Plug-In . SVG Version: 2.1.0 Build 137)  -->
  <defs>
    <style>
      .st0 {
        fill: #144155;
      }
    </style>
  </defs>
  <path class="st0" d="M205.4,462.7c-.1-2.9-.1-5.9-.1-8.8,0-11.3-.2-22.5-.3-33.8,0-10.3-.2-20.5-.3-30.8,0-10.8-.2-21.5-.3-32.3,0-10.3-.2-20.5-.3-30.8,0-10.7-.2-21.3-.3-32,0-9.8-.2-19.6-.3-29.4,0-8.4,0-16.7,0-25.1h-86.9c.8-1,1.5-2,2.3-3,2.5-2.9,5.1-5.8,7.6-8.7,3.1-3.6,6.1-7.3,9.2-10.9,2.5-2.9,5-5.7,7.5-8.6,2.6-3,5.1-6,7.6-9,1.8-2.1,3.6-4.2,5.4-6.3,2.6-3.1,5.2-6.2,7.8-9.2,1.9-2.2,3.8-4.4,5.7-6.6,2.6-3.1,5.2-6.2,7.8-9.2,2-2.3,4-4.6,6-6.9,2.5-2.9,5-5.9,7.5-8.8,1.9-2.3,4-4.5,5.9-6.8,2.6-3,5.1-6,7.6-9,1.9-2.2,3.8-4.4,5.7-6.6,2.7-3.2,5.4-6.3,8.1-9.5,1.9-2.2,3.9-4.4,5.8-6.7,2.5-2.9,4.9-5.9,7.5-8.8,2.5-2.9,5-5.7,7.5-8.6,2.5-2.9,4.9-5.8,7.4-8.7,1.9-2.2,3.8-4.3,5.6-6.5,2.6-3,5.1-6,7.6-9,1.9-2.2,3.8-4.3,5.6-6.5,2.6-3,5.1-6,7.6-9,1.8-2.1,3.7-4.2,5.5-6.4,2.6-3,5.2-6.1,7.7-9.1.5-.5.9-1.1,1.3-1.7.2.1.3.2.5.4,0,.3,0,.6,0,.9,0,22.5.2,45.1.3,67.6,0,12.5,0,25.1,0,37.6,0,24.4.2,48.8.3,73.2.1,32.2.2,64.4.3,96.7,0,23.4.2,46.8.3,70.3,0,25.4.2,50.7.3,76.2-28.1.1-56.2.1-84.4.1Z"/>
  <path class="st0" d="M328.3,367.6c0-.1,0-.2,0-.5.1-.7.2-1.2.2-1.7,0-4.7,0-9.5,0-14.2,0-17.2,0-34.3,0-51.5,0-.5-.3-1-.5-1.5,0-.1,0-.2,0-.5.1-.7.2-1.3.2-1.8,0-23.7,0-47.4,0-71.1s0-15,0-22.5c0-.5-.3-.9-.5-1.4,0-.1,0-.2,0-.5.1-.7.2-1.2.2-1.7,0-7,0-14.1,0-21.1,0-16,0-31.9,0-47.9,0-.5-.3-1-.5-1.5,0-.1,0-.2,0-.5.1-.7.2-1.2.2-1.7,0-6.7,0-13.3,0-20,0-16.1,0-32.3,0-48.4,0-.5-.3-1-.5-1.5,0-.1,0-.2,0-.5.1-.7.2-1.2.2-1.7,0-4.7,0-9.4,0-14.1.3,0,.6,0,1,0,27.6,0,55.2,0,83,0,.2.1.3.2.3.2,0,.2,0,.5,0,.7,0,15.8.2,31.6.3,47.3,0,10.7.2,21.3.3,32,0,10.2.2,20.4.3,30.6,0,9.1.2,18.1.3,27.2,0,7.9.2,15.8.3,23.7.1,10.2.2,20.4.3,30.6,0,10.2,0,20.3,0,30.4h86.7c.1.2.1.4.1.7-1.2,1.2-2.4,2.3-3.5,3.5-2,2.3-3.9,4.6-5.9,6.9-2.5,3-5.1,6-7.6,9-1.9,2.2-3.8,4.3-5.6,6.5-2.6,3-5.1,6-7.6,9-1.9,2.2-3.8,4.3-5.6,6.5-2.6,3-5.1,6-7.6,9-1.9,2.2-3.9,4.4-5.8,6.7-2.6,3-5.1,6.1-7.7,9.1-1.8,2.1-3.7,4.2-5.5,6.4-2.7,3.1-5.3,6.3-8,9.4-2,2.3-4,4.5-5.9,6.8-2.6,3-5.1,6-7.6,9-2.6,3-5.2,5.9-7.8,8.9-2.5,2.9-4.9,5.8-7.4,8.7-1.8,2.1-3.7,4.2-5.5,6.4-2.6,3-5.1,6.1-7.7,9.1-1.9,2.2-3.8,4.4-5.7,6.6-2.6,3.1-5.2,6.1-7.8,9.2-1.9,2.2-3.8,4.4-5.7,6.6-2.5,3-5,6-7.5,8.9-1.9,2.2-3.9,4.4-5.8,6.7-2.5,2.9-4.9,5.9-7.4,8.8-1.9,2.2-3.9,4.4-5.8,6.7-2.5,2.9-4.9,5.9-7.5,8.8-1.5,1.8-3.1,3.5-4.8,5.2-.2-.5-.3-1-.3-1.5,0-5.2,0-10.3,0-15.5,0-.5-.3-.9-.5-1.4,0-.1,0-.2,0-.5.1-.7.2-1.2.2-1.7,0-8.9,0-17.8,0-26.6,0-15,0-30.1,0-45.1,0-.5-.3-1-.5-1.5Z"/>
  <path class="st0" d="M270.9,37.1c-.4.8-.9,1.6-1.6,2.4-2.4,2.7-4.8,5.3-7.2,8-3.5,4-6.9,8-10.4,12-2.3,2.7-4.8,5.3-7.1,7.9-2.9,3.3-5.7,6.7-8.6,10-2.2,2.5-4.5,5-6.7,7.5-3,3.4-6,6.9-9,10.4-1.5,1.7-3,3.3-4.4,5-.5.5-.9,1.1-1.4,1.7-.9,1-1.8,1.7-3.3,1.7-70.2,0-140.5,0-210.8,0-.1-22.2-.1-44.4-.1-66.6,90.2,0,180.4,0,270.7,0Z"/>
  <path class="st0" d="M.7,396.2c.5,0,1,0,1.5,0,64.8,0,129.5,0,194.3,0,1,0,2,.3,3.2.5,0,6.7,0,13.4,0,20.1,0,8.6.2,17.2.3,25.8,0,6.5.2,12.9.2,19.6-.2.3-.3.5-.4.7-66.2,0-132.5,0-198.9-.1-.1-22.2-.1-44.3-.1-66.4Z"/>
  <path class="st0" d="M.2,276.6c66.1-.1,132.2-.1,198.4-.1,0,.3,0,.6,0,.8,0,14.2.2,28.3.3,42.5,0,1.8,0,3.7,0,5.5,0,5.4.2,10.8.3,16.2,0,.5,0,.9,0,1.5H.3c-.1-22.1-.1-44.2-.1-66.5Z"/>
  <path class="st0" d="M.2,156.9c55.3-.1,110.5-.1,166.1-.1-1.4,1.7-2.7,3.2-3.9,4.6-3.8,4.4-7.6,8.8-11.5,13.1-2.3,2.6-4.7,5.2-7,7.8-3,3.4-6,6.9-9,10.4-1.5,1.7-3,3.4-4.5,5.1-3.2,3.7-6.4,7.3-9.6,11-2.3,2.6-4.7,5.2-7,7.8-1.6,1.8-3.2,3.7-4.8,5.6-.6.8-1.3,1.2-2.4,1.2-35.4,0-70.7,0-106.2,0-.1-22.1-.1-44.2-.1-66.5Z"/>
  <path class="st0" d="M.6,396.1c0,22.1,0,44.2,0,66.5-.2,0-.5,0-.5-.2,0-.3,0-.6,0-1v-65.2c.1-.1.2-.1.5-.1Z"/>
  <path class="st0" d="M327.7,201.1c.2.3.5.8.5,1.3,0,7.5,0,15,0,22.5,0,23.7,0,47.4,0,71.1,0,.5,0,1.1-.2,1.7-.2-.3-.3-.8-.3-1.2,0-31.7,0-63.5,0-95.4Z"/>
  <path class="st0" d="M328.3,367.8c.2.4.5.9.5,1.4,0,15,0,30.1,0,45.1s0,17.8,0,26.6c0,.5,0,1-.2,1.6-.2-.3-.3-.8-.3-1.2,0-24.5,0-48.9,0-73.5Z"/>
  <path class="st0" d="M327.4,128.4c.2.4.5.9.5,1.4,0,16,0,31.9,0,47.9s0,14.1,0,21.1c0,.5,0,1-.2,1.6-.2-.3-.3-.8-.3-1.2,0-23.5,0-47.1,0-70.8Z"/>
  <path class="st0" d="M327.2,56.3c.2.4.5.9.5,1.4,0,16.1,0,32.3,0,48.4s0,13.3,0,20c0,.5,0,1-.2,1.6-.2-.3-.3-.8-.3-1.2,0-23.4,0-46.7,0-70.2Z"/>
  <path class="st0" d="M328,298.4c.2.4.5.9.5,1.4,0,17.2,0,34.3,0,51.5s0,9.5,0,14.2c0,.5,0,1-.2,1.6-.2-.3-.3-.8-.3-1.2,0-22.4,0-44.9,0-67.4Z"/>
  <path class="st0" d="M327.3,39.9c.1,4.7.1,9.4.1,14.1,0,.5,0,1-.2,1.6-.2-.2-.3-.5-.3-.8,0-4.7,0-9.3,0-14,0-.3.2-.6.4-.9Z"/>
  <path class="st0" d="M411.7,40c0,0-.1,0-.2-.1,0,0,.1,0,.2.1Z"/>
</svg>