<?xml version="1.0" encoding="UTF-8"?>
<svg id="Layer_1" xmlns="http://www.w3.org/2000/svg" version="1.1" viewBox="0 0 500 782">
  <!-- Generator: Adobe Illustrator 29.5.0, SVG Export Plug-In . SVG Version: 2.1.0 Build 137)  -->
  <defs>
    <style>
      .st0 {
        fill: #bf6428;
      }

      .st1 {
        fill: #fff;
      }

      .st2 {
        fill: #030303;
      }

      .st3 {
        fill: #020100;
      }
    </style>
  </defs>
  <path class="st2" d="M449,464.5c-10.9,19.9-21.8,39.3-32.7,58.7-7.8,13.9-15.5,27.8-23.3,41.6-9.5,16.8-19.1,33.5-28.6,50.3-7.5,13.1-14.9,26.3-22.3,39.5-9.6,16.9-19.2,33.8-28.8,50.7-9.2,16.4-18.3,32.8-27.5,49.2-3,5.3-5.5,11-9.1,15.9-4.7,6.4-11,11.1-19.6,12.2-2.5.4-4.9.4-7.7.4-4.8-1.8-10-2.7-13.2-5.7-4.8-4.5-8.9-10.1-12.2-15.8-15.9-27.2-31.4-54.6-47.1-81.9-13.9-24.1-27.9-48.1-41.8-72.2-14.3-24.6-28.6-49.1-42.8-73.8-11.9-20.7-23.8-41.5-35.4-62.4-1.7-3-2.1-6.7-3.5-10.2-.4-1.8-.4-3.6-.4-5.7,1.1-3.7,1.8-7.1,3.4-10.1,5.4-10.6,14.1-16.3,26.1-16.3,112.5,0,224.9,0,337.4,0,13.6,0,25.8,8.6,28.8,21.9.4,4.5.4,8.8.4,13.7M372.6,559.1c17.9-31.7,35.8-63.3,53.8-95,4.9-8.6,1.7-14.5-8.1-14.6-111.3,0-222.6,0-333.9,0-9.7,0-13,6.1-8.2,14.5,31.9,55.3,63.7,110.6,95.6,165.8,24.3,42.2,48.6,84.4,73,126.5,4.5,7.8,11.6,8.1,15.8.6,37.2-65.8,74.4-131.6,112.1-198Z"/>
  <path class="st3" d="M53,323.4c6.3-19.2,18.1-35.2,27.5-52.4,6.1-11.1,12.3-22.2,18.5-33.2,9.4-16.6,19-33.2,28.4-49.8,7.9-13.8,15.6-27.7,23.4-41.6,9.6-16.9,19.2-33.8,28.8-50.7,9.2-16.2,18.1-32.6,27.4-48.7,7-12.1,14-24.2,21.6-35.9,3.8-5.9,10.1-8.6,17.2-9.7,2.2-.4,4.2-.4,6.7-.4,3.2.9,6,1.9,8.8,2.8,8.6,2.7,12.5,10,16.6,17,14.5,25,28.7,50.2,43.1,75.3,15.3,26.6,30.6,53.2,46,79.8,14.2,24.5,28.5,48.9,42.7,73.4,12.3,21.4,24.5,43,36.6,64.6,1,1.8,1.3,3.9,2.3,6,.4,4.1.4,8.2.4,12.7-2.9,7.5-6,14.6-13.2,18-4.4,2.1-9.3,4.2-14,4.2-113.5.2-226.9.2-340.4.1-14.6,0-26.6-11.2-28-25.8-.4-1.8-.4-3.6-.4-5.7M398.5,334.3c6.5,0,13,0,19.5,0,3.8,0,7.3-.2,9.6-4,2.4-4,.7-7.2-1.3-10.7-41.3-71.6-82.6-143.3-123.9-215-14.9-25.8-29.7-51.6-44.6-77.4-3.2-5.5-8.2-7.3-12.3-4.1-1.9,1.5-3.3,3.7-4.5,5.9-42.1,74.3-84.2,148.5-126.2,222.8-13,23-26.1,46-39.1,69.1-3.1,5.5-1.5,11.3,3.6,12.8,2,.6,4.3.5,6.4.5,104,0,207.9,0,312.9,0Z"/>
  <path class="st1" d="M372.4,559.4c-37.4,66.1-74.6,131.9-111.9,197.7-4.2,7.5-11.3,7.1-15.8-.6-24.3-42.2-48.6-84.3-73-126.5-31.9-55.3-63.7-110.6-95.6-165.8-4.9-8.4-1.5-14.5,8.2-14.5,111.3,0,222.6,0,333.9,0,9.7,0,13,5.9,8.1,14.6-17.9,31.7-35.8,63.3-54,95.3Z"/>
  <path class="st0" d="M398,334.3c-104.5,0-208.4,0-312.4,0-2.2,0-4.4.1-6.4-.5-5.1-1.5-6.7-7.4-3.6-12.8,13-23,26.1-46.1,39.1-69.1,42.1-74.3,84.1-148.6,126.2-222.8,1.2-2.1,2.6-4.4,4.5-5.9,4.1-3.2,9.2-1.4,12.3,4.1,14.9,25.8,29.8,51.6,44.6,77.4,41.3,71.7,82.6,143.3,123.9,215,2,3.5,3.7,6.7,1.3,10.7-2.3,3.7-5.8,4-9.6,4-6.5,0-13,0-20,0Z"/>
</svg>