<?xml version="1.0" encoding="UTF-8"?>
<svg id="Layer_1" xmlns="http://www.w3.org/2000/svg" version="1.1" viewBox="0 0 500 500">
  <!-- Generator: Adobe Illustrator 29.5.0, SVG Export Plug-In . SVG Version: 2.1.0 Build 137)  -->
  <defs>
    <style>
      .st0 {
        fill: #f5cf87;
      }

      .st1 {
        fill: #ea2732;
      }

      .st2 {
        fill: #fff;
      }

      .st3 {
        fill: #f8e7e8;
      }

      .st4 {
        fill: #edb9b9;
      }

      .st5 {
        fill: #f6e5e6;
      }

      .st6 {
        fill: #c69a9a;
      }
    </style>
  </defs>
  <path class="st4" d="M0,258.9v-18.1c.1-1.3.2-2.4.3-3.6.2-2.2.3-4.4.5-6.5.2-2.8.4-5.7.7-8.5.4-3.5.9-7,1.5-10.5,1.1-6,2.1-12.1,3.4-18.1,2.3-10.7,5.6-21.1,9.4-31.4,2.5-6.7,5.3-13.4,8.4-19.8,1.9-3.9,3.8-7.9,6-11.7,3-5.3,6-10.6,9.3-15.7,4.3-7,9.1-13.7,14.3-20.1,4.4-5.4,8.8-10.7,13.5-15.7,5.4-5.8,10.9-11.4,17-16.5,4.7-4,9.5-8,14.3-11.8,5.8-4.5,11.8-8.7,18.1-12.6,5-3.1,10.1-6,15.2-8.9,4.2-2.3,8.6-4.4,13-6.5,3-1.5,6.2-2.8,9.3-4.1,8.2-3.5,16.6-6.5,25.2-8.9,6.3-1.8,12.7-3.4,19.1-4.8,8.1-1.8,16.2-3.1,24.5-3.9,4.9-.4,9.7-.8,14.7-1.2,1.3-.1,2.5.3,3.6-.3h18.1c1.3.1,2.4.2,3.6.2,1.5.1,2.8.2,4.2.3,2,0,4.1.2,6.1.4,4.8.5,9.6,1.2,14.4,1.8,6.5.9,13,2.2,19.4,3.7,9.9,2.3,19.6,5.2,29.2,8.7,6.9,2.5,13.7,5.3,20.3,8.5,4.3,2.1,8.6,4.3,12.8,6.5,6.4,3.4,12.6,7.1,18.6,11.1,7.2,4.8,14.1,9.9,20.8,15.4,5.4,4.5,10.7,9.1,15.7,14,4,4,7.9,8.1,11.8,12.3,3,3.3,5.9,6.6,8.7,10,5.7,7.1,11.2,14.4,15.9,22.2,3.5,5.8,7.1,11.5,10.3,17.5,4.1,7.5,7.7,15.3,10.9,23.2,3.9,9.6,7.2,19.3,9.8,29.3,2.8,10.7,5.1,21.5,6.4,32.6.7,5.7,1.4,11.3,1.5,17.2,0,1,.2,1.8.3,2.7v25.3c-.1,1.1-.2,2-.2,3-.2,3-.4,5.9-.6,8.8-.1,1.4-.5,2.9-.6,4.3-.3,2.5-.3,5-.7,7.4-1.1,7.4-2.5,14.8-4.2,22-2.3,9.5-5.1,18.8-8.4,27.9-3,8.2-6.4,16.1-10.2,24-1.7,3.6-3.6,7.1-5.5,10.5-3.2,5.5-6.4,11-9.8,16.3-4.8,7.5-10.1,14.7-15.9,21.6-3.4,4.1-6.8,8.1-10.5,12-5.5,5.9-11.2,11.6-17.3,16.8-4.2,3.6-8.4,7.1-12.7,10.5-6.6,5.2-13.5,10.1-20.7,14.4-5.1,3.1-10.3,6.1-15.6,8.9-9.1,4.9-18.5,9.1-28.1,12.7-7.6,2.8-15.3,5.4-23.2,7.5-11.2,3-22.5,5.3-34.1,6.6-5.3.6-10.5,1-15.9,1.5h-2.8c-1.3.1-2.5-.3-3.6.3h-17.8c-1.4-.1-2.6-.2-3.9-.2h-2.8c-3.5-.3-6.9-.5-10.2-.9-4.2-.5-8.4-.9-12.5-1.6-6.8-1.2-13.6-2.5-20.3-4-9.1-2.1-18.1-4.9-26.9-8.1-8.5-3.1-16.7-6.6-24.8-10.6-3.5-1.7-6.9-3.5-10.2-5.4-4.8-2.7-9.6-5.5-14.2-8.4-6.2-3.9-12.1-8.1-17.9-12.6-7.1-5.4-13.8-11.2-20.2-17.4-5.4-5.2-10.6-10.6-15.5-16.3-4.7-5.5-9.2-11.1-13.5-16.9-7.6-10.4-14.4-21.3-20.3-32.7-3.4-6.6-6.4-13.3-9.3-20.1-5.1-12.1-9-24.6-11.9-37.4-2.2-9.4-3.9-18.9-4.9-28.5-.5-5-1.1-9.9-1.2-14.9,0-.3-.1-.7-.2-1.2-.2-1.3.3-2.5-.4-3.6M346.2,299.8c.9-.7,1.8-1.3,2.5-2,4.3-4.2,8.6-8.4,13-12.6,4.2-4.1,8.5-8.3,12.7-12.4,4.3-4.2,8.6-8.4,12.8-12.5,4.3-4.2,8.6-8.3,12.8-12.5,3.1-3,6.2-6,9.2-9.2,1.1-1.1,2.1-2.5,2.8-3.9,2.1-3.6,2.6-7.5,2.2-11.6-.2-1.8-.4-3.6-1.5-5.4,0-.2,0-.4.2-.6,1.6-3.7,1.8-7.6,1-11.5-.8-4-2.6-7.6-5.7-10.4-3-2.8-6.6-4.5-10.6-5.4-1.9-.4-3.8-.6-5.7-.9-3.2-.5-6.5-.9-9.7-1.4s-6.5-.9-9.7-1.4c-3.3-.5-6.7-1-10-1.4-3.3-.5-6.6-.9-9.9-1.4-3.4-.5-6.9-1-10.3-1.5-3.1-.4-6.3-.9-9.4-1.3-3.2-.5-6.5-1-9.7-1.4-4.4-.6-8.7-1.3-13.1-1.8-1.1-.1-1.6-.7-2-1.6-2.7-5.5-5.3-10.9-8.1-16.4-6.8-13.8-13.7-27.6-20.5-41.4-3.4-6.8-6.9-13.5-10.1-20.3-1.9-4-4.5-7.1-8.1-9.5-4.2-2.7-9-3.8-13.9-3-7.5,1.1-12.9,5.3-16.3,12-5.4,10.8-10.8,21.7-16.2,32.6-3.7,7.5-7.4,14.9-11.2,22.4-1.4,2.7-2.7,5.5-4.1,8.3-2.6,5.3-5.2,10.6-7.8,15.8-.3.6-.7.9-1.4,1-1.1,0-2.2.3-3.2.5-3.2.5-6.5.9-9.7,1.4-3.3.5-6.6.9-9.9,1.4-2.5.4-5,.7-7.5,1.1-2.7.4-5.3.7-8,1.1-3.3.5-6.6.9-9.9,1.4-3.2.5-6.5.9-9.7,1.4-3.4.5-6.9,1-10.3,1.5-3.3.5-6.6.9-9.9,1.4-3.2.5-6.5,1-9.7,1.4-3,.4-5.8,1.3-8.2,3.2-7,5.3-9.5,12.5-8.4,21.1.2,1.4.7,2.8,1,4.5-.8,2.6-1.4,5.3-1.3,8.1,0,5,1.8,9.2,5.3,12.7,3.6,3.6,7.2,7,10.8,10.6,4.4,4.3,8.8,8.6,13.2,12.9,4.2,4.1,8.3,8.1,12.5,12.2,6.2,6.1,12.4,12.2,18.6,18.2,2.5,2.5,5.1,4.9,7.7,7.6v1.2c-.7,3.8-1.3,7.7-2,11.5-.7,4-1.4,8.1-2.1,12.1-.7,4.1-1.4,8.2-2.1,12.3-.4,2.6-.9,5.1-1.3,7.7-.9,5.3-1.8,10.5-2.7,15.8-.8,4.7-1.6,9.3-2.4,14-.1.8-.2,1.6-.3,2.5-.2,2.8.4,5.6,1.1,8.5-.2,1.2-.4,2.5-.7,3.7-.7,3.9-.6,7.7.8,11.5,1.1,3.1,2.9,5.8,5.3,8,2.6,2.4,5.8,3.8,9.2,4.7,1,.3,2.1.5,3.2.6,3.3.1,6.5-.5,9.5-2,3.4-1.7,6.8-3.5,10.1-5.2,5.1-2.6,10.2-5.3,15.2-7.9,5.5-2.9,11.1-5.8,16.6-8.6,5.1-2.6,10.2-5.3,15.2-7.9,7.3-3.8,14.6-7.5,21.9-11.3,1-.5,1.8-.6,2.9,0,4.9,2.7,9.8,5.3,14.7,7.8,6.5,3.4,13.1,6.9,19.6,10.3,5.6,2.9,11.3,5.9,16.9,8.8,2.3,1.2,4.6,2.4,6.9,3.6,6.8,3.5,13.6,7.1,20.3,10.6,2.5,1.3,5.2,1.8,8,1.9,3.9,0,7.6-1.1,10.9-3.2,3.4-2.1,5.8-5,7.4-8.6,1.8-3.9,2.3-8,1.5-12.2-.3-1.6-.6-3.1-.9-4.9,1.2-3.5,1.6-7,.9-10.6-.7-3.8-1.3-7.6-1.9-11.4-.8-5-1.5-10.1-2.3-15.1-.9-5.6-1.8-11.3-2.7-16.9-.7-4.1-1.3-8.3-2-12.5-.7-4.3-1.4-8.6-2.1-12.9-.4-2.2-.8-4.5-1-6.8l.8-.2Z"/>
  <path class="st3" d="M.4,262.4c0,.1,0,.2-.3.2v-3.6c.7.9.2,2.1.4,3.4h-.1Z"/>
  <path class="st5" d="M237.7.1c-.1,0-.1-.2-.1-.2h3.6c-1,.6-2.2.2-3.5.3h0Z"/>
  <path class="st3" d="M0,237.4c0-.1.1-.1.3-.1,0,1.1,0,2.2-.2,3.3v-3.2H0Z"/>
  <path class="st5" d="M262.7,0c.1,0,.1.1.2.2-1.1,0-2.2,0-3.4-.1h3.2,0Z"/>
  <path class="st0" d="M87.2,218.2c-.3-1.4-.8-2.8-1-4.2-1.1-8.5,1.4-15.7,8.4-21.1,2.4-1.8,5.2-2.8,8.2-3.2,3.2-.4,6.5-.9,9.7-1.4,3.3-.5,6.6-.9,9.9-1.4,3.4-.5,6.9-1,10.3-1.5,3.2-.5,6.5-.9,9.7-1.4,3.3-.5,6.6-1,9.9-1.4,2.7-.4,5.3-.7,8-1.1,2.5-.4,5-.7,7.5-1.1,3.3-.5,6.6-.9,9.9-1.4,3.2-.5,6.5-.9,9.7-1.4,1.1-.2,2.1-.4,3.2-.5.7,0,1.1-.4,1.4-1,2.6-5.3,5.2-10.6,7.8-15.8,1.4-2.8,2.7-5.5,4.1-8.3,3.7-7.5,7.5-14.9,11.2-22.4,5.4-10.9,10.7-21.8,16.2-32.6,3.4-6.7,8.8-10.9,16.3-12,4.9-.7,9.7.3,13.9,3,3.6,2.3,6.2,5.5,8.1,9.5,3.2,6.8,6.7,13.5,10.1,20.3,6.9,13.8,13.7,27.6,20.5,41.4,2.7,5.5,5.4,10.9,8.1,16.4.4.9.9,1.4,2,1.6,4.4.5,8.7,1.2,13.1,1.8,3.2.5,6.5,1,9.7,1.4,3.1.5,6.3.9,9.4,1.3,3.4.5,6.9,1,10.3,1.5,3.3.5,6.6.9,9.9,1.4s6.7,1,10,1.4c3.2.5,6.5.9,9.7,1.4s6.5.9,9.7,1.4c1.9.3,3.8.5,5.7.9,4,.8,7.6,2.6,10.6,5.4,3,2.8,4.9,6.3,5.7,10.4.8,3.9.5,7.8-1,11.5,0,.2-.1.4-.2.8-1.3,2.7-3,4.7-5,6.6-2.7,2.5-5.3,5.1-8,7.7-4.4,4.2-8.7,8.5-13.1,12.7-4.2,4.1-8.4,8.2-12.6,12.3-4.4,4.2-8.7,8.5-13.1,12.8-3.5,3.4-6.9,6.8-10.3,10.2-.4.4-.8.7-1.1,1.1-1.7,1.6-3.3,3.2-5,4.7-.5.4-.6.9-.5,1.5.3,1.5.5,3.1.8,4.6.4,2.6.7,5.1,1.1,7.7.4,2.2.8,4.5,1.2,6.7.7,4.3,1.4,8.6,2.1,12.9.7,4.1,1.3,8.3,2,12.5.9,5.6,1.8,11.3,2.7,16.9.8,5,1.5,10.1,2.3,15.1.6,3.8,1.2,7.6,1.9,11.4.6,3.6.3,7.1-1,10.8-1.3,3-2.9,5.5-5.2,7.6-3.7,3.6-8.2,5.2-13.3,5.5-3.1.2-6.1-.7-8.9-2-2.5-1.2-4.9-2.5-7.3-3.8-6.3-3.3-12.5-6.6-18.8-9.9-6.5-3.4-13-6.8-19.5-10.2-4-2.1-8-4.2-12-6.3-6.5-3.4-13-6.8-19.5-10.3-1.8-1-3.1-1.1-5,0-5,2.8-10.2,5.4-15.3,8.1-8.1,4.2-16.3,8.4-24.4,12.7-5.1,2.6-10.1,5.3-15.2,7.9-7.6,3.9-15.1,7.9-22.8,11.7-4.5,2.2-9.1,3-14,1.3-4.4-1.5-8.3-3.7-10.9-7.6-1-1.5-1.7-3.1-2.6-4.6-.8-2.7-1.5-5.4-1.2-8.3,0-.8.2-1.7.3-2.5.8-4.7,1.6-9.3,2.4-14,.9-5.3,1.8-10.5,2.7-15.8.4-2.6.9-5.1,1.3-7.7.7-4.1,1.4-8.2,2.1-12.3.7-4,1.4-8.1,2.1-12.1.7-3.8,1.3-7.7,2-11.5,0-.4,0-.8.1-1.5.7-4,1.4-7.8,2.1-11.6.2-1.1,0-1.9-.9-2.7-2.2-2-4.4-4.1-6.5-6.2-3.8-3.7-7.7-7.5-11.5-11.2-4.4-4.3-8.9-8.6-13.3-13-4.1-4-8.3-8.1-12.4-12.1-5.1-4.9-10.1-9.9-15.2-14.8-1.3-1.3-2.6-2.7-4-3.9-1.9-1.8-3.5-3.7-4.6-6,0-.3-.4-.5-.6-.7h-.3Z"/>
  <path class="st6" d="M142.4,386.2c.9,1.4,1.7,3.1,2.7,4.5,2.7,3.9,6.5,6.1,10.9,7.6,4.9,1.6,9.6.9,14-1.3,7.6-3.8,15.2-7.8,22.8-11.7,5.1-2.6,10.2-5.3,15.2-7.9,8.1-4.2,16.3-8.4,24.4-12.7,5.1-2.7,10.3-5.2,15.3-8.1,1.8-1,3.2-.9,5,0,6.4,3.5,13,6.9,19.5,10.3,4,2.1,8,4.2,12,6.3,6.5,3.4,13,6.8,19.5,10.2,6.3,3.3,12.5,6.6,18.8,9.9,2.4,1.3,4.9,2.6,7.3,3.8,2.8,1.4,5.8,2.2,8.9,2,5-.3,9.5-1.9,13.3-5.5,2.2-2.1,3.9-4.6,5.1-7.5.4,1.5.7,3,1,4.6.8,4.2.3,8.3-1.5,12.2-1.6,3.6-4.1,6.5-7.4,8.6s-7,3.2-10.9,3.2-5.5-.6-8-1.9c-6.8-3.5-13.6-7.1-20.3-10.6-2.3-1.2-4.6-2.4-6.9-3.6-5.6-2.9-11.3-5.9-16.9-8.8-6.6-3.4-13.1-6.9-19.6-10.3-4.9-2.6-9.9-5.2-14.7-7.8-1-.6-1.9-.5-2.9,0-7.3,3.8-14.6,7.6-21.9,11.3-5.1,2.6-10.2,5.3-15.2,7.9-5.5,2.9-11.1,5.8-16.6,8.6-5.1,2.6-10.2,5.3-15.2,7.9-3.4,1.7-6.7,3.5-10.1,5.2-3,1.5-6.2,2.1-9.5,2-1.1,0-2.2-.3-3.2-.6-3.4-.9-6.6-2.3-9.2-4.7-2.4-2.2-4.1-4.9-5.3-8-1.4-3.8-1.5-7.6-.8-11.5.2-1.2.4-2.4.7-3.8l-.3.2Z"/>
  <path class="st6" d="M87.2,218.4c.2.1.5.3.6.6,1.1,2.3,2.8,4.3,4.6,6,1.4,1.3,2.7,2.6,4,3.9,5.1,4.9,10.1,9.9,15.2,14.8,4.1,4,8.3,8.1,12.4,12.1,4.4,4.3,8.9,8.6,13.3,13,3.8,3.7,7.7,7.5,11.5,11.2,2.2,2.1,4.3,4.2,6.5,6.2.9.8,1.1,1.6.9,2.7-.7,3.8-1.4,7.6-2.1,11.4-2.6-2.3-5.2-4.7-7.8-7.2-6.2-6.1-12.4-12.2-18.6-18.2-4.2-4.1-8.3-8.1-12.5-12.2-4.4-4.3-8.8-8.6-13.2-12.9-3.6-3.5-7.3-7-10.8-10.6-3.5-3.5-5.2-7.8-5.3-12.7,0-2.8.5-5.5,1.3-8.2h0Z"/>
  <path class="st6" d="M346.1,299.8c-.5-2.5-.8-5.1-1.2-7.7-.2-1.5-.5-3.1-.8-4.6-.1-.6,0-1.1.5-1.5,1.7-1.6,3.3-3.2,5-4.7.4-.4.8-.7,1.1-1.1,3.4-3.4,6.9-6.8,10.3-10.2,4.3-4.3,8.7-8.5,13.1-12.8,4.2-4.1,8.4-8.2,12.6-12.3,4.4-4.2,8.7-8.5,13.1-12.7,2.6-2.6,5.3-5.2,8-7.7,2-1.9,3.7-3.9,5-6.5,1.2,1.5,1.4,3.3,1.6,5.1.4,4.1-.2,8-2.2,11.6-.8,1.4-1.7,2.7-2.8,3.9-3,3.1-6.1,6.1-9.2,9.2-4.3,4.2-8.6,8.4-12.8,12.5-4.3,4.2-8.6,8.4-12.8,12.5-4.2,4.1-8.5,8.3-12.7,12.4-4.3,4.2-8.6,8.4-13,12.6-.8.7-1.7,1.4-2.6,2h-.2Z"/>
  <g>
    <circle class="st1" cx="427.4" cy="72.6" r="72.6"/>
    <path class="st2" d="M418.4,49.9h17.9v77.6h-17.9V49.9ZM418.5,21h17.9v17.7h-17.9v-17.7Z"/>
  </g>
</svg>