<?xml version="1.0" encoding="UTF-8"?>
<svg id="Layer_1" xmlns="http://www.w3.org/2000/svg" version="1.1" viewBox="0 0 500 500">
  <!-- Generator: Adobe Illustrator 29.5.0, SVG Export Plug-In . SVG Version: 2.1.0 Build 137)  -->
  <defs>
    <style>
      .st0 {
        fill: #fff;
      }

      .st1 {
        fill: #454444;
      }

      .st2 {
        fill: #444;
      }

      .st3 {
        fill: #eeb9b9;
      }
    </style>
  </defs>
  <path class="st3" d="M262,500.1c-7.5,0-15,0-22.9-.1-.5-.1-.6-.2-.7-.2-2.6-.2-5.1-.3-7.7-.5h-1.2c-2.2-.2-4.4-.5-6.6-.7-1.7-.2-3.3-.3-5-.5-3.2-.5-6.5-.9-9.7-1.5-5.4-1-10.8-2-16.1-3.3-9.6-2.2-18.9-5.1-28.1-8.5-7.4-2.7-14.7-5.8-21.9-9.3-4.8-2.3-9.6-4.8-14.2-7.4-5.3-3-10.4-6.1-15.5-9.5-8.1-5.4-15.9-11.2-23.3-17.5-3.5-3-7-6-10.3-9.1-6.8-6.5-13.4-13.3-19.5-20.6-2.7-3.3-5.5-6.7-8.1-10.1-4.8-6.2-9.3-12.7-13.4-19.4-2.9-4.8-5.8-9.7-8.4-14.6-4.6-8.7-8.8-17.7-12.3-26.9-3.5-9-6.4-18.2-8.9-27.6-1.6-6.3-3-12.6-4.1-18.9-.5-2.9-.9-5.9-1.3-8.8-.3-2.5-.6-5-.9-7.4-.3-2.7-.4-5.4-.8-8.1-.3-2.6-.4-5.3-.4-7.9s0-.6-.1-.8c-.1-.2-.4-.3-.6-.5v-.8c.4-.9.4-1.5,0-2.1C0,252.8,0,248,.1,243c.3-1.7.6-3.1.7-4.4.1-2.4.2-4.8.4-7.3.3-3.1.5-6.2.9-9.3.5-3.6.8-7.3,1.4-10.9,1-6,2.1-12,3.5-18,2.4-10.1,5.3-20,8.9-29.7,2.3-6.2,4.8-12.3,7.6-18.3,3.6-7.7,7.5-15.2,11.9-22.5,4.1-6.8,8.4-13.4,13.1-19.8,3.5-4.7,7-9.3,10.8-13.7,2.9-3.4,5.8-6.8,8.9-10,4.7-5,9.5-9.9,14.7-14.4,2.7-2.3,5.3-4.8,8-7,4.8-4,9.8-7.8,14.9-11.4,8.7-6.2,17.7-11.8,27.1-16.8,6-3.2,12.1-6.2,18.4-8.9,9.3-4,18.7-7.5,28.4-10.3,11.1-3.2,22.3-5.7,33.7-7.4,5.3-.8,10.6-1.3,15.9-1.9,3.4-.3,6.8-.4,10.4-.5h5.4c.6,0,1.1,0,1.6-.4,2.4,0,4.7,0,7.5,0,.7.2,1,.3,1.3.3h6.4c3.4.2,6.6.3,9.8.5h.4c2.2.2,4.4.5,6.6.7,1.7.2,3.5.3,5.2.6,2.3.3,4.5.7,6.8,1.1,5.6.8,11.2,2,16.8,3.3,10.1,2.4,20,5.3,29.7,8.9,8.1,3,16.1,6.4,23.9,10.3,5.9,2.9,11.6,6,17.2,9.4,7.4,4.4,14.6,9.2,21.5,14.4,3.7,2.7,7.2,5.7,10.8,8.5,3.7,3,7.2,6.1,10.6,9.4.2.2.5.5.8.7,3.3,3.3,6.7,6.4,10,9.8,3.1,3.2,6,6.6,8.9,10,2.4,2.8,4.8,5.6,7,8.5,5.3,6.8,10.3,13.8,14.8,21.2,3,4.8,5.9,9.6,8.5,14.6,4.2,7.9,8.1,16,11.4,24.4,4,10,7.3,20.1,10.1,30.5,1.4,5.3,2.6,10.7,3.6,16.1.8,4,1.5,8.1,2,12.1.4,3,.6,6.1,1,9.1.5,3.7.8,7.3.8,11v3.8c0,.5.2.9.4,1.4,0,6.4,0,12.8-.1,19.6-.2.7-.3,1.2-.3,1.6,0,3.5,0,6.9-.4,10.4-.4,3.3-.5,6.6-1,9.9-.8,5.6-1.8,11.2-2.8,16.8-1.7,9.2-4,18.2-6.9,27-1.2,3.8-2.6,7.6-3.9,11.4-2.4,6.7-5.2,13.3-8.3,19.8-4.1,8.7-8.7,17.2-13.9,25.4-3.4,5.4-6.9,10.7-10.7,15.9-3.9,5.3-8,10.3-12.2,15.3-3.5,4.1-7.3,8-11,12-1.8,1.9-3.8,3.6-5.7,5.5-3.1,3.1-6.3,6-9.7,8.8-3.6,3-7.1,6-10.8,8.8-5.8,4.5-11.9,8.7-18.1,12.7-5.2,3.3-10.5,6.5-16,9.4-9.1,4.8-18.4,9.2-28,12.9-6,2.3-12,4.4-18.1,6.2-9.1,2.7-18.4,5-27.7,6.6-4.5.8-9,1.5-13.6,2-1.4.1-2.9.3-4.3.5-2.3.2-4.7.5-7,.7s-4.6.3-6.8.5c-.3,0-.5.2-.7.3M144.8,110.1c-5.4,7.8-9.6,16.1-12.7,25-3.2,9.3-5,18.8-5.1,28.6,0,7.7.7,15.4,2.1,23,1.6,9,3.7,18,6,26.9,1.3,5,2.6,9.9,3.8,15,2,8.5,3,17.2,3.9,26,.2,2.6.5,5.1.8,7.7.3,2.1.7,4.1,1.7,6,.9,1.8,2.4,3.1,4.4,3.5,1.2.2,2.5.4,3.7.3,1.9-.2,3.9-.5,5.8-.8,1-.1,1.9-.3,2.9-.4,5.1-.2,10.1-.4,15.2-.6,6.2-.2,12.4-.4,18.6-.6h1.9c3.8-.2,7.6-.4,11.5,0,1,.1,2.1.1,3.1,0,1.7-.1,3.5-.3,5.1-.9,2.1-.8,3.4-2.3,3.9-4.5.4-1.8.4-3.6,0-5.4-.4-2.1-.9-4.2-1.3-6.3-.3-1.8-.7-3.7-.5-5.6.4-4,.7-8,1.2-12,.5-3.9,1.1-7.7,1.8-11.5,1.1-5.3,3-10.3,5.4-15.1,2.3-4.7,4.6-9.3,7-14,3.1-6.1,6.2-12.1,8.5-18.6,3.7-10.4,5.9-21.2,5.9-32.2s-.3-8.2-.7-12.3c-.5-4.1-1-8.1-2.1-12.1-4.7-16.5-14.8-28.4-30.6-35.2-5.7-2.5-11.8-3.7-18-4.1-5.7-.4-11.2,0-16.7,1.7-7,2.1-13.3,5.6-19.1,10.1-6.7,5.2-12.3,11.4-17.3,18.6M330.1,327.6c3.6-6.3,7.7-12.2,12-18,4.6-6.2,9-12.6,13.1-19.1,4-6.3,7.7-12.9,10.9-19.7,5.3-11.4,7.7-23.4,7.7-36s-.3-7.9-.8-11.9c-.9-7.5-2.7-14.7-5.6-21.7-3-7.3-6.9-14.1-12.4-19.9-5.6-6-12.3-10.1-20.2-12.4-3.5-1-7-1.6-10.6-2-5-.5-9.9-.2-14.7.8-14,2.9-25,10.4-33,22.2-5.3,7.8-9.3,16.3-12,25.3-1.9,6.5-3,13.1-3.5,19.9-.4,5.8-.3,11.5.3,17.3.7,7.4,1.7,14.8,2.2,22.2.3,5.3.1,10.6-.9,15.8-1.2,6-2.8,11.9-4.5,17.8-.8,2.6-1.9,5-3.4,7.3-1,1.4-1.9,2.9-2.8,4.4-.8,1.3-1.4,2.7-1.7,4.2-.5,2.3.1,4.2,1.9,5.6,1,.8,2.2,1.5,3.4,2,1.7.7,3.4,1.2,5.1,1.8,1.4.5,2.8.8,4.2,1.4,10.6,4.2,21.2,8.3,31.8,12.5,2.8,1.1,5.5,2.3,8.1,3.8,1.5.9,3.1,1.6,4.7,2.1,2.8.9,5.4.3,7.4-1.9.8-.9,1.6-1.9,2.3-3,.9-1.3,1.6-2.8,2.3-4.2,2.9-5.5,5.8-10.9,8.8-16.7M143,319.7c1.7,6.2,4.3,12,8.1,17.3,4.2,5.8,9.5,10.3,16.3,12.9,6.6,2.5,13.4,3,20.3,2,10.1-1.5,18.3-6.4,24.4-14.6,4.9-6.6,7.9-14.2,9.5-22.2.3-1.4.4-2.9.3-4.3-.1-4.4-.2-8.8-.3-13.1,0-2.6,0-5.3-.1-7.9,0-.5-.1-.9-.2-1.5h-1.7c-5.9.2-11.8.4-17.7.6-9.7.4-19.3.7-29,1.1-5.4.2-10.8.4-16.2.6-4,.1-8.1.3-12.1.5-.8,0-1.7,0-2.5.4,0,.4-.1.8-.1,1.2,0,6.3,0,12.5.1,18.8,0,2.8-.1,5.6,1,8.6M301.4,393.6c3.3-6.3,6.5-14.6,6.7-17.5-23.5-9.2-47-18.5-70.5-27.8-.2,0-.5,0-.7-.1-.2.1-.3.2-.4.3-.3.4-.5.8-.7,1.3-4.1,8-7.1,16.3-8.6,25.1-.9,5.5-1.1,11.1-.2,16.6,1.2,6.6,4.1,12.4,8.9,17.1,2.3,2.3,5,4.2,7.9,5.8,6,3.3,12.3,5.4,19.2,5.9,7.7.5,14.7-1.5,21.1-5.8,3.5-2.4,6.6-5.3,9.3-8.6,3.1-3.7,5.7-7.7,8.1-12.2h-.1Z"/>
  <path class="st0" d="M0,257.4c.5.4.5,1,0,1.8v-1.8Z"/>
  <path class="st2" d="M144.8,110c5-7,10.6-13.3,17.3-18.5,5.8-4.5,12-8,19.1-10.1,5.5-1.6,11-2.1,16.7-1.7,6.2.4,12.3,1.6,18,4.1,15.9,6.8,26,18.7,30.6,35.2,1.1,4,1.7,8,2.1,12.1.5,4.1.8,8.2.7,12.3,0,11.1-2.2,21.8-5.9,32.2-2.3,6.4-5.3,12.5-8.5,18.6-2.4,4.6-4.8,9.3-7,14-2.3,4.8-4.3,9.8-5.4,15.1-.8,3.8-1.4,7.7-1.8,11.5-.5,4-.8,8-1.2,12-.2,1.9.1,3.7.5,5.6.4,2.1.9,4.2,1.3,6.3.3,1.8.4,3.6,0,5.4-.5,2.2-1.8,3.7-3.9,4.5-1.6.7-3.4.8-5.1.9h-3.1c-3.8-.4-7.6-.2-11.5,0h-1.9c-6.2.2-12.4.4-18.6.6-5.1.2-10.1.4-15.2.6-1,0-1.9.2-2.9.4-1.9.3-3.8.7-5.8.8-1.2,0-2.5,0-3.7-.3-2-.4-3.5-1.7-4.4-3.5-1-1.9-1.5-3.9-1.7-6-.3-2.6-.6-5.1-.8-7.7-.8-8.7-1.9-17.4-3.9-26-1.2-5-2.5-10-3.8-15-2.3-8.9-4.4-17.8-6-26.9-1.3-7.6-2.1-15.3-2.1-23s1.9-19.3,5.1-28.6c3.1-8.9,7.3-17.3,12.8-25.2v.3Z"/>
  <path class="st2" d="M330.1,327.8c-3,5.6-5.8,11.1-8.7,16.5-.7,1.4-1.5,2.8-2.3,4.2-.7,1.1-1.4,2-2.3,3-2,2.2-4.6,2.8-7.4,1.9-1.6-.5-3.3-1.2-4.7-2.1-2.6-1.5-5.3-2.7-8.1-3.8-10.6-4.2-21.2-8.3-31.8-12.5-1.4-.5-2.8-.9-4.2-1.4-1.7-.6-3.5-1.1-5.1-1.8-1.2-.5-2.3-1.2-3.4-2-1.8-1.4-2.4-3.3-1.9-5.6.3-1.5.9-2.9,1.7-4.2.9-1.5,1.8-3,2.8-4.4,1.5-2.3,2.7-4.7,3.4-7.3,1.7-5.9,3.3-11.8,4.5-17.8,1-5.2,1.2-10.5.9-15.8-.4-7.4-1.5-14.8-2.2-22.2-.5-5.8-.7-11.5-.3-17.3.5-6.8,1.5-13.4,3.5-19.9,2.7-9.1,6.7-17.5,12-25.3,8-11.8,19-19.3,33-22.2,4.9-1,9.8-1.3,14.7-.8,3.6.4,7.2,1,10.6,2,7.9,2.3,14.6,6.5,20.2,12.4,5.4,5.8,9.4,12.5,12.4,19.9,2.8,7,4.6,14.3,5.6,21.7.5,3.9.8,7.9.8,11.9,0,12.6-2.5,24.6-7.7,36-3.1,6.8-6.8,13.4-10.9,19.7-4.2,6.5-8.6,12.8-13.1,19.1-4.3,5.8-8.5,11.7-12.1,18.2h.1Z"/>
  <path class="st1" d="M143,319.5c-1-2.8-.9-5.6-.9-8.4,0-6.3-.1-12.5-.1-18.8s0-.8.1-1.2c.8-.4,1.7-.3,2.5-.4,4-.2,8.1-.3,12.1-.5,5.4-.2,10.8-.4,16.2-.6,9.7-.4,19.3-.7,29-1.1,5.9-.2,11.8-.4,17.7-.6h1.7c0,.5.2,1,.2,1.5,0,2.6,0,5.3.1,7.9,0,4.4.2,8.8.3,13.1,0,1.5,0,2.9-.3,4.3-1.6,8.1-4.6,15.6-9.5,22.2-6.1,8.2-14.2,13.1-24.4,14.6-6.9,1-13.7.5-20.3-2-6.8-2.6-12.1-7.1-16.3-12.9-3.8-5.2-6.4-11-8.1-17.4v.3Z"/>
  <path class="st1" d="M301.3,393.7c-2.3,4.4-4.9,8.4-8,12.1-2.7,3.3-5.8,6.2-9.3,8.6-6.4,4.3-13.4,6.3-21.1,5.8-6.8-.5-13.2-2.6-19.2-5.9-2.9-1.6-5.5-3.5-7.9-5.8-4.8-4.7-7.7-10.5-8.9-17.1-1-5.5-.8-11.1.2-16.6,1.5-8.8,4.6-17.2,8.6-25.1.2-.4.5-.8.7-1.3,0-.1.2-.2.4-.3.2,0,.5,0,.7.1,23.5,9.3,47,18.5,70.5,27.8-.2,3-3.4,11.2-6.8,17.7h0Z"/>
</svg>