<?xml version="1.0" encoding="UTF-8"?>
<svg id="Layer_2" data-name="Layer 2" xmlns="http://www.w3.org/2000/svg" viewBox="0 0 800.01 693.61">
  <defs>
    <style>
      .cls-1 {
        fill: #434343;
        fill-rule: evenodd;
      }

      .cls-2 {
        fill: #fff;
      }

      .cls-3 {
        fill: #e75725;
      }

      .cls-4 {
        fill: none;
        stroke: #e75725;
        stroke-miterlimit: 10;
        stroke-width: 10px;
      }

      .cls-5 {
        fill: #4dc17e;
      }
    </style>
  </defs>
  <g id="Layer_1-2" data-name="Layer 1">
    <rect class="cls-2" x="4.46" y="203" width="194.04" height="343.15"/>
    <rect class="cls-2" x="181.38" y="203" width="508.39" height="343.15"/>
    <polygon class="cls-3" points="689.77 204.66 176.1 203.36 99.96 0 592.85 1.3 689.77 204.66"/>
    <polygon class="cls-2" points="4.46 205.26 101.86 13.89 198.5 205.26 196.19 205.26 4.46 205.26"/>
    <polyline class="cls-4" points="4.46 203 101.86 11.64 198.5 203"/>
    <rect class="cls-5" x="42.57" y="351.96" width="114.89" height="194.19"/>
    <g>
      <path class="cls-1" d="M609.85,528.66l-99.04,3.63.16,30.98s7.48,47.11,50.76,45.53c43.34-1.56,48.73-49.18,48.73-49.18l-.6-30.96h0Z"/>
      <path class="cls-1" d="M574.53,268.71c-43.19.65-81.47,54.93-82.25,103.46-.31,19.98,3.96,39.61,8.7,58.75,2.27,9.14,5.01,18.34,6.9,27.6,2.34,11.65,3.45,23.33,4.62,35.1,1.63,16.34,7.53,16.72,22.06,13.55l54.72-1.95c5.78.28,17.62,2.12,20.2-5.31,2.25-6.63-2.3-15.1-1.85-22.04.57-9,1.54-18.33,3.16-27.27,3.53-19.95,17.9-39.48,25.22-58.48,9.05-23.59,10.87-44.21,6.42-68.6-5.93-32.48-33.17-55.36-67.91-54.81h0Z"/>
    </g>
    <g>
      <path class="cls-1" d="M629.04,603.43l89.24,35.23s-18.41,72.1-72.91,51.13c-54.5-21.02-16.33-86.36-16.33-86.36h0Z"/>
      <path class="cls-1" d="M756.33,381.92c38.09,14.16,53.42,74.18,37.38,117.37-6.62,17.75-17.16,33.67-27.98,49.17-5.18,7.37-10.79,14.6-15.7,22.24-6.03,9.52-11.06,19.56-16.14,29.57-7.11,13.92-12.5,12.33-24.32,5.03l-47.98-18.87c-5.2-1.56-16.33-3.71-16.04-11.01.27-6.59,7.23-12.7,9.23-18.9,2.59-8.13,4.96-16.73,6.57-25.1,3.71-18.75-2.34-40.56-2.25-59.6,0-23.66,5.54-42.48,17.87-62.63,16.53-27,48.64-38.63,79.35-27.27h0Z"/>
    </g>
  </g>
</svg>