<?xml version="1.0" encoding="UTF-8"?>
<svg id="Layer_1" xmlns="http://www.w3.org/2000/svg" version="1.1" viewBox="0 0 500 500">
  <!-- Generator: Adobe Illustrator 29.5.0, SVG Export Plug-In . SVG Version: 2.1.0 Build 137)  -->
  <defs>
    <style>
      .st0 {
        fill: #f7e1e0;
      }

      .st1 {
        fill: #454545;
      }

      .st2 {
        fill: #fff;
      }

      .st3 {
        fill: #56bd7e;
      }

      .st4 {
        fill: #e65825;
      }

      .st5 {
        fill: #eeb9b9;
      }
    </style>
  </defs>
  <path class="st5" d="M0,252.7c0-1.6,0-3.2.1-5.1.2-.8.3-1.3.3-1.8,0-1.3,0-2.7.3-4,0-.3,0-.6,0-.8,0-2.9.1-5.8.4-8.7.3-3.3.5-6.7.9-10,.5-3.7.8-7.5,1.4-11.2,1-6.2,2.2-12.3,3.6-18.4,2.2-9.3,4.9-18.4,8.1-27.4,2.5-7,5.3-13.9,8.5-20.7,3.5-7.4,7.2-14.7,11.5-21.7,2.5-4.1,5-8.1,7.6-12.1,3.7-5.6,7.8-11.1,12-16.3,2.4-3,4.9-5.9,7.4-8.8,1.5-1.8,3.2-3.5,4.7-5.2,3.8-4.4,8-8.4,12.3-12.5,3.1-3,6.4-5.8,9.7-8.6,2.8-2.4,5.7-4.7,8.6-7,6.9-5.4,14.2-10.4,21.7-15.1,4.7-2.9,9.5-5.7,14.4-8.3,7.4-3.9,15-7.5,22.8-10.6,10.7-4.3,21.6-7.9,32.8-10.7,5.2-1.3,10.5-2.5,15.8-3.4,4.9-.9,9.8-1.7,14.7-2.2,1.4-.1,2.8-.3,4.2-.5,2-.2,4.1-.5,6.1-.7,3.2-.2,6.4-.3,9.6-.5.5,0,.9-.2,1.4-.4,6,0,12,0,18.3.1.5.2.8.3,1,.3,2.4,0,4.8.2,7.2.4,3.3.3,6.6.5,10,.9,3.9.5,7.8.8,11.6,1.5,6,1,12,2.1,18,3.5,11.2,2.6,22.1,5.9,32.8,10,9.1,3.5,18,7.4,26.6,12,4.7,2.5,9.4,5.1,13.9,7.9,6.1,3.7,12.1,7.7,17.9,12,4.4,3.2,8.6,6.5,12.7,10,2.9,2.5,5.8,4.8,8.5,7.4,3.2,3,6.2,6,9.3,9.1,5.5,5.5,10.7,11.4,15.7,17.4,4.4,5.4,8.6,11,12.5,16.7,4.5,6.6,8.8,13.4,12.6,20.5,2.8,5.3,5.6,10.6,8.1,16,2.9,6.2,5.5,12.6,7.8,19.1,2.6,7.2,4.8,14.4,6.8,21.8,1.6,6.1,3,12.3,4.1,18.5.6,3.5,1.2,7,1.7,10.5.4,3,.7,6.1,1,9.1.4,3.5.8,6.9.8,10.4s0,1.1,0,1.9c0,3,0,5.9,0,8.7,0,.6,0,1.3.4,1.8,0,1.4,0,2.9-.1,4.6-.2.6-.3.9-.3,1.2,0,3.2,0,6.4,0,9.8,0,2.1,0,4-.1,6-.2,2.2-.5,4.4-.7,6.6-.3,3.1-.6,6.2-1,9.3-.7,4.6-1.6,9.2-2.4,13.8-1.7,9.4-4.2,18.7-7.2,27.8-1.4,4.2-2.9,8.3-4.4,12.5-2.5,6.7-5.4,13.3-8.5,19.8-2.8,5.8-5.7,11.4-9.1,16.9-2.7,4.4-5.3,8.9-8.2,13.2-4.6,6.9-9.5,13.6-14.9,20-3.3,3.9-6.6,7.9-10.1,11.6-4.7,5-9.4,9.9-14.6,14.3-3.4,2.9-6.7,5.9-10.1,8.8-6.1,5.1-12.5,9.8-19.2,14.2-6.2,4.1-12.5,8.1-19.2,11.6-4.8,2.5-9.6,5.1-14.4,7.3-6.6,3.1-13.3,5.8-20.1,8.3-7,2.5-14.1,4.8-21.4,6.7-6.6,1.7-13.2,3.3-20,4.4-3.2.5-6.3,1.1-9.5,1.5-2.8.4-5.6.6-8.5,1-3.3.4-6.6.7-10,.8-.6,0-1.3,0-1.8.4-9.3,0-18.5,0-28.1-.1-.6-.2-.9-.3-1.2-.3-3.7,0-7.4-.5-11-.9-4.4-.5-8.9-1-13.3-1.7-7-1.1-13.8-2.5-20.7-4.2-3.7-.9-7.4-2-11.1-3.1-6.6-1.8-13-4.1-19.4-6.6-4.2-1.7-8.4-3.4-12.6-5.3-3.7-1.7-7.4-3.4-11-5.3-6.1-3.2-12.2-6.5-18-10.2-4.7-3-9.3-6-13.8-9.3-5.9-4.2-11.6-8.6-17.1-13.5-3.5-3.2-7.2-6.3-10.6-9.6-2.9-2.8-5.6-5.8-8.5-8.7-2.9-2.9-5.7-6-8.3-9.2-2.9-3.5-5.8-7-8.6-10.6-4.7-6.1-9.1-12.5-13.2-19.1-3.4-5.4-6.6-11-9.6-16.6-4.9-9.3-9.2-18.9-12.8-28.8-2.9-7.9-5.5-16-7.6-24.2-1.7-6.3-3.1-12.7-4.1-19.2-.7-4.1-1.2-8.1-1.8-12.2-.2-1.5-.4-3-.5-4.4-.3-2.6-.5-5.2-.8-7.8-.4-3.4-.4-6.8-.5-10.2,0-.2,0-.4,0-.6-.4-1.2-.3-2.4-.3-3.6,0-.7.1-1.4-.4-2M81.7,189.3c0,1-.2,2-.2,2.9,0,46.5,0,93,0,139.5,0,.6,0,1.3,0,1.9,0,.4.1.8.2,1.2,1.8.4,8.6.5,16.4.3.4,0,.8,0,1.3,0,15.2,0,30.5,0,45.7,0,.6,0,1.1,0,2.1,0,1,0,2,0,3,0,48,0,96,0,143.9,0,1.1,0,2.3,0,3.5.4,0,1.9,0,3.8,0,5.7,0,.8,0,1.7.3,2.5.9,3.5,2.2,6.7,4.3,9.7,3.3,4.6,7.6,7.6,13.3,8.3,8.2,1,15-1.6,19.8-8.5,2.1-2.9,3.4-6.2,4.3-9.7.4-1.4.5-2.8.5-4.2,0-1.4,0-2.8.4-4.2,6.6,0,13.1,0,19.7.4-.7,2.9-1.7,5.7-3.5,8.2-.6.8-1.1,1.9-1.4,2.8-.6,1.7-.1,2.9,1.4,3.9,1,.6,2,1,3.1,1.4,1.3.5,2.7.9,4,1.4,5.6,2.2,11.3,4.4,16.9,6.6,1.1.4,2,1,3.1,1.5,1,.5,1.9.9,2.9,1.3,1.5.6,2.8.2,3.9-1,.8-.8,1.4-1.8,2-2.8.8-1.4,1.5-2.9,2.3-4.4,2.6-5.1,5.5-9.9,8.9-14.5,2-2.7,3.9-5.4,5.8-8.2,2.5-3.7,4.7-7.4,6.7-11.4,5.6-11.3,6.3-23,2.8-35.1-1.3-4.4-3.2-8.5-6-12.2-2.6-3.3-5.6-6.1-9.6-7.6-9.7-3.8-18.9-2.9-27.5,3.1-.7.5-1.3,1-2,1.2,0-.5,0-1,0-1.5,0-25.6,0-51.2,0-76.7,0-.7,0-1.4-.2-2.4-.3-.7-.5-1.5-.9-2.2-5.9-12.5-11.9-24.9-17.8-37.4-7.1-15-14.3-29.9-21.4-44.9-.3-.7-.7-1.4-1.1-2.1-.8,0-1.5,0-2.2,0-2.5,0-5,0-7.5,0-39.8-.1-79.7-.2-119.5-.3-11.2,0-22.5,0-33.7,0-14.9,0-29.9,0-44.8,0-.8,0-1.6-.2-2.1.1-.4,1.1-.7,2-1.2,2.9-4.5,8.9-9,17.8-13.5,26.6-3,5.9-6,11.8-9,17.7-6.3,12.3-12.5,24.6-18.8,36.9-.2.4-.4.9-.6,1.4.8.5,1.5.9,2,1.6M381.4,385.9c2-3.5,3.7-7.2,4.8-11.2-.5-.2-.8-.5-1.2-.6-1.4-.6-2.9-1.2-4.4-1.7-10.1-4-20.2-8-30.3-12-.7-.3-1.4-.8-2.3-.6-.2.4-.5.8-.7,1.3-1.6,3.1-2.7,6.2-3.6,9.5-.9,3.4-1.3,6.8-1,10.3.4,5.2,2.7,9.4,6.9,12.5,3,2.2,6.4,3.6,10.1,4.3,1.7.3,3.5.5,5.3.3,4.4-.5,8.1-2.5,11.3-5.5,2-1.9,3.6-4,5.2-6.6Z"/>
  <path class="st0" d="M499.9,237.1c0-.2.2-.2.3-.2,0,3.4,0,6.9,0,10.5-.5-.3-.4-1-.4-1.6,0-2.8,0-5.7,0-8.7Z"/>
  <path class="st0" d="M500.3,262.7c0,.2-.2.2-.3.2-.1-3.2-.1-6.4-.1-9.6,0-.3.1-.5.3-1,.1,3.3.1,6.7.1,10.3Z"/>
  <path class="st2" d="M360.3,335.1c-6.6,0-13.1,0-19.9-.2-.3-2.5-.2-4.7-.5-7.1-.7,0-1.2,0-1.8,0-3.8.1-7.6.3-11.5.4-9.2.3-18.4.6-27.6,1-.4,0-.8,0-1.3.2,0,.7,0,1.4,0,2,0,1.3,0,2.5,0,3.8-1.1,0-2.3,0-3.4,0-48,0-96,0-143.9,0-1,0-2,0-3.2-.2-.2-26.8-.2-53.4-.2-80,0-.4,0-.9,0-1.3,0-.4-.1-.8-.2-1.3-.9,0-1.6,0-2.4,0-10.6,0-21.2,0-31.8,0-4.2,0-8.4,0-12.6,0-.6,0-1.2,0-1.9.1,0,.8-.1,1.4-.1,2,0,26.9,0,53.8,0,80.7-7.5.3-14.2.2-16.1-.3,0-.4-.2-.8-.2-1.2,0-.6,0-1.3,0-1.9,0-46.5,0-93,0-139.5,0-1,.1-2,.5-3,.7,0,1,.2,1.5.3.5-.9.9-1.7,1.3-2.5,6.6-12.9,13.2-25.8,19.7-38.8,5.8-11.4,11.6-22.8,17.4-34.2.3-.7.5-1.4,1.3-2,1.2,2.5,2.4,4.8,3.6,7.1,1.2,2.3,2.4,4.7,3.6,7,1.2,2.3,2.4,4.7,3.5,7,1.2,2.3,2.4,4.7,3.6,7,1.2,2.3,2.4,4.7,3.6,7,1.2,2.3,2.4,4.7,3.6,7,1.2,2.3,2.4,4.7,3.5,7,1.2,2.3,2.4,4.7,3.6,7,1.2,2.3,2.4,4.7,3.6,7,1.2,2.3,2.3,4.7,3.6,7,1.2,2.3,2.3,4.7,3.7,7.1,1-.5,1.9-.8,3-.7,4,0,8,0,11.9,0,17.7,0,35.4,0,53.1.1,34,0,68,.1,102,.2,4.1,0,8.1,0,12.2,0,9.7,0,19.5,0,29.2,0,0,.7,0,1.4,0,2.1,0,25.6,0,51.2,0,76.7,0,.5,0,1-.1,1.8-1.7,1.8-3.1,3.3-4.3,5.1-5.2,7.8-8.3,16.3-8.5,25.7-.1,4.2.2,8.4.7,12.5.4,3.6.8,7.2.7,10.8-.1,3.7-.9,7.3-2.1,10.8M353.4,262.6c0-.3.1-.7.2-1,1.9-7.9,1.8-15.8-.2-23.7-5-19.6-27.8-26.9-42.6-16.6-3.5,2.4-6.6,5.2-9.2,8.5-9.6,12.1-13.4,25.8-11.1,41.1.8,5.6,2.1,11.2,3.5,16.7,1,3.9,1.9,7.7,2.8,11.6.9,4.3,1.3,8.7,1.7,13.1.1,1.5.4,3,.9,4.4.6,1.4,1.7,2.3,3.3,2.4.8,0,1.7,0,2.5-.1,1.4-.2,2.8-.5,4.2-.5,6.8-.3,13.6-.5,20.5-.8,1.1,0,2.1,0,3.2.1,1.4.1,2.7,0,4-.2,2-.5,2.9-1.5,3.1-3.5,0-.6,0-1.1,0-1.7-.1-.9-.4-1.8-.5-2.7-.3-1.5-.6-2.9-.4-4.4.2-2,.5-4.1.6-6.2.5-5.3,1.9-10.3,4.4-15.1,1.4-2.9,2.9-5.7,4.4-8.5,2.1-4,3.7-8.2,4.9-12.8Z"/>
  <path class="st4" d="M373.9,189.2c-9.7.1-19.4.1-29.2,0-4.1,0-8.1,0-12.2,0-34,0-68-.1-102-.2-17.7,0-35.4,0-53.1-.1-4,0-8,0-11.9,0-1,0-1.9.2-3,.7-1.4-2.4-2.5-4.7-3.7-7.1-1.2-2.3-2.4-4.7-3.6-7-1.2-2.3-2.4-4.7-3.6-7-1.2-2.3-2.4-4.7-3.6-7-1.2-2.3-2.4-4.7-3.5-7-1.2-2.3-2.4-4.7-3.6-7-1.2-2.3-2.4-4.7-3.6-7-1.2-2.3-2.4-4.7-3.6-7-1.2-2.3-2.4-4.7-3.5-7-1.2-2.3-2.4-4.7-3.6-7-1.2-2.3-2.4-4.7-3.6-7.1-.8.6-1,1.3-1.3,2-5.8,11.4-11.6,22.8-17.4,34.2-6.6,12.9-13.1,25.8-19.7,38.8-.4.8-.9,1.6-1.3,2.5-.4-.1-.8-.3-1.3-.5-.9-.5-1.6-.9-2.4-1.4.2-.5.4-1,.6-1.4,6.3-12.3,12.5-24.6,18.8-36.9,3-5.9,6-11.8,9-17.7,4.5-8.9,9-17.7,13.5-26.6.4-.9.7-1.8,1.2-2.9.6-.3,1.4-.1,2.1-.1,14.9,0,29.9,0,44.8,0,11.2,0,22.5,0,33.7,0,39.8.1,79.7.2,119.5.3,2.5,0,5,0,7.5,0,.7,0,1.4,0,2.2,0,.4.7.7,1.4,1.1,2.1,7.1,15,14.3,29.9,21.4,44.9,5.9,12.5,11.9,24.9,17.8,37.4.3.7.6,1.4.9,2.3Z"/>
  <path class="st1" d="M360.3,335.3c1.2-3.7,2-7.3,2.1-11,.1-3.6-.2-7.2-.7-10.8-.5-4.2-.8-8.3-.7-12.5.3-9.4,3.3-17.9,8.5-25.7,1.2-1.8,2.6-3.4,4.3-4.9.8-.6,1.4-1.2,2.1-1.7,8.6-6.1,17.8-7,27.5-3.1,3.9,1.5,7,4.3,9.6,7.6,2.8,3.6,4.8,7.7,6,12.2,3.4,12,2.8,23.8-2.8,35.1-2,4-4.2,7.7-6.7,11.4-1.9,2.8-3.8,5.5-5.8,8.2-3.4,4.6-6.3,9.4-8.9,14.5-.7,1.5-1.4,2.9-2.3,4.4-.6,1-1.2,1.9-2,2.8-1,1.1-2.4,1.5-3.9,1-1-.4-1.9-.9-2.9-1.3-1-.5-2-1-3.1-1.5-5.6-2.2-11.2-4.5-16.9-6.6-1.3-.5-2.7-.9-4-1.4-1.1-.4-2.1-.8-3.1-1.4-1.5-.9-1.9-2.2-1.4-3.9.3-1,.8-2,1.4-2.8,1.8-2.5,2.8-5.3,3.5-8.3Z"/>
  <path class="st3" d="M98,335.1c-.2-26.9-.2-53.8-.2-80.7,0-.6,0-1.3.1-2,.7,0,1.3-.1,1.9-.1,4.2,0,8.4,0,12.6,0,10.6,0,21.2,0,31.8,0,.8,0,1.5,0,2.4,0,0,.5.2.9.2,1.3,0,.4,0,.9,0,1.3,0,26.6,0,53.2,0,80-.6.2-1.1.3-1.7.3-15.2,0-30.5,0-45.7,0-.4,0-.8,0-1.5,0Z"/>
  <path class="st1" d="M297.6,335.3c0-1.5,0-2.7,0-4,0-.6,0-1.3,0-2,.5,0,.9-.1,1.3-.2,9.2-.3,18.4-.6,27.6-1,3.8-.1,7.6-.3,11.5-.4.5,0,1.1,0,1.8,0,.2,2.3.1,4.6.3,7.1,0,1.6,0,3,0,4.5,0,1.4-.1,2.8-.5,4.2-.9,3.5-2.2,6.8-4.3,9.7-4.9,6.9-11.6,9.4-19.8,8.5-5.7-.7-10.1-3.6-13.3-8.3-2.1-2.9-3.4-6.2-4.3-9.7-.2-.8-.2-1.7-.3-2.5,0-1.9,0-3.8-.1-5.9Z"/>
  <path class="st1" d="M381.4,386c-1.5,2.5-3.1,4.6-5.1,6.5-3.2,3-6.8,5-11.3,5.5-1.8.2-3.6,0-5.3-.3-3.7-.7-7.1-2-10.1-4.3-4.2-3.1-6.4-7.3-6.9-12.5-.3-3.5,0-7,1-10.3.9-3.3,2.1-6.5,3.6-9.5.2-.4.5-.9.7-1.3.9-.2,1.6.3,2.3.6,10.1,4,20.2,8,30.3,12,1.5.6,2.9,1.1,4.4,1.7.4.2.7.4,1.2.6-1.1,4-2.7,7.7-4.9,11.3Z"/>
  <path class="st1" d="M353.3,262.8c-1.2,4.5-2.8,8.7-4.9,12.7-1.5,2.8-2.9,5.7-4.4,8.5-2.4,4.7-3.9,9.8-4.4,15.1-.2,2.1-.4,4.1-.6,6.2-.2,1.5.2,3,.4,4.4.2.9.4,1.8.5,2.7,0,.6.1,1.1,0,1.7-.2,2-1.1,3.1-3.1,3.5-1.3.3-2.7.3-4,.2-1.1,0-2.1-.1-3.2-.1-6.8.2-13.6.5-20.5.8-1.4,0-2.8.4-4.2.5-.8,0-1.7.2-2.5.1-1.6-.1-2.7-1-3.3-2.4-.6-1.4-.8-2.9-.9-4.4-.4-4.4-.8-8.8-1.7-13.1-.8-3.9-1.8-7.8-2.8-11.6-1.4-5.5-2.7-11-3.5-16.7-2.3-15.3,1.5-29,11.1-41.1,2.6-3.3,5.7-6.1,9.2-8.5,14.8-10.3,37.7-3,42.6,16.6,2,7.8,2.1,15.8.2,23.7,0,.3-.1.7-.3,1.2Z"/>
</svg>