<?xml version="1.0" encoding="UTF-8"?>
<svg id="Layer_1" xmlns="http://www.w3.org/2000/svg" version="1.1" viewBox="0 0 500 500">
  <!-- Generator: Adobe Illustrator 29.5.0, SVG Export Plug-In . SVG Version: 2.1.0 Build 137)  -->
  <defs>
    <style>
      .st0 {
        fill: #fff;
      }

      .st1 {
        fill: #ed1c24;
      }

      .st2 {
        fill: #020202;
      }

      .st3 {
        fill: #030303;
      }

      .st4 {
        fill: #eeb9b9;
      }

      .st5 {
        fill: #6c6d6d;
      }

      .st6 {
        fill: #3a94d1;
      }
    </style>
  </defs>
  <path class="st4" d="M241.4,0c6,0,12,0,18.3.1.5.2.7.3,1,.3,2.4,0,4.8.2,7.2.4,3.3.3,6.7.5,10,.9,3.9.5,7.8.8,11.6,1.5,6,1,12,2.2,18,3.5,9.1,2.1,18,4.7,26.8,7.8,10.7,3.8,21,8.3,31.1,13.5,4.5,2.3,8.9,4.7,13.2,7.3,6.5,3.9,12.9,8.1,19,12.6,4.8,3.5,9.6,7.1,14.1,11.1,3,2.6,6.1,5.1,9,7.9,6.7,6.4,13.3,12.9,19.2,20,3.1,3.7,6.2,7.4,9.2,11.2,4.6,5.9,8.8,12,12.8,18.3,4,6.3,7.7,12.6,11,19.2,1.8,3.6,3.6,7.3,5.3,10.9,1.7,3.6,3.3,7.3,4.7,11,2.8,7.1,5.4,14.4,7.5,21.8,1,3.3,1.9,6.7,2.7,10.1,1,4.4,2,8.7,2.9,13.1.8,3.9,1.4,7.8,2,11.8.4,2.5.6,4.9.9,7.4.4,3,.8,5.9.8,8.9,0,.8,0,1.6,0,2.3,0,.4.2.8.4,1.2,0,10.8,0,21.7,0,32.8-.2,1.1-.3,1.9-.3,2.7-.2,2.7-.2,5.4-.5,8.1-.4,3.8-1,7.6-1.6,11.4-.8,5.8-2,11.6-3.3,17.4-2.5,10.8-5.7,21.3-9.5,31.6-2.7,7.2-5.7,14.2-9,21.2-3.2,6.7-6.8,13.3-10.7,19.7-3.9,6.5-8,12.8-12.5,18.8-3.6,4.9-7.2,9.7-11.2,14.2-3,3.4-5.8,6.8-8.9,10-5.5,5.8-11.2,11.3-17.2,16.5-3.8,3.3-7.7,6.5-11.7,9.6-6.9,5.3-14,10.2-21.4,14.8-5.4,3.4-11,6.5-16.7,9.5-8.5,4.4-17.3,8.3-26.3,11.7-8,3-16.1,5.6-24.4,7.8-6.7,1.8-13.4,3.3-20.2,4.4-3.4.6-6.9,1.1-10.3,1.6-2.7.4-5.4.6-8,.9-3.2.4-6.3.7-9.5.8-.6,0-1.3,0-1.8.4-9.3,0-18.5,0-28.1-.1-.5-.2-.8-.2-1-.2-3.8,0-7.5-.5-11.3-.9-4.5-.4-8.9-1-13.3-1.7-6.5-1-12.9-2.3-19.2-3.8-8.4-2-16.7-4.5-24.9-7.4-8.8-3.1-17.4-6.8-25.8-10.8-6.6-3.2-13-6.8-19.3-10.5-7-4.2-13.8-8.8-20.4-13.6-4.6-3.4-9-6.9-13.3-10.7-3.5-3.1-7-6.1-10.3-9.2-3.6-3.4-7-6.8-10.3-10.5-2.6-2.9-5.2-5.6-7.7-8.6-2.3-2.8-4.7-5.6-6.9-8.4-5.4-6.9-10.3-14.1-15-21.5-3.2-5.2-6.3-10.5-9.1-15.9-3.7-7.1-7.1-14.4-10.2-21.9-3.3-8.2-6.3-16.5-8.6-25-1.4-5-2.7-10-3.8-15.1-1.1-4.8-2-9.7-2.8-14.6-.6-3.6-1-7.2-1.4-10.8-.2-1.8-.4-3.7-.5-5.5-.2-2.8-.6-5.5-.7-8.3,0-2.7-.3-5.4-.6-8.1,0-.3-.2-.5-.3-.8,0-3.9,0-7.7.1-11.9.4-2.4.7-4.5.7-6.7,0-3.2.2-6.4.5-9.6.3-3.2.7-6.3,1.1-9.5.6-4.1,1.1-8.2,1.8-12.2.9-5.7,2.2-11.3,3.6-16.9,2.1-8.2,4.5-16.3,7.4-24.3,3.8-10.3,8.1-20.4,13.2-30,2.3-4.4,4.7-8.8,7.2-13.1,4.2-7.1,8.8-14,13.7-20.6,3.3-4.5,6.7-8.8,10.3-13,3.2-3.7,6.4-7.4,9.8-10.9,6.2-6.5,12.8-12.8,19.7-18.5,3.4-2.8,6.8-5.6,10.3-8.3,5.9-4.6,12.1-8.8,18.4-12.7,4.9-3,9.7-5.9,14.8-8.5,9-4.8,18.3-9.1,27.9-12.8,8.8-3.3,17.7-6.2,26.8-8.6,6.9-1.8,13.8-3.3,20.8-4.4,3.7-.6,7.4-1.3,11.2-1.6,1.4-.1,2.8-.3,4.2-.5,2.2-.2,4.4-.5,6.6-.7,3.2-.2,6.4-.3,9.6-.5.5,0,.9-.2,1.4-.4M350.8,182.1c0-.9,0-1.8,0-2.8,0-19.8,0-39.6,0-59.5,0-.6,0-1.3,0-1.9,0-.4-.1-.8-.2-1.3-1,0-1.9,0-2.9,0-22.1,0-44.2,0-66.3,0-.8,0-1.6,0-2.5-.3-.7-2.6-1.3-5.2-2-7.8-.7-2.6-1.2-5.2-2.1-7.8h-6.7c-2.2,0-4.4,0-6.6,0-2.2,0-4.4,0-6.7,0,0-.8,0-1.5,0-2.2,0-5.8,0-11.5,0-17.3,0-.5,0-1.1,0-1.6-.3,0-.5-.1-.7-.1-17.3,0-34.7,0-52,0,0,0-.1,0-.2,0,0,0,0,.1-.3.3,0,.6,0,1.3,0,1.9,0,5.7,0,11.4,0,17.1,0,.6.2,1.3-.4,1.9h-6.5c-2.2,0-4.4,0-6.6,0-2.2,0-4.4-.1-6.6,0-.1.4-.3.7-.4,1.1-.7,3-1.5,5.9-2.2,8.9-.5,2-1.1,4-2,5.9-.4,0-.7,0-1.1,0-22.6,0-45.3,0-67.9,0-.4,0-.7,0-1.1,0-.4,0-.8.2-1.3.3,0,1.1,0,2,0,3,0,99.2,0,198.4,0,297.6,0,.6,0,1.3,0,1.9,0,.4,0,.8.1,1.2.3.1.5.2.7.2,81.3,0,162.5,0,243.8,0,.2,0,.4-.1.7-.2.3-.9.2-1.8.2-2.7,0-65.3,0-130.5,0-195.8,0-.8,0-1.6,0-2.6.5-.8,1-1.5,1.5-2.3,14.2-20.8,28.4-41.6,42.5-62.4.4-.6.8-1.3,1.3-2-2-1.4-3.9-2.6-5.7-3.9-1.9-1.3-3.7-2.6-5.6-3.8-1.9-1.2-3.6-2.7-5.7-3.7-.5.7-.9,1.2-1.3,1.8-8.5,12.4-16.9,24.8-25.4,37.2-.5.7-1,1.4-1.6,1.7Z"/>
  <path class="st6" d="M350.6,219.8c0,.8,0,1.6,0,2.3,0,65.3,0,130.5,0,195.8,0,.9.1,1.8-.2,2.7-.3,0-.5.2-.7.2-81.3,0-162.5,0-243.8,0-.2,0-.4-.1-.7-.2,0-.4-.1-.8-.1-1.2,0-.6,0-1.3,0-1.9,0-99.2,0-198.4,0-297.6s0-2,0-3c.5-.1.9-.2,1.3-.3.4,0,.7,0,1.1,0,22.6,0,45.3,0,67.9,0,.4,0,.7,0,1.3.2-.5,3.1-1.2,6-2,8.9-.1.5-.3,1.1-.7,1.6-18.8,0-37.5,0-56.1,0-.4,0-.9,0-1.3,0-.2,0-.4.1-.6.2-.3.9-.2,1.8-.2,2.7,0,92.3,0,184.6,0,276.9,0,.6,0,1.1,0,1.7,0,.4.2.8.3,1.3h2.8c72.7,0,145.3,0,218,0,.6,0,1.1,0,1.7,0,.4,0,.8-.1,1.3-.2,0-.9,0-1.8,0-2.6,0-56.4,0-112.7,0-169.1,0-.9,0-1.8,0-2.9,3.1-4.7,6.2-9.3,9.4-13.8.4-.6.9-1.1,1.3-1.7Z"/>
  <path class="st2" d="M174.3,127.3c.2-.5.4-1,.5-1.6.7-2.9,1.4-5.8,2.2-8.9.5-2.1,1.1-4.1,1.6-6.1.8-3,1.5-5.9,2.2-8.9,0-.3.2-.7.4-1.1,2.2-.2,4.4,0,6.6,0,2.2,0,4.4,0,6.6,0h6.5c.6-.7.4-1.3.4-1.9,0-5.7,0-11.4,0-17.1,0-.7,0-1.4,0-1.9.2-.2.2-.3.3-.3,0,0,.1,0,.2,0,17.3,0,34.7,0,52,0,.2,0,.4,0,.7.1,0,.5,0,1.1,0,1.6,0,5.8,0,11.5,0,17.3,0,.7,0,1.4,0,2.2,2.3.1,4.5,0,6.7,0,2.2,0,4.4,0,6.6,0h6.7c.9,2.6,1.4,5.2,2.1,7.8.7,2.6,1.3,5.2,2.1,8.1.2,1,.4,1.7.6,2.4.7,2.8,1.5,5.6,2.2,8.5,1.1,4.5,2.2,8.8,3.2,13.2,1.1,4.4,2.3,8.8,3.2,13.2-.4,0-.6.1-.8.1-39.7,0-79.3,0-119,0,0,0-.1,0-.2,0,0,0,0,0-.2-.2,0-.4.1-.8.2-1.2,2-8,4-16,6-24,.1-.4.1-.8.2-1.3Z"/>
  <path class="st3" d="M350.7,219.7c-.5.7-.9,1.2-1.3,1.8-3.1,4.6-6.2,9.1-9.5,13.9-.5.7-.8,1.1-1.1,1.6-11.5,16.9-23.1,33.8-34.6,50.7-.7,1-1.4,1.9-2.3,2.8-3.3,3.2-6.7,6.4-10,9.6-8,7.7-16,15.4-24.1,23.1-.3,0-.5,0-.5-.2,6-14.5,12-28.8,18-43.2.6-1.5,1.3-2.8,2.2-4.1,17.2-25.2,34.4-50.3,51.5-75.5.4-.6.8-1.3,1.3-2.1,3.6-5.2,7.1-10.4,10.7-15.6.5-.7,1-1.4,1.5-2.1,8.5-12.4,16.9-24.8,25.4-37.2.4-.6.8-1.2,1.3-1.8,2,1.1,3.8,2.5,5.7,3.7,1.9,1.3,3.8,2.6,5.6,3.8,1.9,1.3,3.7,2.6,5.7,3.9-.5.8-.9,1.4-1.3,2-14.2,20.8-28.4,41.6-42.5,62.4-.5.8-1,1.5-1.6,2.5Z"/>
  <path class="st6" d="M350.9,182.3c-3.5,5.4-7,10.5-10.6,15.6-.2-22.9-.2-45.7-.2-68.4,0-.4,0-.7,0-1.1,0-.1,0-.3,0-.4,0,0,0-.1,0-.2,0,0,0-.1-.1-.2-.6-.4-1.4-.2-2.1-.2-4.7,0-9.4,0-14.1,0-14,0-28,0-42,0-.7-2.8-1.5-5.6-2.2-8.3-.2-.7-.3-1.4-.5-2.2.8-.2,1.6-.2,2.4-.2,22.1,0,44.2,0,66.3,0,.9,0,1.8,0,2.9,0,0,.5.2.9.2,1.3,0,.6,0,1.3,0,1.9,0,19.8,0,39.6,0,59.5,0,.9,0,1.8.1,3Z"/>
  <path class="st0" d="M281.6,127.5c14-.2,28-.2,42-.2,4.7,0,9.4,0,14.1,0,.7,0,1.4-.2,2.1.2,0,0,0,.1.1.2,0,0,0,.1,0,.2,0,.1,0,.3,0,.4,0,.4,0,.7,0,1.1,0,22.8,0,45.5,0,68.5-.4.9-.7,1.6-1.2,2.2-17.2,25.2-34.3,50.4-51.5,75.5-.9,1.3-1.6,2.6-2.2,4.1-5.9,14.4-11.9,28.7-18.1,43.3-.2.5-.6.8-.1,1.2.3-.4.6-.7.9-1,8-7.7,16-15.4,23.9-23.1,3.3-3.2,6.6-6.4,10-9.6.9-.8,1.6-1.8,2.3-2.8,11.5-16.9,23.1-33.8,34.6-50.7.3-.5.6-.9,1.1-1.5.2.8.2,1.8.2,2.7,0,56.4,0,112.7,0,169.1,0,.8,0,1.7,0,2.6-.5,0-.9.2-1.3.2-.6,0-1.1,0-1.7,0-72.7,0-145.3,0-218,0h-2.8c-.1-.5-.2-.9-.3-1.3,0-.6,0-1.1,0-1.7,0-92.3,0-184.6,0-276.9,0-.9-.1-1.8.2-2.7.3-.1.4-.2.6-.2.4,0,.9,0,1.3,0,18.6,0,37.3,0,56.1,0,.1.4.1.8,0,1.3-2,8-4,16-6,24-.1.4-.2.8-.2,1.2.1.1.1.2.2.2,0,0,.1,0,.2,0,39.7,0,79.3,0,119,0,.2,0,.4,0,.8-.1-.9-4.5-2.2-8.8-3.2-13.2-1-4.3-2.2-8.7-3.2-13.2M164.8,274.4c-.6-.7-1.2-1.4-1.8-2.1-.6-.7-1.2-1.4-1.8-2.1-.6-.7-1.1-1.5-1.8-2-2.5,1.8-7,5.6-8,6.9,6.9,8.2,13.9,16.5,20.9,24.8.5-.4.8-.7,1.2-1.1,13.7-14.6,38.2-41.4,39.3-43.1-2.6-2.3-5-4.7-7.8-7-10.8,11.7-21.5,23.3-32.1,34.9-.2-.1-.4-.1-.5-.2-2.5-2.9-5-5.8-7.7-9M192,210.8c6.9-7.5,13.8-15,20.6-22.5,0,0,0-.1,0-.2,0,0,0-.1,0-.2-2.4-2.6-6.4-6.1-7.8-6.9-10.7,11.6-21.3,23.2-32,34.8-1.1-.8-1.7-1.7-2.4-2.6-.8-.9-1.5-1.7-2.2-2.6s-1.5-1.7-2.2-2.6c-.7-.9-1.5-1.7-2.2-2.6-.7-.9-1.5-1.8-2.2-2.6-.7-.8-1.4-1.8-2.2-2.5-2,1.3-6.9,5.6-8,6.8.2.2.3.4.5.7,6.6,7.8,13.2,15.7,19.8,23.5.2.2.5.4.8.7,6.5-7.1,12.9-14,19.5-21.2Z"/>
  <path class="st5" d="M267.7,323.2c-.1.4-.4.7-.7,1.1-.5-.4,0-.7,0-1.1.2,0,.3,0,.7,0Z"/>
  <path class="st1" d="M164.9,274.5c2.6,3,5.1,6,7.6,8.9,0,0,.2.1.5.2,10.7-11.6,21.3-23.2,32.1-34.9,2.8,2.3,5.2,4.7,7.8,7-1.1,1.7-25.6,28.5-39.3,43.1-.3.3-.7.7-1.2,1.1-7-8.3-14-16.6-20.9-24.8,1-1.3,5.5-5.2,8-6.9.7.5,1.2,1.3,1.8,2,.6.7,1.2,1.4,1.8,2.1.6.7,1.2,1.4,1.9,2.2Z"/>
  <path class="st1" d="M191.9,210.9c-6.5,7.1-12.9,14-19.4,21.1-.3-.3-.6-.5-.8-.7-6.6-7.8-13.2-15.7-19.8-23.5-.2-.2-.3-.4-.5-.7,1.1-1.3,6.1-5.5,8-6.8.9.7,1.5,1.7,2.2,2.5.8.9,1.5,1.7,2.2,2.6.7.9,1.5,1.7,2.2,2.6.7.9,1.5,1.7,2.2,2.6s1.5,1.8,2.2,2.6c.7.8,1.3,1.8,2.4,2.6,10.7-11.6,21.4-23.2,32-34.8,1.4.8,5.4,4.3,7.8,6.9,0,0,0,.1,0,.2,0,0,0,.1,0,.2-6.9,7.5-13.8,15-20.7,22.6Z"/>
</svg>