<?xml version="1.0" encoding="UTF-8"?>
<svg id="Layer_2" data-name="Layer 2" xmlns="http://www.w3.org/2000/svg" viewBox="0 0 620.41 763.49">
  <defs>
    <style>
      .cls-1, .cls-2 {
        fill: #c69949;
      }

      .cls-3 {
        fill: #37474f;
      }

      .cls-4 {
        fill: #c5cae9;
      }

      .cls-5 {
        fill: #f8d176;
      }

      .cls-6 {
        fill: #4caf50;
      }

      .cls-7, .cls-2, .cls-8 {
        isolation: isolate;
      }

      .cls-9 {
        fill: #607d8b;
      }

      .cls-2 {
        font-family: ArialMT, Arial;
        font-size: 167.71px;
      }

      .cls-10 {
        fill: #ffeb3b;
      }

      .cls-11 {
        fill: #0b420d;
      }

      .cls-8 {
        fill: #040000;
        opacity: .06;
      }

      .cls-12 {
        fill: #388e3c;
      }

      .cls-13 {
        opacity: .5;
      }
    </style>
  </defs>
  <g id="Layer_1-2" data-name="Layer 1">
    <g>
      <path class="cls-9" d="M71.45,700.03l69.58-125.27-29.13-16.17-78.57,141.43h38.12ZM395.22,700.03l-69.58-125.27,29.13-16.17,78.57,141.43h-38.12Z"/>
      <path class="cls-6" d="M466.67,583.33V141.67c0-59.83-48.5-75-108.33-75H108.33C48.5,66.67,0,81.83,0,141.67v441.67h466.67Z"/>
      <path class="cls-12" d="M233.33,0c-36.77,0-66.67,29.9-66.67,66.67s29.9,66.67,66.67,66.67,66.67-29.9,66.67-66.67S270.1,0,233.33,0h0Z"/>
      <path class="cls-10" d="M200,66.67c0,18.41,14.92,33.33,33.33,33.33s33.33-14.92,33.33-33.33-14.92-33.33-33.33-33.33-33.33,14.92-33.33,33.33Z"/>
      <path class="cls-3" d="M466.67,583.33s.02,33.33-33.33,33.33H33.33C0,616.67,0,583.33,0,583.33v-116.67h466.67v116.67h0Z"/>
      <path class="cls-3" d="M66.67,450c18.41,0,33.34,14.94,33.33,33.35,0,18.41-14.94,33.34-33.35,33.33-18.41,0-33.34-14.94-33.33-33.35,0-18.41,14.94-33.34,33.35-33.33M66.67,416.67c-36.77,0-66.67,29.9-66.67,66.67s29.9,66.67,66.67,66.67,66.67-29.9,66.67-66.67-29.9-66.67-66.67-66.67ZM400,450c18.41,0,33.34,14.94,33.33,33.35,0,18.41-14.94,33.34-33.35,33.33s-33.34-14.94-33.33-33.35c0-18.41,14.94-33.34,33.35-33.33h0M400,416.67c-36.77,0-66.67,29.9-66.67,66.67s29.9,66.67,66.67,66.67,66.67-29.9,66.67-66.67-29.9-66.67-66.67-66.67Z"/>
      <path class="cls-11" d="M408.33,150h-158.33v150h158.33c13.81,0,25-11.19,25-25v-100c0-13.81-11.19-25-25-25ZM216.67,150H58.33c-13.81,0-25,11.19-25,25v100c0,13.81,11.19,25,25,25h158.33v-150Z"/>
      <path class="cls-4" d="M33.33,483.33c0,18.41,14.91,33.34,33.32,33.35s33.34-14.91,33.35-33.32v-.03c0-18.41-14.92-33.33-33.33-33.33s-33.33,14.92-33.33,33.33h0Z"/>
      <path class="cls-4" d="M366.67,483.33c-.01,18.41,14.9,33.34,33.31,33.36,18.41.01,33.34-14.9,33.36-33.31v-.05c.01-18.41-14.9-33.34-33.31-33.36-18.41-.01-33.34,14.9-33.36,33.31v.05Z"/>
      <g id="_4" data-name=" 4">
        <g>
          <path class="cls-8" d="M486.31,763.36c34.36,0,68.71-13.08,94.87-39.23,52.31-52.31,52.31-137.43,0-189.74-26.16-26.16-60.51-39.23-94.87-39.23v268.21Z"/>
          <g>
            <path class="cls-5" d="M486.24,763.49c-73.98,0-134.17-60.19-134.17-134.17s60.19-134.17,134.17-134.17,134.17,60.19,134.17,134.17-60.19,134.17-134.17,134.17Z"/>
            <g class="cls-13">
              <path class="cls-1" d="M486.24,742.85c-62.6,0-113.54-50.93-113.54-113.54s50.93-113.54,113.54-113.54,113.54,50.93,113.54,113.54-50.93,113.54-113.54,113.54ZM486.24,544.73c-46.64,0-84.59,37.95-84.59,84.59s37.95,84.59,84.59,84.59,84.59-37.95,84.59-84.59-37.95-84.59-84.59-84.59Z"/>
            </g>
            <g>
              <circle class="cls-5" cx="386.65" cy="629.32" r="5.01"/>
              <circle class="cls-5" cx="584.84" cy="629.32" r="5.01"/>
            </g>
            <g class="cls-7">
              <text class="cls-2" transform="translate(443.79 687.64)"><tspan x="0" y="0">¥</tspan></text>
            </g>
          </g>
          <path class="cls-8" d="M486.31,763.36c34.36,0,68.71-13.08,94.87-39.23,52.31-52.31,52.31-137.43,0-189.74-26.16-26.16-60.51-39.23-94.87-39.23v268.21Z"/>
        </g>
      </g>
    </g>
  </g>
</svg>