<?xml version="1.0" encoding="UTF-8"?>
<svg id="Layer_1" xmlns="http://www.w3.org/2000/svg" version="1.1" viewBox="0 0 500 500">
  <!-- Generator: Adobe Illustrator 29.5.0, SVG Export Plug-In . SVG Version: 2.1.0 Build 137)  -->
  <defs>
    <style>
      .st0 {
        fill: #214221;
      }

      .st1 {
        fill: #ea2732;
      }

      .st2 {
        fill: #fff;
      }

      .st3 {
        fill: #c4c9e6;
      }

      .st4 {
        fill: #fce93a;
      }

      .st5 {
        fill: #384951;
      }

      .st6 {
        fill: #4faf4e;
      }

      .st7 {
        fill: #399043;
      }

      .st8 {
        fill: #627e8c;
      }

      .st9 {
        fill: #edb9b9;
      }
    </style>
  </defs>
  <path class="st9" d="M264.7,499.8c-9.1,0-18.2,0-27.7-.1-.5-.2-.8-.2-1-.2-3.8,0-7.5-.5-11.3-.9-4.5-.4-8.9-1-13.3-1.7-6.5-1-12.9-2.3-19.2-3.8-8.6-2.1-17-4.6-25.3-7.5-8.6-3.1-17-6.6-25.2-10.5-6.7-3.2-13.1-6.8-19.5-10.6-7-4.2-13.8-8.8-20.4-13.6-4.6-3.4-9-6.9-13.3-10.7-3.5-3.1-7.1-6.2-10.5-9.4-3.5-3.3-7-6.7-10.1-10.4-2.5-2.9-5.2-5.7-7.7-8.6-2.4-2.8-4.7-5.7-7-8.6-5.5-7-10.6-14.3-15.2-21.9-2.7-4.4-5.3-8.9-7.8-13.5-3.3-6.1-6.3-12.3-9-18.6-2.7-6.3-5.2-12.6-7.4-19.1s-4.1-13.2-5.8-19.9c-.9-3.9-1.9-7.7-2.6-11.7-.9-4.7-1.6-9.4-2.3-14.1-.4-2.9-.8-5.9-1.1-8.9-.2-2.3-.3-4.5-.5-6.8-.1-2-.3-4-.4-5.9,0-.9-.2-1.8-.4-2.7,0-.2-.3-.5-.4-.7,0-6.1,0-12.3.1-18.7.2-.5.3-.7.3-.9.3-2.9.6-5.8.7-8.7.2-3.1.5-6.2.9-9.3.5-3.7.8-7.5,1.4-11.2.9-5.3,1.9-10.6,3.1-15.9,2.7-11.8,6.1-23.4,10.5-34.7,3.2-8.2,6.8-16.3,10.8-24.1,3-5.8,6.2-11.5,9.6-17.1,3.7-6,7.7-11.8,11.8-17.5,3.3-4.5,6.7-8.8,10.4-13,3-3.5,6-7,9.2-10.3,6.4-6.8,13.1-13.2,20.3-19.1,3.4-2.8,6.8-5.6,10.3-8.3,5.8-4.4,11.7-8.5,17.9-12.4,5.4-3.4,10.8-6.6,16.4-9.5,4.6-2.4,9.3-4.6,14-6.8,6.2-2.9,12.7-5.5,19.2-7.7,4.2-1.5,8.5-2.8,12.8-4.1,6.8-2.1,13.7-3.7,20.7-5.1,5.4-1.1,10.8-1.9,16.2-2.7,4.4-.6,8.9-1,13.3-1.5,3.2-.3,6.4-.4,9.6-.5.6,0,1.1,0,1.6-.4h14.9c.7.1,1,.2,1.4.2,3.4.1,6.8,0,10.2.4,3.3.3,6.7.5,10,.9,3.9.5,7.8.8,11.6,1.5,6,1,12,2.2,18,3.5,10.6,2.4,21,5.6,31.2,9.5,9.1,3.5,18,7.4,26.7,11.9,4.5,2.3,8.9,4.8,13.2,7.3,6.5,3.9,12.8,8,18.9,12.5,4.9,3.6,9.7,7.2,14.2,11.2,3,2.7,6.2,5.2,9.1,8,6.6,6.3,13.2,12.8,19.1,19.8,3,3.7,6.1,7.3,9,11.1,4.7,6,9,12.3,13.1,18.7,3.7,5.9,7.2,11.9,10.4,18.1,2.7,5.2,5.3,10.6,7.6,16,2.6,6.1,5.1,12.4,7.2,18.7,1.4,4.2,2.8,8.5,4,12.8,1.3,4.8,2.6,9.6,3.6,14.5,1.5,7,2.8,14.1,3.6,21.2.5,4.6,1.2,9.2,1.2,13.8s0,1.3.4,1.8v33.3c-.2,1.1-.3,1.9-.3,2.7-.2,2.7-.2,5.4-.5,8.1-.4,3.8-1,7.6-1.6,11.4-.8,5.8-2,11.6-3.3,17.4-2.5,10.8-5.7,21.3-9.5,31.6-2.7,7.3-5.9,14.5-9.2,21.6-3.2,6.6-6.7,13-10.5,19.3-3.9,6.5-8,12.8-12.5,18.8-3.6,4.9-7.2,9.7-11.2,14.2-3,3.4-5.8,6.8-8.9,10-5.5,5.8-11.2,11.3-17.2,16.5-3.8,3.3-7.7,6.5-11.7,9.6-6.9,5.4-14.1,10.3-21.5,15-5.4,3.3-10.9,6.5-16.5,9.4-8.5,4.4-17.3,8.3-26.3,11.7-8.1,3.1-16.2,5.7-24.6,7.9-6.6,1.8-13.2,3.3-20,4.4-3.4.6-6.9,1.1-10.3,1.6-2.7.4-5.4.6-8,.9-3.3.4-6.6.8-10,.8s-1.3,0-1.8.4M316.7,401.7c4.3,7.8,8.7,15.6,13,23.5,4.6,8.5,12,21.8,13.4,23.4h20.1c.3,0,.5,0,.9-.2,0-1-.6-1.6-1-2.4-2.4-4.3-4.8-8.7-7.3-13-4-7.1-7.9-14.3-11.9-21.4-1.6-2.8-3.1-5.6-4.6-8.4-.3-.6-.8-1.2-.2-2h27.1c7.4-.3,13-4.2,15.7-11.2,1.1-2.9,1.6-5.9,1.6-9v-249.9c0-4.2-.5-8.4-1.6-12.4-1.6-5.8-4.3-11-8.7-15.2-3.5-3.4-7.5-6-12-8-6.2-2.8-12.8-4.2-19.5-5.2-6.8-.9-13.6-1.2-20.4-1.2h-29.9c-.8,0-1.7,0-2.5-.5-.1-8-2.4-15.3-7.3-21.7-9.6-12.7-22.5-17.4-38.1-14.9-11.1,2.5-19.6,8.5-25.3,18.3-3.4,5.8-5,12-5.5,18.7h-27.9c-4.6,0-9.1.2-13.7.3-6.1.2-12,1-18,2.2-5.7,1.2-11.3,3-16.4,5.9-8.7,5-14.4,12.2-16.9,22-1.1,4.4-1.4,8.8-1.4,13.3v246.3c0,1.7,0,3.4.2,5.1.3,3.2,1.3,6.2,3,9,2.1,3.5,5.1,5.8,9,7.1,2.1.7,4.2.9,6.3.9h13.7c4.3,0,8.5,0,12.8.3-.2.4-.3.8-.5,1.1-1.7,3.1-3.4,6.2-5.2,9.3-3.9,7.1-7.9,14.2-11.8,21.2-2.6,4.7-5.2,9.3-7.8,14-.2.3-.3.8-.4,1.2,1.9.3,3.7.1,5.5.1h10.6c1.8,0,3.5.2,5.4-.2,1.1-1.9,2.2-3.8,3.2-5.8,6.5-11.6,12.9-23.2,19.4-34.8,1.2-2.1,2.3-4.3,3.8-6.5h128.8c.8,0,1.6,0,2.4.4v.3Z"/>
  <path class="st6" d="M118.5,316.2c0-.8,0-1.6,0-2.3v-181c0-4.5.3-8.9,1.4-13.3,2.4-9.8,8.1-17.1,16.9-22,5.1-2.9,10.6-4.7,16.4-5.9,5.9-1.2,11.9-2,18-2.2,4.5,0,9.1-.3,13.7-.3h25.6c.8,0,1.6,0,2.6,0,.3,1.8.3,3.4.6,5,.7,4.9,2.3,9.5,4.7,13.8,1,1.7,1.9,3.4,3.2,4.8,3.1,3.4,6.4,6.6,10.5,9s8.5,3.8,13.2,4.7c1.2.2,2.4.4,3.6.5,2.8.2,5.7,0,8.5-.5,3.9-.7,7.7-1.9,11.3-3.8,4.3-2.4,8.3-5.2,11.4-9.1,2.6-3.2,4.9-6.6,6.4-10.5,1.5-4,2.6-8.1,2.5-12.4v-1.7c.8,0,1.7,0,2.5,0h29.9c6.8,0,13.7.3,20.4,1.2,6.7.9,13.3,2.4,19.5,5.2,4.5,2,8.5,4.6,12,8,4.3,4.3,7,9.4,8.7,15.2,1.1,4.1,1.5,8.2,1.6,12.4v182.5c0,.7,0,1.4-.2,2.3-.6.1-1,0-1.2-.5-.3-.7-.5-1.5-.8-2.2-1.7-4.8-4.2-9.2-7.6-13-3.7-4-8-7.2-13.1-9.4-4-1.7-8-2.8-12.4-2.9-.6,0-1.1-.1-1.7-.2-.6,0-1.1-.1-1.7,0-2,.2-4.1.4-6.1.7-8.6,1.6-15.8,5.7-21.6,12.3-3.4,3.9-5.9,8.3-7.6,13.2-.7,2-.3,2.2-2.9,2.2h-113.2c-.8-.8-.9-1.6-1.1-2.4-1.1-3.4-2.8-6.6-4.8-9.5-2.9-4.3-6.6-7.7-11-10.6-6.2-4-13.1-5.6-20.4-5.9-.5,0-1,0-1.5.2-.5,0-1,.1-1.5.2-3.4.1-6.6.9-9.8,2.1-4.3,1.6-8.2,3.9-11.7,6.9-3,2.5-5.4,5.4-7.5,8.7-1.8,2.9-3.3,6-4.2,9.3-.2.8-.6,1.2-1.5,1.2M153.9,221.5h85.8c.5,0,1-.1,1.4-.2.6-1.1.4-2.2.4-3.2v-80.2c0-.4-.2-.8-.3-1.2-1-.4-1.9-.2-2.8-.2h-86.9c-6,0-11.2,3.7-13.3,9.3-.7,1.8-.8,3.6-.8,5.5v57.2c.3,7.2,6.8,13.1,13.5,13.1h3M279.5,221.5h71.3c4.6,0,8.2-2.1,10.9-5.7,2-2.7,2.9-5.8,2.9-9.2v-55.1c0-1.1-.1-2.3-.3-3.4-.8-4.6-3.3-7.9-7.4-10.1-2.3-1.2-4.8-1.7-7.4-1.7h-87.7c-.4,0-.8.2-1.3.3v83.2c0,.4.1.8.2,1.4h18.8v.3Z"/>
  <path class="st5" d="M118.5,316.4c.9-.2,1.3-.6,1.5-1.4.9-3.3,2.3-6.4,4.2-9.3,2-3.3,4.5-6.2,7.5-8.7,3.5-3,7.4-5.3,11.7-6.9,3.1-1.1,6.4-2,9.8-2.1.5,0,1,0,1.5-.2.5,0,1-.2,1.5-.2,7.3.3,14.2,1.9,20.4,5.9,4.4,2.8,8.1,6.3,11,10.6,2,2.9,3.6,6.1,4.8,9.5.3.8.4,1.7,1.1,2.4h113.2c2.6,0,2.3-.2,2.9-2.2,1.6-4.9,4.1-9.3,7.6-13.2,5.8-6.6,13-10.7,21.6-12.3,2-.4,4.1-.5,6.1-.7h1.7c.6,0,1.1.2,1.7.2,4.3,0,8.4,1.3,12.4,2.9,5.1,2.1,9.4,5.3,13.1,9.4,3.5,3.8,5.9,8.2,7.6,13,.3.7.5,1.5.8,2.2.2.4.5.6,1.1.7.2,3,.3,6,.3,9v55.9c0,3.1-.5,6.1-1.6,9-2.6,6.9-8.3,10.9-15.7,11.2-3.3.1-6.7,0-10,0h-36.8c-.9,0-1.8.1-2.7.2-.8,0-1.6-.1-2.3-.1h-129.2c-1,0-1.5-.1-2.1-.1h-46.1c-2.2,0-4.3-.3-6.3-.9-3.9-1.2-6.9-3.6-9-7.1-1.7-2.8-2.7-5.8-3-9,0-1.7-.2-3.4-.2-5.1v-62.8M330,336.5c.4.6.8,1.1,1.3,1.7,4.9,5.3,10.9,7.4,18,6,10.4-2.1,17-12.2,14.8-22.6-2.2-10.2-12.5-17.3-23.7-14.2-10.2,2.8-15.4,12.8-13.3,22.2.5,2.4,1.5,4.6,3,6.9M175.2,326.2c0-1.2,0-2.4-.2-3.6-1.8-10.2-10.8-17.3-21.8-15.6-9.4,1.5-15.3,9.3-15.8,17.6-.7,11.7,9.6,22.1,22.6,19.7,10.4-2,15.2-10.9,15.2-18h0Z"/>
  <path class="st7" d="M288.7,88.7v1.9c0,4.3-1,8.4-2.5,12.4-1.5,3.9-3.8,7.3-6.4,10.5-3.1,3.9-7.1,6.7-11.4,9.1-3.5,2-7.3,3.1-11.3,3.8-2.8.5-5.6.7-8.5.5-1.2,0-2.4-.2-3.6-.5-4.6-.9-9-2.4-13.2-4.7-4.1-2.3-7.3-5.6-10.5-9-1.3-1.4-2.3-3.1-3.2-4.8-2.5-4.3-4-8.9-4.7-13.8-.2-1.6-.3-3.2-.4-5.1,0-6.9,1.7-13.1,5-18.9,5.7-9.8,14.2-15.8,25.3-18.3,15.6-2.5,28.5,2.2,38.1,14.9,4.8,6.4,7.1,13.7,7.3,21.8M252.8,70.3c-1.8-.2-3.7,0-5.5.2-10.1,2-16.7,11.7-15.1,21.6,1.4,9.1,10.1,17.8,22.2,15.6,12.6-2.3,18.7-15.4,13.8-26.4-2.9-6.4-8-10-15.3-11h0Z"/>
  <path class="st8" d="M316.7,401.5c.9-.2,1.8-.3,2.7-.3h19.1c0,.8.5,1.4.8,2,1.5,2.8,3.1,5.6,4.6,8.4,4,7.1,7.9,14.3,11.9,21.4,2.4,4.3,4.9,8.7,7.3,13,.4.7,1,1.4,1,2.4-.3,0-.6.2-.9.2h-20.1c-1.3-1.6-8.8-14.9-13.4-23.4-4.2-7.9-8.6-15.7-13-23.6h0Z"/>
  <path class="st8" d="M163.4,401.5c.6-.2,1.2-.2,1.7-.2h17.9c.6,0,1.1,0,1.9.2-.9,2.2-2,4.3-3.2,6.5-6.4,11.6-12.9,23.2-19.4,34.8-1.1,1.9-2.1,3.8-3.2,5.8-1.8.4-3.6.1-5.4.2h-10.6c-1.8,0-3.5.1-5.5-.1.2-.5.2-.9.4-1.2,2.6-4.7,5.2-9.3,7.8-14,3.9-7.1,7.9-14.2,11.8-21.2,1.7-3.1,3.4-6.2,5.2-9.3.2-.4.4-.8.6-1.3v-.2Z"/>
  <path class="st0" d="M153.7,221.5h-2.8c-6.8,0-13.2-5.9-13.5-13.1v-57.2c0-1.9.1-3.7.8-5.5,2.1-5.6,7.3-9.3,13.3-9.3h86.9c.9,0,1.8-.2,2.8.2.1.4.3.8.3,1.2v80.2c0,1.1.2,2.1-.4,3.2-.4,0-.9.2-1.4.2h-86Z"/>
  <path class="st0" d="M279.2,221.5h-18.6c-.1-.6-.2-1-.2-1.4v-83.2c.5-.1.9-.3,1.3-.3h87.7c2.6,0,5.1.4,7.4,1.7,4.1,2.2,6.6,5.5,7.4,10.1.2,1.1.3,2.3.3,3.4v55.1c0,3.4-.8,6.5-2.9,9.2-2.7,3.6-6.4,5.7-10.9,5.7h-71.5v-.3Z"/>
  <path class="st3" d="M329.9,336.4c-1.4-2.2-2.4-4.4-2.9-6.8-2-9.4,3.2-19.4,13.3-22.2,11.2-3.1,21.4,3.9,23.7,14.2,2.3,10.4-4.4,20.6-14.8,22.6-7,1.4-13.1-.7-18-6-.5-.5-.9-1.1-1.4-1.8h0Z"/>
  <path class="st3" d="M175.2,326.4c0,6.9-4.8,15.8-15.2,17.8-13,2.5-23.2-8-22.6-19.7.5-8.3,6.4-16.1,15.8-17.6,11-1.7,20,5.4,21.8,15.6.2,1.2.1,2.4.2,3.8h0Z"/>
  <path class="st4" d="M253,70.3c7.1,1,12.2,4.7,15.1,11,5,11-1.2,24.1-13.8,26.4-12.1,2.2-20.8-6.5-22.2-15.6-1.6-10,5-19.6,15.1-21.6,1.8-.4,3.7-.4,5.7-.2h.1Z"/>
  <g>
    <circle class="st1" cx="427.4" cy="72.6" r="72.6"/>
    <path class="st2" d="M418.4,49.9h17.9v77.6h-17.9V49.9ZM418.5,21h17.9v17.7h-17.9v-17.7Z"/>
  </g>
</svg>