<?xml version="1.0" encoding="UTF-8"?>
<svg id="Layer_1" xmlns="http://www.w3.org/2000/svg" version="1.1" viewBox="0 0 500 500">
  <!-- Generator: Adobe Illustrator 29.5.0, SVG Export Plug-In . SVG Version: 2.1.0 Build 137)  -->
  <defs>
    <style>
      .st0 {
        fill: #d2e9cb;
      }

      .st1 {
        fill: #fff;
      }

      .st2 {
        fill: #28b24c;
      }

      .st3 {
        fill: #d2e8ca;
      }
    </style>
  </defs>
  <path class="st0" d="M239.7-.2c7.1,0,14.2,0,21.7.1.8.2,1.1.3,1.5.3,3.6-.2,7.2.5,10.8.5.3,0,.6,0,.9,0,2,.3,4,.5,6.1.8,2.9.4,5.8.6,8.7,1.1,3.9.6,7.7,1.4,11.6,2.2,8.1,1.6,16.1,3.7,24,6.2,7.7,2.5,15.4,5,22.9,8.4,4.2,1.9,8.5,3.7,12.7,5.8,4.4,2.2,8.6,4.6,12.9,6.9,5,2.7,9.8,5.7,14.5,8.9,3.6,2.3,7.1,4.8,10.5,7.3,3.3,2.4,6.5,5,9.7,7.6,2.3,1.8,4.5,3.7,6.7,5.6,2.4,2.2,4.9,4.2,7.2,6.5,6,5.8,11.9,11.7,17.3,18.1,2.5,2.9,5,5.9,7.4,8.9,4.1,5.1,7.9,10.4,11.6,15.8,2,3,3.9,6.1,5.8,9.2,3.2,5.2,6.1,10.5,8.9,15.9,2,3.8,3.8,7.8,5.6,11.7.7,1.4,1.3,2.9,1.9,4.3,1.5,3.9,3.1,7.8,4.6,11.7,2.7,7,4.9,14.1,6.8,21.4,1.5,5.8,2.8,11.6,3.9,17.5.9,4.6,1.7,9.3,2.3,14,.2,1.6.3,3.3.6,4.9.5,3.2.9,6.4.8,9.6,0,.9,0,1.9,0,2.8,0,.4.3.9.4,1.3,0,9.8,0,19.6-.1,29.8-.2,1.5-.3,2.6-.3,3.7,0,1.3,0,2.5-.1,3.8-.2,2.2-.5,4.4-.8,6.5-.4,3-.6,6.1-1.1,9.1-.6,4-1.5,7.9-2.2,11.8-1.5,8.3-3.7,16.4-6.2,24.5-1.7,5.5-3.7,10.9-5.7,16.3-2.1,5.6-4.5,11.1-7.1,16.5-1.9,3.9-3.9,7.7-5.9,11.6-.3.6-.6,1.1-.9,1.7-1.9,3.3-3.8,6.5-5.8,9.8-3.5,5.8-7.3,11.4-11.3,16.9-3.7,5-7.7,9.8-11.6,14.6-3.2,4-6.8,7.6-10.3,11.4-2.8,3.1-5.9,6.1-9.1,8.9-3.2,2.9-6.4,5.9-9.7,8.6-3.1,2.6-6.2,5.2-9.3,7.6-6.3,4.8-12.7,9.4-19.4,13.5-4.6,2.8-9.1,5.6-13.9,8.1-9,4.8-18.1,9.2-27.7,12.8-6.7,2.6-13.5,4.9-20.3,7-1.5.5-3,.9-4.6,1.3-7.4,1.9-14.8,3.7-22.3,5-2.6.4-5.1.8-7.7,1.2-1.5.2-3,.4-4.4.6-2.5.4-5,.8-7.5.8-.4,0-.8,0-1.2,0-3.3.6-6.6.5-9.9.9-.6,0-1.3,0-1.8.5-7.4,0-14.9,0-22.7-.1-.5-.2-.7-.3-.8-.3-2.8-.2-5.7-.4-8.5-.6-.3,0-.6,0-.9,0-2.4-.3-4.8-.6-7.3-.9-1.3-.2-2.7-.3-4-.5-1.8-.2-3.6-.3-5.4-.6-5.3-1-10.5-2-15.8-3.1-8.5-1.7-16.8-4.1-25.1-6.8-6.3-2.1-12.5-4.4-18.6-7-3.8-1.7-7.5-3.3-11.2-5.1-4.2-2.1-8.3-4.2-12.4-6.4-5.4-2.9-10.6-6.2-15.8-9.5-6.1-4-12.1-8.3-17.9-12.8-1.9-1.5-3.7-2.9-5.5-4.5-1.8-1.5-3.5-3.1-5.3-4.7-3-2.7-6.1-5.4-9.1-8.3-2.6-2.5-5.2-5-7.5-7.8-1.6-1.9-3.4-3.7-5.1-5.6-2.8-3-5.4-6.1-8-9.3-3.8-4.7-7.4-9.6-10.9-14.6-3.7-5.4-7.3-10.8-10.5-16.6-2.6-4.7-5.3-9.3-7.7-14.1-2.1-4.2-3.9-8.6-5.8-12.9-2.2-5-4.2-10.2-6-15.4-1.9-5.5-3.6-11.1-5.2-16.7-1.2-4.3-2.2-8.7-3.1-13.1-1.1-5.5-2.3-10.9-2.9-16.5-.4-3.1-.9-6.2-1.3-9.3-.3-2.6-.4-5.2-.6-7.8,0-.3,0-.6,0-.9-.1-1.2-.3-2.3-.3-3.5,0-1.6,0-3.2,0-4.7,0-.6-.2-1.1-.9-1.2,0-1.4,0-2.9,0-4.6,0-.4,0-.5,0-.6,0-2.2,0-4.4,0-7,.1-.4,0-.5,0-.6,0-1.3,0-2.6.2-4.1.4-.6.6-.9.7-1.3,0-.7,0-1.4,0-2.1,0-1.9,0-3.8.1-5.7,0-1.3.2-2.7.4-4,0-.5,0-1.1,0-1.7.3-2.2.5-4.4.8-6.5.4-2.9.6-5.8,1.1-8.7.8-4.7,1.8-9.4,2.7-14.1,1.3-7.1,3.2-14.1,5.4-21,1.8-5.7,3.7-11.4,5.9-17,2.6-6.7,5.5-13.2,8.6-19.7,1.5-3.2,3.2-6.3,4.9-9.4,1-1.8,1.9-3.6,3-5.4,4.1-6.8,8.2-13.6,12.9-20.1,3-4.1,6-8.1,9.2-12,1.8-2.3,3.7-4.5,5.6-6.7,2-2.3,3.9-4.7,6.1-6.9,4.9-4.9,9.7-9.9,14.9-14.6,4.2-3.7,8.4-7.4,12.8-10.9,5.1-4.1,10.4-7.9,15.8-11.6,4.4-2.9,8.9-5.7,13.4-8.4,4.3-2.5,8.6-4.9,13-7.2,4.3-2.2,8.7-4.2,13.1-6.1,4.9-2.1,9.9-4.1,14.9-6,4.8-1.7,9.7-3.3,14.6-4.8,7.9-2.4,16-4.3,24.1-5.8,4.2-.8,8.4-1.4,12.6-2,4.4-.6,8.9-1.3,13.4-1.4.2,0,.5,0,.7,0,1.4-.4,2.8-.3,4.2-.4,1,0,2.1,0,3.1,0,.4,0,.9-.3,1.3-.4M401.2,119.4c-2.3-3.7-5.3-6.7-9.1-8.8-3.6-2-7.5-2.9-11.6-2.9-17.9,0-35.8,0-53.7,0-4.8,0-9.6,0-14.4,0-.8,0-1.5,0-2.3-.1-.4-1-.2-1.8-.2-2.7,0-7,.1-14.1,0-21.1-.2-9.4-4.6-16.4-12.8-20.9-3.4-1.9-7.1-2.6-10.9-2.6-12.2,0-24.3,0-36.5,0-11.6,0-23.2-.1-34.8,0-9.3.1-16.2,4.6-20.7,12.8-1.8,3.3-2.7,6.9-2.7,10.7,0,7,0,14,0,21.1,0,.8.1,1.7-.2,2.6-1,.3-1.9.2-2.8.2-22.3,0-44.5,0-66.8,0-1.4,0-2.9,0-4.3.2-12.6,1.7-20.7,12.4-20.6,23.4,0,8,0,15.9,0,23.9,0,11.8,8.9,21.5,19.8,23.2,1.2.2,2.5.4,3.8.5.3,1.1.2,2.1.2,3.1,0,68.9,0,137.8,0,206.7,0,1.3,0,2.7,0,4,0,4,.7,8,1.7,11.9,5.5,19.8,23.7,34.6,45.7,34.6,55.2,0,110.3,0,165.5,0,3.1,0,6.1-.2,9.2-.9,16.2-3.4,27.7-12.8,34.5-27.8,2.8-6.1,3.9-12.6,3.9-19.3,0-69.5,0-139.1,0-208.6,0-.8,0-1.6,0-2.4,0-.5.1-.9.2-1.3,1.9-.3,3.7-.5,5.5-.9,10.6-2.6,18-12.2,18-23,0-7.7,0-15.3,0-23,0-4.4-.9-8.6-3.3-12.8Z"/>
  <path class="st1" d="M0,245.8c.1,0,.1.1,0,.3,0,0,0-.2,0-.3Z"/>
  <path class="st1" d="M0,253.3c.1,0,.1.1,0,.3,0,0,0-.2,0-.3Z"/>
  <path class="st2" d="M401.3,119.6c2.3,4,3.2,8.2,3.2,12.6,0,7.7,0,15.3,0,23,0,10.8-7.4,20.4-18,23-1.8.4-3.6.6-5.5.9,0,.4-.2.8-.2,1.3,0,.8,0,1.6,0,2.4,0,69.5,0,139.1,0,208.6,0,6.7-1.1,13.2-3.9,19.3-6.8,15-18.3,24.4-34.5,27.8-3,.6-6.1.9-9.2.9-55.2,0-110.3,0-165.5,0-22,0-40.2-14.8-45.7-34.6-1.1-3.9-1.7-7.9-1.7-11.9,0-1.3,0-2.7,0-4,0-68.9,0-137.8,0-206.7,0-1,.1-2-.2-3.1-1.3-.2-2.5-.4-3.8-.5-10.9-1.7-19.7-11.4-19.8-23.2,0-8,0-15.9,0-23.9,0-11,8-21.7,20.6-23.4,1.4-.2,2.8-.2,4.3-.2,22.3,0,44.5,0,66.8,0,.9,0,1.9.1,2.8-.2.3-.9.2-1.8.2-2.6,0-7,0-14,0-21.1,0-3.8.8-7.4,2.7-10.7,4.5-8.1,11.4-12.6,20.7-12.8,11.6-.2,23.2,0,34.8,0,12.2,0,24.3,0,36.5,0,3.9,0,7.6.8,10.9,2.6,8.2,4.5,12.7,11.5,12.8,20.9.1,7,0,14,0,21.1,0,.8-.1,1.7.2,2.7.8,0,1.6.1,2.3.1,4.8,0,9.6,0,14.4,0,17.9,0,35.8,0,53.7,0,4.1,0,8,.9,11.6,2.9,3.8,2.1,6.8,5,9.2,8.9M253.2,178.9c-35.1,0-70.2,0-105.4,0-.8,0-1.6,0-2.4,0-.4,0-.9.2-1.4.3v3.2c0,69.1,0,138.1,0,207.2,0,1,0,2.1,0,3.1.1,4.2,1.2,8.1,3.4,11.7,4.8,7.6,11.8,11.4,20.8,11.4,54.8,0,109.7,0,164.5,0,1.5,0,3,0,4.5-.4,9-1.7,15.1-6.8,18.4-15.3,1.1-2.9,1.4-5.9,1.4-9.1,0-69.7,0-139.4,0-209.1,0-.5,0-.9,0-1.4,0-.5,0-.9-.1-1.3-.3-.1-.4-.3-.6-.3-34.2,0-68.5,0-103.2,0M340.8,155.2c8.9,0,17.8,0,26.8,0,.7,0,1.4,0,2.1,0,5.7-.4,10.4-4.9,11.1-10.5.6-5.8-3.1-11.2-8.8-12.7-1.6-.4-3.1-.4-4.7-.4-77.8,0-155.6,0-233.5,0-.6,0-1.3,0-1.9,0-6,.2-10.9,4.7-11.5,10.5-.6,5.9,3.2,11.3,9,12.8,1.5.4,3,.4,4.5.4,68.8,0,137.6,0,206.9,0M254.6,107.8c4.7,0,9.3,0,14,0,5.1,0,10.3,0,15.4,0,.7,0,1.4.2,2.1-.5,0-.5,0-1,0-1.6,0-3.2,0-6.3,0-9.5.1-6.7-5.4-12.2-12.1-12.2-15.6,0-31.2,0-46.8,0-6.4,0-12.1,5.1-12.1,11.9,0,3.4,0,6.8,0,10.2,0,.4.1.9.2,1.3.3.1.4.2.6.2,12.8,0,25.5,0,38.8,0Z"/>
  <path class="st0" d="M253.4,178.9c34.5,0,68.7,0,103,0,.1,0,.3.1.6.3,0,.4.1.8.1,1.3,0,.5,0,.9,0,1.4,0,69.7,0,139.4,0,209.1,0,3.1-.3,6.2-1.4,9.1-3.3,8.5-9.4,13.6-18.4,15.3-1.5.3-3,.4-4.5.4-54.8,0-109.7,0-164.5,0-9,0-16-3.8-20.8-11.4-2.2-3.5-3.3-7.5-3.4-11.7,0-1,0-2.1,0-3.1,0-69.1,0-138.1,0-207.2v-3.2c.6-.1,1-.3,1.4-.3.8,0,1.6,0,2.4,0,35.1,0,70.2,0,105.6,0M203.2,325.9c0-28.6,0-57.1,0-85.7,0-.9,0-1.7,0-2.6-.2-5.7-4.6-10.6-10.2-11.3-6-.8-11.5,2.9-13,8.6-.4,1.6-.4,3.1-.4,4.7,0,46.3,0,92.7,0,139,0,.6,0,1.3,0,1.9.2,6,4.7,10.9,10.6,11.5,5.9.6,11.4-3.2,12.7-9,.3-1.2.4-2.5.4-3.7,0-17.6,0-35.2,0-53.3M262.4,314.1c0-24.6,0-49.2,0-73.9,0-.8,0-1.6,0-2.4-.1-6-4.7-11-10.5-11.6-6.1-.6-11.5,3.1-12.9,9.1-.3,1.4-.3,2.8-.3,4.2,0,46.3,0,92.7,0,139,0,.7,0,1.4,0,2.1.3,5.8,4.8,10.6,10.6,11.3,5.8.6,11.2-3.1,12.7-8.7.4-1.4.4-2.8.4-4.2,0-21.5,0-42.9,0-64.9M321.6,282.8c0-8.4,0-16.7,0-25.1,0-6.6,0-13.3,0-19.9,0-6-4.7-11-10.4-11.6-6.1-.6-11.5,3.1-12.9,9.1-.3,1.4-.3,2.8-.3,4.2,0,46.3,0,92.7,0,139,0,.7,0,1.4,0,2.1.3,5.8,4.8,10.6,10.6,11.2,5.8.6,11.2-3.1,12.7-8.8.4-1.4.4-2.8.4-4.2,0-31.9,0-63.8,0-96.1Z"/>
  <path class="st3" d="M340.6,155.2c-69.1,0-137.9,0-206.7,0-1.5,0-3,0-4.5-.4-5.8-1.5-9.6-6.9-9-12.8.6-5.9,5.6-10.4,11.5-10.5.6,0,1.3,0,1.9,0,77.8,0,155.6,0,233.5,0,1.6,0,3.1,0,4.7.4,5.6,1.5,9.4,6.9,8.8,12.7-.6,5.7-5.3,10.2-11.1,10.5-.7,0-1.4,0-2.1,0-8.9,0-17.8,0-27,0Z"/>
  <path class="st3" d="M254.4,107.8c-13,0-25.8,0-38.6,0-.1,0-.3-.1-.6-.2,0-.4-.2-.8-.2-1.3,0-3.4,0-6.8,0-10.2,0-6.9,5.6-12,12.1-11.9,15.6,0,31.2,0,46.8,0,6.7,0,12.2,5.4,12.1,12.2,0,3.2,0,6.3,0,9.5,0,.5,0,1.1,0,1.6-.6.7-1.4.5-2.1.5-5.1,0-10.3,0-15.4,0-4.7,0-9.3,0-14.2,0Z"/>
  <path class="st2" d="M203.2,326.2c0,17.8,0,35.4,0,53,0,1.3,0,2.5-.4,3.7-1.4,5.8-6.8,9.6-12.7,9-5.9-.6-10.4-5.5-10.6-11.5,0-.6,0-1.3,0-1.9,0-46.3,0-92.7,0-139,0-1.6,0-3.1.4-4.7,1.6-5.7,7.1-9.3,13-8.6,5.6.7,10,5.6,10.2,11.3,0,.9,0,1.7,0,2.6,0,28.6,0,57.1,0,85.9Z"/>
  <path class="st2" d="M262.4,314.3c0,21.7,0,43.2,0,64.6,0,1.4,0,2.8-.4,4.2-1.5,5.6-6.9,9.4-12.7,8.7-5.8-.6-10.3-5.4-10.6-11.3,0-.7,0-1.4,0-2.1,0-46.3,0-92.7,0-139,0-1.4,0-2.9.3-4.2,1.4-6,6.8-9.7,12.9-9.1,5.8.6,10.3,5.6,10.5,11.6,0,.8,0,1.6,0,2.4,0,24.6,0,49.2,0,74.1Z"/>
  <path class="st2" d="M321.6,283.1c0,32.1,0,64,0,95.9,0,1.4,0,2.8-.4,4.2-1.5,5.6-6.9,9.4-12.7,8.8-5.8-.6-10.3-5.4-10.6-11.2,0-.7,0-1.4,0-2.1,0-46.3,0-92.7,0-139,0-1.4,0-2.9.3-4.2,1.4-6,6.7-9.7,12.9-9.1,5.8.6,10.4,5.6,10.4,11.6,0,6.6,0,13.3,0,19.9,0,8.4,0,16.7,0,25.3Z"/>
</svg>