<?xml version="1.0" encoding="UTF-8"?>
<svg id="Layer_1" xmlns="http://www.w3.org/2000/svg" version="1.1" viewBox="0 0 500 500">
  <!-- Generator: Adobe Illustrator 29.5.0, SVG Export Plug-In . SVG Version: 2.1.0 Build 137)  -->
  <defs>
    <style>
      .st0 {
        fill: #d2d3d4;
      }

      .st1 {
        fill: #676867;
      }

      .st2 {
        fill: #d0d2d3;
      }

      .st3 {
        fill: #686968;
      }
    </style>
  </defs>
  <path class="st0" d="M500.2,226.2c0,1,0,1.9-.1,3.2-.3.6-.2.9.1,1.1,0,.4,0,.7,0,1.3-.1.3-.1.5,0,.6,0,11.5,0,23.1,0,34.9,0,.3-.2.4-.2.4,0,0,.1.2.2.2,0,.2,0,.4-.1.9-.4.7-.4,1.2.1,1.5,0,.8,0,1.6-.2,2.7-.3.5-.6.7-.7,1-.2,1.8-.4,3.6-.6,5.4-.3,3-.6,5.9-1.1,8.9-.7,4.1-1.5,8.2-2.3,12.3-1.2,6.3-2.7,12.6-4.6,18.8-1.7,5.4-3.5,10.8-5.3,16.2-3.5,9.8-7.7,19.3-12.5,28.6-2.8,5.3-5.7,10.6-8.8,15.7-4.4,7.3-9.2,14.3-14.4,21.1-2.9,3.7-6,7.3-8.9,11-3.3,4.3-7.2,8-10.7,11.9-3.5,3.9-7.4,7.3-11.2,10.8-1.7,1.6-3.5,3.2-5.3,4.7-2.4,2-4.8,4-7.3,6-3.4,2.6-6.7,5.3-10.2,7.7-4.5,3.2-9.1,6.3-13.8,9.2-4.8,2.9-9.6,5.8-14.5,8.4-5.6,2.9-11.3,5.6-17,8.3-2.3,1.1-4.8,2.1-7.2,3-3.2,1.2-6.4,2.3-9.5,3.5-5.7,2.2-11.5,3.9-17.4,5.5-7.4,2-14.8,3.7-22.3,5-2.2.4-4.3.8-6.5,1.1-1.8.3-3.6.3-5.4.6-4.6.7-9.2,1.2-13.8,1.3-1.3,0-2.7.1-3.8.9-9.3,0-18.6,0-28.3-.1-1.8-.6-3.3-.8-4.8-.8-2.6-.1-5.2-.3-7.8-.5-.2,0-.3,0-.5,0-1.8-.3-3.6-.5-5.4-.8-2.5-.3-5-.6-7.5-1-4.3-.7-8.5-1.5-12.8-2.4-8.9-1.9-17.6-4.2-26.2-7.1-6.3-2.1-12.5-4.4-18.6-7-3.1-1.4-6.2-2.7-9.3-4.2-3.2-1.5-6.4-3.1-9.5-4.8-2.9-1.5-5.7-3.1-8.5-4.7-3-1.7-6-3.5-8.9-5.4-4.6-3-9.1-6-13.5-9.1-5.1-3.6-10-7.5-14.6-11.6-3.8-3.4-7.6-6.6-11.3-10-4.8-4.4-9.1-9.4-13.6-14.1-.1-.1-.2-.2-.3-.4-2.7-3.3-5.4-6.6-8.1-9.8-3.9-4.7-7.6-9.7-11-14.8-4.3-6.3-8.5-12.8-12.1-19.5-1.3-2.4-2.4-4.8-3.8-7.1-2.3-3.8-4-7.9-5.8-11.9-2.4-5.4-4.5-10.9-6.7-16.4-3-7.7-5.3-15.5-7.4-23.5-1.2-4.7-2.2-9.3-3.2-14.1-.8-4.1-1.4-8.2-2.1-12.3-.4-2.6-.7-5.1-1-7.7-.3-3.2-.9-6.4-.9-9.6,0-.4,0-.8,0-1.2-.1-1.2-.3-2.3-.3-3.5,0-1.6,0-3.2,0-4.7,0-.6-.2-1.1-.9-1.2,0-5.5,0-11.1.2-16.9.7-.5.7-1,.7-1.5,0-1.5,0-3,0-4.5.1-2.8.3-5.7.5-8.5.2-2.3.6-4.5.8-6.8.4-2.9.6-5.8,1.1-8.7.8-4.7,1.8-9.4,2.7-14.1,1.3-7.1,3.2-14.1,5.4-21,1.8-5.7,3.7-11.4,5.9-17,2.6-6.6,5.4-13.1,8.5-19.5,3.2-6.6,6.8-13,10.6-19.3,4.1-6.8,8.5-13.3,13.2-19.6,2.9-4,6-7.9,9.2-11.7,2.9-3.3,5.5-6.7,8.6-9.8,4.9-5,9.8-10.1,15-14.8,3.5-3.1,7.1-6.2,10.7-9.2,5.7-4.7,11.7-9.1,17.9-13.2,4.5-3,9.2-5.9,13.8-8.6,4.2-2.5,8.5-4.8,12.8-7.1,4.2-2.1,8.5-4.1,12.9-6,4.7-2,9.4-4,14.2-5.7,8.4-3,16.9-5.7,25.5-7.8,5.3-1.3,10.6-2.4,15.9-3.4,4.1-.8,8.2-1.3,12.4-1.9,1.6-.2,3.1-.4,4.7-.5,2.4-.2,4.9-.4,7.3-.6,1.3-.1,2.7-.3,4-.5.3,0,.5-.3.8-.4,10,0,19.9,0,30.2.1,2.5.4,4.7.6,6.9.8.7,0,1.4,0,2.1.1,2,.2,4.1.5,6.1.8,2.9.4,5.8.6,8.7,1.1,4,.7,7.9,1.4,11.8,2.2,7.8,1.5,15.5,3.6,23.1,5.9,4.9,1.5,9.7,3.3,14.5,5,7.3,2.6,14.3,5.8,21.3,9.2,4.5,2.2,8.9,4.7,13.4,7.1,5,2.7,9.8,5.7,14.5,8.9,3.6,2.3,7,4.8,10.5,7.3,3,2.2,5.9,4.5,8.8,6.8,2.5,2,4.9,4.2,7.4,6.3,2.8,2.4,5.6,4.9,8.3,7.4,5.1,4.9,10,9.8,14.7,15.1,1.4,1.5,2.7,3.1,4,4.6,1.6,1.9,3.1,4,4.7,5.9,3.7,4.5,7.1,9.2,10.4,14,2.6,3.8,5,7.7,7.4,11.5,3.4,5.4,6.5,11,9.3,16.7,2.1,4.2,4,8.6,6,12.9,2.4,5.2,4.4,10.5,6.3,15.8,3.3,9.3,6.2,18.7,8.3,28.4,1.6,7.1,2.9,14.2,4,21.4.2,1.4.4,2.8.5,4.2.2,2,.4,3.9.6,5.9,0,.5.3.9.9.9M175.5,439.3c52.3,0,104.6,0,157,0,3.2,0,6.5-.3,9.6-.8,15.7-2.8,30.2-14.1,36.1-31.1,1.8-5.2,2.6-10.5,2.6-16,0-69.5,0-138.9,0-208.4,0-.9,0-1.7,0-2.6,0-.5.1-.9.2-1.4,1.3-.2,2.6-.4,3.8-.6,11.3-1.9,19.6-11.6,19.6-23,0-8,0-16.1,0-24.1,0-11.3-8.4-21-19.1-23.1-1.9-.4-3.8-.4-5.7-.4-22.1,0-44.2,0-66.3,0-.7,0-1.4,0-2.1,0-.4,0-.9-.1-1.5-.2,0-1,0-1.8,0-2.7,0-6.9,0-13.9,0-20.8,0-2.1-.3-4.1-.8-6.1-2.7-10.2-12.3-17.6-22.9-17.5-23.7,0-47.4,0-71,0-1,0-2.1,0-3.1.1-11.2,1.5-18.7,10.2-20.3,19.2-.3,1.9-.4,3.8-.4,5.7,0,6.7,0,13.4,0,20.1,0,.7.2,1.4-.5,2.2-.7,0-1.6,0-2.4,0-8.1,0-16.3,0-24.4,0-14.3,0-28.6,0-42.9,0-1.9,0-3.8,0-5.6.5-10.7,2.1-18.7,11.7-18.9,22.5-.1,8.4-.1,16.7,0,25.1,0,5.9,2.3,11.1,6.3,15.4,4.2,4.5,9.5,6.9,15.6,7.5.5,0,1,.2,1.7.3,0,1.1,0,2.2,0,3.2,0,45.8,0,91.5,0,137.3,0,23.6,0,47.2,0,70.8,0,2.6,0,5.2.4,7.8,1.4,9.9,5.4,18.6,12.2,25.9,9.4,10,21,15,34.8,15.2,2.4,0,4.9,0,7.8,0Z"/>
  <path class="st1" d="M175.3,439.3c-2.7,0-5.1,0-7.6,0-13.7-.2-25.4-5.2-34.8-15.2-6.8-7.3-10.8-16-12.2-25.9-.4-2.6-.4-5.2-.4-7.8,0-23.6,0-47.2,0-70.8,0-45.8,0-91.5,0-137.3,0-1,0-2,0-3.2-.6-.1-1.1-.2-1.7-.3-6.1-.6-11.4-3-15.6-7.5-4-4.3-6.2-9.5-6.3-15.4-.1-8.4-.1-16.7,0-25.1.1-10.9,8.2-20.4,18.9-22.5,1.9-.4,3.8-.5,5.6-.5,14.3,0,28.6,0,42.9,0,8.1,0,16.3,0,24.4,0,.9,0,1.7,0,2.4,0,.7-.8.5-1.5.5-2.2,0-6.7,0-13.4,0-20.1,0-1.9,0-3.8.4-5.7,1.6-9,9-17.6,20.3-19.2,1-.1,2-.1,3.1-.1,23.7,0,47.4,0,71,0,10.6,0,20.2,7.3,22.9,17.5.5,2,.8,4,.8,6.1,0,6.9,0,13.9,0,20.8,0,.9,0,1.7,0,2.7.6,0,1,.2,1.5.2.7,0,1.4,0,2.1,0,22.1,0,44.2,0,66.3,0,1.9,0,3.8,0,5.7.4,10.7,2,19.1,11.8,19.1,23.1,0,8,0,16.1,0,24.1,0,11.4-8.4,21.1-19.6,23-1.2.2-2.5.4-3.8.6,0,.5-.2.9-.2,1.4,0,.9,0,1.7,0,2.6,0,69.5,0,138.9,0,208.4,0,5.5-.8,10.9-2.6,16-5.9,17-20.4,28.3-36.1,31.1-3.2.6-6.4.8-9.6.8-52.3,0-104.6,0-157.2,0M287.8,415.6c14.9,0,29.8,0,44.8,0,1.5,0,3,0,4.5-.3,9.9-1.8,16.3-7.5,19.3-17,.8-2.4.9-4.9.9-7.5,0-69.5,0-139.1,0-208.6,0-.6,0-1.1,0-1.7,0-.5-.1-.9-.2-1.4-1.2-.4-2.3-.2-3.4-.2-68.7,0-137.3,0-206,0-.7,0-1.4,0-2.1,0-.4,0-.9.2-1.4.3v3.2c0,69,0,138,0,207,0,1.1,0,2.2,0,3.3.5,8.6,4.4,15.2,11.7,19.7,3.9,2.4,8.3,3.3,12.9,3.3,39.5,0,79.1,0,119.1,0M338,155.1c10,0,20,0,30.1,0,1.3,0,2.7-.1,4-.4,5.1-1.3,8.8-6,8.8-11.3,0-5.3-3.5-10-8.6-11.5-1.7-.5-3.4-.4-5.2-.4-77.7,0-155.3,0-233,0-.8,0-1.6,0-2.4,0-5.8.2-10.7,4.7-11.3,10.5-.6,5.8,3.2,11.3,8.8,12.7,1.6.4,3.3.4,4.9.4,67.8,0,135.6,0,203.9,0M268.4,84.1c-13.5,0-27,0-40.5,0-1.2,0-2.4,0-3.5.3-5.4,1.2-9.2,5.8-9.3,11.4,0,3.5,0,7.1,0,10.6,0,.4.1.7.2,1.2,1,.3,2,.2,2.9.2,21.6,0,43.2,0,64.8,0,.6,0,1.1,0,1.7,0,.4,0,.9-.2,1.3-.3,0-.3.2-.4.2-.6,0-3.9.2-7.9,0-11.8-.3-6-5.3-10.8-11.3-11-2,0-3.9,0-6.4,0Z"/>
  <path class="st0" d="M287.5,415.6c-39.8,0-79.3,0-118.9,0-4.6,0-9-.9-12.9-3.3-7.4-4.5-11.2-11.1-11.7-19.7,0-1.1,0-2.2,0-3.3,0-69,0-138,0-207v-3.2c.5-.1,1-.3,1.4-.3.7,0,1.4,0,2.1,0,68.7,0,137.3,0,206,0,1.1,0,2.2-.2,3.4.2,0,.5.1.9.2,1.4,0,.6,0,1.1,0,1.7,0,69.5,0,139.1,0,208.6,0,2.5-.1,5.1-.9,7.5-3,9.5-9.4,15.3-19.3,17-1.5.3-3,.3-4.5.3-14.9,0-29.8,0-45,0M203.2,322.6c0-27.5,0-55.1,0-82.6,0-.8,0-1.6,0-2.4-.2-5.6-4.3-10.6-10.2-11.3-7.2-.9-12,4-13.1,8.8-.4,1.6-.4,3.1-.4,4.7,0,46.2,0,92.3,0,138.5,0,.8,0,1.6,0,2.4.2,5.1,3.7,9.5,8.7,10.9,5,1.4,10.2-.6,13-4.9,1.4-2.2,2-4.6,2-7.2,0-18.8,0-37.6,0-56.8M239.9,232.9c-1,2.1-1.2,4.4-1.2,6.7,0,46.2,0,92.5,0,138.7,0,.8,0,1.6,0,2.4.3,5.8,4.8,10.6,10.6,11.2,5.3.6,11.1-2.7,12.7-8.8.4-1.3.4-2.6.4-4,0-46.7,0-93.4,0-140.1,0-.6,0-1.3,0-1.9-.6-7.3-7.4-12.5-14.8-10.6-3.4.9-5.9,2.9-7.7,6.3M298.1,382c0,.4.2.8.3,1.1,1.5,5.4,6.2,9,11.7,8.8,5.4-.1,10.1-3.8,11.3-9.4.2-1.1.3-2.2.3-3.3,0-46.8,0-93.6,0-140.3,0-.4,0-.8,0-1.2,0-5.6-4.3-10.7-10.3-11.5-7.1-.9-12,4.1-13.1,8.8-.3,1.5-.4,3-.4,4.5,0,46.3,0,92.6,0,138.9,0,1,0,2,.1,3.5Z"/>
  <path class="st2" d="M337.7,155.1c-68,0-135.8,0-203.6,0-1.7,0-3.3,0-4.9-.4-5.6-1.5-9.4-6.9-8.8-12.7.6-5.8,5.5-10.3,11.3-10.5.8,0,1.6,0,2.4,0,77.7,0,155.3,0,233,0,1.7,0,3.5,0,5.2.4,5.1,1.5,8.6,6.1,8.6,11.5,0,5.3-3.7,10-8.8,11.3-1.3.3-2.6.4-4,.4-10,0-20,0-30.3,0Z"/>
  <path class="st2" d="M268.6,84.1c2.2,0,4.2,0,6.2,0,6,.2,11,5,11.3,11,.2,3.9,0,7.9,0,11.8,0,.1,0,.3-.2.6-.4,0-.8.2-1.3.3-.5,0-1.1,0-1.7,0-21.6,0-43.2,0-64.8,0-.9,0-1.9.1-2.9-.2,0-.4-.2-.8-.2-1.2,0-3.5,0-7.1,0-10.6.1-5.6,3.9-10.2,9.3-11.4,1.1-.3,2.3-.3,3.5-.3,13.5,0,27,0,40.7,0Z"/>
  <path class="st3" d="M203.2,322.8c0,19,0,37.8,0,56.6,0,2.6-.5,5-2,7.2-2.8,4.3-8.1,6.3-13,4.9-5-1.4-8.5-5.7-8.7-10.9,0-.8,0-1.6,0-2.4,0-46.2,0-92.3,0-138.5,0-1.6,0-3.1.4-4.7,1.1-4.7,6-9.7,13.1-8.8,5.9.8,10,5.7,10.2,11.3,0,.8,0,1.6,0,2.4,0,27.5,0,55.1,0,82.9Z"/>
  <path class="st3" d="M240,232.7c1.7-3.3,4.2-5.3,7.6-6.2,7.4-1.9,14.3,3.3,14.8,10.6,0,.6,0,1.3,0,1.9,0,46.7,0,93.4,0,140.1,0,1.3,0,2.7-.4,4-1.6,6.1-7.4,9.3-12.7,8.8-5.8-.6-10.3-5.4-10.6-11.2,0-.8,0-1.6,0-2.4,0-46.2,0-92.5,0-138.7,0-2.3.1-4.6,1.2-6.9Z"/>
  <path class="st3" d="M298,381.8c0-1.2,0-2.3,0-3.3,0-46.3,0-92.6,0-138.9,0-1.5,0-3,.4-4.5,1.1-4.7,5.9-9.7,13.1-8.8,6,.7,10.2,5.9,10.3,11.5,0,.4,0,.8,0,1.2,0,46.8,0,93.6,0,140.3,0,1.1,0,2.2-.3,3.3-1.1,5.6-5.9,9.2-11.3,9.4-5.5.1-10.2-3.4-11.7-8.8-.1-.4-.2-.8-.3-1.4Z"/>
</svg>