<?xml version="1.0" encoding="UTF-8"?>
<svg id="Layer_1" xmlns="http://www.w3.org/2000/svg" version="1.1" xmlns:sketch="http://www.bohemiancoding.com/sketch/ns" viewBox="0 0 800 800">
  <!-- Generator: Adobe Illustrator 29.5.0, SVG Export Plug-In . SVG Version: 2.1.0 Build 137)  -->
  <defs>
    <style>
      .st0 {
        fill: #666766;
      }

      .st0, .st1 {
        fill-rule: evenodd;
      }

      .st2 {
        fill: #d2e8ca;
      }

      .st1 {
        fill: #21b24b;
      }

      .st3 {
        fill: #d1d3d4;
      }
    </style>
  </defs>
  <circle class="st2" cx="1506.6" cy="577.7" r="527.7"/>
  <g id="Page-1" sketch:type="MSPage">
    <g id="Icon-Set" sketch:type="MSLayerGroup">
      <path id="trash" class="st1" d="M1756.6,377.7h-500c-13.8,0-25-11.2-25-25s11.2-25,25-25h500c13.8,0,25,11.2,25,25s-11.2,25-25,25h0ZM1731.6,877.7c0,27.6-22.4,50-50,50h-350c-27.6,0-50-22.4-50-50v-450h450v450h0ZM1431.6,252.7c0-13.8,11.2-25,25-25h100c13.8,0,25,11.2,25,25v25h-150v-25h0ZM1781.6,277.7h-150v-50c0-27.6-22.4-50-50-50h-150c-27.6,0-50,22.4-50,50v50h-150c-27.6,0-50,22.4-50,50v50c0,27.6,22.4,50,50,50v450c0,55.2,44.8,100,100,100h350c55.2,0,100-44.8,100-100v-450c27.6,0,50-22.4,50-50v-50c0-27.6-22.4-50-50-50h0ZM1506.6,877.7c13.8,0,25-11.2,25-25v-300c0-13.8-11.2-25-25-25s-25,11.2-25,25v300c0,13.8,11.2,25,25,25h0ZM1381.6,877.7c13.8,0,25-11.2,25-25v-300c0-13.8-11.2-25-25-25s-25,11.2-25,25v300c0,13.8,11.2,25,25,25h0ZM1631.6,877.7c13.8,0,25-11.2,25-25v-300c0-13.8-11.2-25-25-25s-25,11.2-25,25v300c0,13.8,11.2,25,25,25h0Z" sketch:type="MSShapeGroup"/>
    </g>
  </g>
  <circle class="st3" cx="2764.5" cy="623.5" r="527.7"/>
  <g id="Page-11" data-name="Page-1" sketch:type="MSPage">
    <g id="Icon-Set1" data-name="Icon-Set" sketch:type="MSLayerGroup">
      <path id="trash1" data-name="trash" class="st0" d="M3014.5,423.5h-500c-13.8,0-25-11.2-25-25s11.2-25,25-25h500c13.8,0,25,11.2,25,25s-11.2,25-25,25h0ZM2989.5,923.5c0,27.6-22.4,50-50,50h-350c-27.6,0-50-22.4-50-50v-450h450v450h0ZM2689.5,298.5c0-13.8,11.2-25,25-25h100c13.8,0,25,11.2,25,25v25h-150v-25h0ZM3039.5,323.5h-150v-50c0-27.6-22.4-50-50-50h-150c-27.6,0-50,22.4-50,50v50h-150c-27.6,0-50,22.4-50,50v50c0,27.6,22.4,50,50,50v450c0,55.2,44.8,100,100,100h350c55.2,0,100-44.8,100-100v-450c27.6,0,50-22.4,50-50v-50c0-27.6-22.4-50-50-50h0ZM2764.5,923.5c13.8,0,25-11.2,25-25v-300c0-13.8-11.2-25-25-25s-25,11.2-25,25v300c0,13.8,11.2,25,25,25h0ZM2639.5,923.5c13.8,0,25-11.2,25-25v-300c0-13.8-11.2-25-25-25s-25,11.2-25,25v300c0,13.8,11.2,25,25,25h0ZM2889.5,923.5c13.8,0,25-11.2,25-25v-300c0-13.8-11.2-25-25-25s-25,11.2-25,25v300c0,13.8,11.2,25,25,25h0Z" sketch:type="MSShapeGroup"/>
    </g>
  </g>
</svg>